<?xml version="1.0" encoding="UTF-8"?>
<svg id="_圖層_2" data-name="圖層 2" xmlns="http://www.w3.org/2000/svg" viewBox="0 0 147.53 140">
  <defs>
    <style>
      .cls-1 {
        fill: #fff;
        stroke-width: 0px;
      }
    </style>
  </defs>
  <g id="_1" data-name=" 1">
    <g>
      <g>
        <g>
          <path class="cls-1" d="M10.79,57.55c.77.32.31.96,1.36.37.55-.32,1.3-.88,1.98-.6,3.53,1.51.24,10.75,1.31,13.52,1.08-2.58,1.82-5.51,1.35-8.26-.45-2.24-1.01-5.05,1.8-5.86,4.52-1.18,2.39,3.41,1.98,5.61,1.41-1.27,3.87-2.61,5.64-.97.49.46,2.73,2.01,2.8,2.56.04.51-1.78,1.03-2.07,1.65-.28.58-.5,1.19-1.46,1.24-1.73.13-3.34-1.4-4.99-.27-2.44,1.72-3,4.5-3.42,7.3-.97-2,.97-6.45,2.62-7.94.38-.47,3.91-2.9,5.77-2.46-2.24-1.66-6.76,2.34-7.61,3.82,1.85-4.15,1.83-8.2,1.31-8.47-.14-.05-.19,4.42-1.47,7.71-.78,1.9-1.27,3.94-1.64,6.02-.34-.49-.62-1.03-.86-1.57-1.67-3.89-.62-8.54-2.66-10.58-.26-.22.75,3.76.68,5.92-.96-1.63-3.04-3.25-5.1-3.9-4.07-1.36-7.65,1.62-6.75,3.5,2.11-2.96,5.25-3.04,6.46-2.66,3.21,1.05,5.37,3.45,5.81,6.83-3.92-3.43-8.56-5.04-13.5-2.32-1.15-6.51,6.34-8.82,9.5-5.56-.28-.74-.65-5.37,1.17-4.62Z"/>
          <path class="cls-1" d="M22.11,41.76c-.63.17-1.23.39-1.84.64-1.78-2.49-2.12-5.97-.72-9.48,1.91-4.59,4.98-6.98,7.27-7.44-1.23-.94-6.21,2.02-8.19,6.9-1.74,4.36-.69,8.16,1.1,10.25l-.58.27c-3.43-4.12-2.69-11.14,2.09-15.74,3.87-3.76,9.33-3.77,12.73-.63,3.13,2.89,4.79,7.83,2.98,11.1l-.2.32c-1.31,1.99-3.55,2.65-6.55,2.32-1.78-.18-3.48-1.32-1.11-2.1-2.17.54-4.81-1.03-3.1-1.84,2.29-1.12,5.53-1.39,6.86-3.67,1.35-2.14-.12-4.88-2.39-5.86-2.46-1.06-5.74.1-7.7,2.22,1.86.61,3.89-1.53,5.77-1.57.55-.03,3.3.54,2.54,1.69-.3.45-1.21-.36-1.58,0,.8.27,3.86,1.58,3.08,2.77-1.03,1.7-3.7,1.57-5.16.14-.24.7,1.04,1.19,1.28,1.71.48,1.02-1.85.86-2.24.77-2-.49-4.14-.74-4.77,1.87-.52,2.06-.19,3.91.45,5.37ZM34.22,31.46s-.07,1.21-.77,2.36c-.23.4-.54.81-.97,1.16-1.55,1.29-3.67,1.54-3.75,1.71h0c0,.2,2.45.18,4.12-1.31.48-.41.82-.84,1.06-1.26l.28-.54c.38-.91.4-1.86.08-2.1l-.04-.02ZM35.85,33.41c0,1.16-.29,2.21-.74,3.06-.67,1.11-3.12,2.74-4.35,2.11h0c.46,1.13,3.76-.11,4.83-1.94.47-.9.8-1.98.78-3.18-.02-2.36-1.07-4.75-2.3-6.11-1.24-1.38-2.28-1.98-2.46-1.75h0c.5.39,1.04.65,2.16,2.01,1.12,1.36,2.06,3.57,2.09,5.8ZM25.19,30.49c2.11-1.57,4.29-.03,4.5.12-.08-.1-.35-.64-1.2-1.05-.9-.43-2.44-.39-3.59.45-2.14,1.63-3.38,1.35-4.04,2.73-.14.28-.16.46-.13.47.5-1.02,3.22-1.8,4.46-2.73Z"/>
          <path class="cls-1" d="M18.04,55.62l-.46.17c.65-2.38,2.74-3.24,5.08-3.5.93.35,1.45,1.02,1.18,1.91-.25.96-.83,1.78-1.6,2.51-.5-.92-1.49-1.47-2.9-1.37.63-.75,1.27-1.43,2.44-1.96-1.66.26-2.64,1.13-3.74,2.24Z"/>
          <path class="cls-1" d="M10.24,56.25c-.46.12-.87.38-1.17.72-1.6-1.45-2.97-2.31-3.56-2.2.03-.02,1.39.89,3.18,2.74-.35.61-.54,1.36-.6,2.09-.39-.16-.78-.27-1.18-.34-.54-.49-1.06-1.02-1.54-1.61-2.87-3.44-1.98-8.99.6-8.18,1.6.46,2.84,1.89,3.8,3.33.25,1.29.79,3.38.49,3.45Z"/>
          <path class="cls-1" d="M15.29,46.73c2.12-3,9.08-5.69,12.25-4.67,1.45.4.35,1.59,1,2.43.78,1,2.28,1.28,3.05,2.29,1.88,2.26-3.06,1.16-1.49,3.2,1.18,1.36-4.88.69-5.45.73-4.3-.24-7.71,1.84-9.11,6.14-1.15-2.8,4.67-7.88,8.12-9.34-3.84.32-8.36,5.64-9.46,8.51,1.92-5.85,5.77-10.11,12.47-10.94-.18-.96-5.3.35-7.57,2.05-1.17.84-3.8,3.84-5.16,6.79.3-1.43.49-4.52.46-5.58-.35,1.93-.61,4.06-1.12,5.61-.06-4.78-.98-9.37-1.81-9.97.08.06,1.58,5.66.43,12.61-.43-3.62-1.13-6.49-2.91-9.67-.59-1.03-1.35-2.75-.6-4.1.78-1.32,2-.71,2.96-1.4,1.22-.92,2.31-3.36,3.58-1.15,1.04,1.79.54,4.48.35,6.48ZM24.21,49.46c.16.64,2.64-.67,3.97-.58-.17-.62-4.04.26-3.97.58Z"/>
        </g>
        <path class="cls-1" d="M38.46,32.68c1.98-.82,3.24-1.69,2.89-2.07-.93.66-1.99,1.1-3.01,1.55-.12-.46-.27-.92-.46-1.37.56-.62,1.02-1.28,1.25-1.86.84-2.03-2.98-5.93.7-6.15-.71-.67-4.25-1.62-3.5-3.1,1.59-2.87,4.87.74,5.64-.21-1.55.1-4.18-3.61.21-1.77,1.44.66,2.61,2.01,3.04,3.51.42,1.51-.37,3.01.43,4.47,1.61-3.47.57-8.74-4.21-9.31-2.27-.2-3.55,1.68-5.44,2.59-.9.44-.94-1.08-.87-1.56.2-1.52,1.2-3.08,2.56-4.04-1.65.15-3.7.91-3.84,2.78-.1,1.66,1.21,4.23-.91,5.3-2.27,1.24-3.78-4.43-3.42-5.96.74-4.2,5.57-7.63,9.85-7.38,4.8.22,8.03,4.93,9.54,8.65-1.28-5.28-1.33-12.26,8.75-15.91,7.01-2.51,15.37.64,16.06,7.69.37,3.03-1.66,6.1-3.99,8.07-2.39,1.92-5.15,2.8-7.93,1.06-2.11-1.38-4.76-5.21-2.4-7.11,1.14-.88,2.29.82,2.75,1.59.09.1,1.96,3.24,2.04,2.63.21-1.11-2.4-3.12-.2-3.44,1.52-.2,4.01.89,4.84-.92,1.77-3.49-3.12-7.8-5.96-7.19,2.59.68,4.24,2.25,4.49,3.95.54,3.73-1.52,3.07-3.63,2.12-.87-.38-.71,2.05-1.39,1.18-2.6-3.56-11.28-2.58-10.58,1.43.43-1.54,4.85-3.58,6.16-1.98.68.84-1.96,1.31-.56,2.23.89.6,1.52,1.18.6,2.03-.71.65-1.02,1.06-.12,1.53.87.47-.49,1.45-1.33,1.55-2.07.1-5.62.25-6.1,2.93,1.5-.27,2.47-1.65,3.92-2.09.77-.24,1.75-.09,2.36.53.71.74-.45,1.22.08,1.96.4.54,2.47,1.78,1.5,2.61-.6.48-2.51.26-2.73,1.18-.11.48.27.81.38,1.24.22.94-1.43,1.23-1.9,1.31-1.17.14-4.3-.63-5.11.36-2.1,2.45-6.38,5.15-10.27,6.66-.03-.43-.08-.86-.17-1.29ZM44.51,22.67c.07-1.34-1.16-2.6-1.22-3.1-.3.39.56,1.01.76,2.38.13.88.44,1.19.46.72ZM42.02,22.38c-.68.16.46.63.93,1.93.46,1.26.6,3.03-.19,4.65-.03.06.23-.18.27-.22,1.58-1.82.12-6.64-1.02-6.37ZM45.15,16.16c1,.9,1.99,2.86,1.82,4.85,0,.07.15-.29.18-.34,1.14-3.07-4.5-8.18-6.27-6.63,1.47-.19,3.37,1.27,4.28,2.12ZM46.5,13.57c-1.1-1.7-3.26-3.85-6.35-4.34-.52-.08-1.07-.1-1.65-.07-4.01.22-7.35,2.92-7.91,5.79-.48,2.21.38,4.01,1.4,4.43-2.58-3.26,1.09-9.09,6.29-9.37.59-.04,1.16,0,1.7.08,2.78.4,4.83,2.23,5.98,3.79,1.42,1.93,1.6,2.92,1.85,3.49.34-.44.04-1.72-1.3-3.8ZM61.97,15.82c-1.19-.74-2.25-2.57-2.26-4.08-.72,1.28.22,3.4,2.27,4.67,1.57.95,3.84,1.41,6.34,0,4.81-2.54,5.9-7.71,3.54-11.1,1.74,4.92-.37,8.37-3.67,10.29-1.98,1.18-4.54,1.23-6.21.22ZM67.31,3.19c5.13,3.1,4.12,7.9,1.82,9.73-1.78,1.37-3.54,1.04-4.41-.2-.04.28.14.59.48.88.79.67,2.52,1,4.39-.5,2.3-1.9,3.41-7.24-1.87-10.44-6.32-3.83-16.28,1.12-17.68,5.37,2.87-4.57,11.61-8.21,17.27-4.84ZM55.45,5.76c3.59-1.58,7.63-.4,8.23.91.74-.93-4.34-3.3-8.5-1.47-4.36,1.9-5.91,6.26-5.27,6.79.19-.87,1.19-4.32,5.55-6.22ZM55.36,10.51c-1.94.51-2.96,2.09-3.18,2.72.34.11.74-1.31,2.09-1.87.93-.41,1.58-.96,1.09-.85ZM50.97,17.27c.18.05,1.14-.57,2.32-.92,1.2-.37,2.41-.26,2.46-.47,0-.05-.04-.1-.13-.14-.37-.16-1.48-.32-2.5,0-1.32.38-2.38,1.36-2.17,1.52h.02ZM53.05,24.46c.95-.36,2-1.03,2.58-1.53.56-.52,1.32-.43,1.12-.52-.29-.17-.81-.13-1.4.26-.7.45-1.52.83-2.53,1.21-1.97.69-4.2.85-3.94,1.3.29.48,2.53-.16,4.17-.71ZM49.95,13.31c-.45,3.32-1.79,12.04-6.91,16.89,5.98-4.12,7.47-13.17,6.91-16.89Z"/>
        <path class="cls-1" d="M50.48,124.62c.62-.2,1.2-.52,1.71-.92,1.79,3.71,6.76,6.49,11.93,6.83,4.14.24,6.27-2.91,6.31-5.53-.64-.05-1.05,2.87-2,1.81-.77-.92-4.2.62-3.56-1.7.13-.47.72-.89.66-1.42-.06-.43-.74-.81-.32-1.27.9-1.02,3.17-1.12,4.26-.84-2.15-1.47-5.8-1.01-6.19,2.58-.1,1.04.6,2.98,1.64,3.42.41.15,2.5-.25,2.45.42-.13,2.86-5.2,3.09-7.03-.48-1.52-2.89-.26-6.7,1.89-8.73,5.02-4.91,10.47.75,11.48,7.01,1,7.66-6.91,12.1-14.91,10.23-1.38-.3-2.72-.75-3.99-1.34.21-.18.86-.29,1.59.03,2.33,1.02,6.4,1.61,6.37.99-2.95-.33-7.13-1.96-6.49-2.77,4.35,2.69,11.11,3.15,14.56-.75,2.28-2.56,2.35-6.47,1.27-9.2.54,3.19.39,6.07-1.59,8.52-2.08,2.57-7.19,3.22-10.94,1.82,1.39.34,2.95.4,4.15.3.57-.06,1.31-.27,1.34-.56-2.83.4-6.26-.5-8.29-1.31-.41-.37-.76-.75-1.01-1.16-1.44-2.28-3.38-4.26-5.31-5.98ZM66.77,118.51c1.54-.09,2.5.52,2.55.34.04-.04-.87-.86-2.54-.9-1.63-.04-4,1.21-5.36,3.59-1.36,2.39-.98,5.45.57,6.91,1.6,1.46,3.23,1.04,3.11.92.02-.12-1.4.05-2.7-1.31-1.27-1.35-1.58-4.02-.4-6.15,1.17-2.11,3.27-3.32,4.77-3.39ZM67.39,123.74c.95-.54,2.12-.87,2.06-1.07-.03-.14-1.2-.08-2.33.6-.59.36-.91,1.04-1.15,1.34-.28.35-.5.41-.53.47-.06.13.41.19.8-.17.41-.38.68-.88,1.15-1.16Z"/>
        <path class="cls-1" d="M49.12,117.84c1.34.09,3.24,2.17,3.28,3.26.08,2.23-3.38,2.7-4.96,2.83,2.43,1.32,7,5.48,7.77,8.38.17.7-1.6,1.35-1.81,2.34-.15.66-.33,3.31-1.75,2.83-.72-.24-1.02-.99-1.72-1.23-.74-.26-.99.64-1.68.38-1.54-.58-1.99-3.67-2.3-4.82-1.04-3.45-3.54-5.49-6.42-7.29,3.08,1.09,7.12,4.31,8.26,6.66.64-1.97-5.27-6.33-9.22-8.22,3.57,1.46,7.3,3.17,10.19,5.78,1.58,1.42,3.04,3.29,3.38,3.8.24-.84-1.72-2.79-3.08-4.12-2.72-2.67-6.1-4.68-9.73-5.8,2.39.58,4.94.49,7.04-.52,1.06-.51,2.74-1.12,2.55-1.68-.36.24-1.42.68-2.29.99-2.34.84-4.98.79-7.53.16,1.9-.13,3.7,0,5.31-1.05,1.35-.86,3.09-2.7,4.71-2.66ZM47.91,132.05c-.04.8,1.14,2.6,2.02,3.1-.16-.68-1.62-2.94-2.02-3.1Z"/>
        <path class="cls-1" d="M34.46,106.14c1.34-.82,2.78-.58,4.13-.74,1.7-.23,1.85-2.12,3.65-1.37,2.92,1.17,3.27,5.21,3.16,8.68,1.49-.78,3.3-1.09,4.12.39.26.58,1.15,3.45-.3,3.43-1.24-.04-4.35,1.13-5.61,1.65-1.36.61-2.63,1.8-4.17,2.07,1.31-1.02,3.46-2.73,4.44-3.02-.66-.07-1.7.33-2.73.84,1.35-1.24,2.75-2.46,4.59-2.96.9-.23,1.6-.1,2.22.23.26-.5-.82-1.09-2.65-.68-1.79.45-3.55,1.4-5.01,2.63,2.04-2.05,2.7-5.12,1.98-7.59-.87-2.95-4.07-3.41-4.12-2.3.48-.51,2.62.06,3.19,1.44,1.2,2.86.51,5.9-2.1,8.43-.42-.95,1.56-1.87,1.83-2.98.58-2.14-1.84-2.92-3.49-2.36.73-3.79-1.34-3.64-3.25-.94-.95,1.44-2.03.79-2.19-.87-.18-1.61.97-3.16,2.3-3.98ZM40.33,105.69c.43-.48,1.41-.46,2.41.31,1.02.86,1.75,2.19,1.83,3.03.25-.98-.51-2.61-1.67-3.58-1.11-.85-2.53-.42-2.57.24ZM33.48,108.06c-.58.98-.95,2.76-.48,3.19-.03-.63.05-1.7.85-3.01.88-1.44,1.76-1.99,2.28-2.03-.24-.23-1.76.38-2.65,1.86Z"/>
        <path class="cls-1" d="M41.13,133.47c-.03-1.4.36-1.68,1.81-1.66,3.05.03-2.81-4.64-3.34-5.19-2.55-2.13-5.5-3.54-7.97-5.78-1.03-.99-1.12-1.66.36-1.57,1.52.21,8.07,1.05,5.71-2.09-.75-1.07,3.58-2.72,1.95-4-1.2-.92-3.58,1.47-4.49.7-.4-.35.93-.95-.45-.87-1.17.03-2.3.66-3.43.98-1.31.38-2.8.5-4.11-.24-1.12-.62-1.51-.61-2.22-.66,1.22,1.35,4.36,2.63,7.03,2.6.34.03,4.88-.47,4.78-.12-.09.6-5.18,1.05-5.94.97-1.34-.08-2.73-.4-3.98-1.01,2.46,1.58,5.14,1.49,5.23,2.12-1.32.12-4.01-.36-5.72-1.75,1.13,1.04,2.3,2.03,3.24,3.28,1.44,1.82,2.65,3.96,4.13,5.83.85,1.21,5.36,5.04,5.32,6.56-1.11-1.12-7.25-7.4-7.79-8.47-1.7-2.34-2.96-4.2-5.23-6.03-1.39-1.13-4.04-4.11-5.64-4.53,1.97,2.93,5.08,4.63,7.32,7.31,2.23,2.66,2.84,5.39,3.36,8.58.31,2.11,1.84,5.34,3.88,3.48,1.16-1.09,3.14,3.47,4.08,3.92,2.01,1.03,2.13-1.41,2.12-2.35Z"/>
        <path class="cls-1" d="M9.72,91c1.95-3.82,5.64-6.05,8.52-6.14,2.4-.06,5.17.41,4.97,1.69-7.04-.44-12.04,4.48-8.88,12.4,1.34,3.03,3.22,2.18,5.46,1.24.43-.17,3.08-.72,2.72.54-.18.65-1.54,1.44-1.1,2.21,1.36-1.96,4.44-2.46,5.96-.74,1.1,1.21-2.15,3.27-2.99,3.74.49.35,1.37-.77,1.79-.31,1.12,1.13-1.89,2.39-2.5,2.47-2.1.35-4.9-1.74-6.82-.6,2.71,2.11,6.58,2.69,9.13.91,2.34-1.64,3.52-4.94,1.58-7.12-1.99-2.36-4.57-1.9-7.23-3.07-2-.94,1.96-2.64,2.85-2.6-2.45-1.13,1.43-2.28,2.35-2.48,2.53-.54,4.75.42,6.06,2.06,2.69,3.32,1.33,8.82-1.59,12.76-3.25,4.28-9.09,5.7-14.34,2.13-6.52-4.33-9.09-13.3-5.94-19.1ZM26.71,98.74c.58.33,1.02.73,1.37,1.14,1,1.21,1.31,2.51,1.31,2.53l.04-.03c.33-.32.15-1.37-.46-2.33-.12-.18-.25-.38-.41-.57-.35-.43-.84-.85-1.48-1.25-2.23-1.47-5.12-1.19-5.07-.96h0c.11.21,2.68.21,4.71,1.47ZM27.54,109.55c.26.23,1.29-.71,2.42-2.52,1.11-1.78,1.95-4.61,1.61-7.2-.21-1.29-.69-2.49-1.46-3.38-1.53-1.89-5.75-2.98-6.06-1.63h0c1.34-.87,4.58.72,5.52,1.88.74.85,1.18,2.01,1.39,3.27.32,2.44-.39,5.07-1.4,6.83-.99,1.77-1.54,2.19-2.02,2.74h0ZM13.94,102.28s.03.25.25.55c1.09,1.49,2.36.96,5.15,2.42,1.44.78,3.21.49,4.14-.2.88-.64,1.07-1.31,1.15-1.43-.21.19-2.41,2.45-5.07,1.01-1.62-.83-4.8-1.24-5.62-2.35ZM15.04,86.66c2.32-1.04,5.03-1.38,7.07-.74-.22-.48-2.03-.86-4.06-.6-1.88.24-3.11,1.1-3.02,1.33h0ZM12.98,88.65c-3.26,1.41-5.89,8.41-1.52,15.69,3.41,5.61,9.66,7.82,10.77,6.45-2.64-.02-6.62-2.1-9.88-7.31-3.25-5.3-2.76-11.46.64-14.82Z"/>
        <path class="cls-1" d="M24.92,78.21c.45,1.16-2.47,2.91-5.54,4.7-1.67.95-3.34,1.69-5.28,1.61.39-.15,5.52-2.02,6.33-3.42-1.3.88-7.04,3.19-8.67,2.81,4.91-1.13,10.63-4.96,10.28-6.28-1.95,2.79-9.87,5.6-11.98,5.52,3.13-.73,9.61-4.49,9.3-5.97-1.35,1.87-6.09,4.41-8.18,4.77,2.79-1.19,4.78-3.87,4.23-6.86-.45-2.36-3.3-4.03-3.75-3.47,3.35,1.78,4.88,5.87.79,8.81,1.84-2.11,1.08-3.99-.31-5.05-1.91-1.45-3.8-.91-4.17.17,1.24-.77,2.67-.51,3.64.19,1.23.91,1.84,2.5.43,4.17.41-1.56-.79-3.32-2.44-2.92-.85.22-.86,1.44-1.15,2.18-.76,2.07-2.18-1.83-1.86-4.25.96-6.91,10.3-5.49,9.64.74,1.04-1.42,2.12-2.86,3.94-3.32,1.73-.42,2.54.98,1.78,2.26,1.1-.87,3.69-1.44,3.99.22.26,1.04-1.68,2.66-2.75,3.62.54-.33,1.52-.73,1.71-.24Z"/>
      </g>
      <g>
        <g>
          <path class="cls-1" d="M136.74,82.46c-.77-.32-.31-.96-1.36-.37-.55.32-1.3.88-1.98.6-3.53-1.51-.24-10.75-1.31-13.51-1.08,2.58-1.82,5.51-1.35,8.26.45,2.24,1.02,5.05-1.79,5.86-4.52,1.18-2.39-3.41-1.98-5.61-1.41,1.27-3.87,2.61-5.64.97-.49-.46-2.73-2.01-2.8-2.55-.04-.52,1.78-1.04,2.07-1.65.28-.58.5-1.19,1.46-1.24,1.73-.12,3.34,1.4,5,.27,2.44-1.72,2.99-4.51,3.42-7.3.97,1.99-.97,6.45-2.62,7.94-.38.46-3.91,2.9-5.77,2.46,2.24,1.66,6.76-2.34,7.6-3.82-1.84,4.15-1.83,8.2-1.31,8.48.14.04.19-4.42,1.47-7.71.78-1.9,1.27-3.94,1.64-6.02.34.49.62,1.02.86,1.57,1.67,3.89.62,8.54,2.66,10.58.26.22-.75-3.76-.68-5.92.97,1.63,3.04,3.25,5.1,3.9,4.07,1.36,7.65-1.62,6.76-3.5-2.11,2.96-5.25,3.04-6.46,2.66-3.21-1.05-5.37-3.44-5.81-6.82,3.92,3.43,8.56,5.04,13.5,2.32,1.15,6.51-6.34,8.82-9.5,5.56.28.75.65,5.37-1.17,4.62Z"/>
          <path class="cls-1" d="M125.42,98.24c.63-.17,1.23-.39,1.84-.63,1.78,2.48,2.12,5.97.71,9.48-1.91,4.59-4.98,6.98-7.27,7.44,1.23.94,6.21-2.02,8.19-6.9,1.74-4.36.69-8.16-1.1-10.25l.58-.27c3.43,4.12,2.69,11.14-2.09,15.74-3.87,3.76-9.33,3.77-12.73.63-3.13-2.89-4.79-7.84-2.99-11.1l.2-.32c1.31-1.99,3.55-2.65,6.55-2.32,1.78.18,3.48,1.32,1.11,2.1,2.17-.54,4.81,1.03,3.1,1.84-2.29,1.12-5.53,1.39-6.86,3.68-1.35,2.14.12,4.88,2.39,5.86,2.46,1.06,5.74-.1,7.7-2.22-1.86-.61-3.89,1.53-5.77,1.57-.55.03-3.3-.54-2.54-1.69.3-.45,1.21.36,1.59,0-.8-.27-3.86-1.58-3.08-2.77,1.03-1.69,3.7-1.56,5.16-.15.24-.7-1.04-1.19-1.28-1.71-.48-1.02,1.85-.86,2.24-.77,2,.49,4.14.74,4.77-1.87.52-2.06.19-3.91-.44-5.37ZM113.31,108.55s.07-1.21.77-2.36c.23-.4.54-.81.97-1.16,1.55-1.29,3.67-1.54,3.75-1.71h0c0-.2-2.45-.18-4.12,1.31-.48.41-.82.84-1.06,1.26l-.28.54c-.38.91-.4,1.86-.08,2.1l.04.02ZM111.67,106.6c0-1.16.29-2.21.74-3.06.67-1.11,3.12-2.75,4.35-2.11h0c-.46-1.13-3.76.11-4.83,1.94-.47.91-.8,1.98-.78,3.18.02,2.36,1.07,4.75,2.3,6.11,1.24,1.38,2.28,1.98,2.46,1.75h0c-.5-.39-1.04-.65-2.16-2.02-1.12-1.36-2.06-3.57-2.09-5.79ZM122.34,109.52c-2.11,1.57-4.29.03-4.5-.13.08.1.35.64,1.2,1.05.9.43,2.44.38,3.59-.45,2.14-1.63,3.38-1.35,4.04-2.73.14-.27.16-.46.13-.47-.5,1.02-3.22,1.8-4.46,2.73Z"/>
          <path class="cls-1" d="M129.49,84.38l.45-.17c-.66,2.38-2.75,3.24-5.08,3.5-.93-.35-1.45-1.02-1.18-1.92.25-.95.83-1.77,1.6-2.5.5.92,1.49,1.47,2.9,1.37-.63.75-1.27,1.43-2.44,1.96,1.66-.26,2.64-1.13,3.74-2.24Z"/>
          <path class="cls-1" d="M137.29,83.76c.46-.12.87-.38,1.17-.72,1.6,1.45,2.97,2.3,3.56,2.2-.03.02-1.39-.89-3.18-2.74.35-.61.54-1.36.6-2.09.39.16.78.27,1.18.34.54.49,1.06,1.02,1.54,1.61,2.86,3.44,1.98,8.99-.6,8.18-1.6-.47-2.84-1.89-3.8-3.33-.26-1.29-.79-3.38-.49-3.45Z"/>
          <path class="cls-1" d="M132.23,93.27c-2.12,3-9.08,5.69-12.25,4.67-1.45-.4-.35-1.59-1-2.43-.78-1-2.28-1.28-3.05-2.29-1.88-2.25,3.06-1.16,1.49-3.2-1.18-1.36,4.88-.68,5.45-.73,4.3.24,7.71-1.84,9.11-6.14,1.15,2.79-4.68,7.87-8.12,9.34,3.84-.32,8.36-5.63,9.45-8.51-1.92,5.86-5.77,10.12-12.47,10.94.18.96,5.3-.35,7.57-2.05,1.16-.85,3.8-3.84,5.15-6.79-.3,1.43-.49,4.52-.46,5.58.35-1.93.61-4.07,1.12-5.61.06,4.78.98,9.37,1.81,9.97-.08-.06-1.58-5.66-.44-12.61.43,3.62,1.13,6.49,2.91,9.67.59,1.04,1.35,2.75.6,4.11-.78,1.32-2,.71-2.96,1.4-1.22.92-2.31,3.35-3.58,1.15-1.04-1.79-.54-4.48-.35-6.48ZM123.32,90.54c-.16-.64-2.65.67-3.97.58.17.62,4.04-.26,3.97-.58Z"/>
        </g>
        <path class="cls-1" d="M109.07,107.32c-1.98.82-3.24,1.69-2.89,2.07.93-.66,1.99-1.1,3.01-1.55.12.46.27.92.46,1.37-.56.62-1.02,1.28-1.25,1.86-.84,2.03,2.98,5.93-.71,6.15.71.67,4.25,1.62,3.5,3.1-1.59,2.87-4.87-.74-5.64.21,1.55-.1,4.18,3.6-.21,1.77-1.44-.65-2.61-2.01-3.04-3.51-.42-1.51.37-3.01-.43-4.48-1.61,3.47-.57,8.74,4.21,9.31,2.27.2,3.55-1.68,5.44-2.59.9-.44.94,1.07.87,1.56-.2,1.52-1.2,3.08-2.56,4.04,1.65-.15,3.7-.91,3.84-2.78.1-1.65-1.21-4.23.91-5.3,2.27-1.25,3.78,4.43,3.42,5.96-.74,4.2-5.57,7.63-9.85,7.38-4.8-.22-8.03-4.94-9.54-8.65,1.28,5.28,1.33,12.26-8.75,15.91-7.01,2.51-15.37-.64-16.06-7.69-.37-3.03,1.66-6.1,3.98-8.07,2.39-1.92,5.15-2.8,7.93-1.06,2.11,1.38,4.76,5.21,2.4,7.11-1.14.88-2.29-.81-2.75-1.59-.09-.09-1.96-3.24-2.04-2.62-.21,1.11,2.4,3.12.2,3.43-1.52.2-4.01-.89-4.84.92-1.77,3.49,3.12,7.8,5.96,7.2-2.59-.69-4.24-2.25-4.49-3.95-.54-3.73,1.52-3.07,3.63-2.11.87.38.71-2.05,1.39-1.18,2.6,3.57,11.28,2.58,10.58-1.43-.43,1.54-4.85,3.58-6.16,1.98-.68-.84,1.96-1.31.56-2.23-.89-.6-1.52-1.18-.6-2.03.71-.65,1.02-1.06.12-1.52-.87-.47.49-1.45,1.33-1.55,2.07-.1,5.62-.25,6.1-2.93-1.5.27-2.47,1.66-3.92,2.09-.77.25-1.75.09-2.36-.53-.71-.75.44-1.22-.08-1.96-.4-.54-2.47-1.78-1.5-2.61.6-.48,2.51-.26,2.73-1.18.11-.48-.27-.81-.38-1.25-.22-.93,1.43-1.23,1.9-1.31,1.17-.14,4.3.63,5.11-.37,2.1-2.45,6.38-5.14,10.27-6.66.03.43.08.86.17,1.29ZM103.02,117.33c-.07,1.35,1.16,2.6,1.22,3.11.3-.39-.56-1.01-.76-2.39-.13-.88-.44-1.18-.46-.72ZM105.51,117.62c.68-.16-.46-.63-.93-1.93-.46-1.26-.6-3.03.19-4.65.03-.06-.23.18-.27.22-1.58,1.82-.12,6.64,1.01,6.37ZM102.38,123.85c-1-.9-1.99-2.86-1.82-4.85,0-.07-.15.29-.18.34-1.14,3.07,4.5,8.18,6.28,6.63-1.47.19-3.37-1.27-4.28-2.12ZM101.03,126.43c1.1,1.7,3.26,3.85,6.35,4.34.52.07,1.08.1,1.65.07,4.01-.22,7.35-2.91,7.91-5.79.48-2.21-.38-4.01-1.4-4.43,2.57,3.26-1.09,9.09-6.29,9.37-.59.03-1.16,0-1.7-.08-2.78-.4-4.83-2.23-5.98-3.79-1.41-1.93-1.6-2.92-1.85-3.49-.34.44-.03,1.73,1.3,3.8ZM85.55,124.18c1.19.74,2.25,2.57,2.26,4.08.72-1.28-.22-3.4-2.26-4.67-1.57-.95-3.85-1.41-6.34,0-4.81,2.54-5.9,7.71-3.54,11.1-1.74-4.92.37-8.37,3.67-10.29,1.98-1.17,4.54-1.22,6.21-.21ZM80.22,136.81c-5.13-3.1-4.12-7.9-1.82-9.73,1.78-1.37,3.54-1.04,4.41.2.04-.27-.14-.59-.48-.88-.79-.67-2.52-1-4.39.5-2.3,1.9-3.41,7.24,1.87,10.44,6.32,3.83,16.28-1.12,17.68-5.37-2.87,4.57-11.61,8.21-17.27,4.84ZM92.08,134.25c-3.59,1.58-7.63.4-8.23-.91-.74.93,4.34,3.3,8.5,1.47,4.36-1.9,5.91-6.26,5.27-6.79-.19.87-1.2,4.32-5.55,6.22ZM92.17,129.49c1.94-.52,2.96-2.09,3.18-2.72-.34-.11-.74,1.31-2.09,1.87-.93.41-1.58.96-1.09.85ZM96.56,122.74c-.18-.05-1.14.57-2.32.92-1.2.37-2.42.26-2.47.46,0,.05.04.1.13.14.37.16,1.48.32,2.5,0,1.32-.38,2.38-1.36,2.17-1.52h-.02ZM94.48,115.54c-.95.36-2,1.03-2.58,1.53-.56.52-1.32.43-1.12.52.29.17.82.13,1.4-.26.7-.45,1.53-.83,2.53-1.21,1.97-.69,4.2-.85,3.94-1.3-.29-.48-2.53.16-4.17.71ZM97.58,126.69c.45-3.32,1.79-12.04,6.91-16.89-5.98,4.12-7.47,13.17-6.91,16.89Z"/>
        <path class="cls-1" d="M97.05,15.38c-.62.19-1.2.52-1.71.92-1.79-3.71-6.76-6.49-11.93-6.83-4.14-.24-6.27,2.91-6.31,5.53.64.05,1.05-2.87,2-1.81.77.92,4.2-.62,3.56,1.7-.13.47-.72.89-.66,1.42.06.43.74.81.32,1.27-.9,1.02-3.17,1.12-4.26.84,2.16,1.47,5.8,1.01,6.19-2.58.1-1.04-.6-2.98-1.64-3.42-.41-.15-2.5.25-2.45-.42.13-2.86,5.2-3.09,7.03.48,1.52,2.89.26,6.7-1.89,8.73-5.02,4.91-10.47-.75-11.48-7.01-1-7.66,6.91-12.1,14.91-10.23,1.38.3,2.72.75,3.99,1.33-.21.18-.86.29-1.59-.03-2.33-1.02-6.4-1.61-6.37-.99,2.95.33,7.13,1.96,6.49,2.77-4.35-2.69-11.11-3.16-14.56.75-2.28,2.56-2.35,6.47-1.27,9.2-.54-3.19-.39-6.07,1.59-8.52,2.08-2.57,7.19-3.22,10.94-1.82-1.39-.34-2.95-.4-4.15-.29-.57.06-1.32.27-1.34.56,2.83-.4,6.26.5,8.29,1.31.41.37.76.75,1.01,1.16,1.44,2.28,3.38,4.26,5.31,5.98ZM80.76,21.5c-1.54.09-2.5-.52-2.55-.34-.04.04.87.86,2.54.9,1.63.04,4-1.21,5.36-3.59,1.36-2.39.98-5.46-.57-6.91-1.6-1.46-3.23-1.04-3.11-.92-.02.12,1.4-.05,2.7,1.31,1.27,1.35,1.58,4.02.4,6.15-1.17,2.11-3.27,3.32-4.77,3.39ZM80.14,16.26c-.95.55-2.12.87-2.06,1.07.03.14,1.2.08,2.33-.59.59-.36.91-1.04,1.15-1.34.29-.35.5-.41.53-.48.06-.13-.41-.19-.8.17-.41.38-.68.88-1.15,1.16Z"/>
        <path class="cls-1" d="M98.41,22.16c-1.34-.09-3.24-2.17-3.28-3.26-.08-2.23,3.38-2.7,4.96-2.83-2.43-1.32-7-5.48-7.77-8.38-.17-.69,1.6-1.35,1.81-2.34.15-.66.33-3.31,1.75-2.83.72.24,1.02.99,1.72,1.23.74.26.99-.64,1.68-.38,1.54.58,1.99,3.67,2.3,4.82,1.04,3.46,3.54,5.49,6.42,7.29-3.08-1.09-7.12-4.31-8.26-6.65-.64,1.97,5.27,6.33,9.22,8.22-3.57-1.46-7.3-3.16-10.19-5.78-1.58-1.42-3.04-3.29-3.38-3.8-.24.83,1.72,2.79,3.08,4.12,2.72,2.67,6.1,4.68,9.73,5.8-2.39-.58-4.94-.49-7.04.52-1.06.51-2.74,1.12-2.55,1.68.36-.24,1.42-.68,2.29-.99,2.34-.84,4.98-.79,7.53-.16-1.9.13-3.7.01-5.31,1.05-1.35.86-3.09,2.7-4.71,2.66ZM99.62,7.95c.04-.8-1.14-2.6-2.02-3.1.16.68,1.62,2.94,2.02,3.1Z"/>
        <path class="cls-1" d="M113.07,33.86c-1.34.82-2.78.59-4.13.74-1.7.23-1.85,2.12-3.65,1.36-2.92-1.17-3.27-5.21-3.16-8.68-1.49.78-3.3,1.09-4.12-.38-.25-.58-1.14-3.45.3-3.43,1.24.04,4.35-1.13,5.61-1.65,1.36-.61,2.63-1.8,4.17-2.07-1.31,1.02-3.46,2.73-4.44,3.02.66.07,1.7-.33,2.73-.84-1.35,1.24-2.75,2.46-4.59,2.97-.89.23-1.6.1-2.22-.23-.26.51.82,1.1,2.65.68,1.78-.45,3.55-1.4,5-2.64-2.04,2.06-2.7,5.12-1.98,7.59.87,2.96,4.07,3.41,4.12,2.3-.48.51-2.62-.05-3.2-1.44-1.2-2.86-.51-5.91,2.1-8.43.42.95-1.56,1.87-1.83,2.98-.58,2.14,1.84,2.92,3.49,2.36-.73,3.79,1.34,3.64,3.25.94.95-1.44,2.03-.79,2.19.86.18,1.61-.97,3.16-2.3,3.98ZM107.2,34.31c-.43.48-1.41.46-2.41-.32-1.02-.86-1.75-2.18-1.83-3.03-.25.98.51,2.61,1.67,3.58,1.11.85,2.53.41,2.57-.24ZM114.05,31.94c.58-.98.96-2.76.48-3.19.03.63-.05,1.7-.85,3.01-.88,1.44-1.76,1.99-2.28,2.03.24.23,1.76-.38,2.65-1.86Z"/>
        <path class="cls-1" d="M106.4,6.53c.03,1.4-.36,1.68-1.82,1.66-3.05-.03,2.82,4.64,3.34,5.19,2.55,2.13,5.5,3.55,7.97,5.78,1.03.98,1.12,1.66-.36,1.57-1.52-.21-8.07-1.05-5.71,2.09.75,1.07-3.59,2.72-1.95,4,1.2.92,3.57-1.47,4.49-.7.4.35-.93.95.45.87,1.17-.03,2.3-.66,3.43-.98,1.31-.38,2.8-.5,4.11.24,1.12.62,1.51.61,2.21.66-1.22-1.35-4.36-2.63-7.03-2.6-.34-.04-4.88.47-4.78.12.09-.59,5.18-1.05,5.94-.97,1.34.07,2.73.4,3.98,1.01-2.46-1.58-5.14-1.49-5.23-2.12,1.32-.12,4.01.36,5.72,1.75-1.13-1.04-2.3-2.03-3.24-3.28-1.44-1.82-2.64-3.96-4.13-5.83-.85-1.21-5.36-5.04-5.32-6.56,1.11,1.12,7.25,7.4,7.79,8.47,1.7,2.34,2.96,4.2,5.23,6.02,1.39,1.13,4.04,4.11,5.64,4.53-1.97-2.93-5.08-4.63-7.32-7.31-2.23-2.66-2.84-5.39-3.36-8.58-.31-2.1-1.84-5.33-3.88-3.48-1.16,1.09-3.13-3.47-4.08-3.93-2.01-1.02-2.13,1.41-2.12,2.36Z"/>
        <path class="cls-1" d="M137.81,49c-1.95,3.82-5.64,6.05-8.52,6.14-2.4.06-5.17-.4-4.97-1.69,7.04.44,12.04-4.48,8.88-12.39-1.34-3.03-3.22-2.19-5.46-1.25-.43.16-3.08.72-2.72-.54.18-.65,1.54-1.44,1.1-2.21-1.36,1.96-4.44,2.46-5.96.74-1.1-1.21,2.15-3.27,2.98-3.75-.49-.34-1.37.77-1.79.31-1.12-1.13,1.89-2.39,2.5-2.47,2.1-.35,4.9,1.74,6.82.6-2.71-2.11-6.58-2.69-9.13-.92-2.34,1.64-3.52,4.94-1.58,7.13,1.99,2.36,4.57,1.9,7.23,3.07,2,.94-1.96,2.64-2.85,2.6,2.45,1.13-1.44,2.28-2.35,2.48-2.53.54-4.75-.42-6.06-2.06-2.69-3.31-1.33-8.82,1.59-12.76,3.25-4.29,9.09-5.7,14.34-2.13,6.52,4.33,9.09,13.3,5.94,19.1ZM120.82,41.27c-.58-.33-1.02-.73-1.36-1.15-1-1.2-1.31-2.51-1.31-2.53l-.04.04c-.33.32-.15,1.36.46,2.33.11.19.25.38.41.57.35.43.84.85,1.48,1.25,2.23,1.47,5.12,1.19,5.07.96h0c-.11-.21-2.68-.21-4.71-1.47ZM119.99,30.45c-.26-.23-1.29.71-2.43,2.52-1.11,1.78-1.95,4.61-1.6,7.19.21,1.29.69,2.49,1.46,3.38,1.53,1.89,5.75,2.98,6.06,1.63h0c-1.34.86-4.58-.72-5.52-1.88-.74-.85-1.18-2.01-1.39-3.28-.32-2.43.39-5.07,1.4-6.83.99-1.77,1.54-2.19,2.03-2.74h0ZM133.59,37.72s-.03-.24-.25-.55c-1.09-1.49-2.36-.96-5.15-2.42-1.44-.78-3.21-.48-4.14.2-.88.64-1.07,1.31-1.15,1.43.21-.19,2.4-2.45,5.07-1.01,1.62.83,4.8,1.24,5.62,2.34ZM132.49,53.34c-2.32,1.05-5.03,1.39-7.07.74.23.47,2.03.86,4.06.6,1.88-.25,3.11-1.1,3.02-1.33h0ZM134.55,51.35c3.26-1.42,5.89-8.41,1.52-15.69-3.41-5.61-9.66-7.82-10.77-6.45,2.64.02,6.62,2.1,9.88,7.32,3.25,5.3,2.76,11.46-.64,14.82Z"/>
        <path class="cls-1" d="M122.6,61.79c-.45-1.17,2.47-2.92,5.54-4.71,1.67-.95,3.34-1.69,5.28-1.61-.39.15-5.52,2.02-6.33,3.42,1.3-.88,7.04-3.19,8.67-2.81-4.91,1.14-10.63,4.96-10.28,6.28,1.96-2.79,9.87-5.6,11.98-5.52-3.12.73-9.61,4.49-9.3,5.97,1.35-1.87,6.09-4.41,8.18-4.77-2.79,1.19-4.78,3.87-4.23,6.86.46,2.36,3.3,4.03,3.75,3.47-3.35-1.78-4.88-5.87-.79-8.81-1.84,2.11-1.07,3.99.31,5.05,1.91,1.45,3.8.91,4.16-.18-1.24.77-2.67.51-3.64-.19-1.23-.91-1.84-2.5-.43-4.17-.42,1.56.79,3.32,2.43,2.92.85-.22.86-1.44,1.15-2.18.76-2.07,2.18,1.83,1.86,4.25-.96,6.91-10.3,5.49-9.64-.74-1.04,1.42-2.12,2.86-3.93,3.32-1.73.42-2.54-.99-1.78-2.26-1.1.87-3.69,1.44-3.99-.22-.26-1.04,1.68-2.66,2.75-3.62-.54.33-1.52.73-1.71.24Z"/>
      </g>
    </g>
  </g>
</svg>