<?xml version="1.0" encoding="utf-8"?>
<!-- Generator: Adobe Illustrator 28.2.0, SVG Export Plug-In . SVG Version: 6.00 Build 0)  -->
<svg version="1.1" id="_x32_" xmlns="http://www.w3.org/2000/svg" xmlns:xlink="http://www.w3.org/1999/xlink" x="0px" y="0px"
	 viewBox="0 0 128 128" style="enable-background:new 0 0 128 128;" xml:space="preserve">
<style type="text/css">
	.st0{fill:#1D2238;}
	.st1{fill:#272531;}
	.st2{fill:#3F3E47;}
	.st3{fill:#2A2933;}
	.st4{fill:#1B1B23;}
</style>
<g>
	<rect class="st0" width="128" height="128"/>
</g>
<g>
	<path class="st1" d="M32,51.6c-0.1,0-0.2,0-0.3,0c-2-0.3-3.6-2-4.4-3.5c-0.1-0.2-0.2-0.4-0.3-0.7c-0.3,0-0.7,0.1-1,0.1
		c-2.5,0-4.8-1.3-6.2-3.6c-1.4-2.3-1.6-4.9-0.5-6.9c0.3-0.6,0.8-1.1,1.3-1.5c-0.5,0.2-1.1,0.4-1.7,0.4c-0.3,0-0.6,0-1-0.1
		c-0.6,0.4-1.2,0.7-2,0.7c-1.4,0-2.7-0.9-3.1-2.3c-0.8-2.9-0.6-5.4,0.8-7.3c1.3-1.7,3.3-2.6,5.9-2.8c0.4-0.3,0.9-0.5,1.4-0.6
		c-0.4-1.2-0.4-2.4-0.1-3.4c0.5-1.9,2-3.1,3.9-3.1c0.4,0,0.9,0.1,1.4,0.2c0.9-2.1,2.8-3.8,4.9-4.6c0.3-0.1,0.6-0.2,0.9-0.2
		c0.3,0,0.6,0.1,0.9,0.2c2.2,0.8,4,2.5,4.9,4.6c0.5-0.1,0.9-0.2,1.3-0.2c1.9,0,3.4,1.2,3.9,3.1c0.3,1,0.2,2.2-0.1,3.4
		c0.5,0.1,0.9,0.3,1.4,0.6c2.7,0.2,4.7,1.1,6,2.8c1.4,1.9,1.7,4.4,0.8,7.3c-0.4,1.4-1.6,2.3-3.1,2.3l0,0c-0.7,0-1.4-0.2-2-0.7
		c-0.3,0.1-0.6,0.1-1,0.1c-0.6,0-1.1-0.1-1.7-0.4c0.5,0.4,1,0.9,1.3,1.5c1.1,2,0.9,4.6-0.5,6.9c-1.4,2.3-3.6,3.6-6.2,3.6
		c-0.3,0-0.7,0-1-0.1c-0.1,0.2-0.2,0.5-0.3,0.7c-0.8,1.5-2.4,3.2-4.4,3.5C32.2,51.6,32.1,51.6,32,51.6z"/>
	<g>
		<path class="st2" d="M32,52.3c-0.1,0-0.3,0-0.4,0c-2.3-0.3-4.1-2.2-5-3.9c0-0.1-0.1-0.2-0.1-0.2c-0.2,0-0.3,0-0.5,0
			c-2.8,0-5.3-1.4-6.8-3.9c-1.6-2.5-1.7-5.5-0.5-7.7c0,0,0,0,0-0.1c-0.2,0-0.3,0-0.5-0.1c-0.6,0.4-1.4,0.6-2.1,0.6
			c-1.8,0-3.3-1.2-3.8-2.9c-0.9-3.2-0.6-5.9,0.9-8c1.4-1.8,3.5-2.9,6.3-3.1c0.2-0.1,0.5-0.2,0.7-0.3c-0.2-1.1-0.2-2.1,0-3.1
			c0.6-2.2,2.4-3.7,4.6-3.7c0.3,0,0.6,0,0.9,0.1c1.1-2,3-3.6,5.1-4.4c0.4-0.1,0.8-0.2,1.2-0.2c0.4,0,0.8,0.1,1.2,0.2
			c2.1,0.7,4,2.4,5.1,4.4c0.3-0.1,0.6-0.1,0.9-0.1c2.2,0,4.1,1.4,4.6,3.7c0.2,0.9,0.3,2,0,3.1c0.2,0.1,0.5,0.2,0.7,0.3
			c2.8,0.2,5,1.3,6.3,3.1c1.5,2,1.9,4.8,0.9,8c-0.5,1.7-2,2.9-3.8,2.9c-0.7,0-1.5-0.2-2.1-0.6c-0.2,0-0.3,0-0.5,0.1c0,0,0,0,0,0.1
			c1.2,2.2,1,5.2-0.5,7.7c-1.5,2.5-4,3.9-6.8,3.9c-0.2,0-0.3,0-0.5,0c0,0.1-0.1,0.2-0.1,0.2c-0.9,1.7-2.7,3.6-5,3.9
			C32.3,52.3,32.1,52.3,32,52.3z"/>
		<path class="st3" d="M50.3,26.8c-1.3-1.7-3.3-2.6-6-2.8c-0.4-0.3-0.9-0.5-1.4-0.6c0.4-1.2,0.4-2.4,0.1-3.4c-0.5-1.9-2-3.1-3.9-3.1
			c-0.4,0-0.9,0.1-1.3,0.2c-0.9-2.1-2.8-3.8-4.9-4.6c-0.3-0.1-0.6-0.2-0.9-0.2c-0.3,0-0.6,0.1-0.9,0.2c-2.2,0.8-4,2.5-4.9,4.6
			c-0.5-0.1-0.9-0.2-1.4-0.2c-1.9,0-3.4,1.2-3.9,3.1c-0.3,1-0.2,2.2,0.1,3.4c-0.5,0.1-0.9,0.3-1.4,0.6c-2.7,0.2-4.7,1.1-5.9,2.8
			c-1.4,1.9-1.7,4.4-0.8,7.3c0.4,1.4,1.6,2.3,3.1,2.3c0.7,0,1.4-0.2,2-0.7c0.3,0.1,0.6,0.1,1,0.1c0.6,0,1.1-0.1,1.7-0.4
			c-0.5,0.4-1,0.9-1.3,1.5c-1.1,2-0.9,4.6,0.5,6.9c1.4,2.3,3.6,3.6,6.2,3.6c0.3,0,0.7,0,1-0.1c0.1,0.2,0.2,0.5,0.3,0.7
			c0.8,1.5,2.4,3.2,4.4,3.5c0.1,0,0.2,0,0.3,0c0.1,0,0.2,0,0.3,0c2-0.3,3.6-2,4.4-3.5c0.1-0.2,0.2-0.4,0.3-0.7c0.3,0,0.7,0.1,1,0.1
			c2.5,0,4.8-1.3,6.2-3.6c1.4-2.3,1.6-4.9,0.5-6.9c-0.3-0.6-0.8-1.1-1.3-1.5c0.5,0.2,1.1,0.4,1.7,0.4c0.3,0,0.6,0,1-0.1
			c0.6,0.4,1.2,0.7,2,0.7l0,0c1.4,0,2.7-0.9,3.1-2.3C51.9,31.1,51.6,28.6,50.3,26.8z"/>
	</g>
	<g>
		<path class="st4" d="M32,49.8L32,49.8c-0.3,0-0.5,0.2-0.5,0.5c0,0.3,0.2,0.5,0.5,0.5l0,0c0.3,0,0.5-0.2,0.5-0.5
			C32.5,50,32.3,49.8,32,49.8L32,49.8z M32.6,49.6L32.6,49.6c-0.2,0.1-0.4,0.3-0.3,0.6s0.3,0.4,0.6,0.3l0,0c0.2-0.1,0.4-0.3,0.3-0.6
			C33.1,49.7,32.8,49.6,32.6,49.6L32.6,49.6z M34.2,48.6L34.2,48.6c-0.2,0.2-0.2,0.5,0,0.6c0.2,0.2,0.5,0.2,0.6,0l0,0
			c0.2-0.2,0.2-0.5,0-0.6C34.6,48.4,34.3,48.4,34.2,48.6L34.2,48.6z M35.3,47L35.3,47c-0.1,0.2,0,0.5,0.2,0.6c0.2,0.1,0.5,0,0.6-0.2
			l0,0c0.1-0.2,0-0.5-0.2-0.6C35.7,46.6,35.4,46.7,35.3,47L35.3,47z M37.4,45.6L37.4,45.6c-0.2,0-0.5,0.1-0.5,0.4s0.1,0.5,0.4,0.5
			l0,0c0.2,0,0.5-0.1,0.5-0.4C37.8,45.9,37.6,45.6,37.4,45.6L37.4,45.6z M39.3,45.5L39.3,45.5c-0.2,0.1-0.4,0.3-0.3,0.5
			c0.1,0.2,0.3,0.4,0.5,0.3c0.2-0.1,0.4-0.3,0.3-0.5C39.8,45.6,39.6,45.4,39.3,45.5z M41.1,44.7L41.1,44.7c-0.2,0.1-0.3,0.4-0.1,0.6
			s0.4,0.3,0.6,0.1l0,0c0.2-0.1,0.3-0.4,0.1-0.6S41.3,44.6,41.1,44.7L41.1,44.7z M42.5,43.3L42.5,43.3c-0.1,0.2-0.1,0.5,0.1,0.6
			c0.2,0.1,0.5,0.1,0.6-0.1l0,0c0.1-0.2,0.1-0.5-0.1-0.6C42.9,43,42.6,43.1,42.5,43.3L42.5,43.3z M43.4,41.5L43.4,41.5
			c-0.1,0.2,0.1,0.5,0.3,0.6c0.2,0.1,0.5-0.1,0.6-0.3l0,0c0.1-0.2-0.1-0.5-0.3-0.6C43.7,41.2,43.4,41.3,43.4,41.5L43.4,41.5z
			 M43.6,39.6L43.6,39.6c0,0.3,0.2,0.4,0.5,0.4c0.3,0,0.4-0.2,0.4-0.5l0,0c0-0.3-0.2-0.4-0.5-0.4C43.8,39.1,43.6,39.4,43.6,39.6
			L43.6,39.6z M43.1,37.8L43.1,37.8c0.1,0.2,0.4,0.3,0.6,0.2s0.3-0.4,0.2-0.6s-0.4-0.3-0.6-0.2C43,37.3,43,37.6,43.1,37.8z
			 M41.7,36.1L41.7,36.1c0.1,0.2,0.3,0.4,0.6,0.3c0.2-0.1,0.4-0.3,0.3-0.6l0,0c-0.1-0.2-0.3-0.4-0.6-0.3
			C41.7,35.6,41.6,35.9,41.7,36.1L41.7,36.1z M42.8,33.8L42.8,33.8c-0.2,0.1-0.4,0.4-0.3,0.6c0.1,0.2,0.4,0.4,0.6,0.3l0,0
			c0.2-0.1,0.4-0.4,0.3-0.6C43.3,33.8,43,33.7,42.8,33.8L42.8,33.8z M45,34L45,34c-0.3,0-0.5,0.2-0.5,0.4s0.2,0.5,0.4,0.5l0,0
			c0.3,0,0.5-0.2,0.5-0.4C45.5,34.2,45.3,34,45,34L45,34z M47.3,34.3L47.3,34.3c-0.2-0.1-0.5-0.1-0.6,0.1s-0.1,0.5,0.1,0.6l0,0
			c0.2,0.1,0.5,0.1,0.6-0.1C47.5,34.7,47.5,34.5,47.3,34.3L47.3,34.3z M48.8,34.3L48.8,34.3c-0.2,0.1-0.3,0.4-0.1,0.6
			c0.1,0.2,0.4,0.3,0.6,0.1c0.2-0.1,0.3-0.4,0.1-0.6S49,34.2,48.8,34.3z M49.5,32.8L49.5,32.8c-0.1,0.2,0.1,0.5,0.3,0.5
			s0.5-0.1,0.5-0.3s-0.1-0.5-0.3-0.5C49.8,32.3,49.6,32.5,49.5,32.8z M49.7,30.7L49.7,30.7c0,0.3,0.2,0.5,0.5,0.4s0.5-0.2,0.4-0.5
			l0,0c0-0.3-0.2-0.5-0.5-0.4C49.9,30.3,49.7,30.5,49.7,30.7L49.7,30.7z M49.3,28.8L49.3,28.8c0.1,0.2,0.4,0.3,0.6,0.2
			s0.3-0.4,0.2-0.6l0,0c-0.1-0.2-0.4-0.3-0.6-0.2C49.4,28.3,49.2,28.6,49.3,28.8L49.3,28.8z M48.3,27.3L48.3,27.3
			c0.2,0.2,0.5,0.2,0.6,0c0.2-0.2,0.2-0.5,0-0.6l0,0c-0.2-0.2-0.5-0.2-0.6,0C48.1,26.8,48.1,27.1,48.3,27.3L48.3,27.3z M46.6,26.3
			L46.6,26.3c0.2,0.1,0.5,0,0.6-0.3c0.1-0.2,0-0.5-0.3-0.6c-0.2-0.1-0.5,0-0.6,0.3C46.2,25.9,46.4,26.2,46.6,26.3z M44.6,25.8
			L44.6,25.8c0.2,0,0.5-0.2,0.5-0.4s-0.2-0.5-0.4-0.5l0,0c-0.2,0-0.5,0.2-0.5,0.4C44.2,25.6,44.4,25.8,44.6,25.8L44.6,25.8z
			 M42.5,25.2L42.5,25.2c0.2,0.1,0.5-0.1,0.6-0.3s-0.1-0.5-0.3-0.6l0,0c-0.2-0.1-0.5,0.1-0.6,0.3S42.3,25.1,42.5,25.2L42.5,25.2z
			 M41.1,23.1L41.1,23.1c0,0.2,0.1,0.5,0.4,0.5c0.2,0,0.5-0.1,0.5-0.4l0,0c0-0.2-0.1-0.5-0.4-0.5C41.4,22.7,41.2,22.8,41.1,23.1
			L41.1,23.1z M41.4,21.1L41.4,21.1c0,0.3,0.2,0.4,0.5,0.4c0.3,0,0.4-0.2,0.4-0.5c0-0.3-0.2-0.4-0.5-0.4
			C41.6,20.6,41.4,20.8,41.4,21.1z M40.8,19.4L40.8,19.4c0.2,0.2,0.5,0.2,0.6,0s0.2-0.5,0-0.6l0,0c-0.2-0.2-0.5-0.2-0.6,0
			C40.6,19,40.6,19.2,40.8,19.4L40.8,19.4z M39.2,18.8L39.2,18.8c0.3,0,0.5-0.2,0.5-0.5s-0.2-0.5-0.5-0.5l0,0
			c-0.3,0-0.5,0.2-0.5,0.5C38.7,18.6,38.9,18.8,39.2,18.8L39.2,18.8z M36.9,18.7L36.9,18.7c0.2,0.1,0.5,0.1,0.6-0.2s0.1-0.5-0.2-0.6
			l0,0c-0.2-0.1-0.5-0.1-0.6,0.2C36.6,18.3,36.7,18.6,36.9,18.7L36.9,18.7z M35.6,16.8L35.6,16.8c0.1,0.2,0.4,0.3,0.6,0.1
			c0.2-0.1,0.3-0.4,0.1-0.6l0,0c-0.1-0.2-0.4-0.3-0.6-0.1C35.5,16.3,35.4,16.6,35.6,16.8L35.6,16.8z M34.2,15.4L34.2,15.4
			c0.2,0.2,0.5,0.1,0.6-0.1c0.2-0.2,0.1-0.5-0.1-0.6l0,0c-0.2-0.2-0.5-0.1-0.6,0.1S34,15.2,34.2,15.4L34.2,15.4z M32.5,14.4
			L32.5,14.4c0.2,0.1,0.5,0,0.6-0.3s0-0.5-0.3-0.6s-0.5,0-0.6,0.3C32.1,14,32.3,14.3,32.5,14.4z M30.9,14.7L30.9,14.7
			c0.2-0.1,0.3-0.4,0.2-0.6s-0.4-0.3-0.6-0.2l0,0c-0.2,0.1-0.3,0.4-0.2,0.6C30.4,14.7,30.6,14.8,30.9,14.7L30.9,14.7z M29.3,15.8
			L29.3,15.8c0.2-0.2,0.2-0.5,0-0.6c-0.2-0.2-0.5-0.2-0.6,0l0,0c-0.2,0.2-0.2,0.5,0,0.6C28.8,16,29.1,16,29.3,15.8L29.3,15.8z
			 M28.1,17.4L28.1,17.4c0.1-0.2,0-0.5-0.2-0.6c-0.2-0.1-0.5,0-0.6,0.2l0,0c-0.1,0.2,0,0.5,0.2,0.6C27.7,17.7,27.9,17.7,28.1,17.4
			L28.1,17.4z M26.2,19L26.2,19c0.3,0,0.5-0.2,0.5-0.5s-0.2-0.5-0.5-0.5l0,0c-0.3,0-0.5,0.2-0.5,0.5S25.9,19,26.2,19L26.2,19z
			 M24.2,18.8L24.2,18.8c0.2-0.1,0.4-0.3,0.3-0.6s-0.3-0.4-0.6-0.3l0,0c-0.2,0.1-0.4,0.3-0.3,0.6C23.7,18.8,23.9,18.9,24.2,18.8
			L24.2,18.8z M22.9,19.9L22.9,19.9c0.1-0.2,0-0.5-0.2-0.6c-0.2-0.1-0.5,0-0.6,0.2s0,0.5,0.2,0.6C22.5,20.3,22.8,20.2,22.9,19.9z
			 M22.6,21.8L22.6,21.8c0-0.3-0.2-0.4-0.5-0.4c-0.3,0-0.4,0.2-0.4,0.5l0,0c0,0.3,0.2,0.4,0.5,0.4C22.4,22.2,22.6,22,22.6,21.8
			L22.6,21.8z M22.8,24.1L22.8,24.1c0.1-0.2,0-0.5-0.3-0.6s-0.5,0-0.6,0.3l0,0c-0.1,0.2,0,0.5,0.3,0.6
			C22.4,24.4,22.7,24.3,22.8,24.1L22.8,24.1z M20.8,25.4L20.8,25.4c0.2-0.1,0.3-0.4,0.2-0.6c-0.1-0.2-0.4-0.3-0.6-0.2l0,0
			c-0.2,0.1-0.3,0.4-0.2,0.6C20.3,25.5,20.6,25.5,20.8,25.4L20.8,25.4z M18.6,25.9L18.6,25.9c0.2,0,0.4-0.3,0.4-0.5
			c0-0.2-0.3-0.4-0.5-0.4l0,0c-0.2,0-0.4,0.3-0.4,0.5C18.2,25.8,18.4,26,18.6,25.9L18.6,25.9z M16.8,26.5L16.8,26.5
			c0.2-0.1,0.3-0.4,0.2-0.6s-0.4-0.3-0.6-0.2c-0.2,0.1-0.3,0.4-0.2,0.6S16.5,26.7,16.8,26.5z M15.3,27.8L15.3,27.8
			c0.2-0.2,0.1-0.5-0.1-0.6C15,27,14.7,27,14.6,27.2l0,0c-0.2,0.2-0.1,0.5,0.1,0.6C14.8,28,15.1,28,15.3,27.8L15.3,27.8z M14.4,29.5
			L14.4,29.5c0.1-0.2-0.1-0.5-0.3-0.6c-0.2-0.1-0.5,0.1-0.6,0.3c-0.1,0.2,0.1,0.5,0.3,0.6C14.1,29.9,14.4,29.7,14.4,29.5z
			 M14.3,31.5L14.3,31.5c0-0.3-0.2-0.4-0.5-0.4c-0.3,0-0.4,0.2-0.4,0.5l0,0c0,0.3,0.2,0.4,0.5,0.4C14.1,31.9,14.3,31.7,14.3,31.5
			L14.3,31.5z M14.7,33.5L14.7,33.5c-0.1-0.2-0.3-0.4-0.6-0.3s-0.4,0.3-0.3,0.6l0,0c0.1,0.2,0.3,0.4,0.6,0.3
			C14.6,34,14.7,33.7,14.7,33.5L14.7,33.5z M15.8,34.5L15.8,34.5c-0.2,0-0.5,0.1-0.5,0.4c0,0.2,0.1,0.5,0.4,0.5l0,0
			c0.2,0,0.5-0.1,0.5-0.4C16.2,34.8,16,34.6,15.8,34.5L15.8,34.5z M17.5,33.9L17.5,33.9c-0.2,0.1-0.4,0.3-0.3,0.5
			c0.1,0.2,0.3,0.4,0.5,0.3l0,0c0.2-0.1,0.4-0.3,0.3-0.5S17.8,33.9,17.5,33.9L17.5,33.9z M19.6,33.9L19.6,33.9
			c-0.2,0.1-0.4,0.3-0.3,0.6s0.3,0.4,0.6,0.3l0,0c0.2-0.1,0.4-0.3,0.3-0.6C20.1,33.9,19.9,33.8,19.6,33.9L19.6,33.9z M22,34.4
			L22,34.4c-0.2-0.2-0.4-0.2-0.6-0.1c-0.2,0.2-0.2,0.4-0.1,0.6l0,0c0.2,0.2,0.4,0.2,0.6,0.1C22.1,34.9,22.2,34.6,22,34.4L22,34.4z
			 M21.7,36.9L21.7,36.9c0.2-0.2,0.2-0.4,0.1-0.6c-0.2-0.2-0.4-0.2-0.6-0.1l0,0c-0.2,0.2-0.2,0.4-0.1,0.6
			C21.2,37,21.5,37.1,21.7,36.9L21.7,36.9z M20.6,38.4L20.6,38.4c0.1-0.2,0-0.5-0.3-0.6c-0.2-0.1-0.5,0-0.6,0.3l0,0
			c-0.1,0.2,0,0.5,0.3,0.6C20.3,38.8,20.5,38.6,20.6,38.4L20.6,38.4z M20.4,40.3L20.4,40.3c0-0.3-0.2-0.4-0.5-0.4
			c-0.3,0-0.4,0.2-0.4,0.5l0,0c0,0.3,0.2,0.4,0.5,0.4C20.2,40.8,20.4,40.5,20.4,40.3L20.4,40.3z M20.9,42.2L20.9,42.2
			c-0.1-0.2-0.4-0.3-0.6-0.2s-0.3,0.4-0.2,0.6l0,0c0.1,0.2,0.4,0.3,0.6,0.2C20.9,42.7,21,42.4,20.9,42.2L20.9,42.2z M22,43.9
			L22,43.9c-0.2-0.2-0.5-0.2-0.6,0c-0.2,0.2-0.2,0.5,0,0.6l0,0c0.2,0.2,0.5,0.2,0.6,0S22.1,44,22,43.9L22,43.9z M23.5,45.1
			L23.5,45.1c-0.2-0.1-0.5,0-0.6,0.2s0,0.5,0.2,0.6l0,0c0.2,0.1,0.5,0,0.6-0.2C23.8,45.5,23.7,45.2,23.5,45.1L23.5,45.1z M25.4,45.6
			L25.4,45.6c-0.2,0-0.5,0.2-0.5,0.4c0,0.2,0.2,0.5,0.4,0.5l0,0c0.2,0,0.5-0.2,0.5-0.4S25.6,45.6,25.4,45.6L25.4,45.6z M27.6,45.7
			L27.6,45.7c-0.2-0.1-0.5,0-0.6,0.2c-0.1,0.2,0,0.5,0.2,0.6l0,0c0.2,0.1,0.5,0,0.6-0.2C28,46.1,27.8,45.8,27.6,45.7L27.6,45.7z
			 M29,47.6L29,47.6c-0.1-0.2-0.4-0.3-0.6-0.1c-0.2,0.1-0.3,0.4-0.1,0.6l0,0c0.1,0.2,0.4,0.3,0.6,0.1C29.1,48.1,29.2,47.8,29,47.6
			L29,47.6z M30.3,49L30.3,49c-0.2-0.2-0.5-0.1-0.6,0.1c-0.2,0.2-0.1,0.5,0.1,0.6l0,0c0.2,0.2,0.5,0.1,0.6-0.1
			C30.6,49.5,30.5,49.2,30.3,49L30.3,49z"/>
	</g>
	<path class="st2" d="M43.4,26.7c-3.3-2.7-6.5,2.7-8.2,3.1c-1.7,0.4,0-2.8,3-4.5c3-1.7,3.2-6.5,0.2-5.4s-3.4,4.7-3.6,3
		c2.2-2.4,0.4-6.5-2.8-7.7c-3.2,1.1-5.1,5.2-2.8,7.7c-0.2,1.7-0.6-1.9-3.6-3s-2.8,3.7,0.2,5.4s4.7,4.9,3,4.5
		c-1.7-0.4-4.9-5.8-8.2-3.1c-6.1,0-5.7,4.3-5,6.6c0.1,0.4,0.7,0.5,0.9,0.1c0.4-0.7,0.9-1.2,1.5-1.5c-0.1,1.1,0.8,1.5,1.6,1
		c1-0.5,1.1-1.6,2.2-1.6c0.7,0.1,1.5,0.3,2.2,0.6c0.1,0.2-0.1,0.3-0.4,0.4c-0.8,0.2-0.5,1.2,1.1,1.7c1.5,0.5,3.5,1,4.2,3.1
		c0.5,1.4,0.4,3.4-1.1,4.3c-0.7,0.4-1.3,0.5-1.9,0.5c-0.7-0.6,0-1.7-0.3-2.1c-0.4-0.5-1.2-0.8-2.1,0.2c0-1.7,3.7-2.9,0.7-2.9
		s-3.6,3-2.1,5.4s3.9,2.6,5.8,1.9c0.6-0.7,2.4-2.2,1.5-0.4c-0.9,1.9,1.1,4.7,2.6,4.9c1.5-0.2,3.6-3,2.6-4.9
		c-0.9-1.9,0.9-0.4,1.5,0.4c1.9,0.7,4.3,0.6,5.8-1.9c1.5-2.4,0.9-5.4-2.1-5.4s0.7,1.2,0.7,2.9c-0.8-1-1.7-0.8-2.1-0.2
		c-0.3,0.4,0.4,1.5-0.3,2.1c-0.6,0-1.3-0.1-1.9-0.5c-1.5-0.9-1.6-2.9-1.1-4.3c0.7-2.1,2.7-2.7,4.2-3.1c1.5-0.5,1.8-1.4,1.1-1.7
		c-0.3-0.1-0.5-0.2-0.4-0.4c0.7-0.3,1.4-0.5,2.2-0.6c1.1,0.1,1.2,1.1,2.2,1.6c0.9,0.5,1.7,0,1.6-1c0.6,0.4,1.2,0.9,1.5,1.5
		c0.2,0.4,0.8,0.3,0.9-0.1C49.1,30.9,49.5,26.7,43.4,26.7z M46,29.9c-0.9,0-4.3-2.9-10.7,3c-2.5,2.8-3.3,6.3-3.3,6.3
		s-0.7-3.5-3.3-6.3c-6.4-5.9-9.8-3-10.7-3s2.1-1.7,4.9-1.1s5.8,3.3,6.5,4c0,0,0,0,0,0.1c0.7,0.7,1.7,1.9,1.8,2.5
		c0.3-2.2,0.1-6.8,0.1-7.3c0-0.5-2.8-2.9-3.6-3.7c0.8,0.6,3.7,2.4,3.7,2.4s-0.2-8,0.5-9c0.7,1,0.5,9,0.5,9s2.9-1.8,3.7-2.4
		c-0.9,0.7-3.6,3.2-3.6,3.7c0,0.5-0.1,5.1,0.1,7.3c0.1-0.6,1.1-1.8,1.8-2.5c0,0,0-0.1,0-0.1c0.6-0.7,3.6-3.3,6.5-4
		C43.9,28.1,46.9,29.9,46,29.9z"/>
</g>
<g>
	<g>
		<g>
			<circle class="st4" cx="10.7" cy="10.7" r="3.4"/>
		</g>
	</g>
	<g>
		<circle class="st4" cx="32" cy="74.7" r="3.4"/>
		<g>
			<circle class="st4" cx="10.7" cy="53.3" r="3.4"/>
		</g>
	</g>
	<g>
		<circle class="st4" cx="74.7" cy="74.7" r="3.4"/>
		<g>
			<circle class="st4" cx="53.3" cy="53.3" r="3.4"/>
		</g>
	</g>
	<g>
		<circle class="st4" cx="117.3" cy="74.7" r="3.4"/>
		<g>
			<circle class="st4" cx="96" cy="53.3" r="3.4"/>
		</g>
	</g>
	<g>
		<g>
			<circle class="st4" cx="32" cy="117.3" r="3.4"/>
			<g>
				<circle class="st4" cx="10.7" cy="96" r="3.4"/>
			</g>
		</g>
		<g>
			<circle class="st4" cx="74.7" cy="117.3" r="3.4"/>
			<g>
				<circle class="st4" cx="53.3" cy="96" r="3.4"/>
			</g>
		</g>
		<g>
			<circle class="st4" cx="117.3" cy="117.3" r="3.4"/>
		</g>
	</g>
	<g>
		<circle class="st4" cx="74.7" cy="32" r="3.4"/>
		<g>
			<circle class="st4" cx="53.3" cy="10.7" r="3.4"/>
		</g>
	</g>
	<g>
		<g>
			<circle class="st4" cx="117.3" cy="32" r="3.4"/>
			<g>
				<circle class="st4" cx="96" cy="10.7" r="3.4"/>
			</g>
		</g>
	</g>
</g>
<g>
	<path class="st1" d="M96,115.6c-0.1,0-0.2,0-0.3,0c-2-0.3-3.6-2-4.4-3.5c-0.1-0.2-0.2-0.4-0.3-0.7c-0.3,0-0.7,0.1-1,0.1
		c-2.5,0-4.8-1.3-6.2-3.6c-1.4-2.3-1.6-4.9-0.5-6.9c0.3-0.6,0.8-1.1,1.3-1.5c-0.5,0.2-1.1,0.4-1.7,0.4c-0.3,0-0.6,0-1-0.1
		c-0.6,0.4-1.2,0.7-2,0.7c-1.4,0-2.7-0.9-3.1-2.3c-0.8-2.9-0.6-5.4,0.8-7.3c1.3-1.7,3.3-2.6,5.9-2.8c0.4-0.3,0.9-0.5,1.4-0.6
		c-0.4-1.2-0.4-2.4-0.1-3.4c0.5-1.9,2-3.1,3.9-3.1c0.4,0,0.9,0.1,1.4,0.2c0.9-2.1,2.8-3.8,4.9-4.6c0.3-0.1,0.6-0.2,0.9-0.2
		s0.6,0.1,0.9,0.2c2.2,0.8,4,2.5,4.9,4.6c0.5-0.1,0.9-0.2,1.3-0.2c1.9,0,3.4,1.2,3.9,3.1c0.3,1,0.2,2.2-0.1,3.4
		c0.5,0.1,0.9,0.3,1.4,0.6c2.7,0.2,4.7,1.1,6,2.8c1.4,1.8,1.7,4.4,0.8,7.3c-0.4,1.4-1.6,2.3-3.1,2.3l0,0c-0.7,0-1.4-0.2-2-0.7
		c-0.3,0.1-0.6,0.1-1,0.1c-0.6,0-1.1-0.1-1.7-0.4c0.5,0.4,1,0.9,1.3,1.5c1.1,2,0.9,4.6-0.5,6.9c-1.4,2.3-3.6,3.6-6.2,3.6
		c-0.3,0-0.7,0-1-0.1c-0.1,0.2-0.2,0.5-0.3,0.7c-0.8,1.5-2.4,3.2-4.4,3.5C96.2,115.6,96.1,115.6,96,115.6z"/>
	<g>
		<path class="st2" d="M96,116.3c-0.1,0-0.3,0-0.4,0c-2.3-0.3-4.1-2.2-5-3.9c0-0.1-0.1-0.2-0.1-0.2c-0.2,0-0.3,0-0.5,0
			c-2.8,0-5.3-1.4-6.8-3.9c-1.6-2.5-1.7-5.5-0.5-7.7c0,0,0,0,0-0.1c-0.2,0-0.3,0-0.5-0.1c-0.6,0.4-1.4,0.6-2.1,0.6
			c-1.8,0-3.3-1.2-3.8-2.9c-0.9-3.2-0.6-5.9,0.9-8c1.4-1.8,3.5-2.9,6.3-3.1c0.2-0.1,0.5-0.2,0.7-0.3c-0.2-1.1-0.2-2.1,0-3.1
			c0.6-2.2,2.4-3.7,4.6-3.7c0.3,0,0.6,0,0.9,0.1c1.1-2,3-3.6,5.1-4.4c0.4-0.1,0.8-0.2,1.2-0.2c0.4,0,0.8,0.1,1.2,0.2
			c2.1,0.7,4,2.4,5.1,4.4c0.3-0.1,0.6-0.1,0.9-0.1c2.2,0,4.1,1.4,4.6,3.7c0.2,0.9,0.3,2,0,3.1c0.2,0.1,0.5,0.2,0.7,0.3
			c2.8,0.2,5,1.3,6.3,3.1c1.5,2,1.9,4.8,0.9,8c-0.5,1.7-2,2.9-3.8,2.9c-0.7,0-1.5-0.2-2.1-0.6c-0.2,0-0.3,0-0.5,0.1c0,0,0,0,0,0.1
			c1.2,2.2,1,5.2-0.5,7.7c-1.5,2.5-4,3.9-6.8,3.9c-0.2,0-0.3,0-0.5,0c0,0.1-0.1,0.2-0.1,0.2c-0.9,1.7-2.7,3.6-5,3.9
			C96.3,116.3,96.1,116.3,96,116.3z"/>
		<path class="st3" d="M114.3,90.8c-1.3-1.7-3.3-2.6-6-2.8c-0.4-0.3-0.9-0.5-1.4-0.6c0.4-1.2,0.4-2.4,0.1-3.4
			c-0.5-1.9-2-3.1-3.9-3.1c-0.4,0-0.9,0.1-1.3,0.2c-0.9-2.1-2.8-3.8-4.9-4.6c-0.3-0.1-0.6-0.2-0.9-0.2c-0.3,0-0.6,0.1-0.9,0.2
			c-2.2,0.8-4,2.5-4.9,4.6c-0.5-0.1-0.9-0.2-1.4-0.2c-1.9,0-3.4,1.2-3.9,3.1c-0.3,1-0.2,2.2,0.1,3.4c-0.5,0.1-0.9,0.3-1.4,0.6
			c-2.7,0.2-4.7,1.1-6,2.8c-1.4,1.9-1.7,4.4-0.8,7.3c0.4,1.4,1.6,2.3,3.1,2.3c0.7,0,1.4-0.2,2-0.7c0.3,0.1,0.6,0.1,1,0.1
			c0.6,0,1.1-0.1,1.7-0.4c-0.5,0.4-1,0.9-1.3,1.5c-1.1,2-0.9,4.6,0.5,6.9c1.4,2.3,3.6,3.6,6.2,3.6c0.3,0,0.7,0,1-0.1
			c0.1,0.2,0.2,0.5,0.3,0.7c0.8,1.5,2.4,3.2,4.4,3.5c0.1,0,0.2,0,0.3,0c0.1,0,0.2,0,0.3,0c2-0.3,3.6-2,4.4-3.5
			c0.1-0.2,0.2-0.4,0.3-0.7c0.3,0,0.7,0.1,1,0.1c2.5,0,4.8-1.3,6.2-3.6c1.4-2.3,1.6-4.9,0.5-6.9c-0.3-0.6-0.8-1.1-1.3-1.5
			c0.5,0.2,1.1,0.4,1.7,0.4c0.3,0,0.6,0,1-0.1c0.6,0.4,1.2,0.7,2,0.7l0,0c1.4,0,2.7-0.9,3.1-2.3C115.9,95.1,115.6,92.6,114.3,90.8z"
			/>
	</g>
	<g>
		<path class="st4" d="M96,113.8L96,113.8c-0.3,0-0.5,0.2-0.5,0.5s0.2,0.5,0.5,0.5l0,0c0.3,0,0.5-0.2,0.5-0.5
			C96.5,114,96.3,113.8,96,113.8L96,113.8z M96.6,113.6L96.6,113.6c-0.2,0.1-0.4,0.3-0.3,0.6c0.1,0.2,0.3,0.4,0.6,0.3l0,0
			c0.2-0.1,0.4-0.3,0.3-0.6C97.1,113.7,96.8,113.6,96.6,113.6L96.6,113.6z M98.2,112.6L98.2,112.6c-0.2,0.2-0.2,0.5,0,0.6
			c0.2,0.2,0.5,0.2,0.6,0l0,0c0.2-0.2,0.2-0.5,0-0.6C98.6,112.4,98.3,112.4,98.2,112.6L98.2,112.6z M99.3,111L99.3,111
			c-0.1,0.2,0,0.5,0.2,0.6c0.2,0.1,0.5,0,0.6-0.2l0,0c0.1-0.2,0-0.5-0.2-0.6C99.7,110.6,99.4,110.7,99.3,111L99.3,111z M101.4,109.6
			L101.4,109.6c-0.2,0-0.5,0.1-0.5,0.4s0.1,0.5,0.4,0.5l0,0c0.2,0,0.5-0.1,0.5-0.4S101.6,109.6,101.4,109.6L101.4,109.6z
			 M103.3,109.5L103.3,109.5c-0.2,0.1-0.4,0.3-0.3,0.6c0.1,0.2,0.3,0.4,0.5,0.3c0.2-0.1,0.4-0.3,0.3-0.6
			C103.8,109.6,103.6,109.4,103.3,109.5z M105.1,108.7L105.1,108.7c-0.2,0.1-0.3,0.4-0.1,0.6c0.1,0.2,0.4,0.3,0.6,0.1l0,0
			c0.2-0.1,0.3-0.4,0.1-0.6C105.6,108.6,105.3,108.6,105.1,108.7L105.1,108.7z M106.5,107.3L106.5,107.3c-0.1,0.2-0.1,0.5,0.1,0.6
			c0.2,0.1,0.5,0.1,0.6-0.1l0,0c0.1-0.2,0.1-0.5-0.1-0.6C106.9,107.1,106.6,107.1,106.5,107.3L106.5,107.3z M107.4,105.5
			L107.4,105.5c-0.1,0.2,0.1,0.5,0.3,0.6c0.2,0.1,0.5-0.1,0.6-0.3l0,0c0.1-0.2-0.1-0.5-0.3-0.6C107.7,105.2,107.4,105.3,107.4,105.5
			L107.4,105.5z M107.6,103.6L107.6,103.6c0,0.3,0.2,0.4,0.5,0.4c0.3,0,0.4-0.2,0.4-0.5l0,0c0-0.3-0.2-0.4-0.5-0.4
			C107.8,103.1,107.6,103.4,107.6,103.6L107.6,103.6z M107.1,101.8L107.1,101.8c0.1,0.2,0.4,0.3,0.6,0.2c0.2-0.1,0.3-0.4,0.2-0.6
			c-0.1-0.2-0.4-0.3-0.6-0.2C107,101.3,107,101.6,107.1,101.8z M105.7,100.1L105.7,100.1c0.1,0.2,0.3,0.4,0.6,0.3
			c0.2-0.1,0.4-0.3,0.3-0.6l0,0c-0.1-0.2-0.3-0.4-0.6-0.3C105.7,99.6,105.6,99.9,105.7,100.1L105.7,100.1z M106.8,97.8L106.8,97.8
			c-0.2,0.1-0.4,0.4-0.3,0.6c0.1,0.2,0.4,0.4,0.6,0.3l0,0c0.2-0.1,0.4-0.4,0.3-0.6C107.3,97.8,107,97.7,106.8,97.8L106.8,97.8z
			 M109,98L109,98c-0.3,0-0.5,0.2-0.5,0.4c0,0.3,0.2,0.5,0.4,0.5l0,0c0.3,0,0.5-0.2,0.5-0.4C109.5,98.2,109.3,98,109,98L109,98z
			 M111.3,98.3L111.3,98.3c-0.2-0.1-0.5-0.1-0.6,0.1c-0.1,0.2-0.1,0.5,0.1,0.6l0,0c0.2,0.1,0.5,0.1,0.6-0.1
			C111.5,98.7,111.5,98.5,111.3,98.3L111.3,98.3z M112.8,98.3L112.8,98.3c-0.2,0.1-0.3,0.4-0.1,0.6c0.1,0.2,0.4,0.3,0.6,0.1
			c0.2-0.1,0.3-0.4,0.1-0.6C113.3,98.2,113,98.2,112.8,98.3z M113.5,96.8L113.5,96.8c-0.1,0.2,0.1,0.5,0.3,0.5
			c0.2,0.1,0.5-0.1,0.5-0.3c0.1-0.2-0.1-0.5-0.3-0.5C113.8,96.3,113.6,96.5,113.5,96.8z M113.7,94.7L113.7,94.7
			c0,0.3,0.2,0.5,0.5,0.4c0.3,0,0.4-0.2,0.4-0.5l0,0c0-0.3-0.2-0.4-0.5-0.4C113.9,94.3,113.7,94.5,113.7,94.7L113.7,94.7z
			 M113.3,92.8L113.3,92.8c0.1,0.2,0.4,0.3,0.6,0.2s0.3-0.4,0.2-0.6l0,0c-0.1-0.2-0.4-0.3-0.6-0.2C113.4,92.3,113.2,92.6,113.3,92.8
			L113.3,92.8z M112.3,91.3L112.3,91.3c0.2,0.2,0.5,0.2,0.6,0c0.2-0.2,0.2-0.5,0-0.6l0,0c-0.2-0.2-0.5-0.2-0.6,0
			C112.1,90.8,112.1,91.1,112.3,91.3L112.3,91.3z M110.6,90.3L110.6,90.3c0.2,0.1,0.5,0,0.6-0.3s0-0.5-0.3-0.6
			c-0.2-0.1-0.5,0-0.6,0.3C110.2,89.9,110.4,90.2,110.6,90.3z M108.6,89.8L108.6,89.8c0.2,0,0.5-0.2,0.5-0.4s-0.2-0.5-0.4-0.5l0,0
			c-0.2,0-0.5,0.2-0.5,0.4C108.2,89.6,108.4,89.8,108.6,89.8L108.6,89.8z M106.5,89.2L106.5,89.2c0.2,0.1,0.5-0.1,0.6-0.3
			c0.1-0.2-0.1-0.5-0.3-0.6l0,0c-0.2-0.1-0.5,0.1-0.6,0.3C106.2,88.8,106.3,89.1,106.5,89.2L106.5,89.2z M105.1,87.1L105.1,87.1
			c0,0.2,0.1,0.5,0.4,0.5c0.2,0,0.5-0.1,0.5-0.4l0,0c0-0.2-0.1-0.5-0.4-0.5C105.4,86.7,105.2,86.8,105.1,87.1L105.1,87.1z
			 M105.4,85.1L105.4,85.1c0,0.3,0.2,0.4,0.5,0.4c0.3,0,0.4-0.2,0.4-0.5c0-0.3-0.2-0.4-0.5-0.4C105.6,84.6,105.4,84.8,105.4,85.1z
			 M104.8,83.4L104.8,83.4c0.2,0.2,0.5,0.2,0.6,0c0.2-0.2,0.2-0.5,0-0.6l0,0c-0.2-0.2-0.5-0.2-0.6,0C104.6,83,104.6,83.2,104.8,83.4
			L104.8,83.4z M103.2,82.8L103.2,82.8c0.3,0,0.5-0.2,0.5-0.5c0-0.3-0.2-0.5-0.5-0.5l0,0c-0.3,0-0.5,0.2-0.5,0.5
			S102.9,82.8,103.2,82.8L103.2,82.8z M100.9,82.7L100.9,82.7c0.2,0.1,0.5,0.1,0.6-0.2c0.1-0.2,0.1-0.5-0.2-0.6l0,0
			c-0.2-0.1-0.5-0.1-0.6,0.2C100.6,82.3,100.7,82.6,100.9,82.7L100.9,82.7z M99.6,80.8L99.6,80.8c0.1,0.2,0.4,0.3,0.6,0.1
			c0.2-0.1,0.3-0.4,0.1-0.6l0,0c-0.1-0.2-0.4-0.3-0.6-0.1C99.5,80.3,99.4,80.6,99.6,80.8L99.6,80.8z M98.2,79.4L98.2,79.4
			c0.2,0.2,0.5,0.1,0.6-0.1s0.1-0.5-0.1-0.6l0,0c-0.2-0.2-0.5-0.1-0.6,0.1S98,79.2,98.2,79.4L98.2,79.4z M96.5,78.4L96.5,78.4
			c0.2,0.1,0.5,0,0.6-0.3c0.1-0.2,0-0.5-0.3-0.6s-0.5,0-0.6,0.3C96.1,78,96.3,78.3,96.5,78.4z M94.9,78.7L94.9,78.7
			c0.2-0.1,0.3-0.4,0.2-0.6c-0.1-0.2-0.4-0.3-0.6-0.2l0,0c-0.2,0.1-0.3,0.4-0.2,0.6S94.6,78.8,94.9,78.7L94.9,78.7z M93.3,79.8
			L93.3,79.8c0.2-0.2,0.2-0.5,0-0.6c-0.2-0.2-0.5-0.2-0.6,0l0,0c-0.2,0.2-0.2,0.5,0,0.6C92.8,80,93.1,80,93.3,79.8L93.3,79.8z
			 M92.1,81.4L92.1,81.4c0.1-0.2,0-0.5-0.2-0.6c-0.2-0.1-0.5,0-0.6,0.2l0,0c-0.1,0.2,0,0.5,0.2,0.6C91.7,81.7,91.9,81.7,92.1,81.4
			L92.1,81.4z M90.2,83L90.2,83c0.3,0,0.5-0.2,0.5-0.5c0-0.3-0.2-0.5-0.5-0.5l0,0c-0.3,0-0.5,0.2-0.5,0.5S89.9,83,90.2,83L90.2,83z
			 M88.2,82.8L88.2,82.8c0.2-0.1,0.4-0.3,0.3-0.6c-0.1-0.2-0.3-0.4-0.6-0.3l0,0c-0.2,0.1-0.4,0.3-0.3,0.6
			C87.7,82.8,87.9,82.9,88.2,82.8L88.2,82.8z M86.9,83.9L86.9,83.9c0.1-0.2,0-0.5-0.2-0.6c-0.2-0.1-0.5,0-0.6,0.2
			c-0.1,0.2,0,0.5,0.2,0.6C86.5,84.3,86.8,84.2,86.9,83.9z M86.6,85.8L86.6,85.8c0-0.3-0.2-0.4-0.5-0.4c-0.3,0-0.4,0.2-0.4,0.5l0,0
			c0,0.3,0.2,0.4,0.5,0.4C86.4,86.2,86.6,86,86.6,85.8L86.6,85.8z M86.8,88.1L86.8,88.1c0.1-0.2,0-0.5-0.3-0.6
			c-0.2-0.1-0.5,0-0.6,0.3l0,0c-0.1,0.2,0,0.5,0.3,0.6C86.4,88.4,86.7,88.3,86.8,88.1L86.8,88.1z M84.8,89.4L84.8,89.4
			c0.2-0.1,0.3-0.4,0.2-0.6c-0.1-0.2-0.4-0.3-0.6-0.2l0,0c-0.2,0.1-0.3,0.4-0.2,0.6C84.3,89.5,84.6,89.5,84.8,89.4L84.8,89.4z
			 M82.6,89.9L82.6,89.9c0.2,0,0.4-0.3,0.4-0.5c0-0.2-0.3-0.4-0.5-0.4l0,0c-0.2,0-0.4,0.3-0.4,0.5C82.2,89.8,82.4,90,82.6,89.9
			L82.6,89.9z M80.8,90.6L80.8,90.6c0.2-0.1,0.3-0.4,0.2-0.6c-0.1-0.2-0.4-0.3-0.6-0.2c-0.2,0.1-0.3,0.4-0.2,0.6
			S80.5,90.7,80.8,90.6z M79.3,91.8L79.3,91.8c0.2-0.2,0.1-0.5-0.1-0.6C79,91,78.7,91,78.6,91.2l0,0c-0.2,0.2-0.1,0.5,0.1,0.6
			C78.8,92,79.1,92,79.3,91.8L79.3,91.8z M78.4,93.5L78.4,93.5c0.1-0.2-0.1-0.5-0.3-0.6c-0.2-0.1-0.5,0.1-0.6,0.3
			c-0.1,0.2,0.1,0.5,0.3,0.6C78.1,93.9,78.4,93.7,78.4,93.5z M78.3,95.5L78.3,95.5c0-0.3-0.2-0.4-0.5-0.4c-0.3,0-0.4,0.2-0.4,0.5
			l0,0c0,0.3,0.2,0.4,0.5,0.4C78.1,95.9,78.3,95.7,78.3,95.5L78.3,95.5z M78.7,97.5L78.7,97.5c-0.1-0.2-0.3-0.4-0.6-0.3
			s-0.4,0.3-0.3,0.6l0,0c0.1,0.2,0.3,0.4,0.6,0.3C78.6,98,78.7,97.7,78.7,97.5L78.7,97.5z M79.8,98.5L79.8,98.5
			c-0.2,0-0.5,0.1-0.5,0.4c0,0.2,0.1,0.5,0.4,0.5l0,0c0.2,0,0.5-0.1,0.5-0.4C80.2,98.8,80,98.6,79.8,98.5L79.8,98.5z M81.5,97.9
			L81.5,97.9c-0.2,0.1-0.4,0.3-0.3,0.5c0.1,0.2,0.3,0.4,0.5,0.3l0,0c0.2-0.1,0.4-0.3,0.3-0.5C82,98,81.8,97.9,81.5,97.9L81.5,97.9z
			 M83.6,97.9L83.6,97.9c-0.2,0.1-0.4,0.3-0.3,0.6c0.1,0.2,0.3,0.4,0.6,0.3l0,0c0.2-0.1,0.4-0.3,0.3-0.6
			C84.1,97.9,83.9,97.8,83.6,97.9L83.6,97.9z M86,98.4L86,98.4c-0.2-0.2-0.4-0.2-0.6-0.1c-0.2,0.2-0.2,0.4-0.1,0.6l0,0
			c0.2,0.2,0.4,0.2,0.6,0.1C86.1,98.9,86.2,98.6,86,98.4L86,98.4z M85.7,100.9L85.7,100.9c0.2-0.2,0.2-0.4,0.1-0.6
			c-0.2-0.2-0.4-0.2-0.6-0.1l0,0c-0.2,0.2-0.2,0.4-0.1,0.6C85.2,101,85.5,101.1,85.7,100.9L85.7,100.9z M84.6,102.4L84.6,102.4
			c0.1-0.2,0-0.5-0.3-0.6s-0.5,0-0.6,0.3l0,0c-0.1,0.2,0,0.5,0.3,0.6C84.3,102.8,84.5,102.6,84.6,102.4L84.6,102.4z M84.4,104.3
			L84.4,104.3c0-0.3-0.2-0.4-0.5-0.4c-0.3,0-0.4,0.2-0.4,0.5l0,0c0,0.3,0.2,0.4,0.5,0.4C84.2,104.8,84.4,104.5,84.4,104.3
			L84.4,104.3z M84.9,106.2L84.9,106.2c-0.1-0.2-0.4-0.3-0.6-0.2c-0.2,0.1-0.3,0.4-0.2,0.6l0,0c0.1,0.2,0.4,0.3,0.6,0.2
			C84.9,106.7,85,106.4,84.9,106.2L84.9,106.2z M86,107.9L86,107.9c-0.2-0.2-0.5-0.2-0.6,0c-0.2,0.2-0.2,0.5,0,0.6l0,0
			c0.2,0.2,0.5,0.2,0.6,0C86.1,108.3,86.1,108,86,107.9L86,107.9z M87.5,109.1L87.5,109.1c-0.2-0.1-0.5,0-0.6,0.2
			c-0.1,0.2,0,0.5,0.2,0.6l0,0c0.2,0.1,0.5,0,0.6-0.2C87.8,109.5,87.7,109.2,87.5,109.1L87.5,109.1z M89.4,109.6L89.4,109.6
			c-0.2,0-0.5,0.2-0.5,0.4c0,0.2,0.2,0.5,0.4,0.5l0,0c0.2,0,0.5-0.2,0.5-0.4C89.8,109.9,89.6,109.6,89.4,109.6L89.4,109.6z
			 M91.6,109.7L91.6,109.7c-0.2-0.1-0.5,0-0.6,0.2c-0.1,0.2,0,0.5,0.2,0.6l0,0c0.2,0.1,0.5,0,0.6-0.2
			C92,110.1,91.8,109.8,91.6,109.7L91.6,109.7z M93,111.6L93,111.6c-0.1-0.2-0.4-0.3-0.6-0.1c-0.2,0.1-0.3,0.4-0.1,0.6l0,0
			c0.1,0.2,0.4,0.3,0.6,0.1C93.1,112.1,93.2,111.8,93,111.6L93,111.6z M94.3,113L94.3,113c-0.2-0.2-0.5-0.1-0.6,0.1
			c-0.2,0.2-0.1,0.5,0.1,0.6l0,0c0.2,0.2,0.5,0.1,0.6-0.1C94.6,113.5,94.5,113.2,94.3,113L94.3,113z"/>
	</g>
	<path class="st2" d="M107.4,90.7c-3.3-2.7-6.5,2.7-8.2,3.1c-1.7,0.4,0-2.8,3-4.5c3-1.7,3.2-6.5,0.2-5.4c-3,1.1-3.4,4.7-3.6,3
		c2.2-2.4,0.4-6.5-2.8-7.7c-3.2,1.1-5.1,5.2-2.8,7.7c-0.2,1.7-0.6-1.9-3.6-3c-3-1.1-2.8,3.7,0.2,5.4c3,1.7,4.7,4.9,3,4.5
		s-4.9-5.8-8.2-3.1c-6.1,0-5.7,4.3-5,6.6c0.1,0.4,0.7,0.5,0.9,0.1c0.4-0.7,0.9-1.2,1.5-1.5c-0.1,1.1,0.8,1.5,1.6,1
		c1-0.5,1.1-1.6,2.2-1.6c0.7,0.1,1.5,0.3,2.2,0.6c0.1,0.2-0.1,0.3-0.4,0.4c-0.8,0.2-0.5,1.2,1.1,1.7c1.5,0.5,3.5,1,4.2,3.1
		c0.5,1.4,0.4,3.4-1.1,4.3c-0.7,0.4-1.3,0.5-1.9,0.5c-0.7-0.6,0-1.7-0.3-2.1c-0.4-0.5-1.2-0.8-2.1,0.2c0-1.7,3.7-2.9,0.7-2.9
		c-3,0-3.6,3-2.1,5.4s3.9,2.6,5.8,1.9c0.6-0.7,2.4-2.2,1.5-0.4c-0.9,1.9,1.1,4.7,2.6,4.9c1.5-0.2,3.6-3,2.6-4.9
		c-0.9-1.9,0.9-0.4,1.5,0.4c1.9,0.7,4.3,0.6,5.8-1.9c1.5-2.4,0.9-5.4-2.1-5.4c-3,0,0.7,1.2,0.7,2.9c-0.8-1-1.7-0.8-2.1-0.2
		c-0.3,0.4,0.4,1.5-0.3,2.1c-0.6,0-1.3-0.1-1.9-0.5c-1.5-0.9-1.6-2.9-1.1-4.3c0.7-2.1,2.7-2.7,4.2-3.1c1.5-0.5,1.8-1.4,1.1-1.7
		c-0.3-0.1-0.5-0.2-0.4-0.4c0.7-0.3,1.4-0.5,2.2-0.6c1.1,0.1,1.2,1.1,2.2,1.6c0.9,0.5,1.7,0,1.6-1c0.6,0.4,1.2,0.9,1.5,1.5
		c0.2,0.4,0.8,0.3,0.9-0.1C113.1,94.9,113.5,90.7,107.4,90.7z M110,93.9c-0.9,0-4.3-2.9-10.7,3c-2.5,2.8-3.3,6.3-3.3,6.3
		s-0.7-3.5-3.3-6.3c-6.4-5.9-9.8-3-10.7-3c-0.9,0,2.1-1.7,4.9-1.1c2.8,0.7,5.8,3.3,6.5,3.9c0,0,0,0,0,0.1c0.7,0.7,1.7,1.9,1.8,2.5
		c0.3-2.2,0.1-6.8,0.1-7.3c0-0.5-2.8-2.9-3.6-3.7c0.8,0.6,3.7,2.4,3.7,2.4s-0.2-8,0.5-9c0.7,1,0.5,9,0.5,9s2.9-1.8,3.7-2.4
		c-0.9,0.7-3.6,3.2-3.6,3.7c0,0.5-0.1,5.1,0.1,7.3c0.1-0.6,1.1-1.8,1.8-2.5c0,0,0-0.1,0-0.1c0.6-0.7,3.6-3.3,6.5-4
		C107.9,92.1,110.9,93.9,110,93.9z"/>
</g>
<image style="overflow:visible;" width="3836" height="5568" xlink:href="2D1D2928.png"  transform="matrix(0.24 0 0 0.24 -758.64 -823.84)">
</image>
</svg>
