<?xml version="1.0" encoding="UTF-8"?>
<svg id="_圖層_2" data-name="圖層 2" xmlns="http://www.w3.org/2000/svg" viewBox="0 0 142.58 142.46">
  <defs>
    <style>
      .cls-1 {
        fill: #6c3d49;
      }

      .cls-1, .cls-2, .cls-3 {
        stroke-width: 0px;
      }

      .cls-2 {
        fill: #2d211b;
      }

      .cls-3 {
        fill: #571213;
      }
    </style>
  </defs>
  <path class="cls-1" d="M37.33,30.42c3.1,4.5,8.04,6.71,12.78,6.71,2.59,0,5.12-.59,7.41-1.71,4.37,1.66,9.22,2.02,13.67,1.74-1.14,5.78.65,11.89,4.22,15.86.11,3.87,1.76,12.39,1.76,12.39,0,0,8.52,1.64,12.39,1.75,3.97,3.57,10.07,5.37,15.86,4.22-.28,4.45.08,9.29,1.74,13.67-1.13,2.29-1.72,4.81-1.72,7.4,0,4.75,2.21,9.68,6.71,12.78v37.22h3.74v-39.36c-3.98-1.9-6.71-5.97-6.71-10.64,0-2.59.75-5.05,2.14-7.17-1.38-2.91-2.14-6.23-2.14-9.66,0-3.71-.34-7.77,1.28-10.86-4.85,4.84-14.6,4.08-19.38-1.38-2.97.3-10.72-1.17-10.72-1.17,0,0-1.47-7.75-1.17-10.72-5.46-4.78-6.22-14.53-1.38-19.38-3.1,1.62-7.15,1.28-10.86,1.28-3.43,0-6.74-.75-9.66-2.14-2.11,1.39-4.58,2.14-7.16,2.14-4.68,0-8.74-2.73-10.64-6.71H0v3.73h37.33Z"/>
  <polygon class="cls-1" points="0 0 0 3.74 138.84 3.74 138.84 142.46 142.58 142.46 142.58 0 0 0"/>
  <path class="cls-3" d="M39.47,26.69c1.9,3.98,5.97,6.71,10.64,6.71,2.58,0,5.05-.75,7.16-2.14,2.92,1.38,6.24,2.14,9.66,2.14,3.71,0,7.77.34,10.86-1.28-4.85,4.84-4.08,14.59,1.38,19.38-.3,2.97,1.17,10.72,1.17,10.72,0,0,7.75,1.48,10.72,1.17,4.78,5.46,14.53,6.22,19.38,1.38-1.62,3.09-1.28,7.15-1.28,10.86,0,3.43.75,6.74,2.14,9.66-1.39,2.11-2.14,4.58-2.14,7.17,0,4.68,2.72,8.74,6.71,10.64v39.36h8.3v-45.8c0-.32-.31-.67-.43-.55-.74.74-1.73,1.15-2.79,1.15-2.77,0-4.81-2.27-4.81-4.82,0-3.09,2.16-5.31,4.68-5.92-2.77-2.28-4.68-6.2-4.68-10.9,0-5.07,2.24-9.26,5.4-11.44-.65-.2-1.28-.47-1.88-.81-3.04-1.76-4.66-5.94-2.56-9.57,1.42-2.45,4.46-3.39,6.99-2.23-.64-1.89-2.15-3.38-3.76-4.31-2.41-1.39-4.51-1.32-5.61-1.1,2.16,1.54,3.04,4.62,1.57,7.17-1.93,3.35-6.23,4.5-9.58,2.56-.2-.11-.39-.23-.58-.37-.08,1.22-.53,2.52-1.83,3.83-2.08,2.08-5.57,1.85-7.95-.53-.77-.77-1.33-1.67-1.66-2.65-3.13.51-5.77.23-8.15-.16-.39-2.39-.66-5.02-.16-8.15-.98-.33-1.89-.89-2.65-1.66-2.38-2.38-2.61-5.86-.53-7.94,1.31-1.31,2.6-1.75,3.83-1.84-.13-.19-.25-.38-.37-.57-1.93-3.35-.78-7.65,2.57-9.58,2.55-1.48,5.63-.6,7.17,1.57.22-1.1.29-3.2-1.1-5.61-.93-1.61-2.42-3.11-4.31-3.76,1.16,2.52.22,5.57-2.23,6.99-3.63,2.09-7.82.48-9.58-2.57-.34-.59-.61-1.22-.81-1.88-2.18,3.16-6.37,5.4-11.44,5.4-4.7,0-8.62-1.91-10.9-4.68-.61,2.52-2.83,4.68-5.92,4.68-2.54,0-4.81-2.04-4.81-4.81,0-1.05.41-2.04,1.15-2.79.12-.12-.23-.44-.55-.44H0v8.3h39.47Z"/>
  <path class="cls-3" d="M66.94,19.28c1.08,0,2.06-.26,2.83-.66-.61-.22-1.16-.58-1.63-1.05-.59-.59-1-1.31-1.2-2.09-.38,1.45-1.45,2.63-2.84,3.15.81.43,1.81.66,2.84.66Z"/>
  <path class="cls-3" d="M88.32,54.25s0,0,0,0c0,0,3.94.54,7.35-.29-3.41.82-7.34.29-7.35.28Z"/>
  <path class="cls-3" d="M45.91,12.04c3.44,0,6.22,1.27,8.02,3.11.43-3.64,3.52-6.57,7.4-6.57,2.95,0,5.08,2.13,5.62,4.46.58-2.55,2.88-4.46,5.61-4.47,2.97,0,5.75,1.82,6.9,4.61.75-1.16,1.79-2.18,3.14-2.95,6.19-3.58,15.1-.24,19.81,7.91,1.44,2.5,2.28,5.06,2.59,7.51.66-5.92-3.15-11.54-8.27-15.34,5.29-3.91,11.96-3.86,16.51.7,1.47,1.47,2.47,3.29,2.94,5.3,5.38-5.43,10.74-4,13.71-3.62h0c.38,2.97,1.81,8.33-3.62,13.71,2.02.46,3.83,1.47,5.3,2.94,4.56,4.56,4.61,11.23.7,16.52-3.81-5.12-9.42-8.93-15.34-8.27,2.45.32,5.01,1.16,7.51,2.6,8.15,4.71,11.48,13.62,7.91,19.81-.78,1.35-1.8,2.39-2.95,3.14,2.79,1.15,4.61,3.93,4.61,6.9,0,2.73-1.91,5.02-4.46,5.61,2.33.53,4.46,2.66,4.46,5.61,0,3.89-2.93,6.96-6.57,7.4,1.84,1.8,3.1,4.58,3.1,8.02v45.8h8.3V3.74H0v8.3h45.91Z"/>
  <path class="cls-3" d="M123.95,72.8c-.4.77-.66,1.75-.66,2.83s.24,2.03.66,2.84c.52-1.39,1.69-2.46,3.15-2.84-.78-.2-1.5-.61-2.09-1.2-.47-.47-.83-1.03-1.05-1.63Z"/>
  <path class="cls-1" d="M123.82,22.24c1.77-1.77,1.45-4.94,1.45-4.94,0,0-3.17-.31-4.93,1.45-1.76,1.77-1.46,4.94-1.46,4.94,0,0,3.17.31,4.94-1.45Z"/>
  <path class="cls-1" d="M93.73,45.36c-1.77,1.76-1.46,4.94-1.46,4.94,0,0,3.17.31,4.93-1.46,1.77-1.76,1.45-4.94,1.45-4.94,0,0-3.17-.31-4.93,1.46Z"/>
  <path class="cls-1" d="M45.91,14.03c4.81,0,8.3,3.04,8.3,6.31,0,2.26-1.83,4.1-4.1,4.1-1.56,0-2.82-1.27-2.82-2.83,0-1.07.87-1.94,1.94-1.94.74,0,1.34.6,1.33,1.34,0,.51-.41.92-.92.92.17.17,1.25.12,1.25-1.79,0-1.94-2.14-3.74-5-3.74H0v1.99h45.91c.32,0,.67.31.55.44-.75.74-1.15,1.73-1.15,2.79,0,2.78,2.27,4.81,4.81,4.81,3.09,0,5.31-2.16,5.92-4.68,2.29,2.77,6.2,4.68,10.9,4.68,5.07,0,9.26-2.24,11.44-5.4.2.65.47,1.29.81,1.88,1.76,3.05,5.94,4.66,9.58,2.57,2.45-1.42,3.39-4.46,2.23-6.99,1.89.64,3.38,2.15,4.31,3.76,1.39,2.41,1.32,4.51,1.1,5.61-1.54-2.16-4.62-3.04-7.17-1.57-3.35,1.93-4.5,6.23-2.57,9.58.11.19.24.39.37.57-1.22.09-2.52.53-3.83,1.84-2.08,2.08-1.85,5.56.53,7.94.77.77,1.67,1.33,2.65,1.66-.51,3.13-.23,5.76.16,8.15,2.39.39,5.02.66,8.15.16.33.98.89,1.88,1.66,2.65,2.37,2.38,5.86,2.61,7.95.53,1.31-1.3,1.75-2.61,1.83-3.83.19.13.38.25.58.37,3.34,1.93,7.64.78,9.58-2.56,1.47-2.55.6-5.64-1.57-7.17,1.1-.22,3.2-.29,5.61,1.1,1.61.93,3.11,2.42,3.76,4.31-2.52-1.16-5.57-.22-6.99,2.23-2.1,3.63-.48,7.81,2.56,9.57.59.34,1.23.61,1.88.81-3.16,2.18-5.4,6.37-5.4,11.44,0,4.7,1.91,8.62,4.68,10.9-2.52.61-4.68,2.83-4.68,5.92,0,2.54,2.04,4.82,4.81,4.82,1.05,0,2.04-.41,2.79-1.15.12-.12.43.22.43.55v45.8h1.99v-45.8c0-2.86-1.8-5-3.74-5s-1.96,1.08-1.79,1.26c0-.51.41-.92.92-.92.74,0,1.34.6,1.34,1.34,0,1.07-.87,1.95-1.94,1.94-1.56,0-2.82-1.26-2.82-2.82,0-2.26,1.83-4.09,4.1-4.09,3.26,0,6.3,3.49,6.3,8.3v45.8h1.99v-45.8c0-3.44-1.27-6.22-3.1-8.02,3.64-.44,6.57-3.51,6.57-7.4,0-2.95-2.14-5.08-4.46-5.61,2.55-.59,4.46-2.88,4.46-5.61,0-2.97-1.82-5.75-4.61-6.9,1.15-.75,2.17-1.79,2.95-3.14,3.57-6.19.24-15.1-7.91-19.81-2.5-1.44-5.06-2.28-7.51-2.6,5.93-.66,11.54,3.15,15.34,8.27,3.91-5.29,3.86-11.96-.7-16.52-1.47-1.47-3.29-2.47-5.3-2.94,5.43-5.38,4-10.74,3.62-13.71h0c-2.96-.38-8.32-1.81-13.71,3.62-.46-2.02-1.46-3.83-2.94-5.3-4.56-4.56-11.22-4.61-16.51-.7,5.12,3.8,8.93,9.42,8.27,15.34-.32-2.45-1.15-5.01-2.59-7.51-4.71-8.15-13.62-11.49-19.81-7.91-1.35.78-2.39,1.8-3.14,2.95-1.15-2.79-3.93-4.61-6.9-4.61-2.73,0-5.02,1.91-5.61,4.47-.53-2.33-2.67-4.47-5.62-4.46-3.88,0-6.97,2.93-7.4,6.57-1.8-1.83-4.59-3.11-8.02-3.11H0v1.99h45.91ZM132.01,70.02c0,2.08-1.68,3.77-3.76,3.77-1.43,0-2.6-1.16-2.6-2.59,0-.99.8-1.79,1.79-1.79.68,0,1.23.55,1.23,1.23.23-.22.15-1.67-2.39-1.67s-4.99,2.86-4.99,6.67,2.4,6.67,4.99,6.67,2.61-1.45,2.39-1.67c0,.68-.55,1.23-1.23,1.23-.99,0-1.79-.8-1.79-1.78,0-1.44,1.17-2.59,2.6-2.59,2.08,0,3.76,1.68,3.76,3.76,0,3.02-2.44,5.46-5.46,5.46-4.36,0-8.41-4.66-8.4-11.07,0-6.41,4.05-11.07,8.4-11.07,3.02,0,5.46,2.44,5.46,5.46ZM127.1,75.63c-1.45.38-2.63,1.45-3.15,2.84-.42-.81-.66-1.81-.66-2.84s.26-2.06.66-2.83c.23.61.58,1.16,1.05,1.63.59.59,1.31,1,2.09,1.2ZM123.44,41.9c7.4,4.28,10.08,12.06,7.18,17.09-2.01,3.48-6.46,4.67-9.95,2.66-2.4-1.38-3.22-4.45-1.84-6.85.96-1.65,3.07-2.22,4.72-1.27,1.14.66,1.53,2.11.87,3.25-.45.78-1.46,1.05-2.24.6.11.41,1.83,1.29,3.52-1.64,1.72-2.99.02-7.67-4.37-10.21-4.39-2.54-9.31-1.67-11.03,1.31-1.69,2.93-.07,3.98.34,3.87-.78-.45-1.05-1.45-.6-2.24.66-1.14,2.11-1.53,3.25-.87,1.65.95,2.22,3.07,1.27,4.72-1.39,2.4-4.45,3.22-6.86,1.83-3.48-2.01-4.67-6.46-2.66-9.95,2.91-5.03,10.98-6.6,18.39-2.33ZM100.12,10.68c6.98-3.95,18.29,2.46,12.99,13.94,3.24-6.89,7.36-11.33,15.03-10.18,1.15,7.67-3.28,11.78-10.18,15.03,11.48-5.3,17.89,6,13.94,12.98-7.36-8.18-15.6-8.3-21.86-4.34-2.92.91-5.31,2.69-6.71,5.12-2.09,3.62-1.37,7.53.68,10.25.26,1.59.4,2.97-1.11,4.48-2.24,2.24-6.75-.3-6.55-4.17-.22.07-.45.13-.67.18-3.41.82-7.35.29-7.35.29,0,0,0,0,0,0h0s-.4-2.96.02-5.97c.1-.69.24-1.39.44-2.06-3.87.19-6.41-4.31-4.17-6.55,1.51-1.51,2.89-1.37,4.47-1.11,2.71,2.05,6.63,2.78,10.25.68,2.43-1.4,4.2-3.79,5.12-6.71,3.96-6.25,3.84-14.5-4.34-21.86ZM83.58,11.95c5.03-2.9,12.81-.22,17.09,7.18,4.28,7.41,2.7,15.49-2.33,18.39-3.48,2.01-7.93.82-9.95-2.66-1.39-2.4-.57-5.47,1.84-6.85,1.65-.96,3.77-.39,4.72,1.26.66,1.14.27,2.6-.87,3.25-.78.45-1.79.19-2.24-.6-.11.41.94,2.03,3.87.34,2.98-1.72,3.85-6.63,1.32-11.03-2.54-4.39-7.23-6.1-10.21-4.37-2.93,1.69-2.05,3.41-1.64,3.53-.45-.79-.18-1.79.6-2.24,1.14-.66,2.6-.27,3.25.87.95,1.65.39,3.77-1.27,4.72-2.4,1.38-5.47.56-6.85-1.84-2.01-3.48-.82-7.94,2.67-9.95ZM66.94,15.48c.2.79.61,1.51,1.2,2.09.47.47,1.03.83,1.63,1.05-.77.4-1.75.66-2.83.66s-2.03-.24-2.84-.66c1.39-.52,2.46-1.7,2.84-3.15ZM61.33,10.56c2.08,0,3.77,1.68,3.77,3.76,0,1.43-1.16,2.59-2.59,2.59-.99,0-1.79-.8-1.79-1.79,0-.68.55-1.23,1.23-1.23-.23-.22-1.67-.15-1.67,2.39s2.86,4.99,6.67,4.99,6.67-2.41,6.67-4.99-1.45-2.61-1.67-2.39c.68,0,1.23.55,1.23,1.23,0,.98-.8,1.79-1.79,1.79-1.43,0-2.59-1.16-2.59-2.59,0-2.08,1.68-3.76,3.76-3.76,3.01,0,5.46,2.44,5.46,5.46,0,4.36-4.66,8.41-11.07,8.41s-11.07-4.05-11.07-8.41c0-3.01,2.44-5.46,5.46-5.46Z"/>
  <path class="cls-2" d="M45.91,16.39c2.86,0,5,1.81,5,3.74,0,1.9-1.08,1.96-1.25,1.79.51,0,.92-.41.92-.92,0-.74-.6-1.34-1.33-1.34-1.08,0-1.94.87-1.94,1.94,0,1.56,1.26,2.83,2.82,2.83,2.26,0,4.1-1.84,4.1-4.1,0-3.26-3.49-6.31-8.3-6.31H0v2.37h45.91Z"/>
  <path class="cls-2" d="M66.94,24.43c6.41,0,11.07-4.05,11.07-8.41,0-3.01-2.45-5.46-5.46-5.46-2.08,0-3.76,1.68-3.76,3.76,0,1.43,1.16,2.59,2.59,2.59.99,0,1.79-.8,1.79-1.79,0-.68-.55-1.23-1.23-1.23.23-.22,1.67-.15,1.67,2.39s-2.86,4.99-6.67,4.99-6.67-2.41-6.67-4.99,1.44-2.61,1.67-2.39c-.68,0-1.23.55-1.23,1.23,0,.98.8,1.79,1.79,1.79,1.43,0,2.59-1.16,2.59-2.59,0-2.08-1.69-3.76-3.77-3.76-3.02,0-5.46,2.45-5.46,5.46,0,4.36,4.66,8.41,11.07,8.41Z"/>
  <path class="cls-2" d="M87.77,23.74c1.66-.95,2.22-3.07,1.27-4.72-.66-1.14-2.11-1.53-3.25-.87-.78.45-1.05,1.46-.6,2.24-.41-.11-1.29-1.83,1.64-3.53,2.98-1.72,7.67-.02,10.21,4.37,2.54,4.4,1.67,9.3-1.32,11.03-2.93,1.69-3.98.07-3.87-.34.45.78,1.45,1.05,2.24.6,1.14-.66,1.53-2.11.87-3.25-.95-1.65-3.07-2.22-4.72-1.26-2.4,1.38-3.22,4.45-1.84,6.85,2.01,3.48,6.46,4.68,9.95,2.66,5.03-2.9,6.6-10.98,2.33-18.39-4.28-7.41-12.06-10.08-17.09-7.18-3.48,2.01-4.68,6.47-2.67,9.95,1.38,2.4,4.45,3.22,6.85,1.84Z"/>
  <path class="cls-2" d="M105.05,44.23c-2.01,3.48-.82,7.94,2.66,9.95,2.4,1.38,5.47.56,6.86-1.83.95-1.66.38-3.77-1.27-4.72-1.14-.66-2.59-.27-3.25.87-.45.79-.18,1.79.6,2.24-.41.11-2.03-.94-.34-3.87,1.72-2.98,6.63-3.85,11.03-1.31,4.39,2.54,6.09,7.22,4.37,10.21-1.69,2.93-3.41,2.05-3.52,1.64.78.45,1.79.18,2.24-.6.66-1.14.26-2.6-.87-3.25-1.65-.95-3.77-.39-4.72,1.27-1.38,2.4-.56,5.47,1.84,6.85,3.48,2.01,7.94.82,9.95-2.66,2.91-5.03.23-12.81-7.18-17.09-7.41-4.27-15.48-2.7-18.39,2.33Z"/>
  <path class="cls-2" d="M118.15,75.63c0,6.41,4.05,11.07,8.4,11.07,3.02,0,5.46-2.44,5.46-5.46,0-2.08-1.68-3.76-3.76-3.76-1.43,0-2.6,1.16-2.6,2.59,0,.99.8,1.78,1.79,1.78.68,0,1.23-.55,1.23-1.23.23.23.15,1.67-2.39,1.67s-4.99-2.86-4.99-6.67,2.41-6.67,4.99-6.67,2.61,1.45,2.39,1.67c0-.68-.55-1.23-1.23-1.23-.99,0-1.79.8-1.79,1.79,0,1.43,1.16,2.59,2.6,2.59,2.08,0,3.76-1.69,3.76-3.77,0-3.01-2.44-5.46-5.46-5.46-4.36,0-8.41,4.66-8.4,11.07Z"/>
  <path class="cls-2" d="M128.54,96.66c0-4.81-3.04-8.3-6.3-8.3-2.27,0-4.1,1.83-4.1,4.09,0,1.56,1.26,2.82,2.82,2.82,1.07,0,1.95-.87,1.94-1.94,0-.74-.6-1.34-1.34-1.34-.51,0-.92.41-.92.92-.17-.17-.12-1.26,1.79-1.26s3.74,2.14,3.74,5v45.8h2.37v-45.8Z"/>
  <path class="cls-2" d="M99.34,39.25c-3.62,2.09-7.53,1.36-10.25-.68-1.58-.26-2.97-.4-4.47,1.11-2.24,2.24.3,6.74,4.17,6.55-.2.67-.34,1.36-.44,2.06-.42,3-.03,5.94-.02,5.97.01,0,3.94.54,7.35-.28.23-.05.45-.12.67-.18-.2,3.87,4.31,6.41,6.55,4.17,1.51-1.51,1.37-2.89,1.11-4.48-2.05-2.71-2.77-6.63-.68-10.25,1.4-2.43,3.79-4.21,6.71-5.12,6.25-3.96,14.5-3.84,21.86,4.34,3.95-6.98-2.46-18.29-13.94-12.98,6.89-3.25,11.32-7.36,10.18-15.03-7.66-1.15-11.78,3.28-15.03,10.18,5.3-11.48-6-17.89-12.99-13.94,8.19,7.35,8.3,15.6,4.34,21.86-.91,2.92-2.69,5.31-5.12,6.71ZM97.21,48.84c-1.76,1.76-4.93,1.46-4.93,1.46,0,0-.31-3.17,1.46-4.94,1.76-1.77,4.93-1.46,4.93-1.46,0,0,.31,3.17-1.45,4.94ZM120.34,18.76c1.76-1.76,4.93-1.45,4.93-1.45,0,0,.31,3.17-1.45,4.94-1.77,1.76-4.94,1.45-4.94,1.45,0,0-.31-3.17,1.46-4.94Z"/>
  <path class="cls-2" d="M88.35,48.28c-.43,3.01-.02,5.97-.02,5.97h0s-.4-2.97.02-5.97Z"/>
</svg>