<?xml version="1.0" encoding="UTF-8"?>
<svg id="_圖層_2" data-name="圖層 2" xmlns="http://www.w3.org/2000/svg" viewBox="0 0 100.09 100.01">
  <defs>
    <style>
      .cls-1 {
        fill: #6c3d49;
      }

      .cls-1, .cls-2, .cls-3 {
        stroke-width: 0px;
      }

      .cls-2 {
        fill: #2d211b;
      }

      .cls-3 {
        fill: #571213;
      }
    </style>
  </defs>
  <g id="_圖層_2-2" data-name="圖層 2">
    <g>
      <path class="cls-1" d="M73.88,78.65c-2.18-3.16-5.64-4.71-8.97-4.71-1.82,0-3.59.41-5.2,1.2-3.07-1.17-6.47-1.42-9.59-1.22.8-4.06-.46-8.35-2.96-11.13-.08-2.72-1.23-8.7-1.23-8.7,0,0-5.98-1.15-8.7-1.23-2.78-2.51-7.07-3.77-11.13-2.96.2-3.12-.06-6.52-1.22-9.6.79-1.61,1.2-3.38,1.2-5.2,0-3.33-1.55-6.8-4.71-8.97V0h-2.62v27.63c2.8,1.33,4.71,4.19,4.71,7.47,0,1.82-.52,3.55-1.5,5.03.97,2.05,1.5,4.37,1.5,6.78,0,2.61.24,5.45-.9,7.62,3.4-3.4,10.25-2.86,13.6.97,2.08-.21,7.53.82,7.53.82,0,0,1.03,5.44.82,7.53,3.83,3.36,4.37,10.2.97,13.6,2.17-1.14,5.02-.9,7.63-.9,2.41,0,4.73.53,6.78,1.5,1.48-.98,3.21-1.5,5.03-1.5,3.28,0,6.14,1.91,7.47,4.71h27.71v-2.62h-26.21Z"/>
      <polygon class="cls-1" points="100.09 100.01 100.09 97.38 2.62 97.38 2.62 0 0 0 0 100.01 100.09 100.01"/>
      <path class="cls-3" d="M72.38,81.27c-1.33-2.79-4.19-4.71-7.47-4.71-1.81,0-3.55.52-5.03,1.5-2.05-.97-4.38-1.5-6.78-1.5-2.61,0-5.45-.24-7.63.9,3.4-3.4,2.86-10.25-.97-13.6.21-2.09-.82-7.52-.82-7.53,0,0-5.44-1.04-7.53-.82-3.36-3.83-10.2-4.37-13.6-.97,1.14-2.17.9-5.02.9-7.62,0-2.41-.53-4.73-1.5-6.78.98-1.48,1.5-3.22,1.5-5.03,0-3.28-1.91-6.14-4.71-7.47V0h-5.83v32.15c0,.23.22.47.3.38.52-.52,1.22-.81,1.96-.81,1.95,0,3.38,1.59,3.38,3.38,0,2.17-1.52,3.73-3.29,4.15,1.94,1.6,3.29,4.35,3.29,7.65,0,3.56-1.57,6.5-3.79,8.03.46.14.9.33,1.32.57,2.14,1.24,3.27,4.17,1.8,6.72-.99,1.72-3.13,2.38-4.9,1.57.45,1.32,1.51,2.37,2.64,3.02,1.69.98,3.17.93,3.94.78-1.52-1.08-2.13-3.24-1.1-5.03,1.36-2.35,4.37-3.16,6.72-1.8.14.08.27.16.4.26.06-.86.37-1.77,1.29-2.69,1.46-1.46,3.91-1.3,5.58.37.54.54.93,1.17,1.17,1.86,2.2-.36,4.05-.16,5.72.11.27,1.67.47,3.52.11,5.72.69.23,1.32.63,1.86,1.17,1.67,1.67,1.83,4.12.37,5.58-.92.92-1.83,1.23-2.69,1.29.09.13.18.26.26.4,1.36,2.35.55,5.37-1.8,6.72-1.79,1.04-3.95.42-5.03-1.1-.15.77-.2,2.25.77,3.94.65,1.13,1.7,2.19,3.02,2.64-.81-1.77-.16-3.91,1.57-4.9,2.55-1.47,5.49-.34,6.72,1.8.24.41.43.86.57,1.32,1.53-2.22,4.47-3.79,8.03-3.79,3.3,0,6.05,1.34,7.65,3.29.43-1.77,1.99-3.29,4.16-3.29,1.78,0,3.38,1.43,3.38,3.38,0,.74-.29,1.43-.81,1.96-.09.09.16.31.38.31h32.23v-5.83h-27.71Z"/>
      <path class="cls-3" d="M53.09,86.47c-.76,0-1.44.18-1.99.46.42.16.82.41,1.15.74.41.41.7.92.84,1.47.26-1.02,1.02-1.85,1.99-2.21-.57-.3-1.27-.46-1.99-.46Z"/>
      <path class="cls-3" d="M38.08,61.92s0,0,0,0c0,0-2.76-.38-5.16.2,2.39-.58,5.15-.2,5.16-.2Z"/>
      <path class="cls-3" d="M67.86,91.56c-2.41,0-4.37-.89-5.63-2.18-.3,2.56-2.47,4.61-5.19,4.61-2.07,0-3.57-1.5-3.94-3.13-.41,1.79-2.02,3.13-3.94,3.14-2.09,0-4.04-1.28-4.84-3.24-.53.81-1.26,1.53-2.2,2.07-4.35,2.51-10.6.17-13.91-5.55-1.01-1.75-1.6-3.55-1.82-5.27-.46,4.16,2.21,8.1,5.8,10.77-3.71,2.74-8.39,2.71-11.59-.49-1.03-1.03-1.74-2.31-2.06-3.72-3.78,3.81-7.54,2.81-9.62,2.54h0c-.27-2.08-1.27-5.85,2.54-9.62-1.42-.33-2.69-1.03-3.72-2.06-3.2-3.2-3.24-7.88-.49-11.59,2.67,3.59,6.61,6.27,10.77,5.81-1.72-.22-3.52-.81-5.27-1.82-5.72-3.3-8.06-9.56-5.55-13.91.55-.95,1.26-1.68,2.07-2.2-1.96-.81-3.24-2.76-3.24-4.84,0-1.92,1.34-3.53,3.13-3.94-1.63-.37-3.13-1.87-3.13-3.94,0-2.73,2.06-4.89,4.61-5.2-1.29-1.26-2.18-3.22-2.18-5.63V0H2.62v97.38h97.46v-5.83h-32.23Z"/>
      <path class="cls-3" d="M13.07,48.9c.28-.54.46-1.23.46-1.99s-.17-1.42-.46-1.99c-.36.98-1.19,1.73-2.21,1.99.55.14,1.06.43,1.47.84.33.33.58.72.74,1.15Z"/>
      <path class="cls-1" d="M13.17,84.39c-1.24,1.24-1.02,3.47-1.02,3.47,0,0,2.23.22,3.46-1.02,1.24-1.24,1.02-3.46,1.02-3.46,0,0-2.23-.22-3.47,1.02Z"/>
      <path class="cls-1" d="M34.29,68.16c1.24-1.24,1.02-3.46,1.02-3.46,0,0-2.23-.22-3.46,1.02-1.24,1.24-1.02,3.46-1.02,3.46,0,0,2.22.22,3.46-1.02Z"/>
      <path class="cls-1" d="M67.86,90.16c-3.38,0-5.83-2.13-5.83-4.43,0-1.59,1.29-2.88,2.88-2.88,1.09,0,1.98.89,1.98,1.98,0,.75-.61,1.36-1.37,1.36-.52,0-.94-.42-.94-.94,0-.36.29-.65.64-.65-.12-.12-.88-.08-.88,1.26,0,1.36,1.51,2.63,3.51,2.63h32.23v-1.4h-32.23c-.22,0-.47-.22-.38-.31.52-.52.81-1.22.81-1.96,0-1.95-1.6-3.38-3.38-3.38-2.17,0-3.73,1.52-4.16,3.29-1.6-1.94-4.35-3.29-7.65-3.29-3.56,0-6.5,1.57-8.03,3.79-.14-.46-.33-.9-.57-1.32-1.24-2.14-4.17-3.27-6.72-1.8-1.72.99-2.38,3.13-1.57,4.9-1.32-.45-2.37-1.51-3.02-2.64-.98-1.69-.93-3.17-.77-3.94,1.08,1.52,3.24,2.13,5.03,1.1,2.35-1.36,3.16-4.37,1.8-6.72-.08-.14-.17-.27-.26-.4.86-.06,1.77-.37,2.69-1.29,1.46-1.46,1.3-3.91-.37-5.58-.54-.54-1.17-.93-1.86-1.17.36-2.2.16-4.05-.11-5.72-1.67-.27-3.52-.47-5.72-.11-.23-.69-.63-1.32-1.17-1.86-1.67-1.67-4.12-1.83-5.58-.37-.92.92-1.23,1.83-1.29,2.69-.13-.09-.27-.18-.4-.26-2.35-1.36-5.37-.55-6.72,1.8-1.03,1.79-.42,3.96,1.1,5.03-.77.15-2.25.2-3.94-.78-1.13-.65-2.19-1.7-2.64-3.02,1.77.81,3.91.16,4.9-1.57,1.47-2.55.34-5.48-1.8-6.72-.42-.24-.86-.43-1.32-.57,2.22-1.53,3.79-4.47,3.79-8.03,0-3.3-1.34-6.05-3.29-7.65,1.77-.43,3.29-1.99,3.29-4.15,0-1.79-1.43-3.38-3.38-3.38-.74,0-1.43.29-1.96.81-.09.09-.3-.16-.3-.38V0h-1.4v32.15c0,2,1.27,3.51,2.63,3.51s1.38-.76,1.26-.88c0,.36-.29.65-.65.65-.52,0-.94-.42-.94-.94,0-.75.61-1.37,1.36-1.37,1.09,0,1.98.89,1.98,1.98,0,1.59-1.29,2.87-2.88,2.87-2.29,0-4.42-2.45-4.42-5.83V0h-1.4v32.15c0,2.41.89,4.37,2.18,5.63-2.56.31-4.61,2.47-4.61,5.2,0,2.07,1.5,3.56,3.13,3.94-1.79.41-3.13,2.02-3.13,3.94,0,2.09,1.28,4.04,3.24,4.84-.81.53-1.53,1.26-2.07,2.2-2.51,4.35-.17,10.6,5.55,13.91,1.75,1.01,3.55,1.6,5.27,1.82-4.16.46-8.1-2.21-10.77-5.81-2.75,3.71-2.71,8.39.49,11.59,1.03,1.03,2.31,1.74,3.72,2.06-3.81,3.78-2.81,7.54-2.54,9.62h0c2.08.27,5.84,1.27,9.62-2.54.32,1.41,1.03,2.69,2.06,3.72,3.2,3.2,7.88,3.24,11.59.49-3.59-2.67-6.27-6.61-5.8-10.77.22,1.72.81,3.52,1.82,5.27,3.3,5.72,9.56,8.06,13.91,5.55.95-.55,1.68-1.26,2.2-2.07.81,1.96,2.76,3.24,4.84,3.24,1.92,0,3.53-1.34,3.94-3.14.37,1.64,1.87,3.14,3.94,3.13,2.72,0,4.89-2.06,5.19-4.61,1.27,1.29,3.22,2.18,5.63,2.18h32.23v-1.4h-32.23ZM7.42,50.85c0-1.46,1.18-2.64,2.64-2.64,1.01,0,1.82.82,1.82,1.82,0,.69-.56,1.26-1.25,1.26-.47,0-.86-.39-.86-.86-.16.16-.11,1.17,1.68,1.17s3.5-2.01,3.5-4.68-1.69-4.68-3.5-4.68-1.83,1.01-1.68,1.17c0-.48.39-.86.86-.86.69,0,1.25.56,1.26,1.25,0,1.01-.82,1.82-1.82,1.82-1.46,0-2.64-1.18-2.64-2.64,0-2.12,1.72-3.83,3.83-3.83,3.06,0,5.9,3.27,5.9,7.77,0,4.5-2.84,7.77-5.9,7.77-2.12,0-3.83-1.72-3.83-3.83ZM10.87,46.91c1.02-.26,1.84-1.02,2.21-1.99.3.57.46,1.27.46,1.99s-.18,1.44-.46,1.99c-.16-.42-.41-.81-.74-1.15-.41-.41-.92-.7-1.47-.84ZM13.43,70.59c-5.2-3-7.08-8.47-5.04-12,1.41-2.45,4.54-3.28,6.98-1.87,1.68.97,2.26,3.12,1.29,4.81-.67,1.16-2.16,1.56-3.32.89-.8-.46-1.07-1.48-.61-2.28.32-.55,1.02-.74,1.57-.42-.08-.29-1.28-.91-2.47,1.15-1.21,2.1-.01,5.38,3.07,7.17,3.08,1.78,6.53,1.17,7.74-.92,1.19-2.06.05-2.8-.24-2.72.55.32.74,1.02.42,1.57-.46.8-1.48,1.07-2.28.61-1.16-.67-1.56-2.15-.89-3.32.97-1.68,3.13-2.26,4.81-1.29,2.44,1.41,3.28,4.54,1.87,6.98-2.04,3.53-7.71,4.63-12.91,1.63ZM29.81,92.51c-4.9,2.78-12.84-1.73-9.12-9.79-2.28,4.84-5.17,7.95-10.55,7.14-.81-5.38,2.3-8.27,7.14-10.55-8.06,3.72-12.56-4.21-9.79-9.11,5.16,5.74,10.95,5.82,15.34,3.05,2.05-.64,3.73-1.89,4.71-3.59,1.47-2.54.96-5.29-.48-7.19-.18-1.11-.28-2.08.78-3.14,1.57-1.57,4.74.21,4.6,2.93.16-.05.31-.09.47-.13,2.4-.58,5.16-.2,5.16-.2,0,0,0,0,0,0h0s.28,2.07-.02,4.19c-.07.49-.17.98-.31,1.44,2.72-.14,4.5,3.02,2.93,4.6-1.06,1.06-2.03.96-3.14.78-1.91-1.44-4.65-1.95-7.19-.48-1.71.98-2.95,2.66-3.59,4.71-2.78,4.39-2.7,10.18,3.05,15.34ZM41.41,91.61c-3.53,2.04-8.99.16-11.99-5.04-3-5.2-1.9-10.87,1.63-12.91,2.44-1.41,5.57-.58,6.98,1.87.97,1.68.4,3.84-1.29,4.81-1.16.67-2.65.27-3.32-.89-.46-.8-.19-1.82.61-2.28.55-.32,1.25-.13,1.57.42.08-.29-.66-1.43-2.72-.24-2.09,1.21-2.7,4.65-.92,7.74,1.78,3.08,5.07,4.28,7.17,3.07,2.06-1.19,1.44-2.4,1.15-2.48.32.55.13,1.26-.42,1.58-.8.46-1.82.19-2.28-.61-.67-1.16-.27-2.65.89-3.32,1.68-.97,3.84-.39,4.81,1.29,1.41,2.44.57,5.57-1.87,6.98ZM53.09,89.14c-.14-.55-.43-1.06-.84-1.47-.33-.33-.72-.58-1.15-.74.54-.28,1.23-.46,1.99-.46s1.42.17,1.99.46c-.98.36-1.73,1.19-1.99,2.21ZM57.03,92.59c-1.46,0-2.64-1.18-2.64-2.64,0-1.01.82-1.82,1.82-1.82.69,0,1.26.56,1.25,1.25,0,.48-.39.87-.87.87.16.16,1.17.11,1.17-1.68s-2.01-3.5-4.68-3.5-4.68,1.69-4.68,3.5,1.01,1.83,1.17,1.68c-.48,0-.86-.39-.86-.87,0-.69.56-1.25,1.26-1.25,1,0,1.82.82,1.82,1.82,0,1.46-1.18,2.64-2.64,2.64-2.12,0-3.83-1.72-3.83-3.83,0-3.06,3.27-5.9,7.77-5.9s7.77,2.85,7.77,5.9c0,2.11-1.72,3.83-3.83,3.83Z"/>
      <path class="cls-2" d="M67.86,88.5c-2,0-3.51-1.27-3.51-2.63,0-1.34.76-1.37.88-1.26-.36,0-.64.29-.64.65,0,.52.42.94.94.94.76,0,1.37-.61,1.37-1.36,0-1.09-.89-1.98-1.98-1.98-1.59,0-2.88,1.29-2.88,2.88,0,2.29,2.45,4.43,5.83,4.43h32.23v-1.66h-32.23Z"/>
      <path class="cls-2" d="M53.09,82.85c-4.5,0-7.77,2.85-7.77,5.9,0,2.12,1.72,3.83,3.83,3.83,1.46,0,2.64-1.18,2.64-2.64,0-1.01-.82-1.82-1.82-1.82-.69,0-1.26.56-1.26,1.25,0,.48.39.87.86.87-.16.16-1.17.11-1.17-1.68s2.01-3.5,4.68-3.5,4.68,1.69,4.68,3.5-1.01,1.83-1.17,1.68c.48,0,.87-.39.87-.87,0-.69-.56-1.25-1.25-1.25-1.01,0-1.82.82-1.82,1.82,0,1.46,1.18,2.64,2.64,2.64,2.12,0,3.83-1.72,3.83-3.83,0-3.06-3.27-5.9-7.77-5.9Z"/>
      <path class="cls-2" d="M38.47,83.34c-1.16.67-1.56,2.15-.89,3.32.46.8,1.48,1.07,2.28.61.55-.32.74-1.02.42-1.58.29.08.91,1.29-1.15,2.48-2.09,1.21-5.38.01-7.17-3.07-1.78-3.09-1.17-6.53.92-7.74,2.06-1.19,2.8-.05,2.72.24-.32-.55-1.02-.74-1.57-.42-.8.46-1.07,1.48-.61,2.28.67,1.16,2.15,1.56,3.32.89,1.69-.97,2.26-3.13,1.29-4.81-1.41-2.45-4.54-3.28-6.98-1.87-3.53,2.03-4.63,7.71-1.63,12.91,3,5.2,8.46,7.08,11.99,5.04,2.45-1.41,3.28-4.54,1.87-6.98-.97-1.68-3.13-2.26-4.81-1.29Z"/>
      <path class="cls-2" d="M26.34,68.96c1.41-2.44.58-5.57-1.87-6.98-1.69-.97-3.84-.4-4.81,1.29-.67,1.16-.27,2.65.89,3.32.8.46,1.82.19,2.28-.61.32-.55.13-1.26-.42-1.57.29-.08,1.43.66.24,2.72-1.21,2.09-4.65,2.7-7.74.92-3.08-1.78-4.28-5.07-3.07-7.17,1.19-2.06,2.4-1.44,2.47-1.15-.55-.32-1.25-.13-1.57.42-.46.8-.19,1.82.61,2.28,1.16.67,2.65.27,3.32-.89.97-1.69.39-3.84-1.29-4.81-2.45-1.41-5.57-.58-6.98,1.87-2.04,3.53-.16,8.99,5.04,12,5.2,3,10.87,1.9,12.91-1.63Z"/>
      <path class="cls-2" d="M17.15,46.91c0-4.5-2.84-7.77-5.9-7.77-2.12,0-3.83,1.72-3.83,3.83,0,1.46,1.18,2.64,2.64,2.64,1.01,0,1.82-.81,1.82-1.82,0-.69-.56-1.25-1.26-1.25-.48,0-.86.39-.86.86-.16-.16-.11-1.17,1.68-1.17s3.5,2.01,3.5,4.68-1.69,4.68-3.5,4.68-1.83-1.01-1.68-1.17c0,.48.39.86.86.86.69,0,1.26-.56,1.25-1.26,0-1-.82-1.82-1.82-1.82-1.46,0-2.64,1.18-2.64,2.64,0,2.12,1.72,3.83,3.83,3.83,3.06,0,5.9-3.27,5.9-7.77Z"/>
      <path class="cls-2" d="M9.85,32.15c0,3.38,2.13,5.83,4.42,5.83,1.59,0,2.88-1.29,2.88-2.87,0-1.1-.89-1.98-1.98-1.98-.75,0-1.37.61-1.36,1.37,0,.52.42.94.94.94.36,0,.65-.29.65-.65.12.12.08.88-1.26.88s-2.63-1.51-2.63-3.51V0h-1.66v32.15Z"/>
      <path class="cls-2" d="M30.35,72.45c2.54-1.47,5.29-.96,7.19.48,1.11.18,2.08.28,3.14-.78,1.57-1.57-.21-4.73-2.93-4.6.14-.47.24-.96.31-1.44.3-2.1.02-4.17.02-4.19,0,0-2.77-.38-5.16.2-.16.04-.32.08-.47.13.14-2.72-3.02-4.5-4.6-2.93-1.06,1.06-.96,2.03-.78,3.14,1.44,1.9,1.95,4.65.48,7.19-.98,1.7-2.66,2.95-4.71,3.59-4.39,2.78-10.18,2.7-15.34-3.05-2.78,4.9,1.72,12.84,9.79,9.11-4.84,2.28-7.95,5.17-7.14,10.55,5.38.81,8.27-2.3,10.55-7.14-3.72,8.06,4.21,12.56,9.12,9.79-5.75-5.16-5.82-10.95-3.05-15.34.64-2.05,1.89-3.73,3.59-4.71ZM31.84,65.72c1.24-1.24,3.46-1.02,3.46-1.02,0,0,.22,2.23-1.02,3.46-1.24,1.24-3.46,1.02-3.46,1.02,0,0-.22-2.23,1.02-3.46ZM15.61,86.84c-1.24,1.24-3.46,1.02-3.46,1.02,0,0-.22-2.23,1.02-3.47,1.24-1.24,3.47-1.02,3.47-1.02,0,0,.21,2.23-1.02,3.46Z"/>
      <path class="cls-2" d="M38.07,66.11c.3-2.11.02-4.19.02-4.19h0s.28,2.08-.02,4.19Z"/>
    </g>
  </g>
</svg>