<?xml version="1.0" encoding="utf-8"?>
<!-- Generator: Adobe Illustrator 28.2.0, SVG Export Plug-In . SVG Version: 6.00 Build 0)  -->
<svg version="1.1" id="_圖層_2" xmlns="http://www.w3.org/2000/svg" xmlns:xlink="http://www.w3.org/1999/xlink" x="0px" y="0px"
	 viewBox="0 0 100 100" style="enable-background:new 0 0 100 100;" xml:space="preserve">
<style type="text/css">
	.st0{fill:#6C3D49;}
	.st1{fill:#571213;}
	.st2{fill:#2D211B;}
</style>
<g>
	<path class="st0" d="M26.1,21.3c2.2,3.2,5.6,4.7,9,4.7c1.8,0,3.6-0.4,5.2-1.2c3.1,1.2,6.5,1.4,9.6,1.2c-0.8,4.1,0.5,8.3,3,11.1
		c0.1,2.7,1.2,8.7,1.2,8.7s6,1.2,8.7,1.2c2.8,2.5,7.1,3.8,11.1,3c-0.2,3.1,0.1,6.5,1.2,9.6c-0.8,1.6-1.2,3.4-1.2,5.2
		c0,3.3,1.6,6.8,4.7,9V100h2.6V72.3c-2.8-1.3-4.7-4.2-4.7-7.5c0-1.8,0.5-3.5,1.5-5c-1-2-1.5-4.4-1.5-6.8c0-2.6-0.2-5.5,0.9-7.6
		c-3.4,3.4-10.2,2.9-13.6-1c-2.1,0.2-7.5-0.8-7.5-0.8s-1-5.4-0.8-7.5c-3.8-3.4-4.4-10.2-1-13.6c-2.2,1.1-5,0.9-7.6,0.9
		c-2.4,0-4.7-0.5-6.8-1.5c-1.5,1-3.2,1.5-5,1.5c-3.3,0-6.1-1.9-7.5-4.7H-0.1v2.6L26.1,21.3L26.1,21.3z"/>
	<polygon class="st0" points="-0.1,0 -0.1,2.6 97.4,2.6 97.4,100 100,100 100,0 	"/>
	<path class="st1" d="M27.6,18.7c1.3,2.8,4.2,4.7,7.5,4.7c1.8,0,3.5-0.5,5-1.5c2,1,4.4,1.5,6.8,1.5c2.6,0,5.5,0.2,7.6-0.9
		c-3.4,3.4-2.9,10.2,1,13.6c-0.2,2.1,0.8,7.5,0.8,7.5s5.4,1,7.5,0.8c3.4,3.8,10.2,4.4,13.6,1c-1.1,2.2-0.9,5-0.9,7.6
		c0,2.4,0.5,4.7,1.5,6.8c-1,1.5-1.5,3.2-1.5,5c0,3.3,1.9,6.1,4.7,7.5V100h5.8V67.8c0-0.2-0.2-0.5-0.3-0.4c-0.5,0.5-1.2,0.8-2,0.8
		c-1.9,0-3.4-1.6-3.4-3.4c0-2.2,1.5-3.7,3.3-4.2c-1.9-1.6-3.3-4.4-3.3-7.6c0-3.6,1.6-6.5,3.8-8c-0.5-0.1-0.9-0.3-1.3-0.6
		c-2.1-1.2-3.3-4.2-1.8-6.7c1-1.7,3.1-2.4,4.9-1.6c-0.4-1.3-1.5-2.4-2.6-3c-1.7-1-3.2-0.9-3.9-0.8c1.5,1.1,2.1,3.2,1.1,5
		c-1.4,2.4-4.4,3.2-6.7,1.8c-0.1-0.1-0.3-0.2-0.4-0.3c-0.1,0.9-0.4,1.8-1.3,2.7c-1.5,1.5-3.9,1.3-5.6-0.4c-0.5-0.5-0.9-1.2-1.2-1.9
		c-2.2,0.4-4,0.2-5.7-0.1c-0.3-1.7-0.5-3.5-0.1-5.7c-0.7-0.2-1.3-0.6-1.9-1.2c-1.7-1.7-1.8-4.1-0.4-5.6c0.9-0.9,1.8-1.2,2.7-1.3
		c-0.1-0.1-0.2-0.3-0.3-0.4c-1.4-2.4-0.5-5.4,1.8-6.7c1.8-1,4-0.4,5,1.1c0.2-0.8,0.2-2.2-0.8-3.9c-0.7-1.1-1.7-2.2-3-2.6
		c0.8,1.8,0.2,3.9-1.6,4.9c-2.5,1.5-5.5,0.3-6.7-1.8c-0.2-0.4-0.4-0.9-0.6-1.3c-1.5,2.2-4.5,3.8-8,3.8c-3.3,0-6-1.3-7.6-3.3
		c-0.4,1.8-2,3.3-4.2,3.3c-1.8,0-3.4-1.4-3.4-3.4c0-0.7,0.3-1.4,0.8-2c0.1-0.1-0.2-0.3-0.4-0.3H-0.1v5.8L27.6,18.7L27.6,18.7z"/>
	<path class="st1" d="M46.9,13.5c0.8,0,1.4-0.2,2-0.5c-0.4-0.2-0.8-0.4-1.1-0.7c-0.4-0.4-0.7-0.9-0.8-1.5c-0.3,1-1,1.8-2,2.2
		C45.5,13.4,46.2,13.5,46.9,13.5L46.9,13.5z"/>
	<path class="st1" d="M61.9,38.1L61.9,38.1c0,0,2.8,0.4,5.2-0.2C64.7,38.4,61.9,38.1,61.9,38.1L61.9,38.1z"/>
	<path class="st1" d="M32.2,8.4c2.4,0,4.4,0.9,5.6,2.2C38.1,8.1,40.3,6,43,6c2.1,0,3.6,1.5,3.9,3.1c0.4-1.8,2-3.1,3.9-3.1
		c2.1,0,4,1.3,4.8,3.2c0.5-0.8,1.3-1.5,2.2-2.1c4.3-2.5,10.6-0.2,13.9,5.6c1,1.8,1.6,3.6,1.8,5.3c0.5-4.2-2.2-8.1-5.8-10.8
		c3.7-2.7,8.4-2.7,11.6,0.5c1,1,1.7,2.3,2.1,3.7c3.8-3.8,7.5-2.8,9.6-2.5l0,0c0.3,2.1,1.3,5.8-2.5,9.6c1.4,0.3,2.7,1,3.7,2.1
		c3.2,3.2,3.2,7.9,0.5,11.6c-2.7-3.6-6.6-6.3-10.8-5.8c1.7,0.2,3.5,0.8,5.3,1.8c5.7,3.3,8.1,9.6,5.6,13.9c-0.5,0.9-1.3,1.7-2.1,2.2
		c2,0.8,3.2,2.8,3.2,4.8c0,1.9-1.3,3.5-3.1,3.9C92.5,53.5,94,55,94,57c0,2.7-2.1,4.9-4.6,5.2c1.3,1.3,2.2,3.2,2.2,5.6V100h5.8V2.6
		H-0.1v5.8H32.2z"/>
	<path class="st1" d="M86.9,51.1c-0.3,0.5-0.5,1.2-0.5,2c0,0.8,0.2,1.4,0.5,2c0.4-1,1.2-1.7,2.2-2c-0.5-0.1-1.1-0.4-1.5-0.8
		C87.3,51.9,87.1,51.5,86.9,51.1L86.9,51.1z"/>
	<path class="st0" d="M86.8,15.6c1.2-1.2,1-3.5,1-3.5s-2.2-0.2-3.5,1c-1.2,1.2-1,3.5-1,3.5S85.6,16.8,86.8,15.6z"/>
	<path class="st0" d="M65.7,31.8c-1.2,1.2-1,3.5-1,3.5s2.2,0.2,3.5-1c1.2-1.2,1-3.5,1-3.5S66.9,30.6,65.7,31.8L65.7,31.8z"/>
	<path class="st0" d="M32.2,9.8c3.4,0,5.8,2.1,5.8,4.4c0,1.6-1.3,2.9-2.9,2.9c-1.1,0-2-0.9-2-2c0-0.8,0.6-1.4,1.4-1.4
		c0.5,0,0.9,0.4,0.9,0.9c0,0.4-0.3,0.6-0.6,0.6c0.1,0.1,0.9,0.1,0.9-1.3c0-1.4-1.5-2.6-3.5-2.6H-0.1v1.4h32.2c0.2,0,0.5,0.2,0.4,0.3
		c-0.5,0.5-0.8,1.2-0.8,2c0,2,1.6,3.4,3.4,3.4c2.2,0,3.7-1.5,4.2-3.3c1.6,1.9,4.4,3.3,7.6,3.3c3.6,0,6.5-1.6,8-3.8
		c0.1,0.5,0.3,0.9,0.6,1.3c1.2,2.1,4.2,3.3,6.7,1.8c1.7-1,2.4-3.1,1.6-4.9c1.3,0.4,2.4,1.5,3,2.6c1,1.7,0.9,3.2,0.8,3.9
		c-1.1-1.5-3.2-2.1-5-1.1c-2.4,1.4-3.2,4.4-1.8,6.7c0.1,0.1,0.2,0.3,0.3,0.4c-0.9,0.1-1.8,0.4-2.7,1.3c-1.5,1.5-1.3,3.9,0.4,5.6
		c0.5,0.5,1.2,0.9,1.9,1.2c-0.4,2.2-0.2,4,0.1,5.7c1.7,0.3,3.5,0.5,5.7,0.1c0.2,0.7,0.6,1.3,1.2,1.9c1.7,1.7,4.1,1.8,5.6,0.4
		c0.9-0.9,1.2-1.8,1.3-2.7c0.1,0.1,0.3,0.2,0.4,0.3c2.3,1.4,5.4,0.5,6.7-1.8c1-1.8,0.4-4-1.1-5c0.8-0.2,2.2-0.2,3.9,0.8
		c1.1,0.7,2.2,1.7,2.6,3c-1.8-0.8-3.9-0.2-4.9,1.6c-1.5,2.5-0.3,5.5,1.8,6.7c0.4,0.2,0.9,0.4,1.3,0.6c-2.2,1.5-3.8,4.5-3.8,8
		c0,3.3,1.3,6,3.3,7.6c-1.8,0.4-3.3,2-3.3,4.2c0,1.8,1.4,3.4,3.4,3.4c0.7,0,1.4-0.3,2-0.8c0.1-0.1,0.3,0.2,0.3,0.4V100h1.4V67.9
		c0-2-1.3-3.5-2.6-3.5s-1.4,0.8-1.3,0.9c0-0.4,0.3-0.6,0.6-0.6c0.5,0,0.9,0.4,0.9,0.9c0,0.8-0.6,1.4-1.4,1.4c-1.1,0-2-0.9-2-2
		c0-1.6,1.3-2.9,2.9-2.9c2.3,0,4.4,2.4,4.4,5.8V100h1.4V67.9c0-2.4-0.9-4.4-2.2-5.6c2.6-0.3,4.6-2.5,4.6-5.2c0-2.1-1.5-3.6-3.1-3.9
		c1.8-0.4,3.1-2,3.1-3.9c0-2.1-1.3-4-3.2-4.8c0.8-0.5,1.5-1.3,2.1-2.2c2.5-4.3,0.2-10.6-5.6-13.9c-1.8-1-3.6-1.6-5.3-1.8
		c4.2-0.5,8.1,2.2,10.8,5.8c2.7-3.7,2.7-8.4-0.5-11.6c-1-1-2.3-1.7-3.7-2.1c3.8-3.8,2.8-7.5,2.5-9.6l0,0c-2.1-0.3-5.8-1.3-9.6,2.5
		c-0.3-1.4-1-2.7-2.1-3.7c-3.2-3.2-7.9-3.2-11.6-0.5c3.6,2.7,6.3,6.6,5.8,10.8c-0.2-1.7-0.8-3.5-1.8-5.3C68.5,7,62.2,4.7,57.9,7.2
		c-0.9,0.5-1.7,1.3-2.2,2.1c-0.8-2-2.8-3.2-4.8-3.2c-1.9,0-3.5,1.3-3.9,3.1C46.5,7.5,45,6,43,6c-2.7,0-4.9,2.1-5.2,4.6
		c-1.3-1.3-3.2-2.2-5.6-2.2H-0.1v1.4L32.2,9.8L32.2,9.8z M92.6,49.1c0,1.5-1.2,2.6-2.6,2.6c-1,0-1.8-0.8-1.8-1.8
		c0-0.7,0.6-1.3,1.3-1.3c0.5,0,0.9,0.4,0.9,0.9c0.2-0.2,0.1-1.2-1.7-1.2s-3.5,2-3.5,4.7s1.7,4.7,3.5,4.7c1.8,0,1.8-1,1.7-1.2
		c0,0.5-0.4,0.9-0.9,0.9c-0.7,0-1.3-0.6-1.3-1.2c0-1,0.8-1.8,1.8-1.8c1.5,0,2.6,1.2,2.6,2.6c0,2.1-1.7,3.8-3.8,3.8
		c-3.1,0-5.9-3.3-5.9-7.8c0-4.5,2.8-7.8,5.9-7.8C90.9,45.3,92.6,47,92.6,49.1L92.6,49.1z M89.1,53.1c-1,0.3-1.8,1-2.2,2
		c-0.3-0.6-0.5-1.3-0.5-2c0-0.7,0.2-1.4,0.5-2c0.2,0.4,0.4,0.8,0.7,1.1C88.1,52.6,88.6,52.9,89.1,53.1L89.1,53.1z M86.6,29.4
		c5.2,3,7.1,8.5,5,12c-1.4,2.4-4.5,3.3-7,1.9c-1.7-1-2.3-3.1-1.3-4.8c0.7-1.2,2.2-1.6,3.3-0.9c0.8,0.5,1.1,1.5,0.6,2.3
		c-0.3,0.5-1,0.7-1.6,0.4c0.1,0.3,1.3,0.9,2.5-1.2c1.2-2.1,0-5.4-3.1-7.2c-3.1-1.8-6.5-1.2-7.7,0.9c-1.2,2.1,0,2.8,0.2,2.7
		c-0.5-0.3-0.7-1-0.4-1.6c0.5-0.8,1.5-1.1,2.3-0.6c1.2,0.7,1.6,2.2,0.9,3.3c-1,1.7-3.1,2.3-4.8,1.3c-2.4-1.4-3.3-4.5-1.9-7
		C75.7,27.5,81.4,26.4,86.6,29.4L86.6,29.4z M70.2,7.5c4.9-2.8,12.8,1.7,9.1,9.8c2.3-4.8,5.2-8,10.5-7.1c0.8,5.4-2.3,8.3-7.1,10.5
		c8.1-3.7,12.6,4.2,9.8,9.1c-5.2-5.7-10.9-5.8-15.3-3c-2,0.6-3.7,1.9-4.7,3.6c-1.5,2.5-1,5.3,0.5,7.2c0.2,1.1,0.3,2.1-0.8,3.1
		c-1.6,1.6-4.7-0.2-4.6-2.9c-0.2,0-0.3,0.1-0.5,0.1c-2.4,0.6-5.2,0.2-5.2,0.2l0,0l0,0c0,0-0.3-2.1,0-4.2c0.1-0.5,0.2-1,0.3-1.4
		c-2.7,0.1-4.5-3-2.9-4.6c1.1-1.1,2-1,3.1-0.8c1.9,1.4,4.7,2,7.2,0.5c1.7-1,2.9-2.7,3.6-4.7C76,18.5,75.9,12.7,70.2,7.5z M58.6,8.4
		c3.5-2,9-0.2,12,5c3,5.2,1.9,10.9-1.6,12.9c-2.4,1.4-5.6,0.6-7-1.9c-1-1.7-0.4-3.8,1.3-4.8c1.2-0.7,2.6-0.3,3.3,0.9
		c0.5,0.8,0.2,1.8-0.6,2.3c-0.5,0.3-1.3,0.1-1.6-0.4c-0.1,0.3,0.7,1.4,2.7,0.2c2.1-1.2,2.7-4.7,0.9-7.7c-1.8-3.1-5.1-4.3-7.2-3.1
		c-2.1,1.2-1.4,2.4-1.2,2.5c-0.3-0.6-0.1-1.3,0.4-1.6c0.8-0.5,1.8-0.2,2.3,0.6c0.7,1.2,0.3,2.6-0.9,3.3c-1.7,1-3.8,0.4-4.8-1.3
		C55.3,12.9,56.1,9.8,58.6,8.4z M46.9,10.9c0.1,0.6,0.4,1.1,0.8,1.5c0.3,0.3,0.7,0.6,1.1,0.7c-0.5,0.3-1.2,0.5-2,0.5s-1.4-0.2-2-0.5
		C45.9,12.7,46.6,11.9,46.9,10.9L46.9,10.9z M43,7.4c1.5,0,2.6,1.2,2.6,2.6c0,1-0.8,1.8-1.8,1.8c-0.7,0-1.3-0.6-1.3-1.3
		c0-0.5,0.4-0.9,0.9-0.9c-0.2-0.2-1.2-0.1-1.2,1.7s2,3.5,4.7,3.5s4.7-1.7,4.7-3.5s-1-1.8-1.2-1.7c0.5,0,0.9,0.4,0.9,0.9
		c0,0.7-0.6,1.3-1.3,1.3c-1,0-1.8-0.8-1.8-1.8c0-1.5,1.2-2.6,2.6-2.6c2.1,0,3.8,1.7,3.8,3.8c0,3.1-3.3,5.9-7.8,5.9s-7.8-2.8-7.8-5.9
		C39.2,9.1,40.9,7.4,43,7.4L43,7.4z"/>
	<path class="st2" d="M32.2,11.5c2,0,3.5,1.3,3.5,2.6c0,1.3-0.8,1.4-0.9,1.3c0.4,0,0.6-0.3,0.6-0.6c0-0.5-0.4-0.9-0.9-0.9
		c-0.8,0-1.4,0.6-1.4,1.4c0,1.1,0.9,2,2,2c1.6,0,2.9-1.3,2.9-2.9c0-2.3-2.4-4.4-5.8-4.4H-0.1v1.7H32.2z"/>
	<path class="st2" d="M46.9,17.1c4.5,0,7.8-2.8,7.8-5.9c0-2.1-1.7-3.8-3.8-3.8c-1.5,0-2.6,1.2-2.6,2.6c0,1,0.8,1.8,1.8,1.8
		c0.7,0,1.3-0.6,1.3-1.3c0-0.5-0.4-0.9-0.9-0.9c0.2-0.2,1.2-0.1,1.2,1.7s-2,3.5-4.7,3.5s-4.7-1.7-4.7-3.5s1-1.8,1.2-1.7
		c-0.5,0-0.9,0.4-0.9,0.9c0,0.7,0.6,1.3,1.3,1.3c1,0,1.8-0.8,1.8-1.8c0-1.5-1.2-2.6-2.6-2.6c-2.1,0-3.8,1.7-3.8,3.8
		C39.1,14.3,42.4,17.1,46.9,17.1L46.9,17.1z"/>
	<path class="st2" d="M61.5,16.7c1.2-0.7,1.6-2.2,0.9-3.3c-0.5-0.8-1.5-1.1-2.3-0.6c-0.5,0.3-0.7,1-0.4,1.6
		c-0.3-0.1-0.9-1.3,1.2-2.5c2.1-1.2,5.4,0,7.2,3.1c1.8,3.1,1.2,6.5-0.9,7.7c-2.1,1.2-2.8,0-2.7-0.2c0.3,0.5,1,0.7,1.6,0.4
		c0.8-0.5,1.1-1.5,0.6-2.3c-0.7-1.2-2.2-1.6-3.3-0.9c-1.7,1-2.3,3.1-1.3,4.8c1.4,2.4,4.5,3.3,7,1.9c3.5-2,4.6-7.7,1.6-12.9
		c-3-5.2-8.5-7.1-12-5c-2.4,1.4-3.3,4.5-1.9,7C57.7,17.1,59.8,17.6,61.5,16.7z"/>
	<path class="st2" d="M73.7,31c-1.4,2.4-0.6,5.6,1.9,7c1.7,1,3.8,0.4,4.8-1.3c0.7-1.2,0.3-2.6-0.9-3.3c-0.8-0.5-1.8-0.2-2.3,0.6
		c-0.3,0.6-0.1,1.3,0.4,1.6c-0.3,0.1-1.4-0.7-0.2-2.7c1.2-2.1,4.7-2.7,7.7-0.9c3.1,1.8,4.3,5.1,3.1,7.2c-1.2,2.1-2.4,1.4-2.5,1.2
		c0.5,0.3,1.3,0.1,1.6-0.4c0.5-0.8,0.2-1.8-0.6-2.3c-1.2-0.7-2.6-0.3-3.3,0.9c-1,1.7-0.4,3.8,1.3,4.8c2.4,1.4,5.6,0.6,7-1.9
		c2-3.5,0.2-9-5-12C81.4,26.4,75.7,27.5,73.7,31L73.7,31z"/>
	<path class="st2" d="M82.9,53.1c0,4.5,2.8,7.8,5.9,7.8c2.1,0,3.8-1.7,3.8-3.8c0-1.5-1.2-2.6-2.6-2.6c-1,0-1.8,0.8-1.8,1.8
		c0,0.7,0.6,1.2,1.3,1.2c0.5,0,0.9-0.4,0.9-0.9c0.2,0.2,0.1,1.2-1.7,1.2s-3.5-2-3.5-4.7s1.7-4.7,3.5-4.7c1.8,0,1.8,1,1.7,1.2
		c0-0.5-0.4-0.9-0.9-0.9c-0.7,0-1.3,0.6-1.3,1.3c0,1,0.8,1.8,1.8,1.8c1.5,0,2.6-1.2,2.6-2.6c0-2.1-1.7-3.8-3.8-3.8
		C85.7,45.3,82.8,48.6,82.9,53.1L82.9,53.1z"/>
	<path class="st2" d="M90.1,67.8c0-3.4-2.1-5.8-4.4-5.8c-1.6,0-2.9,1.3-2.9,2.9c0,1.1,0.9,2,2,2c0.8,0,1.4-0.6,1.4-1.4
		c0-0.5-0.4-0.9-0.9-0.9c-0.4,0-0.6,0.3-0.6,0.6c-0.1-0.1-0.1-0.9,1.3-0.9s2.6,1.5,2.6,3.5V100h1.7V67.8L90.1,67.8z"/>
	<path class="st2" d="M69.7,27.5c-2.5,1.5-5.3,1-7.2-0.5c-1.1-0.2-2.1-0.3-3.1,0.8c-1.6,1.6,0.2,4.7,2.9,4.6c-0.1,0.5-0.2,1-0.3,1.4
		c-0.3,2.1,0,4.2,0,4.2c0,0,2.8,0.4,5.2-0.2c0.2,0,0.3-0.1,0.5-0.1c-0.1,2.7,3,4.5,4.6,2.9c1.1-1.1,1-2,0.8-3.1
		c-1.4-1.9-1.9-4.7-0.5-7.2c1-1.7,2.7-3,4.7-3.6c4.4-2.8,10.2-2.7,15.3,3c2.8-4.9-1.7-12.8-9.8-9.1c4.8-2.3,7.9-5.2,7.1-10.5
		c-5.4-0.8-8.3,2.3-10.5,7.1c3.7-8.1-4.2-12.6-9.1-9.8c5.7,5.2,5.8,10.9,3,15.3C72.6,24.9,71.4,26.6,69.7,27.5L69.7,27.5z
		 M68.2,34.3c-1.2,1.2-3.5,1-3.5,1s-0.2-2.2,1-3.5c1.2-1.2,3.5-1,3.5-1S69.4,33,68.2,34.3L68.2,34.3z M84.4,13.2
		c1.2-1.2,3.5-1,3.5-1s0.2,2.2-1,3.5c-1.2,1.2-3.5,1-3.5,1S83.1,14.4,84.4,13.2z"/>
	<path class="st2" d="M61.9,33.9c-0.3,2.1,0,4.2,0,4.2l0,0C61.9,38.1,61.6,36,61.9,33.9z"/>
</g>
</svg>
