<?xml version="1.0" encoding="utf-8"?>
<!-- Generator: Adobe Illustrator 28.2.0, SVG Export Plug-In . SVG Version: 6.00 Build 0)  -->
<svg version="1.1" id="_圖層_2" xmlns="http://www.w3.org/2000/svg" xmlns:xlink="http://www.w3.org/1999/xlink" x="0px" y="0px"
	 viewBox="0 0 100 100" style="enable-background:new 0 0 100 100;" xml:space="preserve">
<style type="text/css">
	.st0{fill:#6C3D49;}
	.st1{fill:#571213;}
	.st2{fill:#2D211B;}
</style>
<g id="_圖層_2-2">
	<g>
		<path class="st0" d="M73.9,78.6c-2.2-3.2-5.6-4.7-9-4.7c-1.8,0-3.6,0.4-5.2,1.2c-3.1-1.2-6.5-1.4-9.6-1.2c0.8-4.1-0.5-8.3-3-11.1
			c-0.1-2.7-1.2-8.7-1.2-8.7s-6-1.2-8.7-1.2c-2.8-2.5-7.1-3.8-11.1-3c0.2-3.1-0.1-6.5-1.2-9.6c0.8-1.6,1.2-3.4,1.2-5.2
			c0-3.3-1.5-6.8-4.7-9V0h-2.6v27.6c2.8,1.3,4.7,4.2,4.7,7.5c0,1.8-0.5,3.5-1.5,5c1,2,1.5,4.4,1.5,6.8c0,2.6,0.2,5.5-0.9,7.6
			c3.4-3.4,10.3-2.9,13.6,1c2.1-0.2,7.5,0.8,7.5,0.8s1,5.4,0.8,7.5c3.8,3.4,4.4,10.2,1,13.6c2.2-1.1,5-0.9,7.6-0.9
			c2.4,0,4.7,0.5,6.8,1.5c1.5-1,3.2-1.5,5-1.5c3.3,0,6.1,1.9,7.5,4.7h27.7v-2.6L73.9,78.6L73.9,78.6z"/>
		<polygon class="st0" points="100.1,100 100.1,97.4 2.6,97.4 2.6,0 0,0 0,100 		"/>
		<path class="st1" d="M72.4,81.3c-1.3-2.8-4.2-4.7-7.5-4.7c-1.8,0-3.5,0.5-5,1.5c-2-1-4.4-1.5-6.8-1.5c-2.6,0-5.5-0.2-7.6,0.9
			c3.4-3.4,2.9-10.2-1-13.6c0.2-2.1-0.8-7.5-0.8-7.5c0,0-5.4-1-7.5-0.8c-3.4-3.8-10.2-4.4-13.6-1c1.1-2.2,0.9-5,0.9-7.6
			c0-2.4-0.5-4.7-1.5-6.8c1-1.5,1.5-3.2,1.5-5c0-3.3-1.9-6.1-4.7-7.5V0h-5.8v32.2c0,0.2,0.2,0.5,0.3,0.4c0.5-0.5,1.2-0.8,2-0.8
			c2,0,3.4,1.6,3.4,3.4c0,2.2-1.5,3.7-3.3,4.2c1.9,1.6,3.3,4.3,3.3,7.7c0,3.6-1.6,6.5-3.8,8c0.5,0.1,0.9,0.3,1.3,0.6
			c2.1,1.2,3.3,4.2,1.8,6.7c-1,1.7-3.1,2.4-4.9,1.6c0.4,1.3,1.5,2.4,2.6,3c1.7,1,3.2,0.9,3.9,0.8c-1.5-1.1-2.1-3.2-1.1-5
			c1.4-2.3,4.4-3.2,6.7-1.8c0.1,0.1,0.3,0.2,0.4,0.3c0.1-0.9,0.4-1.8,1.3-2.7c1.5-1.5,3.9-1.3,5.6,0.4c0.5,0.5,0.9,1.2,1.2,1.9
			c2.2-0.4,4-0.2,5.7,0.1c0.3,1.7,0.5,3.5,0.1,5.7c0.7,0.2,1.3,0.6,1.9,1.2c1.7,1.7,1.8,4.1,0.4,5.6c-0.9,0.9-1.8,1.2-2.7,1.3
			c0.1,0.1,0.2,0.3,0.3,0.4c1.4,2.3,0.5,5.4-1.8,6.7c-1.8,1-4,0.4-5-1.1c-0.2,0.8-0.2,2.2,0.8,3.9c0.7,1.1,1.7,2.2,3,2.6
			c-0.8-1.8-0.2-3.9,1.6-4.9c2.5-1.5,5.5-0.3,6.7,1.8c0.2,0.4,0.4,0.9,0.6,1.3c1.5-2.2,4.5-3.8,8-3.8c3.3,0,6,1.3,7.7,3.3
			c0.4-1.8,2-3.3,4.2-3.3c1.8,0,3.4,1.4,3.4,3.4c0,0.7-0.3,1.4-0.8,2c-0.1,0.1,0.2,0.3,0.4,0.3h32.2v-5.8L72.4,81.3L72.4,81.3z"/>
		<path class="st1" d="M53.1,86.5c-0.8,0-1.4,0.2-2,0.5c0.4,0.2,0.8,0.4,1.2,0.7c0.4,0.4,0.7,0.9,0.8,1.5c0.3-1,1-1.8,2-2.2
			C54.5,86.6,53.8,86.5,53.1,86.5z"/>
		<path class="st1" d="M38.1,61.9L38.1,61.9c0,0-2.8-0.4-5.2,0.2C35.3,61.5,38.1,61.9,38.1,61.9z"/>
		<path class="st1" d="M67.9,91.5c-2.4,0-4.4-0.9-5.6-2.2C61.9,91.9,59.8,94,57,94c-2.1,0-3.6-1.5-3.9-3.1c-0.4,1.8-2,3.1-3.9,3.1
			c-2.1,0-4-1.3-4.8-3.2c-0.5,0.8-1.3,1.5-2.2,2.1c-4.3,2.5-10.6,0.2-13.9-5.6c-1-1.8-1.6-3.6-1.8-5.3c-0.5,4.2,2.2,8.1,5.8,10.8
			c-3.7,2.7-8.4,2.7-11.6-0.5c-1-1-1.7-2.3-2.1-3.7c-3.8,3.8-7.5,2.8-9.6,2.5l0,0c-0.3-2.1-1.3-5.8,2.5-9.6c-1.4-0.3-2.7-1-3.7-2.1
			c-3.2-3.2-3.2-7.9-0.5-11.6c2.7,3.6,6.6,6.3,10.8,5.8c-1.7-0.2-3.5-0.8-5.3-1.8C7,68.5,4.7,62.3,7.2,57.9c0.6-1,1.3-1.7,2.1-2.2
			c-2-0.8-3.2-2.8-3.2-4.8c0-1.9,1.3-3.5,3.1-3.9C7.5,46.6,6,45.1,6,43c0-2.7,2.1-4.9,4.6-5.2c-1.3-1.3-2.2-3.2-2.2-5.6V0H2.6v97.4
			h97.5v-5.8L67.9,91.5L67.9,91.5z"/>
		<path class="st1" d="M13.1,48.9c0.3-0.5,0.5-1.2,0.5-2s-0.2-1.4-0.5-2c-0.4,1-1.2,1.7-2.2,2c0.6,0.1,1.1,0.4,1.5,0.8
			C12.7,48.1,12.9,48.5,13.1,48.9z"/>
		<path class="st0" d="M13.2,84.4c-1.2,1.2-1,3.5-1,3.5s2.2,0.2,3.5-1c1.2-1.2,1-3.5,1-3.5S14.4,83.2,13.2,84.4L13.2,84.4z"/>
		<path class="st0" d="M34.3,68.2c1.2-1.2,1-3.5,1-3.5s-2.2-0.2-3.5,1c-1.2,1.2-1,3.5-1,3.5S33.1,69.4,34.3,68.2z"/>
		<path class="st0" d="M67.9,90.2c-3.4,0-5.8-2.1-5.8-4.4c0-1.6,1.3-2.9,2.9-2.9c1.1,0,2,0.9,2,2c0,0.8-0.6,1.4-1.4,1.4
			c-0.5,0-0.9-0.4-0.9-0.9c0-0.4,0.3-0.7,0.6-0.7c-0.1-0.1-0.9-0.1-0.9,1.3c0,1.4,1.5,2.6,3.5,2.6h32.2v-1.4H67.9
			c-0.2,0-0.5-0.2-0.4-0.3c0.5-0.5,0.8-1.2,0.8-2c0-1.9-1.6-3.4-3.4-3.4c-2.2,0-3.7,1.5-4.2,3.3c-1.6-1.9-4.3-3.3-7.7-3.3
			c-3.6,0-6.5,1.6-8,3.8c-0.1-0.5-0.3-0.9-0.6-1.3c-1.2-2.1-4.2-3.3-6.7-1.8c-1.7,1-2.4,3.1-1.6,4.9c-1.3-0.4-2.4-1.5-3-2.6
			c-1-1.7-0.9-3.2-0.8-3.9c1.1,1.5,3.2,2.1,5,1.1c2.3-1.4,3.2-4.4,1.8-6.7c-0.1-0.1-0.2-0.3-0.3-0.4c0.9-0.1,1.8-0.4,2.7-1.3
			c1.5-1.5,1.3-3.9-0.4-5.6c-0.5-0.5-1.2-0.9-1.9-1.2c0.4-2.2,0.2-4-0.1-5.7c-1.7-0.3-3.5-0.5-5.7-0.1c-0.2-0.7-0.6-1.3-1.2-1.9
			c-1.7-1.7-4.1-1.8-5.6-0.4c-0.9,0.9-1.2,1.8-1.3,2.7c-0.1-0.1-0.3-0.2-0.4-0.3c-2.4-1.4-5.4-0.5-6.7,1.8c-1,1.8-0.4,4,1.1,5
			c-0.8,0.2-2.2,0.2-3.9-0.8c-1.1-0.7-2.2-1.7-2.6-3c1.8,0.8,3.9,0.2,4.9-1.6c1.5-2.5,0.3-5.5-1.8-6.7c-0.4-0.2-0.9-0.4-1.3-0.6
			c2.2-1.5,3.8-4.5,3.8-8c0-3.3-1.3-6-3.3-7.7c1.8-0.4,3.3-2,3.3-4.2c0-1.8-1.4-3.4-3.4-3.4c-0.7,0-1.4,0.3-2,0.8
			c-0.1,0.1-0.3-0.2-0.3-0.4V0h-1.4v32.2c0,2,1.3,3.5,2.6,3.5s1.4-0.8,1.3-0.9c0,0.4-0.3,0.7-0.6,0.7c-0.5,0-0.9-0.4-0.9-0.9
			c0-0.8,0.6-1.4,1.4-1.4c1.1,0,2,0.9,2,2c0,1.6-1.3,2.9-2.9,2.9c-2.3,0-4.4-2.5-4.4-5.8V0H8.4v32.2c0,2.4,0.9,4.4,2.2,5.6
			C8.1,38.1,6,40.2,6,43c0,2.1,1.5,3.6,3.1,3.9c-1.8,0.4-3.1,2-3.1,3.9c0,2.1,1.3,4,3.2,4.8c-0.8,0.5-1.5,1.3-2.1,2.2
			C4.7,62.2,7,68.5,12.7,71.8c1.8,1,3.5,1.6,5.3,1.8c-4.2,0.5-8.1-2.2-10.8-5.8c-2.8,3.7-2.7,8.4,0.5,11.6c1,1,2.3,1.7,3.7,2.1
			c-3.8,3.8-2.8,7.5-2.5,9.6l0,0c2.1,0.3,5.8,1.3,9.6-2.5c0.3,1.4,1,2.7,2.1,3.7c3.2,3.2,7.9,3.2,11.6,0.5
			c-3.6-2.7-6.3-6.6-5.8-10.8c0.2,1.7,0.8,3.5,1.8,5.3c3.3,5.7,9.6,8.1,13.9,5.6c1-0.6,1.7-1.3,2.2-2.1c0.8,2,2.8,3.2,4.8,3.2
			c1.9,0,3.5-1.3,3.9-3.1C53.5,92.5,55,94,57,94c2.7,0,4.9-2.1,5.2-4.6c1.3,1.3,3.2,2.2,5.6,2.2h32.2v-1.4L67.9,90.2L67.9,90.2z
			 M7.4,50.8c0-1.5,1.2-2.6,2.6-2.6c1,0,1.8,0.8,1.8,1.8c0,0.7-0.6,1.3-1.2,1.3c-0.5,0-0.9-0.4-0.9-0.9c-0.2,0.2-0.1,1.2,1.7,1.2
			s3.5-2,3.5-4.7s-1.7-4.7-3.5-4.7s-1.8,1-1.7,1.2c0-0.5,0.4-0.9,0.9-0.9c0.7,0,1.2,0.6,1.3,1.2c0,1-0.8,1.8-1.8,1.8
			c-1.5,0-2.6-1.2-2.6-2.6c0-2.1,1.7-3.8,3.8-3.8c3.1,0,5.9,3.3,5.9,7.8s-2.8,7.8-5.9,7.8C9.1,54.7,7.4,53,7.4,50.8L7.4,50.8z
			 M10.9,46.9c1-0.3,1.8-1,2.2-2c0.3,0.6,0.5,1.3,0.5,2s-0.2,1.4-0.5,2c-0.2-0.4-0.4-0.8-0.7-1.2C11.9,47.3,11.4,47,10.9,46.9z
			 M13.4,70.6c-5.2-3-7.1-8.5-5-12c1.4-2.5,4.5-3.3,7-1.9c1.7,1,2.3,3.1,1.3,4.8c-0.7,1.2-2.2,1.6-3.3,0.9c-0.8-0.5-1.1-1.5-0.6-2.3
			c0.3-0.5,1-0.7,1.6-0.4c-0.1-0.3-1.3-0.9-2.5,1.2c-1.2,2.1,0,5.4,3.1,7.2c3.1,1.8,6.5,1.2,7.7-0.9c1.2-2.1,0-2.8-0.2-2.7
			c0.5,0.3,0.7,1,0.4,1.6c-0.5,0.8-1.5,1.1-2.3,0.6c-1.2-0.7-1.6-2.2-0.9-3.3c1-1.7,3.1-2.3,4.8-1.3c2.4,1.4,3.3,4.5,1.9,7
			C24.3,72.5,18.6,73.6,13.4,70.6L13.4,70.6z M29.8,92.5c-4.9,2.8-12.8-1.7-9.1-9.8c-2.3,4.8-5.2,7.9-10.6,7.1
			c-0.8-5.4,2.3-8.3,7.1-10.6C9.2,83,4.7,75.1,7.5,70.2c5.2,5.7,10.9,5.8,15.3,3.1c2-0.6,3.7-1.9,4.7-3.6c1.5-2.5,1-5.3-0.5-7.2
			c-0.2-1.1-0.3-2.1,0.8-3.1c1.6-1.6,4.7,0.2,4.6,2.9c0.2,0,0.3-0.1,0.5-0.1c2.4-0.6,5.2-0.2,5.2-0.2l0,0l0,0c0,0,0.3,2.1,0,4.2
			c-0.1,0.5-0.2,1-0.3,1.4c2.7-0.1,4.5,3,2.9,4.6c-1.1,1.1-2,1-3.1,0.8c-1.9-1.4-4.7-1.9-7.2-0.5c-1.7,1-3,2.7-3.6,4.7
			C24,81.5,24,87.3,29.8,92.5L29.8,92.5z M41.4,91.6c-3.5,2-9,0.2-12-5c-3-5.2-1.9-10.9,1.6-12.9c2.4-1.4,5.6-0.6,7,1.9
			c1,1.7,0.4,3.8-1.3,4.8c-1.2,0.7-2.7,0.3-3.3-0.9c-0.5-0.8-0.2-1.8,0.6-2.3c0.5-0.3,1.2-0.1,1.6,0.4c0.1-0.3-0.7-1.4-2.7-0.2
			c-2.1,1.2-2.7,4.7-0.9,7.7c1.8,3.1,5.1,4.3,7.2,3.1c2.1-1.2,1.4-2.4,1.2-2.5c0.3,0.6,0.1,1.3-0.4,1.6c-0.8,0.5-1.8,0.2-2.3-0.6
			c-0.7-1.2-0.3-2.7,0.9-3.3c1.7-1,3.8-0.4,4.8,1.3C44.7,87.1,43.9,90.2,41.4,91.6L41.4,91.6z M53.1,89.1c-0.1-0.6-0.4-1.1-0.8-1.5
			c-0.3-0.3-0.7-0.6-1.2-0.7c0.5-0.3,1.2-0.5,2-0.5s1.4,0.2,2,0.5C54.1,87.3,53.4,88.1,53.1,89.1z M57,92.6c-1.5,0-2.6-1.2-2.6-2.6
			c0-1,0.8-1.8,1.8-1.8c0.7,0,1.3,0.6,1.2,1.2c0,0.5-0.4,0.9-0.9,0.9c0.2,0.2,1.2,0.1,1.2-1.7s-2-3.5-4.7-3.5s-4.7,1.7-4.7,3.5
			s1,1.8,1.2,1.7c-0.5,0-0.9-0.4-0.9-0.9c0-0.7,0.6-1.2,1.3-1.2c1,0,1.8,0.8,1.8,1.8c0,1.5-1.2,2.6-2.6,2.6c-2.1,0-3.8-1.7-3.8-3.8
			c0-3.1,3.3-5.9,7.8-5.9s7.8,2.8,7.8,5.9C60.9,90.9,59.1,92.6,57,92.6z"/>
		<path class="st2" d="M67.9,88.5c-2,0-3.5-1.3-3.5-2.6c0-1.3,0.8-1.4,0.9-1.3c-0.4,0-0.6,0.3-0.6,0.7c0,0.5,0.4,0.9,0.9,0.9
			c0.8,0,1.4-0.6,1.4-1.4c0-1.1-0.9-2-2-2c-1.6,0-2.9,1.3-2.9,2.9c0,2.3,2.5,4.4,5.8,4.4h32.2v-1.7L67.9,88.5L67.9,88.5z"/>
		<path class="st2" d="M53.1,82.8c-4.5,0-7.8,2.8-7.8,5.9c0,2.1,1.7,3.8,3.8,3.8c1.5,0,2.6-1.2,2.6-2.6c0-1-0.8-1.8-1.8-1.8
			c-0.7,0-1.3,0.6-1.3,1.2c0,0.5,0.4,0.9,0.9,0.9c-0.2,0.2-1.2,0.1-1.2-1.7s2-3.5,4.7-3.5s4.7,1.7,4.7,3.5s-1,1.8-1.2,1.7
			c0.5,0,0.9-0.4,0.9-0.9c0-0.7-0.6-1.2-1.2-1.2c-1,0-1.8,0.8-1.8,1.8c0,1.5,1.2,2.6,2.6,2.6c2.1,0,3.8-1.7,3.8-3.8
			C60.9,85.7,57.6,82.8,53.1,82.8z"/>
		<path class="st2" d="M38.5,83.3c-1.2,0.7-1.6,2.2-0.9,3.3c0.5,0.8,1.5,1.1,2.3,0.6c0.5-0.3,0.7-1,0.4-1.6c0.3,0.1,0.9,1.3-1.2,2.5
			c-2.1,1.2-5.4,0-7.2-3.1c-1.8-3.1-1.2-6.5,0.9-7.7c2.1-1.2,2.8-0.1,2.7,0.2c-0.3-0.6-1-0.7-1.6-0.4c-0.8,0.5-1.1,1.5-0.6,2.3
			c0.7,1.2,2.2,1.6,3.3,0.9c1.7-1,2.3-3.1,1.3-4.8c-1.4-2.4-4.5-3.3-7-1.9c-3.5,2-4.6,7.7-1.6,12.9c3,5.2,8.5,7.1,12,5
			c2.5-1.4,3.3-4.5,1.9-7C42.3,82.9,40.1,82.4,38.5,83.3L38.5,83.3z"/>
		<path class="st2" d="M26.3,68.9c1.4-2.4,0.6-5.6-1.9-7c-1.7-1-3.8-0.4-4.8,1.3c-0.7,1.2-0.3,2.6,0.9,3.3c0.8,0.5,1.8,0.2,2.3-0.6
			c0.3-0.6,0.1-1.3-0.4-1.6c0.3-0.1,1.4,0.7,0.2,2.7c-1.2,2.1-4.6,2.7-7.7,0.9c-3.1-1.8-4.3-5.1-3.1-7.2c1.2-2.1,2.4-1.4,2.5-1.2
			c-0.6-0.3-1.2-0.1-1.6,0.4c-0.5,0.8-0.2,1.8,0.6,2.3c1.2,0.7,2.6,0.3,3.3-0.9c1-1.7,0.4-3.8-1.3-4.8c-2.4-1.4-5.6-0.6-7,1.9
			c-2,3.5-0.2,9,5,12C18.6,73.6,24.3,72.5,26.3,68.9L26.3,68.9z"/>
		<path class="st2" d="M17.1,46.9c0-4.5-2.8-7.8-5.9-7.8c-2.1,0-3.8,1.7-3.8,3.8c0,1.5,1.2,2.6,2.6,2.6c1,0,1.8-0.8,1.8-1.8
			c0-0.7-0.6-1.2-1.3-1.2c-0.5,0-0.9,0.4-0.9,0.9c-0.2-0.2-0.1-1.2,1.7-1.2s3.5,2,3.5,4.7s-1.7,4.7-3.5,4.7s-1.8-1-1.7-1.2
			c0,0.5,0.4,0.9,0.9,0.9c0.7,0,1.3-0.6,1.2-1.3c0-1-0.8-1.8-1.8-1.8c-1.5,0-2.6,1.2-2.6,2.6c0,2.1,1.7,3.8,3.8,3.8
			C14.3,54.7,17.1,51.4,17.1,46.9L17.1,46.9z"/>
		<path class="st2" d="M9.9,32.1c0,3.4,2.1,5.8,4.4,5.8c1.6,0,2.9-1.3,2.9-2.9c0-1.1-0.9-2-2-2c-0.8,0-1.4,0.6-1.4,1.4
			c0,0.5,0.4,0.9,0.9,0.9c0.4,0,0.6-0.3,0.6-0.7c0.1,0.1,0.1,0.9-1.3,0.9s-2.6-1.5-2.6-3.5V0H9.9C9.9,0,9.9,32.1,9.9,32.1z"/>
		<path class="st2" d="M30.4,72.4c2.5-1.5,5.3-1,7.2,0.5c1.1,0.2,2.1,0.3,3.1-0.8c1.6-1.6-0.2-4.7-2.9-4.6c0.1-0.5,0.2-1,0.3-1.4
			c0.3-2.1,0-4.2,0-4.2c0,0-2.8-0.4-5.2,0.2c-0.2,0-0.3,0.1-0.5,0.1c0.1-2.7-3-4.5-4.6-2.9c-1.1,1.1-1,2-0.8,3.1
			c1.4,1.9,2,4.6,0.5,7.2c-1,1.7-2.7,2.9-4.7,3.6c-4.4,2.8-10.2,2.7-15.3-3.1c-2.8,4.9,1.7,12.8,9.8,9.1c-4.8,2.3-7.9,5.2-7.1,10.6
			c5.4,0.8,8.3-2.3,10.5-7.1c-3.7,8.1,4.2,12.6,9.1,9.8c-5.8-5.2-5.8-10.9-3-15.3C27.4,75.1,28.7,73.4,30.4,72.4L30.4,72.4z
			 M31.8,65.7c1.2-1.2,3.5-1,3.5-1s0.2,2.2-1,3.5c-1.2,1.2-3.5,1-3.5,1S30.6,66.9,31.8,65.7z M15.6,86.8c-1.2,1.2-3.5,1-3.5,1
			s-0.2-2.2,1-3.5s3.5-1,3.5-1S16.8,85.6,15.6,86.8L15.6,86.8z"/>
		<path class="st2" d="M38.1,66.1c0.3-2.1,0-4.2,0-4.2l0,0C38.1,61.9,38.4,64,38.1,66.1z"/>
	</g>
</g>
</svg>
