<?xml version="1.0" encoding="utf-8"?>
<!-- Generator: Adobe Illustrator 28.2.0, SVG Export Plug-In . SVG Version: 6.00 Build 0)  -->
<svg version="1.1" id="_圖層_2" xmlns="http://www.w3.org/2000/svg" xmlns:xlink="http://www.w3.org/1999/xlink" x="0px" y="0px"
	 viewBox="0 0 100 100" style="enable-background:new 0 0 100 100;" xml:space="preserve">
<style type="text/css">
	.st0{fill:#6C3D49;}
	.st1{fill:#571213;}
	.st2{fill:#2D211B;}
</style>
<g id="_圖層_2-2">
	<g>
		<path class="st0" d="M21.4,73.9c3.2-2.2,4.7-5.6,4.7-9c0-1.8-0.4-3.6-1.2-5.2c1.2-3.1,1.4-6.5,1.2-9.6c4.1,0.8,8.4-0.5,11.1-3
			c2.7-0.1,8.7-1.2,8.7-1.2s1.2-6,1.2-8.7c2.5-2.8,3.8-7.1,3-11.1c3.1,0.2,6.5-0.1,9.6-1.2c1.6,0.8,3.4,1.2,5.2,1.2
			c3.3,0,6.8-1.5,9-4.7H100v-2.6H72.4c-1.3,2.8-4.2,4.7-7.5,4.7c-1.8,0-3.5-0.5-5-1.5c-2,1-4.4,1.5-6.8,1.5c-2.6,0-5.5,0.2-7.6-0.9
			c3.4,3.4,2.9,10.3-1,13.6c0.2,2.1-0.8,7.5-0.8,7.5s-5.4,1-7.5,0.8c-3.4,3.8-10.2,4.4-13.6,1c1.1,2.2,0.9,5,0.9,7.6
			c0,2.4-0.5,4.7-1.5,6.8c1,1.5,1.5,3.2,1.5,5c0,3.3-1.9,6.1-4.7,7.5v27.7h2.6L21.4,73.9L21.4,73.9z"/>
		<polygon class="st0" points="0,100.1 2.6,100.1 2.6,2.6 100,2.6 100,0 0,0 		"/>
		<path class="st1" d="M18.7,72.4c2.8-1.3,4.7-4.2,4.7-7.5c0-1.8-0.5-3.5-1.5-5c1-2,1.5-4.4,1.5-6.8c0-2.6,0.2-5.5-0.9-7.6
			c3.4,3.4,10.3,2.9,13.6-1c2.1,0.2,7.5-0.8,7.5-0.8c0,0,1-5.4,0.8-7.5c3.8-3.4,4.4-10.2,1-13.6c2.2,1.1,5,0.9,7.6,0.9
			c2.4,0,4.7-0.5,6.8-1.5c1.5,1,3.2,1.5,5,1.5c3.3,0,6.1-1.9,7.5-4.7H100v-5.8H67.8c-0.2,0-0.5,0.2-0.4,0.3c0.5,0.5,0.8,1.2,0.8,2
			c0,2-1.6,3.4-3.4,3.4c-2.2,0-3.7-1.5-4.2-3.3c-1.6,1.9-4.3,3.3-7.7,3.3c-3.6,0-6.5-1.6-8-3.8c-0.1,0.5-0.3,0.9-0.6,1.3
			c-1.2,2.1-4.2,3.3-6.7,1.8c-1.7-1-2.4-3.1-1.6-4.9c-1.3,0.4-2.4,1.5-3,2.6c-1,1.7-0.9,3.2-0.8,3.9c1.1-1.5,3.2-2.1,5-1.1
			c2.3,1.4,3.2,4.4,1.8,6.7c-0.1,0.1-0.2,0.3-0.3,0.4c0.9,0.1,1.8,0.4,2.7,1.3c1.5,1.5,1.3,3.9-0.4,5.6c-0.5,0.5-1.2,0.9-1.9,1.2
			c0.4,2.2,0.2,4-0.1,5.7c-1.7,0.3-3.5,0.5-5.7,0.1c-0.2,0.7-0.6,1.3-1.2,1.9c-1.7,1.7-4.1,1.8-5.6,0.4c-0.9-0.9-1.2-1.8-1.3-2.7
			c-0.1,0.1-0.3,0.2-0.4,0.3c-2.4,1.4-5.4,0.5-6.7-1.8c-1-1.8-0.4-4,1.1-5c-0.8-0.2-2.2-0.2-3.9,0.8c-1.1,0.7-2.2,1.7-2.6,3
			c1.8-0.8,3.9-0.2,4.9,1.6c1.5,2.5,0.3,5.5-1.8,6.7c-0.4,0.2-0.9,0.4-1.3,0.6c2.2,1.5,3.8,4.5,3.8,8c0,3.3-1.3,6-3.3,7.7
			c1.8,0.4,3.3,2,3.3,4.2c0,1.8-1.4,3.4-3.4,3.4c-0.7,0-1.4-0.3-2-0.8c-0.1-0.1-0.3,0.2-0.3,0.4v32.2h5.8L18.7,72.4L18.7,72.4z"/>
		<path class="st1" d="M13.5,53.1c0-0.8-0.2-1.4-0.5-2c-0.2,0.4-0.4,0.8-0.7,1.2c-0.4,0.4-0.9,0.7-1.5,0.8c1,0.3,1.9,1,2.2,2
			C13.4,54.5,13.5,53.8,13.5,53.1z"/>
		<path class="st1" d="M38.1,38.1L38.1,38.1c0,0,0.4-2.8-0.2-5.2C38.5,35.3,38.1,38.1,38.1,38.1z"/>
		<path class="st1" d="M8.4,67.9c0-2.4,0.9-4.4,2.2-5.6C8.1,61.9,6,59.8,6,57c0-2.1,1.5-3.6,3.1-3.9c-1.8-0.4-3.1-2-3.1-3.9
			c0-2.1,1.3-4,3.2-4.8c-0.8-0.5-1.5-1.3-2.1-2.2C4.7,37.8,7,31.5,12.7,28.2c1.8-1,3.5-1.6,5.3-1.8c-4.2-0.5-8.1,2.2-10.8,5.8
			c-2.7-3.7-2.7-8.4,0.5-11.6c1-1,2.3-1.7,3.7-2.1C7.6,14.8,8.6,11,8.9,8.9l0,0c2.1-0.3,5.9-1.3,9.6,2.5c0.3-1.4,1-2.7,2.1-3.7
			c3.2-3.2,7.9-3.2,11.6-0.5c-3.6,2.7-6.3,6.6-5.8,10.8c0.2-1.7,0.8-3.5,1.8-5.3c3.3-5.7,9.6-8.1,13.9-5.6c1,0.6,1.7,1.3,2.2,2.1
			C45.1,7.3,47,6,49.1,6c1.9,0,3.5,1.3,3.9,3.1C53.4,7.5,54.9,6,57,6c2.7,0,4.9,2.1,5.2,4.6c1.3-1.3,3.2-2.2,5.6-2.2H100V2.6H2.6
			v97.5h5.8V67.9L8.4,67.9z"/>
		<path class="st1" d="M51.1,13.1c0.5,0.3,1.2,0.5,2,0.5s1.4-0.2,2-0.5c-1-0.4-1.7-1.2-2-2.2c-0.1,0.6-0.4,1.1-0.8,1.5
			C51.9,12.7,51.5,12.9,51.1,13.1z"/>
		<path class="st0" d="M15.6,13.2c-1.2-1.2-3.5-1-3.5-1s-0.2,2.2,1,3.5c1.2,1.2,3.5,1,3.5,1S16.8,14.4,15.6,13.2L15.6,13.2z"/>
		<path class="st0" d="M31.8,34.3c1.2,1.2,3.5,1,3.5,1s0.2-2.2-1-3.5c-1.2-1.2-3.5-1-3.5-1S30.6,33.1,31.8,34.3z"/>
		<path class="st0" d="M9.9,67.9c0-3.4,2.1-5.8,4.4-5.8c1.6,0,2.9,1.3,2.9,2.9c0,1.1-0.9,2-2,2c-0.8,0-1.4-0.6-1.4-1.4
			c0-0.5,0.4-0.9,0.9-0.9c0.4,0,0.6,0.3,0.6,0.6c0.1-0.1,0.1-0.9-1.3-0.9c-1.4,0-2.6,1.5-2.6,3.5v32.2h1.4V67.9
			c0-0.2,0.2-0.5,0.3-0.4c0.5,0.5,1.2,0.8,2,0.8c1.9,0,3.4-1.6,3.4-3.4c0-2.2-1.5-3.7-3.3-4.2c1.9-1.6,3.3-4.3,3.3-7.7
			c0-3.6-1.6-6.5-3.8-8c0.5-0.1,0.9-0.3,1.3-0.6c2.1-1.2,3.3-4.2,1.8-6.7c-1-1.7-3.1-2.4-4.9-1.6c0.4-1.3,1.5-2.4,2.6-3
			c1.7-1,3.2-0.9,3.9-0.8c-1.5,1.1-2.1,3.2-1.1,5c1.4,2.3,4.4,3.2,6.7,1.8c0.1-0.1,0.3-0.2,0.4-0.3c0.1,0.9,0.4,1.8,1.3,2.7
			c1.5,1.5,3.9,1.3,5.6-0.4c0.5-0.5,0.9-1.2,1.2-1.9c2.2,0.4,4,0.2,5.7-0.1c0.3-1.7,0.5-3.5,0.1-5.7c0.7-0.2,1.3-0.6,1.9-1.2
			c1.7-1.7,1.8-4.1,0.4-5.6c-0.9-0.9-1.8-1.2-2.7-1.3c0.1-0.1,0.2-0.3,0.3-0.4c1.4-2.4,0.5-5.4-1.8-6.7c-1.8-1-4-0.4-5,1.1
			c-0.2-0.8-0.2-2.2,0.8-3.9c0.7-1.1,1.7-2.2,3-2.6c-0.8,1.8-0.2,3.9,1.6,4.9c2.5,1.5,5.5,0.3,6.7-1.8c0.2-0.4,0.4-0.9,0.6-1.3
			c1.5,2.2,4.5,3.8,8,3.8c3.3,0,6-1.3,7.7-3.3c0.4,1.8,2,3.3,4.1,3.3c1.8,0,3.4-1.4,3.4-3.4c0-0.7-0.3-1.4-0.8-2
			c-0.1-0.1,0.2-0.3,0.4-0.3H100v-1.4H67.9c-2,0-3.5,1.3-3.5,2.6s0.8,1.4,0.9,1.3c-0.4,0-0.7-0.3-0.7-0.6c0-0.5,0.4-0.9,0.9-0.9
			c0.8,0,1.4,0.6,1.4,1.4c0,1.1-0.9,2-2,2c-1.6,0-2.9-1.3-2.9-2.9c0-2.3,2.5-4.4,5.8-4.4H100V8.4H67.9c-2.4,0-4.4,0.9-5.6,2.2
			C61.9,8.1,59.8,6,57.1,6c-2.1,0-3.6,1.5-3.9,3.1c-0.4-1.8-2-3.1-3.9-3.1c-2.1,0-4,1.3-4.8,3.2c-0.5-0.8-1.3-1.5-2.2-2.1
			C37.8,4.7,31.5,7,28.2,12.7c-1,1.8-1.6,3.5-1.8,5.3c-0.5-4.2,2.2-8.1,5.8-10.8c-3.7-2.8-8.4-2.7-11.6,0.5c-1,1-1.7,2.3-2.1,3.7
			C14.8,7.6,11,8.6,8.9,8.9l0,0c-0.3,2.1-1.3,5.8,2.5,9.6c-1.4,0.3-2.7,1-3.7,2.1c-3.2,3.2-3.2,7.9-0.5,11.6
			c2.7-3.6,6.6-6.3,10.8-5.8c-1.7,0.2-3.5,0.8-5.3,1.8c-5.7,3.3-8.1,9.6-5.6,13.9c0.6,1,1.3,1.7,2.1,2.2c-2,0.8-3.2,2.8-3.2,4.8
			c0,1.9,1.3,3.5,3.1,3.9C7.6,53.5,6.1,55,6.1,57c0,2.7,2.1,4.9,4.6,5.2c-1.3,1.3-2.2,3.2-2.2,5.6v32.2h1.4L9.9,67.9L9.9,67.9z
			 M49.2,7.4c1.5,0,2.6,1.2,2.6,2.6c0,1-0.8,1.8-1.8,1.8c-0.7,0-1.3-0.6-1.3-1.2c0-0.5,0.4-0.9,0.9-0.9c-0.2-0.2-1.2-0.1-1.2,1.7
			s2,3.5,4.7,3.5s4.7-1.7,4.7-3.5s-1-1.8-1.2-1.7c0.5,0,0.9,0.4,0.9,0.9c0,0.7-0.6,1.2-1.2,1.3c-1,0-1.8-0.8-1.8-1.8
			c0-1.5,1.2-2.6,2.6-2.6c2.1,0,3.8,1.7,3.8,3.8c0,3.1-3.3,5.9-7.8,5.9s-7.8-2.8-7.8-5.9C45.3,9.1,47,7.4,49.2,7.4L49.2,7.4z
			 M53.1,10.9c0.3,1,1,1.8,2,2.2c-0.6,0.3-1.3,0.5-2,0.5s-1.4-0.2-2-0.5c0.4-0.2,0.8-0.4,1.2-0.7C52.7,11.9,53,11.4,53.1,10.9z
			 M29.4,13.4c3-5.2,8.5-7.1,12-5c2.5,1.4,3.3,4.5,1.9,7c-1,1.7-3.1,2.3-4.8,1.3c-1.2-0.7-1.6-2.2-0.9-3.3c0.5-0.8,1.5-1.1,2.3-0.6
			c0.5,0.3,0.7,1,0.4,1.6c0.3-0.1,0.9-1.3-1.2-2.5c-2.1-1.2-5.4,0-7.2,3.1c-1.8,3.1-1.2,6.5,0.9,7.7c2.1,1.2,2.8,0,2.7-0.2
			c-0.3,0.5-1,0.7-1.6,0.4c-0.8-0.5-1.1-1.5-0.6-2.3c0.7-1.2,2.2-1.6,3.3-0.9c1.7,1,2.3,3.1,1.3,4.8c-1.4,2.4-4.5,3.3-7,1.9
			C27.5,24.3,26.4,18.6,29.4,13.4L29.4,13.4z M7.5,29.8c-2.8-4.9,1.7-12.8,9.8-9.1c-4.8-2.3-7.9-5.2-7.1-10.6
			c5.4-0.8,8.3,2.3,10.5,7.1C17,9.2,24.9,4.7,29.8,7.5c-5.7,5.2-5.8,10.9-3,15.3c0.6,2,1.9,3.7,3.6,4.7c2.5,1.5,5.3,1,7.2-0.5
			c1.1-0.2,2.1-0.3,3.1,0.8c1.6,1.6-0.2,4.7-2.9,4.6c0,0.2,0.1,0.3,0.1,0.5c0.6,2.4,0.2,5.2,0.2,5.2l0,0l0,0c0,0-2.1,0.3-4.2,0
			c-0.5-0.1-1-0.2-1.4-0.3c0.1,2.7-3,4.5-4.6,2.9c-1.1-1.1-1-2-0.8-3.1c1.4-1.9,2-4.7,0.5-7.2c-1-1.7-2.7-3-4.7-3.6
			C18.5,24,12.7,24,7.5,29.8L7.5,29.8z M8.4,41.4c-2-3.5-0.2-9,5-12s10.9-1.9,12.9,1.6c1.4,2.4,0.6,5.6-1.9,7
			c-1.7,1-3.8,0.4-4.8-1.3c-0.7-1.2-0.3-2.7,0.9-3.3c0.8-0.5,1.8-0.2,2.3,0.6c0.3,0.5,0.1,1.2-0.4,1.6c0.3,0.1,1.4-0.7,0.2-2.7
			c-1.2-2.1-4.6-2.7-7.7-0.9c-3.1,1.8-4.3,5.1-3.1,7.2c1.2,2.1,2.4,1.4,2.5,1.2c-0.6,0.3-1.3,0.1-1.6-0.4c-0.5-0.8-0.2-1.8,0.6-2.3
			c1.2-0.7,2.7-0.3,3.3,0.9c1,1.7,0.4,3.8-1.3,4.8C12.9,44.7,9.8,43.9,8.4,41.4L8.4,41.4z M10.9,53.1c0.6-0.1,1.1-0.4,1.5-0.8
			c0.3-0.3,0.6-0.7,0.7-1.2c0.3,0.5,0.5,1.2,0.5,2s-0.2,1.4-0.5,2C12.7,54.1,11.9,53.4,10.9,53.1z M7.4,57c0-1.5,1.2-2.6,2.6-2.6
			c1,0,1.8,0.8,1.8,1.8c0,0.7-0.6,1.3-1.2,1.2c-0.5,0-0.9-0.4-0.9-0.9c-0.2,0.2-0.1,1.2,1.7,1.2s3.5-2,3.5-4.7s-1.7-4.7-3.5-4.7
			s-1.8,1-1.7,1.2c0-0.5,0.4-0.9,0.9-0.9c0.7,0,1.2,0.6,1.2,1.3c0,1-0.8,1.8-1.8,1.8c-1.5,0-2.6-1.2-2.6-2.6c0-2.1,1.7-3.8,3.8-3.8
			c3.1,0,5.9,3.3,5.9,7.8s-2.9,7.8-5.9,7.8C9.1,60.9,7.4,59.1,7.4,57z"/>
		<path class="st2" d="M11.5,67.9c0-2,1.3-3.5,2.6-3.5c1.3,0,1.4,0.8,1.3,0.9c0-0.4-0.3-0.6-0.6-0.6c-0.5,0-0.9,0.4-0.9,0.9
			c0,0.8,0.6,1.4,1.4,1.4c1.1,0,2-0.9,2-2c0-1.6-1.3-2.9-2.9-2.9c-2.3,0-4.4,2.5-4.4,5.8v32.2h1.7L11.5,67.9L11.5,67.9z"/>
		<path class="st2" d="M17.1,53.1c0-4.5-2.9-7.8-5.9-7.8c-2.1,0-3.8,1.7-3.8,3.8c0,1.5,1.2,2.6,2.6,2.6c1,0,1.8-0.8,1.8-1.8
			c0-0.7-0.6-1.3-1.2-1.3c-0.5,0-0.9,0.4-0.9,0.9c-0.2-0.2-0.1-1.2,1.7-1.2s3.5,2,3.5,4.7s-1.7,4.7-3.5,4.7s-1.8-1-1.7-1.2
			c0,0.5,0.4,0.9,0.9,0.9c0.7,0,1.2-0.6,1.2-1.2c0-1-0.8-1.8-1.8-1.8c-1.5,0-2.6,1.2-2.6,2.6c0,2.1,1.7,3.8,3.8,3.8
			C14.3,60.9,17.1,57.6,17.1,53.1z"/>
		<path class="st2" d="M16.7,38.5c-0.7-1.2-2.1-1.6-3.3-0.9c-0.8,0.5-1.1,1.5-0.6,2.3c0.3,0.5,1,0.7,1.6,0.4
			c-0.1,0.3-1.3,0.9-2.5-1.2c-1.2-2.1,0-5.4,3.1-7.2c3.1-1.8,6.5-1.2,7.7,0.9c1.2,2.1,0,2.8-0.2,2.7c0.5-0.3,0.7-1,0.4-1.6
			c-0.5-0.8-1.5-1.1-2.3-0.6c-1.2,0.7-1.6,2.2-0.9,3.3c1,1.7,3.1,2.3,4.8,1.3c2.5-1.4,3.3-4.5,1.9-7c-2-3.5-7.7-4.6-12.9-1.6
			c-5.2,3-7.1,8.5-5,12c1.4,2.5,4.5,3.3,7,1.9C17,42.3,17.6,40.1,16.7,38.5L16.7,38.5z"/>
		<path class="st2" d="M31,26.3c2.4,1.4,5.6,0.6,7-1.9c1-1.7,0.4-3.8-1.3-4.8c-1.2-0.7-2.7-0.3-3.3,0.9c-0.5,0.8-0.2,1.8,0.6,2.3
			c0.5,0.3,1.3,0.1,1.6-0.4c0.1,0.3-0.7,1.4-2.7,0.2c-2.1-1.2-2.7-4.6-0.9-7.7c1.8-3.1,5.1-4.3,7.2-3.1c2.1,1.2,1.4,2.4,1.2,2.5
			c0.3-0.6,0.1-1.2-0.4-1.6c-0.8-0.5-1.8-0.2-2.3,0.6c-0.7,1.2-0.3,2.6,0.9,3.3c1.7,1,3.8,0.4,4.8-1.3c1.4-2.4,0.6-5.6-1.9-7
			c-3.5-2-9-0.2-12,5C26.4,18.6,27.5,24.3,31,26.3L31,26.3z"/>
		<path class="st2" d="M53.1,17.1c4.5,0,7.8-2.8,7.8-5.9c0-2.1-1.7-3.8-3.8-3.8c-1.5,0-2.6,1.2-2.6,2.6c0,1,0.8,1.8,1.8,1.8
			c0.7,0,1.2-0.6,1.2-1.3c0-0.5-0.4-0.9-0.9-0.9c0.2-0.2,1.2-0.1,1.2,1.7s-2,3.5-4.7,3.5s-4.7-1.7-4.7-3.5s1-1.8,1.2-1.7
			c-0.5,0-0.9,0.4-0.9,0.9c0,0.7,0.6,1.3,1.3,1.2c1,0,1.8-0.8,1.8-1.8c0-1.5-1.2-2.6-2.6-2.6c-2.1,0-3.8,1.7-3.8,3.8
			C45.3,14.3,48.6,17.1,53.1,17.1L53.1,17.1z"/>
		<path class="st2" d="M67.9,9.9c-3.4,0-5.8,2.1-5.8,4.4c0,1.6,1.3,2.9,2.9,2.9c1.1,0,2-0.9,2-2c0-0.8-0.6-1.4-1.4-1.4
			c-0.5,0-0.9,0.4-0.9,0.9c0,0.4,0.3,0.6,0.7,0.6c-0.1,0.1-0.9,0.1-0.9-1.3s1.5-2.6,3.5-2.6H100V9.9L67.9,9.9L67.9,9.9z"/>
		<path class="st2" d="M27.5,30.4c1.5,2.5,1,5.3-0.5,7.2c-0.2,1.1-0.3,2.1,0.8,3.1c1.6,1.6,4.7-0.2,4.6-2.9c0.5,0.1,1,0.2,1.4,0.3
			c2.1,0.3,4.2,0,4.2,0c0,0,0.4-2.8-0.2-5.2c0-0.2-0.1-0.3-0.1-0.5c2.7,0.1,4.5-3,2.9-4.6c-1.1-1.1-2-1-3.1-0.8
			c-1.9,1.4-4.7,2-7.2,0.5c-1.7-1-3-2.7-3.6-4.7c-2.8-4.4-2.7-10.2,3-15.3c-4.9-2.8-12.8,1.7-9.1,9.8c-2.3-4.8-5.2-7.9-10.6-7.1
			c-0.8,5.4,2.3,8.3,7.1,10.5C9.2,17,4.7,24.9,7.5,29.8c5.2-5.8,10.9-5.8,15.3-3C24.9,27.4,26.6,28.7,27.5,30.4L27.5,30.4z
			 M34.3,31.8c1.2,1.2,1,3.5,1,3.5s-2.2,0.2-3.5-1c-1.2-1.2-1-3.5-1-3.5S33.1,30.6,34.3,31.8z M13.2,15.6c-1.2-1.2-1-3.5-1-3.5
			s2.2-0.2,3.5,1s1,3.5,1,3.5S14.4,16.8,13.2,15.6L13.2,15.6z"/>
		<path class="st2" d="M33.9,38.1c2.1,0.3,4.2,0,4.2,0l0,0C38.1,38.1,36,38.4,33.9,38.1z"/>
	</g>
</g>
</svg>
