<?xml version="1.0" encoding="UTF-8"?>
<svg id="_圖層_2" data-name="圖層 2" xmlns="http://www.w3.org/2000/svg" viewBox="0 0 100.01 100.09">
  <defs>
    <style>
      .cls-1 {
        fill: #6c3d49;
      }

      .cls-1, .cls-2, .cls-3 {
        stroke-width: 0px;
      }

      .cls-2 {
        fill: #2d211b;
      }

      .cls-3 {
        fill: #571213;
      }
    </style>
  </defs>
  <g id="_圖層_2-2" data-name="圖層 2">
    <g>
      <path class="cls-1" d="M21.36,73.88c3.16-2.18,4.71-5.64,4.71-8.97,0-1.82-.41-3.59-1.2-5.2,1.17-3.07,1.42-6.47,1.22-9.59,4.06.8,8.35-.46,11.13-2.96,2.72-.08,8.7-1.23,8.7-1.23,0,0,1.15-5.98,1.23-8.7,2.51-2.78,3.77-7.07,2.96-11.13,3.12.2,6.52-.06,9.6-1.22,1.61.79,3.38,1.2,5.2,1.2,3.33,0,6.8-1.55,8.97-4.71h26.13v-2.62h-27.63c-1.33,2.8-4.19,4.71-7.47,4.71-1.82,0-3.55-.52-5.03-1.5-2.05.97-4.37,1.5-6.78,1.5-2.61,0-5.45.24-7.62-.9,3.4,3.4,2.86,10.25-.97,13.6.21,2.08-.82,7.53-.82,7.53,0,0-5.44,1.03-7.53.82-3.36,3.83-10.2,4.37-13.6.97,1.14,2.17.9,5.02.9,7.63,0,2.41-.53,4.73-1.5,6.78.98,1.48,1.5,3.21,1.5,5.03,0,3.28-1.91,6.14-4.71,7.47v27.71h2.62v-26.21Z"/>
      <polygon class="cls-1" points="0 100.09 2.62 100.09 2.62 2.62 100.01 2.62 100.01 0 0 0 0 100.09"/>
      <path class="cls-3" d="M18.74,72.38c2.79-1.33,4.71-4.19,4.71-7.47,0-1.81-.52-3.55-1.5-5.03.97-2.05,1.5-4.38,1.5-6.78,0-2.61.24-5.45-.9-7.63,3.4,3.4,10.25,2.86,13.6-.97,2.09.21,7.52-.82,7.53-.82,0,0,1.04-5.44.82-7.53,3.83-3.36,4.37-10.2.97-13.6,2.17,1.14,5.02.9,7.62.9,2.41,0,4.73-.53,6.78-1.5,1.48.98,3.22,1.5,5.03,1.5,3.28,0,6.14-1.91,7.47-4.71h27.63v-5.83h-32.15c-.23,0-.47.22-.38.3.52.52.81,1.22.81,1.96,0,1.95-1.59,3.38-3.38,3.38-2.17,0-3.73-1.52-4.15-3.29-1.6,1.94-4.35,3.29-7.65,3.29-3.56,0-6.5-1.57-8.03-3.79-.14.46-.33.9-.57,1.32-1.24,2.14-4.17,3.27-6.72,1.8-1.72-.99-2.38-3.13-1.57-4.9-1.32.45-2.37,1.51-3.02,2.64-.98,1.69-.93,3.17-.78,3.94,1.08-1.52,3.24-2.13,5.03-1.1,2.35,1.36,3.16,4.37,1.8,6.72-.08.14-.16.27-.26.4.86.06,1.77.37,2.69,1.29,1.46,1.46,1.3,3.91-.37,5.58-.54.54-1.17.93-1.86,1.17.36,2.2.16,4.05-.11,5.72-1.67.27-3.52.47-5.72.11-.23.69-.63,1.32-1.17,1.86-1.67,1.67-4.12,1.83-5.58.37-.92-.92-1.23-1.83-1.29-2.69-.13.09-.26.18-.4.26-2.35,1.36-5.37.55-6.72-1.8-1.04-1.79-.42-3.95,1.1-5.03-.77-.15-2.25-.2-3.94.77-1.13.65-2.19,1.7-2.64,3.02,1.77-.81,3.91-.16,4.9,1.57,1.47,2.55.34,5.49-1.8,6.72-.41.24-.86.43-1.32.57,2.22,1.53,3.79,4.47,3.79,8.03,0,3.3-1.34,6.05-3.29,7.65,1.77.43,3.29,1.99,3.29,4.16,0,1.78-1.43,3.38-3.38,3.38-.74,0-1.43-.29-1.96-.81-.09-.09-.31.16-.31.38v32.23h5.83v-27.71Z"/>
      <path class="cls-3" d="M13.54,53.09c0-.76-.18-1.44-.46-1.99-.16.42-.41.82-.74,1.15-.41.41-.92.7-1.47.84,1.02.26,1.85,1.02,2.21,1.99.3-.57.46-1.27.46-1.99Z"/>
      <path class="cls-3" d="M38.08,38.08s0,0,0,0c0,0,.38-2.76-.2-5.16.58,2.39.2,5.15.2,5.16Z"/>
      <path class="cls-3" d="M8.45,67.86c0-2.41.89-4.37,2.18-5.63-2.56-.3-4.61-2.47-4.61-5.19,0-2.07,1.5-3.57,3.13-3.94-1.79-.41-3.13-2.02-3.14-3.94,0-2.09,1.28-4.04,3.24-4.84-.81-.53-1.53-1.26-2.07-2.2-2.51-4.35-.17-10.6,5.55-13.91,1.75-1.01,3.55-1.6,5.27-1.82-4.16-.46-8.1,2.21-10.77,5.8-2.74-3.71-2.71-8.39.49-11.59,1.03-1.03,2.31-1.74,3.72-2.06-3.81-3.78-2.81-7.54-2.54-9.62h0c2.08-.27,5.85-1.27,9.62,2.54.33-1.42,1.03-2.69,2.06-3.72,3.2-3.2,7.88-3.24,11.59-.49-3.59,2.67-6.27,6.61-5.81,10.77.22-1.72.81-3.52,1.82-5.27,3.3-5.72,9.56-8.06,13.91-5.55.95.55,1.68,1.26,2.2,2.07.81-1.96,2.76-3.24,4.84-3.24,1.92,0,3.53,1.34,3.94,3.13.37-1.63,1.87-3.13,3.94-3.13,2.73,0,4.89,2.06,5.2,4.61,1.26-1.29,3.22-2.18,5.63-2.18h32.15V2.62H2.62v97.46h5.83v-32.23Z"/>
      <path class="cls-3" d="M51.11,13.07c.54.28,1.23.46,1.99.46s1.42-.17,1.99-.46c-.98-.36-1.73-1.19-1.99-2.21-.14.55-.43,1.06-.84,1.47-.33.33-.72.58-1.15.74Z"/>
      <path class="cls-1" d="M15.61,13.17c-1.24-1.24-3.47-1.02-3.47-1.02,0,0-.22,2.23,1.02,3.46,1.24,1.24,3.46,1.02,3.46,1.02,0,0,.22-2.23-1.02-3.47Z"/>
      <path class="cls-1" d="M31.84,34.29c1.24,1.24,3.46,1.02,3.46,1.02,0,0,.22-2.23-1.02-3.46-1.24-1.24-3.46-1.02-3.46-1.02,0,0-.22,2.22,1.02,3.46Z"/>
      <path class="cls-1" d="M9.85,67.86c0-3.38,2.13-5.83,4.43-5.83,1.59,0,2.88,1.29,2.88,2.88,0,1.09-.89,1.98-1.98,1.98-.75,0-1.36-.61-1.36-1.37,0-.52.42-.94.94-.94.36,0,.65.29.65.64.12-.12.08-.88-1.26-.88-1.36,0-2.63,1.51-2.63,3.51v32.23h1.4v-32.23c0-.22.22-.47.31-.38.52.52,1.22.81,1.96.81,1.95,0,3.38-1.6,3.38-3.38,0-2.17-1.52-3.73-3.29-4.16,1.94-1.6,3.29-4.35,3.29-7.65,0-3.56-1.57-6.5-3.79-8.03.46-.14.9-.33,1.32-.57,2.14-1.24,3.27-4.17,1.8-6.72-.99-1.72-3.13-2.38-4.9-1.57.45-1.32,1.51-2.37,2.64-3.02,1.69-.98,3.17-.93,3.94-.77-1.52,1.08-2.13,3.24-1.1,5.03,1.36,2.35,4.37,3.16,6.72,1.8.14-.08.27-.17.4-.26.06.86.37,1.77,1.29,2.69,1.46,1.46,3.91,1.3,5.58-.37.54-.54.93-1.17,1.17-1.86,2.2.36,4.05.16,5.72-.11.27-1.67.47-3.52.11-5.72.69-.23,1.32-.63,1.86-1.17,1.67-1.67,1.83-4.12.37-5.58-.92-.92-1.83-1.23-2.69-1.29.09-.13.18-.27.26-.4,1.36-2.35.55-5.37-1.8-6.72-1.79-1.03-3.96-.42-5.03,1.1-.15-.77-.2-2.25.78-3.94.65-1.13,1.7-2.19,3.02-2.64-.81,1.77-.16,3.91,1.57,4.9,2.55,1.47,5.48.34,6.72-1.8.24-.42.43-.86.57-1.32,1.53,2.22,4.47,3.79,8.03,3.79,3.3,0,6.05-1.34,7.65-3.29.43,1.77,1.99,3.29,4.15,3.29,1.79,0,3.38-1.43,3.38-3.38,0-.74-.29-1.43-.81-1.96-.09-.09.16-.3.38-.3h32.15v-1.4h-32.15c-2,0-3.51,1.27-3.51,2.63s.76,1.38.88,1.26c-.36,0-.65-.29-.65-.65,0-.52.42-.94.94-.94.75,0,1.37.61,1.37,1.36,0,1.09-.89,1.98-1.98,1.98-1.59,0-2.87-1.29-2.87-2.88,0-2.29,2.45-4.42,5.83-4.42h32.15v-1.4h-32.15c-2.41,0-4.37.89-5.63,2.18-.31-2.56-2.47-4.61-5.2-4.61-2.07,0-3.56,1.5-3.94,3.13-.41-1.79-2.02-3.13-3.94-3.13-2.09,0-4.04,1.28-4.84,3.24-.53-.81-1.26-1.53-2.2-2.07-4.35-2.51-10.6-.17-13.91,5.55-1.01,1.75-1.6,3.55-1.82,5.27-.46-4.16,2.21-8.1,5.81-10.77-3.71-2.75-8.39-2.71-11.59.49-1.03,1.03-1.74,2.31-2.06,3.72-3.78-3.81-7.54-2.81-9.62-2.54h0c-.27,2.08-1.27,5.84,2.54,9.62-1.41.32-2.69,1.03-3.72,2.06-3.2,3.2-3.24,7.88-.49,11.59,2.67-3.59,6.61-6.27,10.77-5.8-1.72.22-3.52.81-5.27,1.82-5.72,3.3-8.06,9.56-5.55,13.91.55.95,1.26,1.68,2.07,2.2-1.96.81-3.24,2.76-3.24,4.84,0,1.92,1.34,3.53,3.14,3.94-1.64.37-3.14,1.87-3.13,3.94,0,2.72,2.06,4.89,4.61,5.19-1.29,1.27-2.18,3.22-2.18,5.63v32.23h1.4v-32.23ZM49.16,7.42c1.46,0,2.64,1.18,2.64,2.64,0,1.01-.82,1.82-1.82,1.82-.69,0-1.26-.56-1.26-1.25,0-.47.39-.86.86-.86-.16-.16-1.17-.11-1.17,1.68s2.01,3.5,4.68,3.5,4.68-1.69,4.68-3.5-1.01-1.83-1.17-1.68c.48,0,.86.39.86.86,0,.69-.56,1.25-1.25,1.26-1.01,0-1.82-.82-1.82-1.82,0-1.46,1.18-2.64,2.64-2.64,2.12,0,3.83,1.72,3.83,3.83,0,3.06-3.27,5.9-7.77,5.9-4.5,0-7.77-2.84-7.77-5.9,0-2.12,1.72-3.83,3.83-3.83ZM53.09,10.87c.26,1.02,1.02,1.84,1.99,2.21-.57.3-1.27.46-1.99.46s-1.44-.18-1.99-.46c.42-.16.81-.41,1.15-.74.41-.41.7-.92.84-1.47ZM29.42,13.43c3-5.2,8.47-7.08,12-5.04,2.45,1.41,3.28,4.54,1.87,6.98-.97,1.68-3.12,2.26-4.81,1.29-1.16-.67-1.56-2.16-.89-3.32.46-.8,1.48-1.07,2.28-.61.55.32.74,1.02.42,1.57.29-.08.91-1.28-1.15-2.47-2.1-1.21-5.38-.01-7.17,3.07-1.78,3.08-1.17,6.53.92,7.74,2.06,1.19,2.8.05,2.72-.24-.32.55-1.02.74-1.57.42-.8-.46-1.07-1.48-.61-2.28.67-1.16,2.15-1.56,3.32-.89,1.68.97,2.26,3.13,1.29,4.81-1.41,2.44-4.54,3.28-6.98,1.87-3.53-2.04-4.63-7.71-1.63-12.91ZM7.5,29.81c-2.78-4.9,1.73-12.84,9.79-9.12-4.84-2.28-7.95-5.17-7.14-10.55,5.38-.81,8.27,2.3,10.55,7.14-3.72-8.06,4.21-12.56,9.11-9.79-5.74,5.16-5.82,10.95-3.05,15.34.64,2.05,1.89,3.73,3.59,4.71,2.54,1.47,5.29.96,7.19-.48,1.11-.18,2.08-.28,3.14.78,1.57,1.57-.21,4.74-2.93,4.6.05.16.09.31.13.47.58,2.4.2,5.16.2,5.16,0,0,0,0,0,0h0s-2.07.28-4.19-.02c-.49-.07-.98-.17-1.44-.31.14,2.72-3.02,4.5-4.6,2.93-1.06-1.06-.96-2.03-.78-3.14,1.44-1.91,1.95-4.65.48-7.19-.98-1.71-2.66-2.95-4.71-3.59-4.39-2.78-10.18-2.7-15.34,3.05ZM8.39,41.41c-2.04-3.53-.16-8.99,5.04-11.99,5.2-3,10.87-1.9,12.91,1.63,1.41,2.44.58,5.57-1.87,6.98-1.68.97-3.84.4-4.81-1.29-.67-1.16-.27-2.65.89-3.32.8-.46,1.82-.19,2.28.61.32.55.13,1.25-.42,1.57.29.08,1.43-.66.24-2.72-1.21-2.09-4.65-2.7-7.74-.92-3.08,1.78-4.28,5.07-3.07,7.17,1.19,2.06,2.4,1.44,2.48,1.15-.55.32-1.26.13-1.58-.42-.46-.8-.19-1.82.61-2.28,1.16-.67,2.65-.27,3.32.89.97,1.68.39,3.84-1.29,4.81-2.44,1.41-5.57.57-6.98-1.87ZM10.86,53.09c.55-.14,1.06-.43,1.47-.84.33-.33.58-.72.74-1.15.28.54.46,1.23.46,1.99s-.17,1.42-.46,1.99c-.36-.98-1.19-1.73-2.21-1.99ZM7.42,57.03c0-1.46,1.18-2.64,2.64-2.64,1.01,0,1.82.82,1.82,1.82,0,.69-.56,1.26-1.25,1.25-.48,0-.87-.39-.87-.87-.16.16-.11,1.17,1.68,1.17s3.5-2.01,3.5-4.68-1.69-4.68-3.5-4.68-1.83,1.01-1.68,1.17c0-.48.39-.86.87-.86.69,0,1.25.56,1.25,1.26,0,1-.82,1.82-1.82,1.82-1.46,0-2.64-1.18-2.64-2.64,0-2.12,1.72-3.83,3.83-3.83,3.06,0,5.9,3.27,5.9,7.77s-2.85,7.77-5.9,7.77c-2.11,0-3.83-1.72-3.83-3.83Z"/>
      <path class="cls-2" d="M11.51,67.86c0-2,1.27-3.51,2.63-3.51,1.34,0,1.37.76,1.26.88,0-.36-.29-.64-.65-.64-.52,0-.94.42-.94.94,0,.76.61,1.37,1.36,1.37,1.09,0,1.98-.89,1.98-1.98,0-1.59-1.29-2.88-2.88-2.88-2.29,0-4.43,2.45-4.43,5.83v32.23h1.66v-32.23Z"/>
      <path class="cls-2" d="M17.15,53.09c0-4.5-2.85-7.77-5.9-7.77-2.12,0-3.83,1.72-3.83,3.83,0,1.46,1.18,2.64,2.64,2.64,1.01,0,1.82-.82,1.82-1.82,0-.69-.56-1.26-1.25-1.26-.48,0-.87.39-.87.86-.16-.16-.11-1.17,1.68-1.17s3.5,2.01,3.5,4.68-1.69,4.68-3.5,4.68-1.83-1.01-1.68-1.17c0,.48.39.87.87.87.69,0,1.25-.56,1.25-1.25,0-1.01-.82-1.82-1.82-1.82-1.46,0-2.64,1.18-2.64,2.64,0,2.12,1.72,3.83,3.83,3.83,3.06,0,5.9-3.27,5.9-7.77Z"/>
      <path class="cls-2" d="M16.66,38.47c-.67-1.16-2.15-1.56-3.32-.89-.8.46-1.07,1.48-.61,2.28.32.55,1.02.74,1.58.42-.08.29-1.29.91-2.48-1.15-1.21-2.09-.01-5.38,3.07-7.17,3.09-1.78,6.53-1.17,7.74.92,1.19,2.06.05,2.8-.24,2.72.55-.32.74-1.02.42-1.57-.46-.8-1.48-1.07-2.28-.61-1.16.67-1.56,2.15-.89,3.32.97,1.69,3.13,2.26,4.81,1.29,2.45-1.41,3.28-4.54,1.87-6.98-2.03-3.53-7.71-4.63-12.91-1.63-5.2,3-7.08,8.46-5.04,11.99,1.41,2.45,4.54,3.28,6.98,1.87,1.68-.97,2.26-3.13,1.29-4.81Z"/>
      <path class="cls-2" d="M31.05,26.34c2.44,1.41,5.57.58,6.98-1.87.97-1.69.4-3.84-1.29-4.81-1.16-.67-2.65-.27-3.32.89-.46.8-.19,1.82.61,2.28.55.32,1.26.13,1.57-.42.08.29-.66,1.43-2.72.24-2.09-1.21-2.7-4.65-.92-7.74,1.78-3.08,5.07-4.28,7.17-3.07,2.06,1.19,1.44,2.4,1.15,2.47.32-.55.13-1.25-.42-1.57-.8-.46-1.82-.19-2.28.61-.67,1.16-.27,2.65.89,3.32,1.69.97,3.84.39,4.81-1.29,1.41-2.45.58-5.57-1.87-6.98-3.53-2.04-8.99-.16-12,5.04-3,5.2-1.9,10.87,1.63,12.91Z"/>
      <path class="cls-2" d="M53.09,17.15c4.5,0,7.77-2.84,7.77-5.9,0-2.12-1.72-3.83-3.83-3.83-1.46,0-2.64,1.18-2.64,2.64,0,1.01.81,1.82,1.82,1.82.69,0,1.25-.56,1.25-1.26,0-.48-.39-.86-.86-.86.16-.16,1.17-.11,1.17,1.68s-2.01,3.5-4.68,3.5-4.68-1.69-4.68-3.5,1.01-1.83,1.17-1.68c-.48,0-.86.39-.86.86,0,.69.56,1.26,1.26,1.25,1,0,1.82-.82,1.82-1.82,0-1.46-1.18-2.64-2.64-2.64-2.12,0-3.83,1.72-3.83,3.83,0,3.06,3.27,5.9,7.77,5.9Z"/>
      <path class="cls-2" d="M67.86,9.85c-3.38,0-5.83,2.13-5.83,4.42,0,1.59,1.29,2.88,2.87,2.88,1.1,0,1.98-.89,1.98-1.98,0-.75-.61-1.37-1.37-1.36-.52,0-.94.42-.94.94,0,.36.29.65.65.65-.12.12-.88.08-.88-1.26s1.51-2.63,3.51-2.63h32.15v-1.66h-32.15Z"/>
      <path class="cls-2" d="M27.55,30.35c1.47,2.54.96,5.29-.48,7.19-.18,1.11-.28,2.08.78,3.14,1.57,1.57,4.73-.21,4.6-2.93.47.14.96.24,1.44.31,2.1.3,4.17.02,4.19.02,0,0,.38-2.77-.2-5.16-.04-.16-.08-.32-.13-.47,2.72.14,4.5-3.02,2.93-4.6-1.06-1.06-2.03-.96-3.14-.78-1.9,1.44-4.65,1.95-7.19.48-1.7-.98-2.95-2.66-3.59-4.71-2.78-4.39-2.7-10.18,3.05-15.34-4.9-2.78-12.84,1.72-9.11,9.79-2.28-4.84-5.17-7.95-10.55-7.14-.81,5.38,2.3,8.27,7.14,10.55-8.06-3.72-12.56,4.21-9.79,9.12,5.16-5.75,10.95-5.82,15.34-3.05,2.05.64,3.73,1.89,4.71,3.59ZM34.29,31.84c1.24,1.24,1.02,3.46,1.02,3.46,0,0-2.23.22-3.46-1.02-1.24-1.24-1.02-3.46-1.02-3.46,0,0,2.23-.22,3.46,1.02ZM13.17,15.61c-1.24-1.24-1.02-3.46-1.02-3.46,0,0,2.23-.22,3.47,1.02,1.24,1.24,1.02,3.47,1.02,3.47,0,0-2.23.21-3.46-1.02Z"/>
      <path class="cls-2" d="M33.89,38.07c2.11.3,4.19.02,4.19.02h0s-2.08.28-4.19-.02Z"/>
    </g>
  </g>
</svg>