<?xml version="1.0" encoding="UTF-8"?>
<svg id="_圖層_2" data-name="圖層 2" xmlns="http://www.w3.org/2000/svg" xmlns:xlink="http://www.w3.org/1999/xlink" viewBox="0 0 275.63 66.16">
  <defs>
    <style>
      .cls-1 {
        fill: url(#_不繡鋼-3);
      }

      .cls-1, .cls-2, .cls-3, .cls-4, .cls-5, .cls-6, .cls-7 {
        stroke-width: 0px;
      }

      .cls-2 {
        fill: url(#_不繡鋼-2);
      }

      .cls-3 {
        fill: url(#_不繡鋼-6);
      }

      .cls-4 {
        fill: url(#_不繡鋼);
      }

      .cls-5 {
        fill: url(#_不繡鋼-7);
      }

      .cls-6 {
        fill: url(#_不繡鋼-4);
      }

      .cls-7 {
        fill: url(#_不繡鋼-5);
      }
    </style>
    <linearGradient id="_不繡鋼" data-name="不繡鋼" x1="5.63" y1="51.75" x2="40.79" y2="51.75" gradientUnits="userSpaceOnUse">
      <stop offset="0" stop-color="#f0eeeb"/>
      <stop offset="0" stop-color="#e4e0dc"/>
      <stop offset="0" stop-color="#dad5cf"/>
      <stop offset=".07" stop-color="#cbc6c1"/>
      <stop offset=".15" stop-color="#b6b2ad"/>
      <stop offset=".52" stop-color="#e9eaea"/>
      <stop offset=".63" stop-color="#dcdcdb"/>
      <stop offset=".84" stop-color="#bcb8b4"/>
      <stop offset=".88" stop-color="#b6b2ad"/>
      <stop offset="1" stop-color="#dcdddd"/>
      <stop offset="1" stop-color="#b5b5b6"/>
    </linearGradient>
    <linearGradient id="_不繡鋼-2" data-name="不繡鋼" x1="0" y1="20.36" x2="36.63" y2="20.36" xlink:href="#_不繡鋼"/>
    <linearGradient id="_不繡鋼-3" data-name="不繡鋼" x1="46.23" y1="34.3" x2="148.33" y2="34.3" xlink:href="#_不繡鋼"/>
    <linearGradient id="_不繡鋼-4" data-name="不繡鋼" x1="150.03" y1="34.4" x2="275.63" y2="34.4" xlink:href="#_不繡鋼"/>
    <linearGradient id="_不繡鋼-5" data-name="不繡鋼" x1="116.83" y1="34.4" x2="140.73" y2="34.4" xlink:href="#_不繡鋼"/>
    <linearGradient id="_不繡鋼-6" data-name="不繡鋼" x1="28.93" y1="18" x2="68.93" y2="18" xlink:href="#_不繡鋼"/>
    <linearGradient id="_不繡鋼-7" data-name="不繡鋼" x1="55.02" y1="38.58" x2="97.43" y2="38.58" xlink:href="#_不繡鋼"/>
  </defs>
  <g id="_5" data-name="5">
    <g>
      <path class="cls-4" d="M35.53,37.35c-7.9,3.1-21.4,9.4-29.9,3.8,0,6.4,7,9.6,11.5,8.9-4.5,7.7,8.2,21.5,19.3,13.9,10.1-6.9-.2-17-2.6-10.7-.6,4.1,1.5,3.6,1.5,3.6,0,0-3.8,10.1-11.3,1.5-5.5-6.3,11.5-21,11.5-21Z"/>
      <g>
        <g>
          <path class="cls-2" d="M2.13,17.35c2.8-2.8,2.3-6.2,0-7.6s-.8-4.5,1.4-4c2.3.6,2.5,4.8,2.8,7.1,4.8-4,6.8-5.4,6.5-9.9-.2-3.4.8-3.7,2.8-1.7,3.7,2.6,4,7.6,1.7,11.6,3.4,1.1,4.3,7.4,0,10.2,1.1-3.1-3.1-7.4-8.5-4s-4.2,14.4,4,16.1c3.9.8,11-1.2,19.2-4.4.3.3.6.6.9.9,1.3,1.2,2.5,2.1,3.7,2.8-9.5,4.6-20,8.6-28.6,4.7C-2.37,34.35-.67,20.25,2.13,17.35Z"/>
          <path class="cls-1" d="M129.03,57.85c12.2-4,17.8-19.5,10.8-32.6-7.1-13-23.8-15.9-38.2-14.7-12.2,1-41.7,12.9-55.2,19.2q-.1-.1-.2-.2c2.1-1.7,2.9-3.8,2.7-5.6,3.9-1.7,7.7-3.3,11.3-4.8.8-.3,1.7-.7,2.5-1.1h0l1.8-.8c.1,0,.1-.1.2-.1.5-.2,1-.4,1.5-.7.1-.1.3-.1.4-.2.2-.1.5-.2.7-.3.4-.2.7-.3,1.1-.5l1.4-.6.9-.4C86.23,7.75,104.23.45,119.03,3.75c18.7,4.2,29.3,16.9,29.3,33.6,0,17.8-14.7,31.2-38.5,27.8-23.8-3.4-30.4-16.4-31.8-18.4,1.4,1.1,6.8,3.1,11.3,3.7,8.1,11.4,27.5,11.4,39.7,7.4Z"/>
          <g>
            <path class="cls-6" d="M150.03,32.15h19.1c14,0,22.9-7.7,22.9-7.7,0,0,8.9,7.7,22.9,7.7h28.7c2.5,0,4.9-3.6,3-5.9s-4.2-.4-4,1.3c.2,1.7-2.1,2.1-2.5.4s.8-5.1,5.3-5.1,5.3,3.8,5.3,3.8c0,0,1.3,1.7,3.2,2.5,2.9,1.3,21.7,3.6,21.7,5.1v.3c0,1.5-18.7,3.8-21.7,5.1-1.9.8-3.2,2.5-3.2,2.5,0,0-.9,3.8-5.3,3.8s-5.7-3.4-5.3-5.1c.4-1.7,2.8-1.3,2.5.4-.2,1.7,2.1,3.6,4,1.3s-.4-5.9-3-5.9h-28.7c-14,0-22.9,7.7-22.9,7.7,0,0-8.9-7.7-22.9-7.7h-18.7c-.1-1.5-.2-3-.4-4.5Z"/>
            <path class="cls-7" d="M116.83,36.65v-4.5h23.3c.4,1.5.6,3,.6,4.5h-23.9Z"/>
          </g>
        </g>
        <path class="cls-3" d="M35.23,5.45c8.1-6.7,22.1-4.5,28.9,1.8,1.5,1.4,3.1,3.4,4.8,5.7-.4.2-.9.4-1.3.6-1.4.6-2.7,1.2-4,1.7-3.1-5.8-8.6-10.5-16.8-10.1-19.7,1-9.9,23.2-2,17.3,2.3-.6,3.4,4.2-2,6.5,0,0,5.4,5.7,2.5,5.7-2.5,0-5.7.3-11-4.5-5-4.6-9.5-16.1.9-24.7Z"/>
        <path class="cls-5" d="M55.63,38.75c.9.6,7.2,0,10.2-5.9,1-2.1,1.3-5.5.6-9.3,2.6-1,5.2-2,7.6-2.9,3.1,4.7,6.1,9.5,8.4,13,5.1,7.4,15,13.9,15,13.9,0,0-6.5,2.6-9.6.3-2.8-.3-8.2-2-10.2-4.3s-2.5-4.5-3.1-6.2-2.3-1.4-.9,2.5c1.4,4,2,10.5.6,13.6-1.4,3.1-2.8,4.2-4.8,1.7-2-2.6-3.7-9.3-2.5-12.2,1.1-2.8-.3-2.5-1.1-.6-.9,2-7.4,3.1-9.3.6-2-2.6-1.7-4.7-.9-4.2Z"/>
      </g>
    </g>
  </g>
</svg>