<svg width="500" height="69" viewBox="0 0 500 69" fill="none" xmlns="http://www.w3.org/2000/svg">
<path d="M344.886 33.5347C345.518 33.3155 345.833 32.658 345.707 31.9274C345.518 31.1967 344.95 30.8314 344.318 30.9776C343.687 31.1967 343.371 31.8543 343.497 32.5849C343.687 33.3155 344.255 33.7539 344.886 33.5347ZM338.826 35.2151C339.457 35.069 339.836 34.4115 339.71 33.6809C339.583 32.9502 339.015 32.5118 338.384 32.658C337.753 32.8041 337.374 33.4616 337.5 34.1923C337.626 34.8498 338.194 35.3613 338.826 35.2151ZM332.639 36.3841C333.27 36.3111 333.712 35.6535 333.649 34.9229C333.586 34.1923 333.018 33.6808 332.386 33.7539C331.755 33.827 331.313 34.4845 331.376 35.2151C331.439 35.9458 332.008 36.4572 332.639 36.3841ZM326.389 36.9687C327.02 36.9687 327.525 36.3111 327.462 35.5805C327.462 34.8498 326.894 34.2653 326.263 34.3384C325.631 34.3384 325.126 34.996 325.189 35.7266C325.253 36.4572 325.758 37.0417 326.389 36.9687ZM320.139 36.9687C320.77 37.0417 321.275 36.4572 321.338 35.7266C321.402 34.996 320.896 34.4115 320.265 34.3384C319.634 34.3384 319.129 34.8498 319.066 35.5805C319.003 36.3111 319.508 36.9687 320.139 36.9687ZM313.826 36.238C314.457 36.3842 315.025 35.8727 315.152 35.1421C315.278 34.4115 314.836 33.7539 314.205 33.6078C313.573 33.4616 313.005 33.9731 312.879 34.7037C312.816 35.4343 313.258 36.0919 313.826 36.238ZM307.702 34.4845C308.27 34.7037 308.965 34.3384 309.154 33.6809C309.343 33.0233 309.028 32.2196 308.46 32.0004C307.891 31.7812 307.197 32.1465 307.008 32.8041C306.755 33.5347 307.071 34.2653 307.702 34.4845ZM301.768 30.9045C302.21 31.4159 302.904 31.4159 303.346 30.9045C303.788 30.393 303.788 29.5893 303.346 29.0779C302.904 28.5665 302.21 28.5665 301.768 29.0779C301.326 29.5893 301.326 30.393 301.768 30.9045Z" fill="url(#paint0_linear_76_138)"/>
<path d="M280.745 23.6714C282.639 34.8499 296.338 48.1472 311.364 50.5582C327.841 53.2615 353.472 47.4166 359.343 44.7133C354.419 50.1929 323.359 55.9648 308.523 53.6999C293.813 51.435 279.23 37.1879 280.745 23.6714Z" fill="url(#paint1_linear_76_138)"/>
<path d="M393.371 37.4798C397.033 38.4296 403.283 45.5898 401.957 49.0237C404.482 50.0465 408.46 45.4436 405.871 41.1329C403.346 36.7492 396.717 35.5071 393.371 37.4798Z" fill="url(#paint2_linear_76_138)"/>
<path d="M351.389 38.2837C350.947 37.7722 350.568 37.2608 350.189 36.6763C325.758 43.3249 301.957 42.156 291.603 30.0277C280.934 17.6071 297.727 9.35106 299.116 18.2646C299.811 22.7214 295.833 18.9222 293.813 22.5753C291.73 26.2284 295.644 30.5391 300.568 26.5937C303.22 24.4749 305.05 17.0226 300.631 12.2736C296.212 7.59759 286.427 8.69351 284.217 17.6802C282.008 26.5937 289.331 44.2017 311.995 47.3433C321.78 48.7315 340.278 46.9781 356.439 42.6674C354.293 41.3523 352.651 39.818 351.389 38.2837Z" fill="url(#paint3_linear_76_138)"/>
<path d="M462.816 32.804C462.816 32.804 432.576 -3.58092 382.513 22.21C370.265 28.4933 354.609 28.3472 346.717 18.3377C346.717 18.3377 349.621 48.8776 376.263 41.2792C378.346 40.5486 380.429 39.9641 382.386 39.0143C411.742 24.8402 414.836 53.992 402.336 57.7181C394.066 60.2023 392.045 48.3662 395.265 46.8319C395.265 46.8319 386.806 48.8777 389.205 59.1063C391.351 68.093 405.871 72.6228 413.952 62.7594C421.843 53.1152 421.907 39.4526 412.5 32.3656C412.311 32.2195 412.121 32.0733 411.995 32.0003C410.543 29.7354 412.753 28.8587 413.952 29.6623C414.457 29.9546 415.215 30.6121 416.54 31.7081C420.96 35.3612 426.326 47.4895 421.338 58.5219C421.338 58.5219 440.341 56.5492 440.152 44.4939C439.962 32.9501 429.419 24.3288 420.455 23.379C412.753 22.4292 419.444 21.3332 423.927 21.8447C428.409 22.3561 444.823 30.6121 443.182 48.9507C449.684 52.6769 453.535 46.7589 453.977 43.1788C458.712 49.243 466.919 52.2385 470.391 50.7042C473.485 49.243 471.591 40.6216 462.816 32.804Z" fill="url(#paint4_linear_76_138)"/>
<path d="M372.727 23.3059C368.308 24.1096 351.578 23.5982 348.737 13.1503C348.737 10.3739 351.073 9.71639 352.588 10.374C353.03 12.5658 355.114 17.3879 365.657 19.872C361.048 17.0226 359.28 13.5887 361.174 12.3466C363.131 14.5385 371.401 19.2875 382.955 15.123C394.508 10.9584 399.242 12.6389 399.242 12.6389C399.242 12.6389 394.066 13.8809 387.563 17.3148C383.081 19.799 376.578 22.6484 372.727 23.3059Z" fill="url(#paint5_linear_76_138)"/>
<path d="M346.465 28.0551C348.232 29.5894 324.306 34.4115 314.52 26.8861C307.576 21.5526 310.606 15.6346 305.619 12.639C310.227 9.78958 315.53 11.9814 318.75 15.8537C321.97 19.726 324.747 23.0138 327.02 22.2101C329.293 21.4065 326.831 17.8264 323.548 16.2921C320.265 14.7578 320.581 9.20508 322.664 9.20508C324.684 9.27814 329.987 9.64345 332.765 13.5157C335.48 17.388 336.679 21.1873 338.763 21.2603C337.563 17.388 340.341 15.4154 340.341 15.4154C340.341 15.4154 342.929 25.0596 346.465 28.0551Z" fill="url(#paint6_linear_76_138)"/>
<path d="M451.2 9.57038C465.215 9.27813 493.939 9.42426 500 23.4522C497.033 30.2469 488.763 29.8816 482.765 23.5252C477.904 18.3378 473.359 19.4338 476.326 23.0138C479.293 26.5938 485.354 31.4159 484.217 37.2609C483.144 43.1059 480.997 47.7819 479.545 45.9553C478.03 44.2018 474.369 43.6904 469.066 33.0233C464.899 24.5481 448.359 13.808 439.773 11.9084C431.25 9.9357 444.003 9.71651 451.2 9.57038Z" fill="url(#paint7_linear_76_138)"/>
<path d="M156.503 32.658C156.692 31.9274 156.313 31.2698 155.682 31.0506C155.051 30.8314 154.482 31.2698 154.293 32.0004C154.104 32.731 154.482 33.3886 155.114 33.6078C155.745 33.7539 156.313 33.3155 156.503 32.658ZM161.174 35.2151C161.806 35.3613 162.374 34.9229 162.5 34.1923C162.626 33.4616 162.247 32.8041 161.616 32.658C160.985 32.5118 160.417 32.9502 160.29 33.6809C160.164 34.3384 160.543 35.069 161.174 35.2151ZM167.361 36.3841C167.992 36.4572 168.561 35.9458 168.624 35.2151C168.687 34.4845 168.245 33.827 167.614 33.7539C166.982 33.6808 166.414 34.1923 166.351 34.9229C166.288 35.6535 166.73 36.3111 167.361 36.3841ZM174.811 35.7266C174.811 34.996 174.369 34.4115 173.737 34.3384C173.106 34.3384 172.601 34.8498 172.538 35.5805C172.538 36.3111 172.98 36.8956 173.611 36.9687C174.242 37.0417 174.747 36.4572 174.811 35.7266ZM180.934 35.5805C180.934 34.8498 180.366 34.2653 179.735 34.3384C179.104 34.3384 178.598 34.996 178.662 35.7266C178.662 36.4572 179.23 37.0417 179.861 36.9687C180.492 36.9687 180.997 36.3111 180.934 35.5805ZM187.058 34.7037C186.932 33.9731 186.364 33.5347 185.732 33.6078C185.101 33.7539 184.722 34.4115 184.785 35.1421C184.912 35.8727 185.48 36.3111 186.111 36.238C186.742 36.0919 187.184 35.4343 187.058 34.7037ZM193.056 32.8041C192.866 32.1465 192.235 31.7081 191.604 32.0004C191.035 32.2196 190.657 32.9502 190.909 33.6809C191.098 34.3384 191.73 34.7768 192.361 34.4845C192.929 34.2653 193.245 33.5347 193.056 32.8041ZM198.169 29.0779C197.727 28.5665 196.97 28.5665 196.591 29.0779C196.149 29.5893 196.149 30.4661 196.591 30.9045C197.033 31.4159 197.79 31.4159 198.169 30.9045C198.674 30.393 198.674 29.5893 198.169 29.0779Z" fill="url(#paint8_linear_76_138)"/>
<path d="M219.255 23.6714C217.361 34.8499 203.662 48.1472 188.636 50.5582C172.159 53.2615 146.528 47.4166 140.657 44.7133C145.581 50.1929 176.641 55.9648 191.477 53.6999C206.187 51.435 220.77 37.1879 219.255 23.6714Z" fill="url(#paint9_linear_76_138)"/>
<path d="M106.629 37.4798C102.967 38.4296 96.7172 45.5898 98.0429 49.0237C95.5177 50.0465 91.5404 45.4436 94.1288 41.1329C96.6541 36.7492 103.283 35.5071 106.629 37.4798Z" fill="url(#paint10_linear_76_138)"/>
<path d="M148.611 38.2837C149.053 37.7722 149.432 37.2608 149.811 36.6763C174.242 43.3249 198.043 42.156 208.396 30.0277C219.066 17.6071 202.273 9.35106 200.884 18.2646C200.189 22.7214 204.167 18.9222 206.187 22.5753C208.27 26.2284 204.356 30.5391 199.432 26.5937C196.78 24.4749 194.949 17.0226 199.369 12.2736C203.788 7.59759 213.573 8.69351 215.783 17.6802C217.992 26.5937 210.669 44.2017 188.005 47.3433C178.22 48.7315 159.722 46.9781 143.561 42.6674C145.707 41.3523 147.348 39.818 148.611 38.2837Z" fill="url(#paint11_linear_76_138)"/>
<path d="M37.1844 32.804C37.1844 32.804 67.4243 -3.58092 117.487 22.21C129.735 28.4933 145.391 28.3472 153.283 18.3377C153.283 18.3377 150.379 48.8776 123.737 41.2792C121.654 40.5486 119.571 39.9641 117.614 39.0143C88.2576 24.8402 85.1642 53.992 97.6641 57.7181C105.934 60.2023 107.955 48.3662 104.735 46.8319C104.735 46.8319 113.194 48.8777 110.795 59.1063C108.649 68.093 94.1288 72.6228 86.048 62.7594C78.1566 53.1152 78.0934 39.4526 87.5 32.3656C87.6894 32.2195 87.8788 32.0733 88.0051 32.0003C89.4571 29.7354 87.2475 28.8587 86.048 29.6623C85.5429 29.9546 84.7854 30.6121 83.4596 31.7081C79.0404 35.3612 73.6743 47.4895 78.6616 58.5219C78.6616 58.5219 59.6591 56.5492 59.8485 44.4939C60.0379 32.9501 70.5808 24.3288 79.5455 23.379C87.2475 22.4292 80.5556 21.3332 76.0732 21.8447C71.5909 22.3561 55.1768 30.6121 56.8182 48.9507C50.3157 52.6769 46.4647 46.7589 46.0227 43.1788C41.2879 49.243 33.0808 52.2385 29.6086 50.7042C26.5152 49.243 28.4091 40.6216 37.1844 32.804Z" fill="url(#paint12_linear_76_138)"/>
<path d="M127.273 23.3058C131.692 24.1095 148.422 23.5981 151.263 13.1502C151.263 10.4469 148.927 9.71627 147.412 10.3738C146.97 12.5657 144.886 17.3878 134.343 19.8719C138.952 17.0225 140.72 13.5886 138.826 12.3465C136.869 14.5384 128.598 19.2874 117.045 15.1229C105.492 10.9583 100.758 12.6388 100.758 12.6388C100.758 12.6388 105.934 13.8808 112.437 17.3147C116.919 19.7988 123.422 22.6483 127.273 23.3058Z" fill="url(#paint13_linear_76_138)"/>
<path d="M153.535 28.0551C151.768 29.5894 175.694 34.4115 185.48 26.8861C192.424 21.5526 189.394 15.6346 194.381 12.639C189.773 9.78958 184.47 11.9814 181.25 15.8537C178.03 19.726 175.253 23.0138 172.98 22.2101C170.707 21.4065 173.169 17.8264 176.452 16.2921C179.735 14.7578 179.419 9.20508 177.336 9.20508C175.316 9.27814 170.013 9.64345 167.235 13.5157C164.52 17.388 163.321 21.1873 161.237 21.2603C162.437 17.388 159.659 15.4154 159.659 15.4154C159.659 15.4154 157.071 25.0596 153.535 28.0551Z" fill="url(#paint14_linear_76_138)"/>
<path d="M48.8005 9.57038C34.7854 9.27813 6.06061 9.42426 0 23.4522C2.96717 30.2469 11.2374 29.8816 17.2348 23.5252C22.096 18.3378 26.6414 19.4338 23.6742 23.0138C20.7071 26.5938 14.6465 31.4159 15.7828 37.2609C16.8561 43.1059 19.0025 47.7819 20.4545 45.9553C21.9697 44.2018 25.6313 43.6904 30.9343 33.0233C35.101 24.6212 51.6414 13.808 60.2273 11.9084C68.75 9.9357 55.9975 9.71651 48.8005 9.57038Z" fill="url(#paint15_linear_76_138)"/>
<path d="M250.694 28.3474C250.694 28.3474 252.273 25.7172 253.662 24.9135C254.987 24.1098 254.356 20.2376 251.831 19.6531H249.558H250.253H247.98C245.518 20.1645 244.823 24.1098 246.149 24.9135C247.475 25.7172 249.116 28.3474 249.116 28.3474H250.694Z" fill="url(#paint16_linear_76_138)"/>
<path d="M247.98 17.3883C247.096 13.7352 241.225 2.4836 235.29 0.364797C229.987 -1.53482 230.745 4.52935 234.154 6.13672C237.563 7.67102 245.013 12.6392 247.98 17.3883Z" fill="url(#paint17_linear_76_138)"/>
<path d="M251.389 17.3883C252.273 13.7352 258.144 2.4836 264.078 0.364797C269.381 -1.53482 268.624 4.52935 265.215 6.13672C261.806 7.67102 254.356 12.6392 251.389 17.3883Z" fill="url(#paint18_linear_76_138)"/>
<path d="M250.821 10.8859C250.821 10.0092 250.253 9.35163 249.558 9.27856C248.8 9.27856 248.232 9.93612 248.169 10.7398C248.169 11.6166 248.737 12.2741 249.432 12.3472C250.189 12.3472 250.821 11.6896 250.821 10.8859Z" fill="url(#paint19_linear_76_138)"/>
<path d="M250.821 4.16402C250.821 3.28727 250.253 2.6297 249.558 2.55664C248.8 2.55664 248.232 3.2142 248.169 4.01788C248.169 4.89463 248.737 5.55219 249.432 5.62526C250.189 5.69832 250.821 5.04076 250.821 4.16402Z" fill="url(#paint20_linear_76_138)"/>
<path d="M244.571 18.4108C244.571 17.8263 244.192 17.3879 243.75 17.3879C243.245 17.3879 242.866 17.8263 242.866 18.3377C242.866 18.9222 243.245 19.3606 243.687 19.3606C244.129 19.3606 244.571 18.9222 244.571 18.4108Z" fill="url(#paint21_linear_76_138)"/>
<path d="M240.783 14.3925C240.783 13.5158 240.215 12.8582 239.52 12.7852C238.763 12.7852 238.194 13.4427 238.131 14.2464C238.131 15.1231 238.699 15.7807 239.394 15.8538C240.151 15.8538 240.783 15.1962 240.783 14.3925Z" fill="url(#paint22_linear_76_138)"/>
<path d="M234.154 11.1779C234.154 10.3012 233.586 9.64362 232.891 9.57056C232.134 9.57056 231.566 10.2281 231.503 11.0318C231.503 11.9085 232.071 12.5661 232.765 12.6392C233.523 12.7122 234.154 12.0547 234.154 11.1779Z" fill="url(#paint23_linear_76_138)"/>
<path d="M255.429 18.4108C255.429 17.8263 255.808 17.3879 256.25 17.3879C256.755 17.3879 257.134 17.8263 257.134 18.3377C257.134 18.9222 256.755 19.3606 256.313 19.3606C255.871 19.3606 255.492 18.9222 255.429 18.4108Z" fill="url(#paint24_linear_76_138)"/>
<path d="M259.217 14.3925C259.217 13.5158 259.785 12.8582 260.48 12.7852C261.237 12.7852 261.806 13.4427 261.869 14.2464C261.869 15.1231 261.3 15.7807 260.606 15.8538C259.848 15.8538 259.28 15.1962 259.217 14.3925Z" fill="url(#paint25_linear_76_138)"/>
<path d="M265.846 11.1779C265.846 10.3012 266.414 9.64362 267.109 9.57056C267.866 9.57056 268.434 10.2281 268.498 11.0318C268.498 11.9085 267.929 12.5661 267.235 12.6392C266.477 12.7122 265.909 12.0547 265.846 11.1779Z" fill="url(#paint26_linear_76_138)"/>
<path d="M268.434 35.5807C265.909 38.3571 259.975 35.5807 257.45 36.2383C254.924 36.8958 254.924 42.4485 257.45 41.0603C259.975 39.6722 264.962 41.7179 264.457 46.54C257.955 46.54 250 56.8417 250 56.8417C250 56.8417 242.046 46.54 235.543 46.54C235.038 41.7179 240.025 39.6722 242.551 41.0603C245.076 42.4485 245.076 36.9689 242.551 36.2383C240.025 35.5807 234.091 38.284 231.566 35.5807C229.04 32.8043 225.063 25.9365 228.093 24.6214C230.745 23.4524 243.245 21.6989 250.063 38.7954C256.818 21.6989 269.381 23.4524 272.033 24.6214C274.937 26.0096 270.96 32.8774 268.434 35.5807Z" fill="url(#paint27_linear_76_138)"/>
<defs>
<linearGradient id="paint0_linear_76_138" x1="301.436" y1="32.8346" x2="345.735" y2="32.8346" gradientUnits="userSpaceOnUse">
<stop offset="0.26" stop-color="#BB9D6D"/>
<stop offset="0.335" stop-color="#E9D2AE"/>
<stop offset="0.435" stop-color="#BB9D6D"/>
<stop offset="1" stop-color="#554732"/>
</linearGradient>
<linearGradient id="paint1_linear_76_138" x1="280.636" y1="38.9382" x2="359.343" y2="38.9382" gradientUnits="userSpaceOnUse">
<stop offset="0.26" stop-color="#BB9D6D"/>
<stop offset="0.335" stop-color="#E9D2AE"/>
<stop offset="0.435" stop-color="#BB9D6D"/>
<stop offset="1" stop-color="#554732"/>
</linearGradient>
<linearGradient id="paint2_linear_76_138" x1="393.371" y1="42.8689" x2="406.713" y2="42.8689" gradientUnits="userSpaceOnUse">
<stop offset="0.26" stop-color="#BB9D6D"/>
<stop offset="0.335" stop-color="#E9D2AE"/>
<stop offset="0.435" stop-color="#BB9D6D"/>
<stop offset="1" stop-color="#554732"/>
</linearGradient>
<linearGradient id="paint3_linear_76_138" x1="283.842" y1="28.6847" x2="356.439" y2="28.6847" gradientUnits="userSpaceOnUse">
<stop offset="0.26" stop-color="#BB9D6D"/>
<stop offset="0.335" stop-color="#E9D2AE"/>
<stop offset="0.435" stop-color="#BB9D6D"/>
<stop offset="1" stop-color="#554732"/>
</linearGradient>
<linearGradient id="paint4_linear_76_138" x1="346.717" y1="40.6463" x2="471.778" y2="40.6463" gradientUnits="userSpaceOnUse">
<stop offset="0.26" stop-color="#BB9D6D"/>
<stop offset="0.335" stop-color="#E9D2AE"/>
<stop offset="0.435" stop-color="#BB9D6D"/>
<stop offset="1" stop-color="#554732"/>
</linearGradient>
<linearGradient id="paint5_linear_76_138" x1="348.737" y1="16.8506" x2="399.242" y2="16.8506" gradientUnits="userSpaceOnUse">
<stop offset="0.26" stop-color="#BB9D6D"/>
<stop offset="0.335" stop-color="#E9D2AE"/>
<stop offset="0.435" stop-color="#BB9D6D"/>
<stop offset="1" stop-color="#554732"/>
</linearGradient>
<linearGradient id="paint6_linear_76_138" x1="305.619" y1="20.0991" x2="346.558" y2="20.0991" gradientUnits="userSpaceOnUse">
<stop offset="0.26" stop-color="#BB9D6D"/>
<stop offset="0.335" stop-color="#E9D2AE"/>
<stop offset="0.435" stop-color="#BB9D6D"/>
<stop offset="1" stop-color="#554732"/>
</linearGradient>
<linearGradient id="paint7_linear_76_138" x1="436.941" y1="27.9318" x2="500" y2="27.9318" gradientUnits="userSpaceOnUse">
<stop offset="0.26" stop-color="#BB9D6D"/>
<stop offset="0.335" stop-color="#E9D2AE"/>
<stop offset="0.435" stop-color="#BB9D6D"/>
<stop offset="1" stop-color="#554732"/>
</linearGradient>
<linearGradient id="paint8_linear_76_138" x1="154.244" y1="32.8346" x2="198.548" y2="32.8346" gradientUnits="userSpaceOnUse">
<stop offset="0.26" stop-color="#BB9D6D"/>
<stop offset="0.335" stop-color="#E9D2AE"/>
<stop offset="0.435" stop-color="#BB9D6D"/>
<stop offset="1" stop-color="#554732"/>
</linearGradient>
<linearGradient id="paint9_linear_76_138" x1="140.657" y1="38.9382" x2="219.364" y2="38.9382" gradientUnits="userSpaceOnUse">
<stop offset="0.26" stop-color="#BB9D6D"/>
<stop offset="0.335" stop-color="#E9D2AE"/>
<stop offset="0.435" stop-color="#BB9D6D"/>
<stop offset="1" stop-color="#554732"/>
</linearGradient>
<linearGradient id="paint10_linear_76_138" x1="93.2872" y1="42.8689" x2="106.629" y2="42.8689" gradientUnits="userSpaceOnUse">
<stop offset="0.26" stop-color="#BB9D6D"/>
<stop offset="0.335" stop-color="#E9D2AE"/>
<stop offset="0.435" stop-color="#BB9D6D"/>
<stop offset="1" stop-color="#554732"/>
</linearGradient>
<linearGradient id="paint11_linear_76_138" x1="143.561" y1="28.6847" x2="216.158" y2="28.6847" gradientUnits="userSpaceOnUse">
<stop offset="0.26" stop-color="#BB9D6D"/>
<stop offset="0.335" stop-color="#E9D2AE"/>
<stop offset="0.435" stop-color="#BB9D6D"/>
<stop offset="1" stop-color="#554732"/>
</linearGradient>
<linearGradient id="paint12_linear_76_138" x1="28.2216" y1="40.6463" x2="153.283" y2="40.6463" gradientUnits="userSpaceOnUse">
<stop offset="0.26" stop-color="#BB9D6D"/>
<stop offset="0.335" stop-color="#E9D2AE"/>
<stop offset="0.435" stop-color="#BB9D6D"/>
<stop offset="1" stop-color="#554732"/>
</linearGradient>
<linearGradient id="paint13_linear_76_138" x1="100.758" y1="16.8549" x2="151.263" y2="16.8549" gradientUnits="userSpaceOnUse">
<stop offset="0.26" stop-color="#BB9D6D"/>
<stop offset="0.335" stop-color="#E9D2AE"/>
<stop offset="0.435" stop-color="#BB9D6D"/>
<stop offset="1" stop-color="#554732"/>
</linearGradient>
<linearGradient id="paint14_linear_76_138" x1="153.442" y1="20.0991" x2="194.381" y2="20.0991" gradientUnits="userSpaceOnUse">
<stop offset="0.26" stop-color="#BB9D6D"/>
<stop offset="0.335" stop-color="#E9D2AE"/>
<stop offset="0.435" stop-color="#BB9D6D"/>
<stop offset="1" stop-color="#554732"/>
</linearGradient>
<linearGradient id="paint15_linear_76_138" x1="0" y1="27.9318" x2="63.0592" y2="27.9318" gradientUnits="userSpaceOnUse">
<stop offset="0.26" stop-color="#BB9D6D"/>
<stop offset="0.335" stop-color="#E9D2AE"/>
<stop offset="0.435" stop-color="#BB9D6D"/>
<stop offset="1" stop-color="#554732"/>
</linearGradient>
<linearGradient id="paint16_linear_76_138" x1="245.487" y1="24.0003" x2="254.338" y2="24.0003" gradientUnits="userSpaceOnUse">
<stop offset="0.26" stop-color="#BB9D6D"/>
<stop offset="0.335" stop-color="#E9D2AE"/>
<stop offset="0.435" stop-color="#BB9D6D"/>
<stop offset="1" stop-color="#554732"/>
</linearGradient>
<linearGradient id="paint17_linear_76_138" x1="231.454" y1="8.69426" x2="247.98" y2="8.69426" gradientUnits="userSpaceOnUse">
<stop offset="0.26" stop-color="#BB9D6D"/>
<stop offset="0.335" stop-color="#E9D2AE"/>
<stop offset="0.435" stop-color="#BB9D6D"/>
<stop offset="1" stop-color="#554732"/>
</linearGradient>
<linearGradient id="paint18_linear_76_138" x1="251.389" y1="8.69426" x2="267.915" y2="8.69426" gradientUnits="userSpaceOnUse">
<stop offset="0.26" stop-color="#BB9D6D"/>
<stop offset="0.335" stop-color="#E9D2AE"/>
<stop offset="0.435" stop-color="#BB9D6D"/>
<stop offset="1" stop-color="#554732"/>
</linearGradient>
<linearGradient id="paint19_linear_76_138" x1="248.169" y1="10.8129" x2="250.821" y2="10.8129" gradientUnits="userSpaceOnUse">
<stop offset="0.26" stop-color="#BB9D6D"/>
<stop offset="0.335" stop-color="#E9D2AE"/>
<stop offset="0.435" stop-color="#BB9D6D"/>
<stop offset="1" stop-color="#554732"/>
</linearGradient>
<linearGradient id="paint20_linear_76_138" x1="248.169" y1="4.09372" x2="250.821" y2="4.09372" gradientUnits="userSpaceOnUse">
<stop offset="0.26" stop-color="#BB9D6D"/>
<stop offset="0.335" stop-color="#E9D2AE"/>
<stop offset="0.435" stop-color="#BB9D6D"/>
<stop offset="1" stop-color="#554732"/>
</linearGradient>
<linearGradient id="paint21_linear_76_138" x1="242.866" y1="18.3743" x2="244.571" y2="18.3743" gradientUnits="userSpaceOnUse">
<stop offset="0.26" stop-color="#BB9D6D"/>
<stop offset="0.335" stop-color="#E9D2AE"/>
<stop offset="0.435" stop-color="#BB9D6D"/>
<stop offset="1" stop-color="#554732"/>
</linearGradient>
<linearGradient id="paint22_linear_76_138" x1="238.131" y1="14.3195" x2="240.783" y2="14.3195" gradientUnits="userSpaceOnUse">
<stop offset="0.26" stop-color="#BB9D6D"/>
<stop offset="0.335" stop-color="#E9D2AE"/>
<stop offset="0.435" stop-color="#BB9D6D"/>
<stop offset="1" stop-color="#554732"/>
</linearGradient>
<linearGradient id="paint23_linear_76_138" x1="231.503" y1="11.1076" x2="234.154" y2="11.1076" gradientUnits="userSpaceOnUse">
<stop offset="0.26" stop-color="#BB9D6D"/>
<stop offset="0.335" stop-color="#E9D2AE"/>
<stop offset="0.435" stop-color="#BB9D6D"/>
<stop offset="1" stop-color="#554732"/>
</linearGradient>
<linearGradient id="paint24_linear_76_138" x1="255.429" y1="18.3743" x2="257.134" y2="18.3743" gradientUnits="userSpaceOnUse">
<stop offset="0.26" stop-color="#BB9D6D"/>
<stop offset="0.335" stop-color="#E9D2AE"/>
<stop offset="0.435" stop-color="#BB9D6D"/>
<stop offset="1" stop-color="#554732"/>
</linearGradient>
<linearGradient id="paint25_linear_76_138" x1="259.217" y1="14.3195" x2="261.869" y2="14.3195" gradientUnits="userSpaceOnUse">
<stop offset="0.26" stop-color="#BB9D6D"/>
<stop offset="0.335" stop-color="#E9D2AE"/>
<stop offset="0.435" stop-color="#BB9D6D"/>
<stop offset="1" stop-color="#554732"/>
</linearGradient>
<linearGradient id="paint26_linear_76_138" x1="265.846" y1="11.1076" x2="268.498" y2="11.1076" gradientUnits="userSpaceOnUse">
<stop offset="0.26" stop-color="#BB9D6D"/>
<stop offset="0.335" stop-color="#E9D2AE"/>
<stop offset="0.435" stop-color="#BB9D6D"/>
<stop offset="1" stop-color="#554732"/>
</linearGradient>
<linearGradient id="paint27_linear_76_138" x1="227.002" y1="40.3851" x2="273.051" y2="40.3851" gradientUnits="userSpaceOnUse">
<stop offset="0.26" stop-color="#BB9D6D"/>
<stop offset="0.335" stop-color="#E9D2AE"/>
<stop offset="0.435" stop-color="#BB9D6D"/>
<stop offset="1" stop-color="#554732"/>
</linearGradient>
</defs>
</svg>
