<svg width="500" height="69" viewBox="0 0 500 69" fill="none" xmlns="http://www.w3.org/2000/svg">
<path d="M155.114 35.4651C154.482 35.6843 154.167 36.3419 154.293 37.0725C154.482 37.8031 155.05 38.1684 155.682 38.0223C156.313 37.8031 156.629 37.1455 156.502 36.4149C156.313 35.6843 155.745 35.2459 155.114 35.4651ZM161.174 33.7847C160.543 33.9308 160.164 34.5884 160.29 35.319C160.417 36.0496 160.985 36.488 161.616 36.3419C162.247 36.1957 162.626 35.5382 162.5 34.8076C162.374 34.0769 161.806 33.6386 161.174 33.7847ZM167.361 32.6157C166.73 32.6888 166.288 33.3463 166.351 34.0769C166.414 34.8076 166.982 35.319 167.614 35.2459C168.245 35.1729 168.687 34.5153 168.624 33.7847C168.561 33.0541 167.992 32.5426 167.361 32.6157ZM173.611 31.9581C172.98 31.9581 172.475 32.6157 172.538 33.3463C172.538 34.0769 173.106 34.6614 173.737 34.5884C174.369 34.5884 174.874 33.9308 174.811 33.2002C174.747 32.5426 174.242 31.9581 173.611 31.9581ZM179.861 32.0312C179.23 31.9581 178.725 32.5426 178.662 33.2732C178.598 34.0039 179.103 34.5884 179.735 34.6614C180.366 34.7345 180.871 34.15 180.934 33.4194C180.997 32.6888 180.492 32.0312 179.861 32.0312ZM186.174 32.7618C185.543 32.6157 184.975 33.1271 184.848 33.8577C184.722 34.5884 185.164 35.2459 185.795 35.392C186.427 35.5382 186.995 35.0267 187.121 34.2961C187.184 33.5655 186.742 32.9079 186.174 32.7618ZM192.298 34.5153C191.73 34.2961 191.035 34.6614 190.846 35.319C190.657 35.9765 190.972 36.7802 191.54 36.9994C192.109 37.2186 192.803 36.8533 192.992 36.1957C193.245 35.4651 192.929 34.7345 192.298 34.5153ZM198.232 38.0953C197.79 37.5839 197.096 37.5839 196.654 38.0953C196.212 38.6068 196.212 39.4105 196.654 39.9219C197.096 40.4333 197.79 40.4333 198.232 39.9219C198.674 39.4105 198.674 38.6068 198.232 38.0953Z" fill="url(#paint0_linear_76_184)"/>
<path d="M219.255 45.3285C217.361 34.15 203.662 20.8527 188.636 18.4416C172.159 15.7383 146.528 21.5833 140.657 24.2866C145.581 18.8069 176.641 13.035 191.477 15.3C206.187 17.5649 220.77 31.812 219.255 45.3285Z" fill="url(#paint1_linear_76_184)"/>
<path d="M106.629 31.5201C102.967 30.5703 96.7171 23.4102 98.0429 19.9763C95.5176 18.9534 91.5404 23.5564 94.1287 27.867C96.654 32.2507 103.283 33.4928 106.629 31.5201Z" fill="url(#paint2_linear_76_184)"/>
<path d="M148.611 30.7165C149.053 31.228 149.432 31.7394 149.811 32.3239C174.242 25.6753 198.043 26.8443 208.396 38.9726C219.066 51.3931 202.273 59.6491 200.884 50.7356C200.189 46.2788 204.167 50.078 206.187 46.4249C208.27 42.7718 204.356 38.4611 199.432 42.4065C196.78 44.5253 194.949 51.9776 199.369 56.7267C203.788 61.4026 213.573 60.3067 215.783 51.3201C217.992 42.4065 210.669 24.7985 188.005 21.6568C178.22 20.2687 159.722 22.0222 143.561 26.3328C145.707 27.6479 147.348 29.1822 148.611 30.7165Z" fill="url(#paint3_linear_76_184)"/>
<path d="M37.1844 36.1958C37.1844 36.1958 67.4243 72.5808 117.487 46.7898C129.735 40.5065 145.391 40.6526 153.283 50.6621C153.283 50.6621 150.379 20.1222 123.737 27.7206C121.654 28.4513 119.571 29.0358 117.614 29.9856C88.2576 44.1596 85.1642 15.0078 97.6642 11.2817C105.934 8.79756 107.955 20.6336 104.735 22.1679C104.735 22.1679 113.194 20.1222 110.795 9.89349C108.649 0.906858 94.1288 -3.62299 86.048 6.24039C78.1566 15.8846 78.0935 29.5472 87.5 36.6342C87.6894 36.7803 87.8788 36.9265 88.0051 36.9995C89.4571 39.2644 87.2475 40.1412 86.048 39.3375C85.5429 39.0453 84.7854 38.3877 83.4596 37.2918C79.0404 33.6387 73.6743 21.5104 78.6616 10.478C78.6616 10.478 59.6591 12.4507 59.8485 24.5059C60.0379 36.0497 70.5808 44.671 79.5455 45.6208C87.2475 46.5707 80.5556 47.6666 76.0732 47.1552C71.5909 46.6437 55.1768 38.3877 56.8182 20.0491C50.3157 16.323 46.4647 22.241 46.0227 25.821C41.2879 19.7569 33.0808 16.7613 29.6086 18.2956C26.5152 19.7569 28.4091 28.3782 37.1844 36.1958Z" fill="url(#paint4_linear_76_184)"/>
<path d="M127.273 45.6208C131.692 44.8171 148.422 45.3286 151.263 55.7764C151.263 58.5528 148.927 59.2104 147.412 58.5528C146.97 56.3609 144.886 51.5388 134.343 49.0547C138.952 51.9772 140.72 55.3381 138.826 56.5801C136.869 54.3883 128.598 49.6392 117.045 53.8038C105.492 57.9683 100.758 56.2879 100.758 56.2879C100.758 56.2879 105.934 55.0458 112.437 51.6119C116.919 49.2009 123.422 46.3514 127.273 45.6208Z" fill="url(#paint5_linear_76_184)"/>
<path d="M153.535 40.9448C151.768 39.4105 175.694 34.5884 185.48 42.1138C192.424 47.4473 189.394 53.3654 194.381 56.3609C189.773 59.2103 184.47 57.0185 181.25 53.1462C178.03 49.2739 175.252 45.9861 172.98 46.7898C170.707 47.5935 173.169 51.1735 176.452 52.7078C179.735 54.2421 179.419 59.7948 177.336 59.7948C175.316 59.7218 170.013 59.3565 167.235 55.4842C164.52 51.6119 163.321 47.8127 161.237 47.7396C162.437 51.6119 159.659 53.5846 159.659 53.5846C159.659 53.5846 157.071 43.9404 153.535 40.9448Z" fill="url(#paint6_linear_76_184)"/>
<path d="M48.8005 59.43C34.7854 59.7222 6.06061 59.5761 0 45.5482C2.96717 38.7534 11.2374 39.1187 17.2348 45.4751C22.096 50.6625 26.6414 49.5666 23.6742 45.9866C20.7071 42.4065 14.6465 37.5844 15.7828 31.7395C16.8561 25.8945 19.0025 21.2185 20.4545 23.0451C21.9697 24.7986 25.6313 25.31 30.9343 35.9771C35.101 44.3792 51.6414 55.1924 60.2273 57.092C68.75 59.0647 55.9975 59.2839 48.8005 59.43Z" fill="url(#paint7_linear_76_184)"/>
<path d="M343.497 36.3421C343.308 37.0727 343.687 37.7303 344.318 37.9495C344.949 38.1687 345.518 37.7303 345.707 36.9997C345.896 36.2691 345.518 35.6115 344.886 35.3923C344.255 35.2462 343.687 35.6846 343.497 36.3421ZM338.826 33.7849C338.194 33.6388 337.626 34.0772 337.5 34.8078C337.374 35.5384 337.752 36.196 338.384 36.3421C339.015 36.4882 339.583 36.0499 339.71 35.3192C339.836 34.5886 339.457 33.9311 338.826 33.7849ZM332.639 32.6159C332.008 32.5429 331.439 33.0543 331.376 33.7849C331.313 34.5156 331.755 35.1731 332.386 35.2462C333.018 35.3192 333.586 34.8078 333.649 34.0772C333.712 33.3466 333.27 32.689 332.639 32.6159ZM325.189 33.2735C325.189 34.0041 325.631 34.5886 326.263 34.6617C326.894 34.6617 327.399 34.1502 327.462 33.4196C327.462 32.689 327.02 32.1045 326.389 32.0314C325.758 31.9584 325.252 32.5429 325.189 33.2735ZM319.066 33.4196C319.066 34.1502 319.634 34.7347 320.265 34.6617C320.896 34.6617 321.401 34.0041 321.338 33.2735C321.275 32.5429 320.77 31.9584 320.139 32.0314C319.508 32.0314 319.002 32.689 319.066 33.4196ZM312.942 34.2964C313.068 35.027 313.636 35.4654 314.268 35.3923C314.899 35.2462 315.278 34.5886 315.215 33.858C315.088 33.1274 314.52 32.689 313.889 32.7621C313.258 32.9082 312.816 33.5658 312.942 34.2964ZM306.944 36.196C307.134 36.8535 307.765 37.2919 308.396 36.9997C308.965 36.7805 309.343 36.0499 309.091 35.3192C308.901 34.6617 308.27 34.2233 307.639 34.5156C307.071 34.7347 306.755 35.4654 306.944 36.196ZM301.831 39.9222C302.273 40.4336 303.03 40.4336 303.409 39.9222C303.851 39.4107 303.851 38.534 303.409 38.0956C302.967 37.5842 302.21 37.5842 301.831 38.0956C301.326 38.607 301.326 39.4107 301.831 39.9222Z" fill="url(#paint8_linear_76_184)"/>
<path d="M280.745 45.3285C282.639 34.15 296.338 20.8527 311.364 18.4416C327.841 15.7383 353.472 21.5833 359.343 24.2866C354.419 18.8069 323.359 13.035 308.523 15.3C293.813 17.5649 279.23 31.812 280.745 45.3285Z" fill="url(#paint9_linear_76_184)"/>
<path d="M393.371 31.5201C397.033 30.5703 403.283 23.4102 401.957 19.9763C404.482 18.9534 408.46 23.5564 405.871 27.867C403.346 32.2507 396.717 33.4928 393.371 31.5201Z" fill="url(#paint10_linear_76_184)"/>
<path d="M351.389 30.7165C350.947 31.228 350.568 31.7394 350.189 32.3239C325.757 25.6753 301.957 26.8443 291.603 38.9726C280.934 51.3931 297.727 59.6491 299.116 50.7356C299.81 46.2788 295.833 50.078 293.813 46.4249C291.73 42.7718 295.644 38.4611 300.568 42.4065C303.22 44.5253 305.05 51.9776 300.631 56.7267C296.212 61.4026 286.427 60.3067 284.217 51.3201C282.007 42.4065 289.331 24.7985 311.995 21.6568C321.78 20.2687 340.278 22.0222 356.439 26.3328C354.293 27.6479 352.651 29.1822 351.389 30.7165Z" fill="url(#paint11_linear_76_184)"/>
<path d="M462.816 36.1958C462.816 36.1958 432.576 72.5808 382.513 46.7898C370.265 40.5065 354.609 40.6526 346.717 50.6621C346.717 50.6621 349.621 20.1222 376.263 27.7206C378.346 28.4513 380.429 29.0358 382.386 29.9856C411.742 44.1596 414.836 15.0078 402.336 11.2817C394.066 8.79756 392.045 20.6336 395.265 22.1679C395.265 22.1679 386.806 20.1222 389.205 9.89349C391.351 0.906858 405.871 -3.62299 413.952 6.24039C421.843 15.8846 421.907 29.5472 412.5 36.6342C412.311 36.7803 412.121 36.9265 411.995 36.9995C410.543 39.2644 412.753 40.1412 413.952 39.3375C414.457 39.0453 415.215 38.3877 416.54 37.2918C420.96 33.6387 426.326 21.5104 421.338 10.478C421.338 10.478 440.341 12.4507 440.151 24.5059C439.962 36.0497 429.419 44.671 420.455 45.6208C412.753 46.5707 419.444 47.6666 423.927 47.1552C428.409 46.6437 444.823 38.3877 443.182 20.0491C449.684 16.323 453.535 22.241 453.977 25.821C458.712 19.7569 466.919 16.7613 470.391 18.2956C473.485 19.7569 471.591 28.3782 462.816 36.1958Z" fill="url(#paint12_linear_76_184)"/>
<path d="M372.727 45.6208C368.308 44.8171 351.578 45.3286 348.737 55.7764C348.737 58.4797 351.073 59.2104 352.588 58.5528C353.03 56.3609 355.113 51.5388 365.656 49.0547C361.048 51.9772 359.28 55.3381 361.174 56.5801C363.131 54.3883 371.401 49.6392 382.954 53.8038C394.507 57.9683 399.242 56.2879 399.242 56.2879C399.242 56.2879 394.066 55.0458 387.563 51.6119C383.081 49.2009 376.578 46.3514 372.727 45.6208Z" fill="url(#paint13_linear_76_184)"/>
<path d="M346.465 40.9448C348.232 39.4105 324.306 34.5884 314.52 42.1138C307.576 47.4473 310.606 53.3654 305.619 56.3609C310.227 59.2103 315.53 57.0185 318.75 53.1462C321.97 49.2739 324.747 45.9861 327.02 46.7898C329.293 47.5935 326.831 51.1735 323.548 52.7078C320.265 54.2421 320.581 59.7948 322.664 59.7948C324.684 59.7218 329.987 59.3565 332.765 55.4842C335.48 51.6119 336.679 47.8127 338.763 47.7396C337.563 51.6119 340.341 53.5846 340.341 53.5846C340.341 53.5846 342.929 43.9404 346.465 40.9448Z" fill="url(#paint14_linear_76_184)"/>
<path d="M451.199 59.43C465.215 59.7222 493.939 59.5761 500 45.5482C497.033 38.7534 488.763 39.1187 482.765 45.4751C477.904 50.6625 473.358 49.5666 476.326 45.9866C479.293 42.4065 485.353 37.5844 484.217 31.7395C483.144 25.8945 480.997 21.2185 479.545 23.0451C478.03 24.7986 474.369 25.31 469.066 35.9771C464.899 44.3792 448.358 55.1924 439.773 57.092C431.25 59.0647 444.002 59.2839 451.199 59.43Z" fill="url(#paint15_linear_76_184)"/>
<path d="M249.306 40.6528C249.306 40.6528 247.727 43.2831 246.338 44.0867C245.013 44.8904 245.644 48.7627 248.169 49.3472H250.442H249.747H252.02C254.482 48.8358 255.177 44.8904 253.851 44.0867C252.525 43.2831 250.884 40.6528 250.884 40.6528H249.306Z" fill="url(#paint16_linear_76_184)"/>
<path d="M252.02 51.6121C252.904 55.2652 258.775 66.5167 264.709 68.6355C270.012 70.5351 269.255 64.471 265.846 62.8636C262.437 61.3293 254.987 56.3611 252.02 51.6121Z" fill="url(#paint17_linear_76_184)"/>
<path d="M248.611 51.6121C247.727 55.2652 241.856 66.5167 235.922 68.6355C230.619 70.5351 231.376 64.471 234.785 62.8636C238.194 61.3293 245.644 56.3611 248.611 51.6121Z" fill="url(#paint18_linear_76_184)"/>
<path d="M249.179 58.1146C249.179 58.9913 249.747 59.6489 250.442 59.7219C251.199 59.7219 251.768 59.0644 251.831 58.2607C251.831 57.3839 251.263 56.7264 250.568 56.6533C249.811 56.6533 249.179 57.3109 249.179 58.1146Z" fill="url(#paint19_linear_76_184)"/>
<path d="M249.179 64.8362C249.179 65.7129 249.747 66.3705 250.442 66.4435C251.199 66.4435 251.768 65.786 251.831 64.9823C251.831 64.1055 251.263 63.448 250.568 63.3749C249.811 63.3019 249.179 63.9594 249.179 64.8362Z" fill="url(#paint20_linear_76_184)"/>
<path d="M255.429 50.5896C255.429 51.1741 255.808 51.6125 256.25 51.6125C256.755 51.6125 257.134 51.1741 257.134 50.6627C257.134 50.0782 256.755 49.6398 256.313 49.6398C255.871 49.5667 255.429 50.0782 255.429 50.5896Z" fill="url(#paint21_linear_76_184)"/>
<path d="M259.217 54.6074C259.217 55.4842 259.785 56.1417 260.48 56.2148C261.237 56.2148 261.806 55.5572 261.869 54.7535C261.869 53.8768 261.301 53.2192 260.606 53.1462C259.849 53.0731 259.217 53.7307 259.217 54.6074Z" fill="url(#paint22_linear_76_184)"/>
<path d="M265.846 57.7496C265.846 58.6263 266.414 59.2839 267.109 59.3569C267.866 59.3569 268.434 58.6994 268.497 57.8957C268.497 57.0189 267.929 56.3614 267.235 56.2883C266.477 56.2883 265.846 56.9459 265.846 57.7496Z" fill="url(#paint23_linear_76_184)"/>
<path d="M244.571 50.5896C244.571 51.1741 244.192 51.6125 243.75 51.6125C243.245 51.6125 242.866 51.1741 242.866 50.6627C242.866 50.0782 243.245 49.6398 243.687 49.6398C244.129 49.5667 244.508 50.0782 244.571 50.5896Z" fill="url(#paint24_linear_76_184)"/>
<path d="M240.783 54.6074C240.783 55.4842 240.215 56.1417 239.52 56.2148C238.763 56.2148 238.194 55.5572 238.131 54.7535C238.131 53.8768 238.699 53.2192 239.394 53.1462C240.151 53.0731 240.72 53.7307 240.783 54.6074Z" fill="url(#paint25_linear_76_184)"/>
<path d="M234.154 57.7496C234.154 58.6263 233.586 59.2839 232.891 59.3569C232.134 59.3569 231.566 58.6994 231.503 57.8957C231.503 57.0189 232.071 56.3614 232.765 56.2883C233.523 56.2883 234.091 56.9459 234.154 57.7496Z" fill="url(#paint26_linear_76_184)"/>
<path d="M231.566 33.3464C234.091 30.57 240.025 33.3464 242.551 32.6888C245.076 32.0313 245.076 26.4786 242.551 27.8667C240.025 29.2549 235.038 27.2092 235.543 22.3871C242.045 22.3871 250 12.0853 250 12.0853C250 12.0853 257.955 22.3871 264.457 22.3871C264.962 27.2092 259.975 29.2549 257.449 27.8667C254.924 26.4786 254.924 31.9582 257.449 32.6888C259.975 33.3464 265.909 30.6431 268.434 33.3464C270.96 36.1228 274.937 42.9906 271.907 44.3057C269.255 45.4747 256.755 47.2282 249.937 30.1317C243.182 47.2282 230.619 45.4747 227.967 44.3057C225.063 42.9906 229.04 36.1228 231.566 33.3464Z" fill="url(#paint27_linear_76_184)"/>
<defs>
<linearGradient id="paint0_linear_76_184" x1="154.265" y1="36.1318" x2="198.564" y2="36.1318" gradientUnits="userSpaceOnUse">
<stop offset="0.26" stop-color="#BB9D6D"/>
<stop offset="0.335" stop-color="#E9D2AE"/>
<stop offset="0.435" stop-color="#BB9D6D"/>
<stop offset="1" stop-color="#554732"/>
</linearGradient>
<linearGradient id="paint1_linear_76_184" x1="140.657" y1="30.0617" x2="219.364" y2="30.0617" gradientUnits="userSpaceOnUse">
<stop offset="0.26" stop-color="#BB9D6D"/>
<stop offset="0.335" stop-color="#E9D2AE"/>
<stop offset="0.435" stop-color="#BB9D6D"/>
<stop offset="1" stop-color="#554732"/>
</linearGradient>
<linearGradient id="paint2_linear_76_184" x1="93.2872" y1="26.1311" x2="106.629" y2="26.1311" gradientUnits="userSpaceOnUse">
<stop offset="0.26" stop-color="#BB9D6D"/>
<stop offset="0.335" stop-color="#E9D2AE"/>
<stop offset="0.435" stop-color="#BB9D6D"/>
<stop offset="1" stop-color="#554732"/>
</linearGradient>
<linearGradient id="paint3_linear_76_184" x1="143.561" y1="40.3155" x2="216.158" y2="40.3155" gradientUnits="userSpaceOnUse">
<stop offset="0.26" stop-color="#BB9D6D"/>
<stop offset="0.335" stop-color="#E9D2AE"/>
<stop offset="0.435" stop-color="#BB9D6D"/>
<stop offset="1" stop-color="#554732"/>
</linearGradient>
<linearGradient id="paint4_linear_76_184" x1="28.2216" y1="28.3535" x2="153.283" y2="28.3535" gradientUnits="userSpaceOnUse">
<stop offset="0.26" stop-color="#BB9D6D"/>
<stop offset="0.335" stop-color="#E9D2AE"/>
<stop offset="0.435" stop-color="#BB9D6D"/>
<stop offset="1" stop-color="#554732"/>
</linearGradient>
<linearGradient id="paint5_linear_76_184" x1="100.758" y1="52.0762" x2="151.263" y2="52.0762" gradientUnits="userSpaceOnUse">
<stop offset="0.26" stop-color="#BB9D6D"/>
<stop offset="0.335" stop-color="#E9D2AE"/>
<stop offset="0.435" stop-color="#BB9D6D"/>
<stop offset="1" stop-color="#554732"/>
</linearGradient>
<linearGradient id="paint6_linear_76_184" x1="153.442" y1="48.9008" x2="194.381" y2="48.9008" gradientUnits="userSpaceOnUse">
<stop offset="0.26" stop-color="#BB9D6D"/>
<stop offset="0.335" stop-color="#E9D2AE"/>
<stop offset="0.435" stop-color="#BB9D6D"/>
<stop offset="1" stop-color="#554732"/>
</linearGradient>
<linearGradient id="paint7_linear_76_184" x1="0" y1="41.0685" x2="63.0592" y2="41.0685" gradientUnits="userSpaceOnUse">
<stop offset="0.26" stop-color="#BB9D6D"/>
<stop offset="0.335" stop-color="#E9D2AE"/>
<stop offset="0.435" stop-color="#BB9D6D"/>
<stop offset="1" stop-color="#554732"/>
</linearGradient>
<linearGradient id="paint8_linear_76_184" x1="301.452" y1="36.1655" x2="345.756" y2="36.1655" gradientUnits="userSpaceOnUse">
<stop offset="0.26" stop-color="#BB9D6D"/>
<stop offset="0.335" stop-color="#E9D2AE"/>
<stop offset="0.435" stop-color="#BB9D6D"/>
<stop offset="1" stop-color="#554732"/>
</linearGradient>
<linearGradient id="paint9_linear_76_184" x1="280.636" y1="30.0617" x2="359.343" y2="30.0617" gradientUnits="userSpaceOnUse">
<stop offset="0.26" stop-color="#BB9D6D"/>
<stop offset="0.335" stop-color="#E9D2AE"/>
<stop offset="0.435" stop-color="#BB9D6D"/>
<stop offset="1" stop-color="#554732"/>
</linearGradient>
<linearGradient id="paint10_linear_76_184" x1="393.371" y1="26.1311" x2="406.713" y2="26.1311" gradientUnits="userSpaceOnUse">
<stop offset="0.26" stop-color="#BB9D6D"/>
<stop offset="0.335" stop-color="#E9D2AE"/>
<stop offset="0.435" stop-color="#BB9D6D"/>
<stop offset="1" stop-color="#554732"/>
</linearGradient>
<linearGradient id="paint11_linear_76_184" x1="283.841" y1="40.3155" x2="356.439" y2="40.3155" gradientUnits="userSpaceOnUse">
<stop offset="0.26" stop-color="#BB9D6D"/>
<stop offset="0.335" stop-color="#E9D2AE"/>
<stop offset="0.435" stop-color="#BB9D6D"/>
<stop offset="1" stop-color="#554732"/>
</linearGradient>
<linearGradient id="paint12_linear_76_184" x1="346.717" y1="28.3535" x2="471.778" y2="28.3535" gradientUnits="userSpaceOnUse">
<stop offset="0.26" stop-color="#BB9D6D"/>
<stop offset="0.335" stop-color="#E9D2AE"/>
<stop offset="0.435" stop-color="#BB9D6D"/>
<stop offset="1" stop-color="#554732"/>
</linearGradient>
<linearGradient id="paint13_linear_76_184" x1="348.737" y1="52.0717" x2="399.242" y2="52.0717" gradientUnits="userSpaceOnUse">
<stop offset="0.26" stop-color="#BB9D6D"/>
<stop offset="0.335" stop-color="#E9D2AE"/>
<stop offset="0.435" stop-color="#BB9D6D"/>
<stop offset="1" stop-color="#554732"/>
</linearGradient>
<linearGradient id="paint14_linear_76_184" x1="305.619" y1="48.9008" x2="346.557" y2="48.9008" gradientUnits="userSpaceOnUse">
<stop offset="0.26" stop-color="#BB9D6D"/>
<stop offset="0.335" stop-color="#E9D2AE"/>
<stop offset="0.435" stop-color="#BB9D6D"/>
<stop offset="1" stop-color="#554732"/>
</linearGradient>
<linearGradient id="paint15_linear_76_184" x1="436.941" y1="41.0685" x2="500" y2="41.0685" gradientUnits="userSpaceOnUse">
<stop offset="0.26" stop-color="#BB9D6D"/>
<stop offset="0.335" stop-color="#E9D2AE"/>
<stop offset="0.435" stop-color="#BB9D6D"/>
<stop offset="1" stop-color="#554732"/>
</linearGradient>
<linearGradient id="paint16_linear_76_184" x1="245.662" y1="45" x2="254.513" y2="45" gradientUnits="userSpaceOnUse">
<stop offset="0.26" stop-color="#BB9D6D"/>
<stop offset="0.335" stop-color="#E9D2AE"/>
<stop offset="0.435" stop-color="#BB9D6D"/>
<stop offset="1" stop-color="#554732"/>
</linearGradient>
<linearGradient id="paint17_linear_76_184" x1="252.02" y1="60.3061" x2="268.546" y2="60.3061" gradientUnits="userSpaceOnUse">
<stop offset="0.26" stop-color="#BB9D6D"/>
<stop offset="0.335" stop-color="#E9D2AE"/>
<stop offset="0.435" stop-color="#BB9D6D"/>
<stop offset="1" stop-color="#554732"/>
</linearGradient>
<linearGradient id="paint18_linear_76_184" x1="232.085" y1="60.3061" x2="248.611" y2="60.3061" gradientUnits="userSpaceOnUse">
<stop offset="0.26" stop-color="#BB9D6D"/>
<stop offset="0.335" stop-color="#E9D2AE"/>
<stop offset="0.435" stop-color="#BB9D6D"/>
<stop offset="1" stop-color="#554732"/>
</linearGradient>
<linearGradient id="paint19_linear_76_184" x1="249.179" y1="58.1876" x2="251.831" y2="58.1876" gradientUnits="userSpaceOnUse">
<stop offset="0.26" stop-color="#BB9D6D"/>
<stop offset="0.335" stop-color="#E9D2AE"/>
<stop offset="0.435" stop-color="#BB9D6D"/>
<stop offset="1" stop-color="#554732"/>
</linearGradient>
<linearGradient id="paint20_linear_76_184" x1="249.179" y1="64.9065" x2="251.831" y2="64.9065" gradientUnits="userSpaceOnUse">
<stop offset="0.26" stop-color="#BB9D6D"/>
<stop offset="0.335" stop-color="#E9D2AE"/>
<stop offset="0.435" stop-color="#BB9D6D"/>
<stop offset="1" stop-color="#554732"/>
</linearGradient>
<linearGradient id="paint21_linear_76_184" x1="255.429" y1="50.6227" x2="257.134" y2="50.6227" gradientUnits="userSpaceOnUse">
<stop offset="0.26" stop-color="#BB9D6D"/>
<stop offset="0.335" stop-color="#E9D2AE"/>
<stop offset="0.435" stop-color="#BB9D6D"/>
<stop offset="1" stop-color="#554732"/>
</linearGradient>
<linearGradient id="paint22_linear_76_184" x1="259.217" y1="54.6777" x2="261.869" y2="54.6777" gradientUnits="userSpaceOnUse">
<stop offset="0.26" stop-color="#BB9D6D"/>
<stop offset="0.335" stop-color="#E9D2AE"/>
<stop offset="0.435" stop-color="#BB9D6D"/>
<stop offset="1" stop-color="#554732"/>
</linearGradient>
<linearGradient id="paint23_linear_76_184" x1="265.846" y1="57.8226" x2="268.497" y2="57.8226" gradientUnits="userSpaceOnUse">
<stop offset="0.26" stop-color="#BB9D6D"/>
<stop offset="0.335" stop-color="#E9D2AE"/>
<stop offset="0.435" stop-color="#BB9D6D"/>
<stop offset="1" stop-color="#554732"/>
</linearGradient>
<linearGradient id="paint24_linear_76_184" x1="242.866" y1="50.6227" x2="244.571" y2="50.6227" gradientUnits="userSpaceOnUse">
<stop offset="0.26" stop-color="#BB9D6D"/>
<stop offset="0.335" stop-color="#E9D2AE"/>
<stop offset="0.435" stop-color="#BB9D6D"/>
<stop offset="1" stop-color="#554732"/>
</linearGradient>
<linearGradient id="paint25_linear_76_184" x1="238.131" y1="54.6777" x2="240.783" y2="54.6777" gradientUnits="userSpaceOnUse">
<stop offset="0.26" stop-color="#BB9D6D"/>
<stop offset="0.335" stop-color="#E9D2AE"/>
<stop offset="0.435" stop-color="#BB9D6D"/>
<stop offset="1" stop-color="#554732"/>
</linearGradient>
<linearGradient id="paint26_linear_76_184" x1="231.503" y1="57.8226" x2="234.154" y2="57.8226" gradientUnits="userSpaceOnUse">
<stop offset="0.26" stop-color="#BB9D6D"/>
<stop offset="0.335" stop-color="#E9D2AE"/>
<stop offset="0.435" stop-color="#BB9D6D"/>
<stop offset="1" stop-color="#554732"/>
</linearGradient>
<linearGradient id="paint27_linear_76_184" x1="226.949" y1="28.542" x2="272.998" y2="28.542" gradientUnits="userSpaceOnUse">
<stop offset="0.26" stop-color="#BB9D6D"/>
<stop offset="0.335" stop-color="#E9D2AE"/>
<stop offset="0.435" stop-color="#BB9D6D"/>
<stop offset="1" stop-color="#554732"/>
</linearGradient>
</defs>
</svg>
