<?xml version="1.0" encoding="UTF-8"?>
<svg id="_圖層_2" data-name="圖層 2" xmlns="http://www.w3.org/2000/svg" viewBox="0 0 55.94 21.25">
  <defs>
    <style>
      .cls-1 {
        fill: #937e45;
        stroke-width: 0px;
      }
    </style>
  </defs>
  <g id="_1" data-name=" 1">
    <path class="cls-1" d="M55.94,10.62c-4.65-.58-6.15-3.09-9.86-3.09-2.77,0-3.75,1.74-6.84,2.2,1.99-.89,3.65-2.62,3.65-4.99,0-3.58-3.18-4.74-7.24-4.74,2.87.68,4.3,2.39,4.3,4.1,0,3.78-5.56,5.78-9.81,5.78H0v1.49h30.14c4.26,0,9.81,2,9.81,5.78,0,1.71-1.43,3.42-4.3,4.1,4.06,0,7.24-1.16,7.24-4.74,0-2.38-1.66-4.1-3.65-5,3.09.46,4.07,2.2,6.84,2.2,3.71,0,5.21-2.51,9.86-3.09Z"/>
  </g>
</svg>