<?xml version="1.0" encoding="UTF-8"?>
<svg id="_圖層_2" data-name="圖層 2" xmlns="http://www.w3.org/2000/svg" viewBox="0 0 8.11 24.28">
  <defs>
    <style>
      .cls-1 {
        fill: #927e45;
        stroke-width: 0px;
      }
    </style>
  </defs>
  <g id="_1" data-name=" 1">
    <g>
      <path class="cls-1" d="M3.81,4.26c.54-.46,1.29-.35,1.76.19.4.46.21.95-.12.92-.68-.05-.76-1.22-1.32-.74-.59.5-.39,1.8.22,2.64.39-.77.4-1.53.02-2.41.04.04.11.13.16.2.1.13.21.29.36.42.12.6.07,1.17-.16,1.73.16-.09.37-.11.54.08-.42.14-.51.49-.34.72.78,1.06.99,2.09.22,2.76-.31.27-.14.56.19.58-.46.27-.81.14-.83-.24-.51.14-1.06,0-1.42-.42-.37-.43-.32-1.09.11-1.46.47-.4.99-.29,1.27.04.27.32.19.73-.17.72-.52-.03-.44-.62-.84-.27-.17.15-.17.52.05.77.33.38.93.45,1.39.06.65-.56.48-1.37-.22-2.35-.23-.32-.89-.64-1.29-.3,0-.42.25-.67.65-.5-.73-.99-1.11-2.37-.23-3.12Z"/>
      <path class="cls-1" d="M4.34,12.14c0,.18-.14.32-.32.32s-.32-.14-.32-.32c0-.18.14-.32.32-.32.18,0,.32.14.32.32M4.6,12.14c0-.32-.26-.58-.58-.58s-.58.26-.58.58h0c0,.32.26.58.58.58s.58-.26.58-.58h0Z"/>
      <path class="cls-1" d="M4.83,11.96c.01.06.02.12.02.18s0,.12-.02.18c.67.16,1.35.97,1.35,1.79.77-.54.56-1.67-.21-1.97.77-.3.98-1.43.21-1.97,0,.82-.68,1.63-1.35,1.79Z"/>
      <path class="cls-1" d="M3.19,12.14c0-.08.01-.16.03-.24l-.53-.24-.6.47.6.47.53-.24c-.02-.08-.03-.15-.03-.24Z"/>
      <path class="cls-1" d="M6.55,12.14c.16.15.28.35.35.56.43,0,.87-.19,1.21-.56-.34-.37-.78-.56-1.21-.56-.07.21-.19.4-.35.56Z"/>
      <path class="cls-1" d="M2.5,2.44c.8.03,1.32.44,1.75,1.28.09-.05.25-.07.36-.04-.39-.84-.9-1.38-1.78-1.51-.4-.06-.57-.35-.52-.74-.37.2-.42.51-.24.68-.73-.08-1.34-.29-1.51-.64-.23-.49.22-1.12.57-.9.21.13.17.41.42.48.33.09.51-.52.04-.85C1.24-.07.71-.1.3.34c-.4.42-.4,1.07.03,1.49.18.18.49.33.9.43-.18.13-.24.45-.11.75.14-.31.76-.6,1.38-.58Z"/>
      <path class="cls-1" d="M3.81,20.03c.54.46,1.29.35,1.76-.19.4-.46.21-.95-.12-.92-.68.05-.76,1.22-1.32.74-.59-.5-.39-1.8.22-2.64.39.77.4,1.53.02,2.41.04-.05.11-.14.16-.2.1-.13.21-.29.36-.42.12-.6.07-1.17-.16-1.72.16.09.37.1.54-.08-.42-.14-.51-.49-.34-.72.78-1.06.99-2.09.22-2.76-.31-.27-.14-.56.19-.58-.46-.27-.81-.14-.83.24-.51-.14-1.06,0-1.42.42-.37.43-.32,1.09.11,1.46.47.4.99.29,1.27-.04.27-.32.19-.73-.17-.72-.52.03-.44.62-.84.27-.17-.15-.17-.52.05-.77.33-.38.93-.45,1.39-.06.65.56.48,1.37-.22,2.35-.23.32-.89.64-1.29.3,0,.42.25.67.65.5-.73.99-1.11,2.37-.23,3.12Z"/>
      <path class="cls-1" d="M2.5,21.85c.8-.03,1.32-.44,1.75-1.28.09.05.25.07.36.04-.39.84-.9,1.38-1.78,1.51-.4.06-.57.35-.52.74-.37-.2-.42-.51-.24-.68-.73.08-1.34.29-1.51.64-.23.49.22,1.12.57.9.21-.13.17-.41.42-.48.33-.09.51.52.04.85-.35.25-.88.28-1.3-.15-.4-.41-.4-1.07.03-1.49.18-.18.49-.33.9-.43-.18-.13-.24-.45-.11-.75.14.31.76.6,1.38.58Z"/>
    </g>
  </g>
</svg>