<?xml version="1.0" encoding="UTF-8"?>
<svg id="_圖層_2" data-name="圖層 2" xmlns="http://www.w3.org/2000/svg" viewBox="0 0 147.43 147.46">
  <defs>
    <style>
      .cls-1 {
        fill: #c9a063;
        stroke-width: 0px;
      }
    </style>
  </defs>
  <g id="_2" data-name="2">
    <path class="cls-1" d="M64,103.43c-.8-2.1,2.3-5.4,5.7-2.6,3.4,2.8-1.5,8.1-8.6,8.6-7,.5-19.9,1.9-31,14-8.9,9.8-8,18.8-5.9,19.6,2.3.9,3.9-1,3.3-5.1-.5-3.3.9-9.9,5.1-13.7,5-4.6,7.2-6.1,13.3-7.5,7.3-1.7,14.9,2.2,17.1,4.3,2.1,2.1-.3,5.1-1.4,3.6-1.2-1.5.6-1.9.7-2.4-.6-.8-1.7-.8-2.9.2-1.7,1.2-1.9,5.2,1.5,6.9,3.5,1.7,7.5-2.1,6.9-5.4-.6-3.3-1.3-6.4-14.4-9.9,5.5-1.4,20.2-.5,22.7,3.4s-1.7,9.8.6,10.4c2.3.6,4.3-3,4.3-4.7.6,1.2,0,2.9.5,3.8,2.5-1,2.3-4.7.9-7,13.1,16.4.4,16.4-1.4,15.4-1.8-1.1-4.6,1-1.5,3.1s5.7,1.4,8.4.3c-3.1,3.7-7.6,2-8.8.7-1.2-1.3-3.8-.1-1.5,2.7,2.2,2.8,5.9,2.8,8.3,1.4-.4.4-.4,1.7,1.4,1.2,6.9-3.5,4.9-13.8,2.5-17.7,7.2,9.5,21.6,20,32.2,20.4,12.5.5,18.6-4.6,23.1-11.5,4.5-6.8,1.5-14.4-.8-15s-3.4,2.6-1.6,3.4c3.8,2.8,2.2,7-.4,9.8,0,0,2.3-3.1,1.7-6.2-.6-3.1-4.7-3.2-3.9-.6,1.3,9.9-9.9,16.9-15,15.6,6.4.8,13.5-7.9,13.7-12,.2-4-4.9-6.7-4.3-4.5,1.6,4.1-2.4,8.6-4.4,10.6-2.5,2.5-7.7,4.8-11.9,2.2,6.1.5,13.4-10.1,8.5-17.2-4.9-7-14.6-6.1-18.7-1.9-4.1,4.1-2.1,8.7.2,9.3-1.2-1.7,0-4.2,1.6-5.9-3.6,5.7,2.6,9,3.5,8.7s-3.1-2.9-.6-6.2,6.2-3.7,9.3,0c-1.9-1.7-5.9-.5-5.2,1.5,1.8-1.3,10.3.9,4.1,7-6.2,6.2-16.9.5-22.7-3.8-5.8-4.2-9.4-8.9-11.7-11.1,3.2,2.6,8.3,1.5,7.3-.4,1.1-.7,2.5-2.7,0-4.4-1.2,4-8,3.6-10.2.8-2-2.6-7.5-4.2-8.3-4.8,0,0-3.8,1.8-7.2.7,5,.6,11.3-4.9,11.6-8.9.3-4-1.8-7.2-3-7.2s-.2,1.7-1.2,3.3c1.3,2.4.5,7.4-2.2,9.4,5.9-8-3.1-14.5-7.8-12.6-4.8,1.5-4.6,6.7-1.5,7.9ZM51.2,130.73c-1.3-2.7-3.2-2.3-3.2-2.3-1-.7-6.2,1.6-4.2,3.9.7-.4,1.7-1.4,2.7.4,1,1.9-1,3.9-4.1,1.7-3-2.2-4.6-8.7-1.2-12.2,3.5-3.5,4.9-3.2,5.8-2.3-1.4.6-.6.9-.1,1.6,1.3,2.2,4.8-.7,1.9-3-2.9-2.3-13.3,2.6-12.6,11.7.6,8,8.4,9,9.4,8.2,3,1,7.5-3.2,5.6-7.7ZM36.6,138.13c-.7,1.9-1,4.8-3.3,2.8s-2.6-9.8,5.1-19.5c-2.3,1.4-11.7,11.4-8.4,20.8.4,1.9,2.6,2.9,3.2,2.3,1.6,1.3,3.5.7,4.5-.4,1.4-1.8,1.6-4.4-1.1-6ZM67.8,130.03c-2.2.1-1.6,3-.1,2.2-.4,3.3-5.4,7.4-8.7,8.4,7.5-5.2,1.6-9.7.4-8.5,1.3,2.2,1.7,4-.4,6.5,3.3-5.9-4.6-9.5-5.2-7.5,6.8,4.2,1.7,10.7-1.4,10.7-1.2,0-1.4,1.2.6,1.4,7.5.6,14.3-3.6,16.6-6.8,2.3-3.2.4-6.5-1.8-6.4ZM28.9,116.73c-15.8,15.8-27.5,13.5-28.9,12.7,1,6.9,7.3,5.4,9.3,4.8-2,1.4-4.3,2-4.3,2-1.2,1.2-3.9,6.2-3.3,9.4,3.3.6,8.3-2.1,9.4-3.3,0,0,.6-2.3,2-4.3-.6,1.9-2.1,8.3,4.8,9.3-.8-1.3-3.1-13.1,12.7-28.9,15.8-15.8,21.1-14,21.6-13.3,0-2.3-2.8-4.5-6-3.1,0,0,2.1-1.5,3.2-1.4.4-.4,1.4-2.1,1.8-4.5-2.4.5-4.1,1.4-4.5,1.8.1,1.1-1.4,3.2-1.4,3.2,1.4-3.2-.8-6-3.1-6,.7.4,2.5,5.7-13.3,21.6ZM.3,25.33c.4,10.6,10.9,25,20.4,32.2-4-2.4-14.3-4.4-17.7,2.5-.6,1.7.8,1.7,1.2,1.4-1.4,2.4-1.4,6.1,1.4,8.3,2.8,2.2,4.1-.4,2.7-1.5-1.3-1.2-3-5.7.7-8.8-1.2,2.7-1.8,5.3.3,8.4s4.1.3,3.1-1.5-1-14.5,15.4-1.4c-2.3-1.5-6-1.6-7,.9.9.5,2.6-.1,3.8.5-1.7,0-5.3,2-4.7,4.3.6,2.3,6.6-1.9,10.4.6,3.9,2.5,4.8,17.2,3.4,22.7-3.6-13-6.7-13.8-9.9-14.4-3.3-.6-7.1,3.5-5.4,6.9,1.7,3.5,5.8,3.3,6.9,1.5,1-1.2,1-2.3.2-2.9-.5.1-.9,1.8-2.4.7-1.5-1.2,1.4-3.6,3.6-1.4,2.1,2.1,6.1,9.8,4.3,17.1-1.4,6.1-2.9,8.3-7.5,13.3-3.8,4.1-10.5,5.5-13.7,5.1-4-.6-5.9,1-5.1,3.3.8,2.1,9.8,3,19.6-5.9,12.1-11,13.5-23.9,14-31,.5-7,5.8-12,8.6-8.6s-.5,6.5-2.6,5.7c1.2,3.1,6.4,3.3,8.2-1.4s-4.6-13.7-12.6-7.8c1.9-2.7,6.9-3.5,9.4-2.2,1.5-1,3.3,0,3.3-1.2s-3.3-3.3-7.2-3c-4,.3-9.4,6.6-8.9,11.6-1.2-3.5.7-7.2.7-7.2-.6-.8-2.2-6.3-4.8-8.3-2.8-2.2-3.2-9,.8-10.2-1.7-2.5-3.8-1.1-4.4,0-1.9-1-3,4.1-.4,7.3-2.2-2.2-6.8-5.9-11.1-11.7-4.2-5.8-9.9-16.5-3.8-22.7,6.2-6.2,8.3,2.3,7,4.1,2,.7,3.3-3.3,1.5-5.2,3.7,3.1,3.3,6.7,0,9.3-3.3,2.5-5.9-1.5-6.2-.6s3,7,8.7,3.5c-1.6,1.6-4.1,2.8-5.9,1.6.6,2.3,5.1,4.3,9.3.2,4.1-4.1,5.1-13.8-1.9-18.7-7-4.9-17.6,2.4-17.2,8.5-2.6-4.1-.3-9.3,2.2-11.9,2-2,6.5-6.1,10.6-4.4,2.1.6-.5-4.5-4.5-4.3-4.1.2-12.7,7.3-12,13.7-1.3-5.1,5.7-16.3,15.6-15,2.6.9,2.5-3.3-.6-3.9s-6.2,1.7-6.2,1.7c2.8-2.6,7-4.1,9.8-.4.8,1.7,4,.7,3.4-1.6-.6-2.3-8.2-5.3-15-.8C4.9,6.83-.2,12.83.3,25.33ZM17,111.03c9.1.7,14-9.7,11.7-12.6-2.3-2.9-5.2.6-3,1.9.7.4,1,1.3,1.6-.1.9.9,1.2,2.3-2.3,5.8-3.5,3.5-10,1.9-12.2-1.2-2.2-3-.1-5.1,1.7-4,1.9,1,.9,2,.4,2.7,2.3,2,4.6-3.2,3.9-4.2,0,0,.4-1.9-2.3-3.2-4.5-1.9-8.7,2.6-7.8,5.5-.6,1,.3,8.8,8.3,9.4ZM26,109.03c-9.7,7.7-17.5,7.4-19.5,5.1-2-2.3.9-2.6,2.8-3.3-1.6-2.8-4.2-2.5-5.9-1-1.1,1-1.7,2.9-.4,4.5-.6.6.4,2.8,2.3,3.2,9.3,3.2,19.2-6.2,20.7-8.5ZM8.8,88.33c2.5-2.2,4.3-1.7,6.5-.4,1.2-1.2-3.3-7.1-8.5.4,1-3.3,5.1-8.2,8.4-8.7-.9,1.4,2,2,2.2-.1.1-2.2-3.2-4-6.4-1.7-3.2,2.3-7.4,9.1-6.8,16.6.3,2,1.4,1.7,1.4.6,0-3.1,6.5-8.2,10.7-1.4,2-.7-1.6-8.6-7.5-5.3Z"/>
  </g>
</svg>