<svg width="110" height="22" viewBox="0 0 110 22" fill="none" xmlns="http://www.w3.org/2000/svg">
<path d="M0.445358 21.6407L0.445358 21.7907L0.59536 21.7907L108.576 21.7907L108.726 21.7907L108.726 21.6407L108.726 21.0451L108.726 20.8951L108.576 20.8951L0.59536 20.8951L0.445358 20.8951L0.445358 21.0451L0.445358 21.6407Z" fill="#DAA857" stroke="#DAA857" stroke-width="0.3"/>
<mask id="path-2-outside-1_108_378" maskUnits="userSpaceOnUse" x="6.09477e-05" y="-0.0527439" width="110" height="20" fill="black">
<rect fill="white" x="6.09477e-05" y="-0.0527439" width="110" height="20"/>
<path d="M54.4305 18.869L54.4563 18.9467C54.5081 18.9467 54.534 18.9208 54.5858 18.9208C54.6376 18.9208 54.6635 18.9467 54.7153 18.9467L54.7412 18.869C54.793 18.869 54.8448 18.8431 54.8966 18.8431L109 18.8431L109 18.2475L63.7016 18.2475L63.7793 17.9108C62.4067 17.5742 61.086 17.108 59.8688 16.5383C60.6198 16.0462 61.3191 15.5024 61.9147 15.0104C63.2354 13.8968 64.1418 12.8868 64.5303 12.4466C65.2554 13.0422 66.0323 13.6119 66.8092 14.1557C66.9387 14.2593 68.13 15.2434 70.4607 16.2016C72.8951 17.2116 76.6242 18.2475 81.6741 18.2475C84.4451 18.2475 87.6305 17.9367 91.2302 17.1598C91.7999 17.0303 92.4732 16.7714 93.1983 16.3829C94.286 15.7873 95.4514 14.8809 96.3319 13.7155C97.2383 12.5501 97.8598 11.0999 97.8598 9.39071C97.8598 9.33891 97.8598 9.31301 97.8598 9.26122L97.8598 8.97635L97.5749 8.97635C97.549 8.97635 97.5231 8.97635 97.4972 8.97635C97.2642 8.97635 97.057 9.00225 96.8757 9.07994C96.539 9.18353 96.2801 9.39071 96.0729 9.59788C95.7621 9.90865 95.5032 10.2712 95.296 10.5302C95.1924 10.6597 95.0629 10.7632 94.9593 10.815C94.8557 10.8668 94.7522 10.9186 94.6227 10.9186C94.5968 10.9186 94.545 10.9186 94.5191 10.9186C94.4673 10.9186 94.4155 10.8927 94.3378 10.8927C94.2601 10.8927 94.2083 10.8927 94.1306 10.9186C94.0788 10.9445 94.027 10.9704 93.9752 10.9963C93.8976 11.0481 93.8458 11.1258 93.8199 11.2035C93.794 11.2812 93.7681 11.3589 93.7681 11.4107C93.7681 11.4884 93.794 11.592 93.794 11.6696C93.8458 11.7991 93.8975 11.9545 93.9493 12.1099C94.0529 12.3171 94.1565 12.5501 94.2601 12.7573C94.3119 12.8609 94.3378 12.9645 94.3637 13.0422C94.3896 13.1199 94.3896 13.1976 94.3896 13.2494C94.3896 13.2753 94.3896 13.2753 94.3896 13.2753C94.2083 13.2235 94.0011 13.1717 93.794 13.094C93.535 13.0163 93.3019 12.9645 93.043 12.9645C92.9135 12.9645 92.784 12.9904 92.6545 13.0163C92.5509 13.0422 92.4732 13.094 92.3696 13.1717C92.2401 13.2753 92.1366 13.4047 92.0589 13.586C91.9812 13.7414 91.9294 13.9486 91.9035 14.1817C91.7999 14.8809 91.5409 15.5024 91.1266 15.9427C90.7122 16.4088 90.1166 16.7196 89.3656 16.8232L89.3915 16.9267C86.5169 17.4447 83.9272 17.6778 81.6223 17.6778C76.6501 17.6778 73.0245 16.6678 70.642 15.6837C69.4507 15.1916 68.5702 14.6996 68.0005 14.3111C67.7156 14.1299 67.5085 13.9745 67.3531 13.8709C67.2754 13.8191 67.2236 13.7673 67.1977 13.7414C67.1718 13.7155 67.1718 13.7155 67.1718 13.7155C63.4167 11.0999 60.335 8.01816 58.1855 5.58384C57.1237 4.36668 56.2691 3.30488 55.6994 2.55386C55.4145 2.16541 55.2074 1.88054 55.052 1.67337C54.9743 1.56978 54.9225 1.49209 54.8966 1.44029C54.8707 1.41439 54.8707 1.3885 54.8448 1.3885C54.8448 1.3626 54.8189 1.3626 54.8189 1.3626L54.5858 1.00004L54.3528 1.3626C54.3528 1.3626 54.3528 1.3626 54.3269 1.3885C54.042 1.80285 49.2769 8.69148 41.9999 13.7414C41.974 13.7673 40.8345 14.7514 38.452 15.7355C36.0694 16.7196 32.4697 17.7036 27.5234 17.7036C25.2186 17.7036 22.6289 17.4965 19.7543 16.9526L19.7802 16.849C19.0033 16.7196 18.4335 16.4088 18.0192 15.9685C17.6048 15.5024 17.32 14.9068 17.2423 14.2075C17.2164 14.0004 17.1646 13.8191 17.1128 13.6637C17.061 13.5601 17.0092 13.4565 16.9315 13.3529C16.8279 13.2235 16.6984 13.1199 16.5431 13.0681C16.3877 13.0163 16.2582 12.9904 16.1028 12.9904C15.8438 12.9904 15.5849 13.0422 15.3518 13.1199C15.1446 13.1717 14.9374 13.2494 14.7562 13.3011L14.7562 13.2752C14.7562 13.1976 14.7821 13.0681 14.8338 12.9386C14.9115 12.7055 15.041 12.4465 15.1705 12.2135C15.2223 12.084 15.2741 11.9545 15.3259 11.8509C15.3777 11.7214 15.4036 11.6178 15.4036 11.4625C15.4036 11.4107 15.4036 11.333 15.3777 11.2812C15.3518 11.2294 15.3259 11.1776 15.3 11.1258C15.2482 11.0481 15.1705 10.9963 15.0928 10.9704C15.0151 10.9445 14.9374 10.9445 14.8597 10.9445C14.8079 10.9445 14.7561 10.9445 14.6785 10.9704C14.6526 10.9704 14.6007 10.9704 14.5749 10.9704C14.4713 10.9704 14.3936 10.9445 14.3159 10.9186C14.1864 10.8668 14.031 10.7373 13.8756 10.5561C13.6426 10.2971 13.4095 9.93453 13.0728 9.62377C12.9175 9.46839 12.7103 9.3389 12.4772 9.23531C12.2441 9.13172 11.9852 9.07994 11.7003 9.07994C11.6744 9.07994 11.6485 9.07994 11.6226 9.07994L11.3377 9.07994L11.3377 9.3648C11.3377 9.41659 11.3377 9.44249 11.3377 9.49428C11.3377 10.6338 11.6226 11.6437 12.0628 12.5501C12.7362 13.8968 13.798 14.9845 14.9116 15.7873C15.4554 16.1757 16.0251 16.5124 16.5431 16.7455C17.061 17.0044 17.553 17.1598 17.9933 17.2634C21.593 18.0403 24.7783 18.3511 27.5493 18.3511C32.5992 18.3511 36.3025 17.3411 38.7627 16.3052C41.0935 15.347 42.2847 14.3629 42.4142 14.2593C43.217 13.7155 43.968 13.1458 44.6932 12.5501C45.0816 13.0163 45.988 14.0263 47.3087 15.1139C47.9044 15.606 48.6036 16.1498 49.3546 16.6419C48.1116 17.2116 46.8167 17.6778 45.4442 18.0144L45.5219 18.3511L0.305321 18.3516L0.305321 18.9473L54.301 18.9467C54.3528 18.8431 54.4046 18.869 54.4305 18.869ZM92.5509 14.2334C92.5768 14.0522 92.6027 13.9227 92.6545 13.845C92.6804 13.7673 92.7063 13.7155 92.7581 13.6896C92.8099 13.6378 92.8617 13.6119 92.9135 13.586C92.9653 13.5601 93.043 13.5601 93.1206 13.5601C93.276 13.5601 93.4832 13.6119 93.7163 13.6637C93.9493 13.7414 94.2083 13.8191 94.4673 13.8709L94.545 13.8968L94.6227 13.8709C94.7004 13.845 94.7522 13.8191 94.8298 13.7673C94.9075 13.7155 94.9852 13.6119 95.037 13.5083C95.0888 13.4047 95.0888 13.3271 95.0888 13.2235C95.0888 13.0422 95.037 12.8609 94.9593 12.6796C94.8557 12.4207 94.7263 12.1358 94.5968 11.9027C94.545 11.7732 94.4932 11.6696 94.4673 11.5919C94.4414 11.5402 94.4414 11.5143 94.4414 11.4884C94.4673 11.4884 94.4673 11.4884 94.4932 11.4884C94.545 11.4884 94.6227 11.5143 94.6745 11.5143C94.8557 11.5143 95.037 11.4625 95.1665 11.4107C95.4255 11.2812 95.6326 11.0999 95.8139 10.8927C96.0729 10.582 96.306 10.2453 96.5649 10.0122C96.6944 9.88275 96.8498 9.77916 97.0052 9.72737C97.1088 9.67558 97.2124 9.64967 97.316 9.62378C97.2901 10.582 97.0311 11.4625 96.6426 12.2394C96.0211 13.4824 95.0111 14.5183 93.9752 15.2693C93.4573 15.6319 92.9394 15.9427 92.4473 16.1757C92.0848 16.3311 91.774 16.4606 91.4632 16.5642C91.515 16.5124 91.5927 16.4606 91.6445 16.3829C92.1107 15.7614 92.4214 15.0363 92.5509 14.2334ZM16.2582 15.865C15.2482 15.2952 14.1346 14.4406 13.3059 13.3529C12.5031 12.2912 11.9334 11.0222 11.9075 9.57198C11.9852 9.57198 12.0628 9.59787 12.1146 9.62377C12.3218 9.70146 12.529 9.83095 12.6844 9.98633C12.9434 10.2453 13.1764 10.582 13.4354 10.8927C13.5649 11.0481 13.7203 11.1776 13.9016 11.2812C14.0828 11.3848 14.29 11.4625 14.5231 11.4625C14.5749 11.4625 14.6526 11.4625 14.7044 11.4366C14.7302 11.4366 14.7562 11.4366 14.7562 11.4366L14.7562 11.4625C14.7303 11.5401 14.6785 11.6696 14.6267 11.7991C14.5231 12.0063 14.4195 12.2394 14.3159 12.4724C14.2641 12.6019 14.2123 12.7055 14.1864 12.835C14.1605 12.9645 14.1346 13.0681 14.1346 13.1976C14.1346 13.2494 14.1346 13.327 14.1605 13.3788C14.1864 13.4824 14.2382 13.586 14.3159 13.6637C14.3936 13.7414 14.4972 13.7932 14.6007 13.8191L14.6785 13.845L14.7562 13.8191C15.0151 13.7673 15.2741 13.6637 15.5072 13.6119C15.7402 13.5342 15.9474 13.5083 16.1028 13.5083C16.1805 13.5083 16.2323 13.5083 16.2841 13.5342C16.31 13.5601 16.3618 13.5601 16.3877 13.586C16.4395 13.6119 16.4913 13.6896 16.5172 13.7932C16.5689 13.8968 16.5949 14.0263 16.6208 14.2334C16.7243 15.0362 17.0351 15.7614 17.553 16.3052C17.6048 16.357 17.6566 16.4347 17.7343 16.4865C17.32 16.357 16.802 16.1498 16.2582 15.865ZM54.3787 18.2475C52.9802 17.859 51.6854 17.2634 50.5459 16.5901C52.0479 15.8391 53.3946 14.9586 54.6117 14.0522C55.803 14.9327 57.1755 15.8132 58.6776 16.5901C57.5381 17.2634 56.2432 17.859 54.8448 18.2475L54.3787 18.2475ZM62.7952 18.2475L56.6317 18.2475C57.5899 17.859 58.4704 17.3929 59.2732 16.9008C60.3609 17.4447 61.5521 17.9108 62.7952 18.2475ZM64.0642 12.084C63.6757 12.5501 62.7693 13.5601 61.4486 14.6478C60.8011 15.1916 60.0501 15.7355 59.2473 16.2534C57.7194 15.5024 56.3209 14.6219 55.0779 13.7155C55.5181 13.3788 55.9325 13.0422 56.3209 12.7055C58.5481 10.815 59.9465 9.13173 60.335 8.66559C61.4486 9.80506 62.6916 10.9445 64.0642 12.084ZM54.5858 1.98413C55.2333 2.86463 57.0979 5.40256 59.9206 8.25123C59.6358 8.61379 58.1596 10.4007 55.8289 12.3689C55.4404 12.6796 55.0261 13.0163 54.6117 13.3529C54.1456 12.9904 53.6794 12.6278 53.2651 12.2653C51.9961 11.1776 50.9602 10.1676 50.2869 9.4166C49.9503 9.05404 49.6654 8.74328 49.51 8.5361C49.4323 8.43251 49.3546 8.35482 49.3028 8.30303C52.0738 5.40256 53.9384 2.89052 54.5858 1.98413ZM47.6454 14.5701C46.7649 13.845 46.0657 13.1458 45.5995 12.6278C45.3924 12.3948 45.2111 12.2135 45.1075 12.0581C46.48 10.9445 47.749 9.77916 48.8626 8.66559C49.251 9.13173 50.6495 10.815 52.8766 12.7055C53.2651 13.0422 53.6794 13.3788 54.1197 13.7155C52.8766 14.6219 51.5041 15.5024 49.9503 16.2534C49.0698 15.7096 48.3187 15.1139 47.6454 14.5701ZM46.3765 18.2475C47.6195 17.8849 48.7849 17.4447 49.8985 16.9008C50.7013 17.3929 51.5818 17.859 52.54 18.2475L46.3765 18.2475Z"/>
</mask>
<path d="M54.4305 18.869L54.4563 18.9467C54.5081 18.9467 54.534 18.9208 54.5858 18.9208C54.6376 18.9208 54.6635 18.9467 54.7153 18.9467L54.7412 18.869C54.793 18.869 54.8448 18.8431 54.8966 18.8431L109 18.8431L109 18.2475L63.7016 18.2475L63.7793 17.9108C62.4067 17.5742 61.086 17.108 59.8688 16.5383C60.6198 16.0462 61.3191 15.5024 61.9147 15.0104C63.2354 13.8968 64.1418 12.8868 64.5303 12.4466C65.2554 13.0422 66.0323 13.6119 66.8092 14.1557C66.9387 14.2593 68.13 15.2434 70.4607 16.2016C72.8951 17.2116 76.6242 18.2475 81.6741 18.2475C84.4451 18.2475 87.6305 17.9367 91.2302 17.1598C91.7999 17.0303 92.4732 16.7714 93.1983 16.3829C94.286 15.7873 95.4514 14.8809 96.3319 13.7155C97.2383 12.5501 97.8598 11.0999 97.8598 9.39071C97.8598 9.33891 97.8598 9.31301 97.8598 9.26122L97.8598 8.97635L97.5749 8.97635C97.549 8.97635 97.5231 8.97635 97.4972 8.97635C97.2642 8.97635 97.057 9.00225 96.8757 9.07994C96.539 9.18353 96.2801 9.39071 96.0729 9.59788C95.7621 9.90865 95.5032 10.2712 95.296 10.5302C95.1924 10.6597 95.0629 10.7632 94.9593 10.815C94.8557 10.8668 94.7522 10.9186 94.6227 10.9186C94.5968 10.9186 94.545 10.9186 94.5191 10.9186C94.4673 10.9186 94.4155 10.8927 94.3378 10.8927C94.2601 10.8927 94.2083 10.8927 94.1306 10.9186C94.0788 10.9445 94.027 10.9704 93.9752 10.9963C93.8976 11.0481 93.8458 11.1258 93.8199 11.2035C93.794 11.2812 93.7681 11.3589 93.7681 11.4107C93.7681 11.4884 93.794 11.592 93.794 11.6696C93.8458 11.7991 93.8975 11.9545 93.9493 12.1099C94.0529 12.3171 94.1565 12.5501 94.2601 12.7573C94.3119 12.8609 94.3378 12.9645 94.3637 13.0422C94.3896 13.1199 94.3896 13.1976 94.3896 13.2494C94.3896 13.2753 94.3896 13.2753 94.3896 13.2753C94.2083 13.2235 94.0011 13.1717 93.794 13.094C93.535 13.0163 93.3019 12.9645 93.043 12.9645C92.9135 12.9645 92.784 12.9904 92.6545 13.0163C92.5509 13.0422 92.4732 13.094 92.3696 13.1717C92.2401 13.2753 92.1366 13.4047 92.0589 13.586C91.9812 13.7414 91.9294 13.9486 91.9035 14.1817C91.7999 14.8809 91.5409 15.5024 91.1266 15.9427C90.7122 16.4088 90.1166 16.7196 89.3656 16.8232L89.3915 16.9267C86.5169 17.4447 83.9272 17.6778 81.6223 17.6778C76.6501 17.6778 73.0245 16.6678 70.642 15.6837C69.4507 15.1916 68.5702 14.6996 68.0005 14.3111C67.7156 14.1299 67.5085 13.9745 67.3531 13.8709C67.2754 13.8191 67.2236 13.7673 67.1977 13.7414C67.1718 13.7155 67.1718 13.7155 67.1718 13.7155C63.4167 11.0999 60.335 8.01816 58.1855 5.58384C57.1237 4.36668 56.2691 3.30488 55.6994 2.55386C55.4145 2.16541 55.2074 1.88054 55.052 1.67337C54.9743 1.56978 54.9225 1.49209 54.8966 1.44029C54.8707 1.41439 54.8707 1.3885 54.8448 1.3885C54.8448 1.3626 54.8189 1.3626 54.8189 1.3626L54.5858 1.00004L54.3528 1.3626C54.3528 1.3626 54.3528 1.3626 54.3269 1.3885C54.042 1.80285 49.2769 8.69148 41.9999 13.7414C41.974 13.7673 40.8345 14.7514 38.452 15.7355C36.0694 16.7196 32.4697 17.7036 27.5234 17.7036C25.2186 17.7036 22.6289 17.4965 19.7543 16.9526L19.7802 16.849C19.0033 16.7196 18.4335 16.4088 18.0192 15.9685C17.6048 15.5024 17.32 14.9068 17.2423 14.2075C17.2164 14.0004 17.1646 13.8191 17.1128 13.6637C17.061 13.5601 17.0092 13.4565 16.9315 13.3529C16.8279 13.2235 16.6984 13.1199 16.5431 13.0681C16.3877 13.0163 16.2582 12.9904 16.1028 12.9904C15.8438 12.9904 15.5849 13.0422 15.3518 13.1199C15.1446 13.1717 14.9374 13.2494 14.7562 13.3011L14.7562 13.2752C14.7562 13.1976 14.7821 13.0681 14.8338 12.9386C14.9115 12.7055 15.041 12.4465 15.1705 12.2135C15.2223 12.084 15.2741 11.9545 15.3259 11.8509C15.3777 11.7214 15.4036 11.6178 15.4036 11.4625C15.4036 11.4107 15.4036 11.333 15.3777 11.2812C15.3518 11.2294 15.3259 11.1776 15.3 11.1258C15.2482 11.0481 15.1705 10.9963 15.0928 10.9704C15.0151 10.9445 14.9374 10.9445 14.8597 10.9445C14.8079 10.9445 14.7561 10.9445 14.6785 10.9704C14.6526 10.9704 14.6007 10.9704 14.5749 10.9704C14.4713 10.9704 14.3936 10.9445 14.3159 10.9186C14.1864 10.8668 14.031 10.7373 13.8756 10.5561C13.6426 10.2971 13.4095 9.93453 13.0728 9.62377C12.9175 9.46839 12.7103 9.3389 12.4772 9.23531C12.2441 9.13172 11.9852 9.07994 11.7003 9.07994C11.6744 9.07994 11.6485 9.07994 11.6226 9.07994L11.3377 9.07994L11.3377 9.3648C11.3377 9.41659 11.3377 9.44249 11.3377 9.49428C11.3377 10.6338 11.6226 11.6437 12.0628 12.5501C12.7362 13.8968 13.798 14.9845 14.9116 15.7873C15.4554 16.1757 16.0251 16.5124 16.5431 16.7455C17.061 17.0044 17.553 17.1598 17.9933 17.2634C21.593 18.0403 24.7783 18.3511 27.5493 18.3511C32.5992 18.3511 36.3025 17.3411 38.7627 16.3052C41.0935 15.347 42.2847 14.3629 42.4142 14.2593C43.217 13.7155 43.968 13.1458 44.6932 12.5501C45.0816 13.0163 45.988 14.0263 47.3087 15.1139C47.9044 15.606 48.6036 16.1498 49.3546 16.6419C48.1116 17.2116 46.8167 17.6778 45.4442 18.0144L45.5219 18.3511L0.305321 18.3516L0.305321 18.9473L54.301 18.9467C54.3528 18.8431 54.4046 18.869 54.4305 18.869ZM92.5509 14.2334C92.5768 14.0522 92.6027 13.9227 92.6545 13.845C92.6804 13.7673 92.7063 13.7155 92.7581 13.6896C92.8099 13.6378 92.8617 13.6119 92.9135 13.586C92.9653 13.5601 93.043 13.5601 93.1206 13.5601C93.276 13.5601 93.4832 13.6119 93.7163 13.6637C93.9493 13.7414 94.2083 13.8191 94.4673 13.8709L94.545 13.8968L94.6227 13.8709C94.7004 13.845 94.7522 13.8191 94.8298 13.7673C94.9075 13.7155 94.9852 13.6119 95.037 13.5083C95.0888 13.4047 95.0888 13.3271 95.0888 13.2235C95.0888 13.0422 95.037 12.8609 94.9593 12.6796C94.8557 12.4207 94.7263 12.1358 94.5968 11.9027C94.545 11.7732 94.4932 11.6696 94.4673 11.5919C94.4414 11.5402 94.4414 11.5143 94.4414 11.4884C94.4673 11.4884 94.4673 11.4884 94.4932 11.4884C94.545 11.4884 94.6227 11.5143 94.6745 11.5143C94.8557 11.5143 95.037 11.4625 95.1665 11.4107C95.4255 11.2812 95.6326 11.0999 95.8139 10.8927C96.0729 10.582 96.306 10.2453 96.5649 10.0122C96.6944 9.88275 96.8498 9.77916 97.0052 9.72737C97.1088 9.67558 97.2124 9.64967 97.316 9.62378C97.2901 10.582 97.0311 11.4625 96.6426 12.2394C96.0211 13.4824 95.0111 14.5183 93.9752 15.2693C93.4573 15.6319 92.9394 15.9427 92.4473 16.1757C92.0848 16.3311 91.774 16.4606 91.4632 16.5642C91.515 16.5124 91.5927 16.4606 91.6445 16.3829C92.1107 15.7614 92.4214 15.0363 92.5509 14.2334ZM16.2582 15.865C15.2482 15.2952 14.1346 14.4406 13.3059 13.3529C12.5031 12.2912 11.9334 11.0222 11.9075 9.57198C11.9852 9.57198 12.0628 9.59787 12.1146 9.62377C12.3218 9.70146 12.529 9.83095 12.6844 9.98633C12.9434 10.2453 13.1764 10.582 13.4354 10.8927C13.5649 11.0481 13.7203 11.1776 13.9016 11.2812C14.0828 11.3848 14.29 11.4625 14.5231 11.4625C14.5749 11.4625 14.6526 11.4625 14.7044 11.4366C14.7302 11.4366 14.7562 11.4366 14.7562 11.4366L14.7562 11.4625C14.7303 11.5401 14.6785 11.6696 14.6267 11.7991C14.5231 12.0063 14.4195 12.2394 14.3159 12.4724C14.2641 12.6019 14.2123 12.7055 14.1864 12.835C14.1605 12.9645 14.1346 13.0681 14.1346 13.1976C14.1346 13.2494 14.1346 13.327 14.1605 13.3788C14.1864 13.4824 14.2382 13.586 14.3159 13.6637C14.3936 13.7414 14.4972 13.7932 14.6007 13.8191L14.6785 13.845L14.7562 13.8191C15.0151 13.7673 15.2741 13.6637 15.5072 13.6119C15.7402 13.5342 15.9474 13.5083 16.1028 13.5083C16.1805 13.5083 16.2323 13.5083 16.2841 13.5342C16.31 13.5601 16.3618 13.5601 16.3877 13.586C16.4395 13.6119 16.4913 13.6896 16.5172 13.7932C16.5689 13.8968 16.5949 14.0263 16.6208 14.2334C16.7243 15.0362 17.0351 15.7614 17.553 16.3052C17.6048 16.357 17.6566 16.4347 17.7343 16.4865C17.32 16.357 16.802 16.1498 16.2582 15.865ZM54.3787 18.2475C52.9802 17.859 51.6854 17.2634 50.5459 16.5901C52.0479 15.8391 53.3946 14.9586 54.6117 14.0522C55.803 14.9327 57.1755 15.8132 58.6776 16.5901C57.5381 17.2634 56.2432 17.859 54.8448 18.2475L54.3787 18.2475ZM62.7952 18.2475L56.6317 18.2475C57.5899 17.859 58.4704 17.3929 59.2732 16.9008C60.3609 17.4447 61.5521 17.9108 62.7952 18.2475ZM64.0642 12.084C63.6757 12.5501 62.7693 13.5601 61.4486 14.6478C60.8011 15.1916 60.0501 15.7355 59.2473 16.2534C57.7194 15.5024 56.3209 14.6219 55.0779 13.7155C55.5181 13.3788 55.9325 13.0422 56.3209 12.7055C58.5481 10.815 59.9465 9.13173 60.335 8.66559C61.4486 9.80506 62.6916 10.9445 64.0642 12.084ZM54.5858 1.98413C55.2333 2.86463 57.0979 5.40256 59.9206 8.25123C59.6358 8.61379 58.1596 10.4007 55.8289 12.3689C55.4404 12.6796 55.0261 13.0163 54.6117 13.3529C54.1456 12.9904 53.6794 12.6278 53.2651 12.2653C51.9961 11.1776 50.9602 10.1676 50.2869 9.4166C49.9503 9.05404 49.6654 8.74328 49.51 8.5361C49.4323 8.43251 49.3546 8.35482 49.3028 8.30303C52.0738 5.40256 53.9384 2.89052 54.5858 1.98413ZM47.6454 14.5701C46.7649 13.845 46.0657 13.1458 45.5995 12.6278C45.3924 12.3948 45.2111 12.2135 45.1075 12.0581C46.48 10.9445 47.749 9.77916 48.8626 8.66559C49.251 9.13173 50.6495 10.815 52.8766 12.7055C53.2651 13.0422 53.6794 13.3788 54.1197 13.7155C52.8766 14.6219 51.5041 15.5024 49.9503 16.2534C49.0698 15.7096 48.3187 15.1139 47.6454 14.5701ZM46.3765 18.2475C47.6195 17.8849 48.7849 17.4447 49.8985 16.9008C50.7013 17.3929 51.5818 17.859 52.54 18.2475L46.3765 18.2475Z" fill="#DAA857"/>
<path d="M54.4305 18.869L54.4563 18.9467C54.5081 18.9467 54.534 18.9208 54.5858 18.9208C54.6376 18.9208 54.6635 18.9467 54.7153 18.9467L54.7412 18.869C54.793 18.869 54.8448 18.8431 54.8966 18.8431L109 18.8431L109 18.2475L63.7016 18.2475L63.7793 17.9108C62.4067 17.5742 61.086 17.108 59.8688 16.5383C60.6198 16.0462 61.3191 15.5024 61.9147 15.0104C63.2354 13.8968 64.1418 12.8868 64.5303 12.4466C65.2554 13.0422 66.0323 13.6119 66.8092 14.1557C66.9387 14.2593 68.13 15.2434 70.4607 16.2016C72.8951 17.2116 76.6242 18.2475 81.6741 18.2475C84.4451 18.2475 87.6305 17.9367 91.2302 17.1598C91.7999 17.0303 92.4732 16.7714 93.1983 16.3829C94.286 15.7873 95.4514 14.8809 96.3319 13.7155C97.2383 12.5501 97.8598 11.0999 97.8598 9.39071C97.8598 9.33891 97.8598 9.31301 97.8598 9.26122L97.8598 8.97635L97.5749 8.97635C97.549 8.97635 97.5231 8.97635 97.4972 8.97635C97.2642 8.97635 97.057 9.00225 96.8757 9.07994C96.539 9.18353 96.2801 9.39071 96.0729 9.59788C95.7621 9.90865 95.5032 10.2712 95.296 10.5302C95.1924 10.6597 95.0629 10.7632 94.9593 10.815C94.8557 10.8668 94.7522 10.9186 94.6227 10.9186C94.5968 10.9186 94.545 10.9186 94.5191 10.9186C94.4673 10.9186 94.4155 10.8927 94.3378 10.8927C94.2601 10.8927 94.2083 10.8927 94.1306 10.9186C94.0788 10.9445 94.027 10.9704 93.9752 10.9963C93.8976 11.0481 93.8458 11.1258 93.8199 11.2035C93.794 11.2812 93.7681 11.3589 93.7681 11.4107C93.7681 11.4884 93.794 11.592 93.794 11.6696C93.8458 11.7991 93.8975 11.9545 93.9493 12.1099C94.0529 12.3171 94.1565 12.5501 94.2601 12.7573C94.3119 12.8609 94.3378 12.9645 94.3637 13.0422C94.3896 13.1199 94.3896 13.1976 94.3896 13.2494C94.3896 13.2753 94.3896 13.2753 94.3896 13.2753C94.2083 13.2235 94.0011 13.1717 93.794 13.094C93.535 13.0163 93.3019 12.9645 93.043 12.9645C92.9135 12.9645 92.784 12.9904 92.6545 13.0163C92.5509 13.0422 92.4732 13.094 92.3696 13.1717C92.2401 13.2753 92.1366 13.4047 92.0589 13.586C91.9812 13.7414 91.9294 13.9486 91.9035 14.1817C91.7999 14.8809 91.5409 15.5024 91.1266 15.9427C90.7122 16.4088 90.1166 16.7196 89.3656 16.8232L89.3915 16.9267C86.5169 17.4447 83.9272 17.6778 81.6223 17.6778C76.6501 17.6778 73.0245 16.6678 70.642 15.6837C69.4507 15.1916 68.5702 14.6996 68.0005 14.3111C67.7156 14.1299 67.5085 13.9745 67.3531 13.8709C67.2754 13.8191 67.2236 13.7673 67.1977 13.7414C67.1718 13.7155 67.1718 13.7155 67.1718 13.7155C63.4167 11.0999 60.335 8.01816 58.1855 5.58384C57.1237 4.36668 56.2691 3.30488 55.6994 2.55386C55.4145 2.16541 55.2074 1.88054 55.052 1.67337C54.9743 1.56978 54.9225 1.49209 54.8966 1.44029C54.8707 1.41439 54.8707 1.3885 54.8448 1.3885C54.8448 1.3626 54.8189 1.3626 54.8189 1.3626L54.5858 1.00004L54.3528 1.3626C54.3528 1.3626 54.3528 1.3626 54.3269 1.3885C54.042 1.80285 49.2769 8.69148 41.9999 13.7414C41.974 13.7673 40.8345 14.7514 38.452 15.7355C36.0694 16.7196 32.4697 17.7036 27.5234 17.7036C25.2186 17.7036 22.6289 17.4965 19.7543 16.9526L19.7802 16.849C19.0033 16.7196 18.4335 16.4088 18.0192 15.9685C17.6048 15.5024 17.32 14.9068 17.2423 14.2075C17.2164 14.0004 17.1646 13.8191 17.1128 13.6637C17.061 13.5601 17.0092 13.4565 16.9315 13.3529C16.8279 13.2235 16.6984 13.1199 16.5431 13.0681C16.3877 13.0163 16.2582 12.9904 16.1028 12.9904C15.8438 12.9904 15.5849 13.0422 15.3518 13.1199C15.1446 13.1717 14.9374 13.2494 14.7562 13.3011L14.7562 13.2752C14.7562 13.1976 14.7821 13.0681 14.8338 12.9386C14.9115 12.7055 15.041 12.4465 15.1705 12.2135C15.2223 12.084 15.2741 11.9545 15.3259 11.8509C15.3777 11.7214 15.4036 11.6178 15.4036 11.4625C15.4036 11.4107 15.4036 11.333 15.3777 11.2812C15.3518 11.2294 15.3259 11.1776 15.3 11.1258C15.2482 11.0481 15.1705 10.9963 15.0928 10.9704C15.0151 10.9445 14.9374 10.9445 14.8597 10.9445C14.8079 10.9445 14.7561 10.9445 14.6785 10.9704C14.6526 10.9704 14.6007 10.9704 14.5749 10.9704C14.4713 10.9704 14.3936 10.9445 14.3159 10.9186C14.1864 10.8668 14.031 10.7373 13.8756 10.5561C13.6426 10.2971 13.4095 9.93453 13.0728 9.62377C12.9175 9.46839 12.7103 9.3389 12.4772 9.23531C12.2441 9.13172 11.9852 9.07994 11.7003 9.07994C11.6744 9.07994 11.6485 9.07994 11.6226 9.07994L11.3377 9.07994L11.3377 9.3648C11.3377 9.41659 11.3377 9.44249 11.3377 9.49428C11.3377 10.6338 11.6226 11.6437 12.0628 12.5501C12.7362 13.8968 13.798 14.9845 14.9116 15.7873C15.4554 16.1757 16.0251 16.5124 16.5431 16.7455C17.061 17.0044 17.553 17.1598 17.9933 17.2634C21.593 18.0403 24.7783 18.3511 27.5493 18.3511C32.5992 18.3511 36.3025 17.3411 38.7627 16.3052C41.0935 15.347 42.2847 14.3629 42.4142 14.2593C43.217 13.7155 43.968 13.1458 44.6932 12.5501C45.0816 13.0163 45.988 14.0263 47.3087 15.1139C47.9044 15.606 48.6036 16.1498 49.3546 16.6419C48.1116 17.2116 46.8167 17.6778 45.4442 18.0144L45.5219 18.3511L0.305321 18.3516L0.305321 18.9473L54.301 18.9467C54.3528 18.8431 54.4046 18.869 54.4305 18.869ZM92.5509 14.2334C92.5768 14.0522 92.6027 13.9227 92.6545 13.845C92.6804 13.7673 92.7063 13.7155 92.7581 13.6896C92.8099 13.6378 92.8617 13.6119 92.9135 13.586C92.9653 13.5601 93.043 13.5601 93.1206 13.5601C93.276 13.5601 93.4832 13.6119 93.7163 13.6637C93.9493 13.7414 94.2083 13.8191 94.4673 13.8709L94.545 13.8968L94.6227 13.8709C94.7004 13.845 94.7522 13.8191 94.8298 13.7673C94.9075 13.7155 94.9852 13.6119 95.037 13.5083C95.0888 13.4047 95.0888 13.3271 95.0888 13.2235C95.0888 13.0422 95.037 12.8609 94.9593 12.6796C94.8557 12.4207 94.7263 12.1358 94.5968 11.9027C94.545 11.7732 94.4932 11.6696 94.4673 11.5919C94.4414 11.5402 94.4414 11.5143 94.4414 11.4884C94.4673 11.4884 94.4673 11.4884 94.4932 11.4884C94.545 11.4884 94.6227 11.5143 94.6745 11.5143C94.8557 11.5143 95.037 11.4625 95.1665 11.4107C95.4255 11.2812 95.6326 11.0999 95.8139 10.8927C96.0729 10.582 96.306 10.2453 96.5649 10.0122C96.6944 9.88275 96.8498 9.77916 97.0052 9.72737C97.1088 9.67558 97.2124 9.64967 97.316 9.62378C97.2901 10.582 97.0311 11.4625 96.6426 12.2394C96.0211 13.4824 95.0111 14.5183 93.9752 15.2693C93.4573 15.6319 92.9394 15.9427 92.4473 16.1757C92.0848 16.3311 91.774 16.4606 91.4632 16.5642C91.515 16.5124 91.5927 16.4606 91.6445 16.3829C92.1107 15.7614 92.4214 15.0363 92.5509 14.2334ZM16.2582 15.865C15.2482 15.2952 14.1346 14.4406 13.3059 13.3529C12.5031 12.2912 11.9334 11.0222 11.9075 9.57198C11.9852 9.57198 12.0628 9.59787 12.1146 9.62377C12.3218 9.70146 12.529 9.83095 12.6844 9.98633C12.9434 10.2453 13.1764 10.582 13.4354 10.8927C13.5649 11.0481 13.7203 11.1776 13.9016 11.2812C14.0828 11.3848 14.29 11.4625 14.5231 11.4625C14.5749 11.4625 14.6526 11.4625 14.7044 11.4366C14.7302 11.4366 14.7562 11.4366 14.7562 11.4366L14.7562 11.4625C14.7303 11.5401 14.6785 11.6696 14.6267 11.7991C14.5231 12.0063 14.4195 12.2394 14.3159 12.4724C14.2641 12.6019 14.2123 12.7055 14.1864 12.835C14.1605 12.9645 14.1346 13.0681 14.1346 13.1976C14.1346 13.2494 14.1346 13.327 14.1605 13.3788C14.1864 13.4824 14.2382 13.586 14.3159 13.6637C14.3936 13.7414 14.4972 13.7932 14.6007 13.8191L14.6785 13.845L14.7562 13.8191C15.0151 13.7673 15.2741 13.6637 15.5072 13.6119C15.7402 13.5342 15.9474 13.5083 16.1028 13.5083C16.1805 13.5083 16.2323 13.5083 16.2841 13.5342C16.31 13.5601 16.3618 13.5601 16.3877 13.586C16.4395 13.6119 16.4913 13.6896 16.5172 13.7932C16.5689 13.8968 16.5949 14.0263 16.6208 14.2334C16.7243 15.0362 17.0351 15.7614 17.553 16.3052C17.6048 16.357 17.6566 16.4347 17.7343 16.4865C17.32 16.357 16.802 16.1498 16.2582 15.865ZM54.3787 18.2475C52.9802 17.859 51.6854 17.2634 50.5459 16.5901C52.0479 15.8391 53.3946 14.9586 54.6117 14.0522C55.803 14.9327 57.1755 15.8132 58.6776 16.5901C57.5381 17.2634 56.2432 17.859 54.8448 18.2475L54.3787 18.2475ZM62.7952 18.2475L56.6317 18.2475C57.5899 17.859 58.4704 17.3929 59.2732 16.9008C60.3609 17.4447 61.5521 17.9108 62.7952 18.2475ZM64.0642 12.084C63.6757 12.5501 62.7693 13.5601 61.4486 14.6478C60.8011 15.1916 60.0501 15.7355 59.2473 16.2534C57.7194 15.5024 56.3209 14.6219 55.0779 13.7155C55.5181 13.3788 55.9325 13.0422 56.3209 12.7055C58.5481 10.815 59.9465 9.13173 60.335 8.66559C61.4486 9.80506 62.6916 10.9445 64.0642 12.084ZM54.5858 1.98413C55.2333 2.86463 57.0979 5.40256 59.9206 8.25123C59.6358 8.61379 58.1596 10.4007 55.8289 12.3689C55.4404 12.6796 55.0261 13.0163 54.6117 13.3529C54.1456 12.9904 53.6794 12.6278 53.2651 12.2653C51.9961 11.1776 50.9602 10.1676 50.2869 9.4166C49.9503 9.05404 49.6654 8.74328 49.51 8.5361C49.4323 8.43251 49.3546 8.35482 49.3028 8.30303C52.0738 5.40256 53.9384 2.89052 54.5858 1.98413ZM47.6454 14.5701C46.7649 13.845 46.0657 13.1458 45.5995 12.6278C45.3924 12.3948 45.2111 12.2135 45.1075 12.0581C46.48 10.9445 47.749 9.77916 48.8626 8.66559C49.251 9.13173 50.6495 10.815 52.8766 12.7055C53.2651 13.0422 53.6794 13.3788 54.1197 13.7155C52.8766 14.6219 51.5041 15.5024 49.9503 16.2534C49.0698 15.7096 48.3187 15.1139 47.6454 14.5701ZM46.3765 18.2475C47.6195 17.8849 48.7849 17.4447 49.8985 16.9008C50.7013 17.3929 51.5818 17.859 52.54 18.2475L46.3765 18.2475Z" stroke="#DAA857" stroke-width="0.6" mask="url(#path-2-outside-1_108_378)"/>
</svg>
