<?xml version="1.0" encoding="UTF-8"?>
<svg id="_圖層_2" data-name="圖層 2" xmlns="http://www.w3.org/2000/svg" viewBox="0 0 249.77 150">
  <defs>
    <style>
      .cls-1 {
        fill: #b28247;
      }

      .cls-1, .cls-2 {
        stroke-width: 0px;
      }

      .cls-2 {
        fill: #908066;
      }
    </style>
  </defs>
  <g id="_3" data-name="3">
    <g>
      <path class="cls-1" d="M248.57,133.84l.31-.1c-.55-1.58-1.4-2.91-2.55-3.95-.6-.55-1.27-1.01-2.05-1.38l-.16.31.21.26c.08-.05.16-.1.21-.18.18-.13.36-.29.55-.42.29-.21.57-.44.86-.68.75-.6,1.71-1.45,2.44-2.68.81-1.3,1.19-2.81,1.19-4.44h-.26l.26.03v-.05h-.26l.26.03V29.38c0-1.12-.18-2.16-.55-3.12-.47-1.22-1.22-2.31-2.29-3.3-.57-.52-1.12-.96-1.66-1.35-.18-.13-.36-.29-.55-.42-.08-.05-.16-.1-.21-.16l-.21.26.16.31c.57-.29,1.12-.62,1.61-1.01.86-.68,1.56-1.51,2.13-2.44.7-1.19,1.14-2.57,1.4-4.21.18-1.19.26-2.49.26-4.26,0-.94-.03-1.87-.05-2.86-.03-1.01-.05-2.05-.05-3.12v-.57c0-1.69-1.38-3.04-3.04-3.04h-.52c-1.06,0-2.1-.03-3.12-.05-.99-.03-1.95-.05-2.86-.05-1.51,0-2.73.05-3.79.21-1.04.13-1.97.34-2.83.62-1.58.55-2.91,1.4-3.95,2.55-.55.6-1.01,1.27-1.38,2.05l.31.16.26-.21c-.05-.08-.44-.57-.57-.75-.21-.29-.44-.57-.68-.86-.6-.75-1.45-1.71-2.68-2.44-1.3-.81-2.81-1.19-4.44-1.19H29.35c-1.12,0-2.16.18-3.12.55-1.22.47-2.31,1.22-3.3,2.29-.52.57-.96,1.14-1.35,1.66-.13.18-.29.36-.42.55-.05.08-.1.16-.16.21l.26.21.31-.16c-.29-.57-.62-1.12-1.01-1.61-.68-.86-1.51-1.56-2.47-2.13-1.19-.7-2.57-1.14-4.21-1.4C12.7.1,11.4.03,9.64.03c-.91,0-1.87.03-2.86.05-1.01,0-2.05.03-3.14.03h-.49C1.45.1.1,1.45.1,3.14v.49c0,1.06-.03,2.1-.05,3.14-.03.96-.05,1.92-.05,2.86,0,1.51.05,2.73.21,3.79.13,1.04.34,1.97.62,2.83.55,1.58,1.4,2.91,2.55,3.95.6.55,1.27,1.01,2.05,1.38l.16-.31-.21-.26c-.08.05-.16.1-.21.18-.18.13-.36.29-.55.42-.29.21-.57.44-.86.68-.75.6-1.71,1.45-2.44,2.68-.81,1.3-1.19,2.81-1.19,4.47v91.25c0,1.12.18,2.16.55,3.12.47,1.22,1.22,2.31,2.29,3.3.57.52,1.14.96,1.66,1.35.18.13.36.29.55.42.08.05.16.1.21.16l.21-.26-.16-.31c-.57.29-1.12.62-1.61,1.01-.86.68-1.56,1.51-2.13,2.47-.7,1.19-1.14,2.57-1.4,4.21-.18,1.19-.26,2.49-.26,4.26,0,.94.03,1.87.05,2.86.03,1.01.05,2.05.05,3.12v.49c0,1.69,1.38,3.04,3.04,3.04h.52c1.06,0,2.1.03,3.12.05.99.03,1.95.05,2.86.05,1.51,0,2.73-.05,3.79-.21,1.04-.13,1.97-.34,2.83-.62,1.58-.55,2.91-1.4,3.95-2.55.55-.6,1.01-1.27,1.38-2.05l-.31-.16-.26.21c.05.08.1.13.16.21.13.18.29.36.42.55.21.29.44.57.68.86.6.75,1.45,1.71,2.68,2.44,1.3.81,2.81,1.19,4.47,1.19h191.02c1.12,0,2.16-.18,3.12-.55,1.22-.47,2.31-1.22,3.3-2.29.52-.57.96-1.12,1.35-1.66.13-.18.29-.36.42-.55h0c.05-.08.1-.16.16-.21l-.26-.21-.31.16c.29.57.62,1.12,1.01,1.61.68.86,1.51,1.56,2.47,2.13,1.19.7,2.57,1.14,4.21,1.4,1.19.18,2.49.26,4.26.26.94,0,1.87-.03,2.86-.05,1.01-.03,2.05-.05,3.12-.05h.49c1.69,0,3.04-1.38,3.04-3.04v-.49c0-1.06.03-2.1.05-3.12.03-.99.05-1.95.05-2.86,0-1.51-.05-2.73-.21-3.79-.13-1.04-.34-1.97-.62-2.83l-.36.1-.31.1c.29.81.47,1.69.6,2.68.13,1.01.18,2.21.18,3.69,0,.91-.03,1.87-.05,2.86-.03,1.01-.05,2.05-.05,3.14v.49c0,1.3-1.06,2.36-2.36,2.36h-.49c-1.09,0-2.13.03-3.14.05-.99.03-1.95.05-2.86.05-1.74,0-3.01-.08-4.16-.26-1.58-.23-2.86-.68-3.97-1.32-.88-.52-1.64-1.17-2.26-1.97-.36-.44-.68-.96-.94-1.51l-.23-.49-.34.42c-.05.08-.1.13-.16.21h0c-.16.18-.29.36-.44.55-.42.55-.83,1.09-1.32,1.61-.94,1.01-1.92,1.69-3.04,2.13-.88.34-1.84.49-2.88.49H29.35c-1.56,0-2.91-.36-4.1-1.09-1.12-.68-1.92-1.58-2.49-2.29-.23-.29-.44-.57-.65-.86-.13-.18-.29-.36-.42-.55-.05-.08-.1-.16-.16-.21l-.34-.44-.23.49c-.36.7-.78,1.32-1.27,1.9-.96,1.06-2.18,1.84-3.66,2.36-.81.29-1.66.47-2.68.6-1.04.13-2.21.18-3.69.18-.91,0-1.87-.03-2.83-.05-1.01-.03-2.05-.05-3.14-.05h-.52c-1.3,0-2.36-1.06-2.36-2.36v-.49c0-1.09-.03-2.13-.05-3.14-.03-.99-.05-1.95-.05-2.86,0-1.74.08-3.01.26-4.16.23-1.58.68-2.86,1.32-3.97.52-.88,1.17-1.64,1.97-2.26.44-.36.96-.68,1.51-.94l.49-.23-.44-.34c-.08-.05-.13-.1-.21-.16-.18-.16-.36-.29-.55-.42-.55-.42-1.09-.83-1.61-1.32-1.01-.94-1.69-1.92-2.13-3.04-.34-.88-.49-1.84-.49-2.88V29.35c0-1.56.36-2.91,1.09-4.1.68-1.12,1.58-1.92,2.29-2.49.29-.23.55-.44.83-.65.18-.13.36-.29.55-.42.08-.05.16-.1.21-.16l.44-.34-.52-.23c-.7-.36-1.32-.78-1.9-1.27-1.06-.96-1.84-2.18-2.36-3.66-.29-.81-.47-1.69-.6-2.68-.13-1.04-.18-2.23-.18-3.71,0-.91.03-1.87.05-2.86.03-1.01.05-2.08.05-3.14v-.49C.78,1.84,1.84.78,3.14.78h.49c1.09,0,2.16-.03,3.14-.05s1.95-.05,2.86-.05c1.71,0,3.01.08,4.16.26,1.58.23,2.86.68,3.97,1.32.88.52,1.64,1.17,2.26,1.97.36.44.68.96.94,1.51l.23.49.34-.44c.05-.08.1-.13.16-.21.16-.18.29-.36.42-.55.42-.55.83-1.09,1.32-1.61.94-1.01,1.92-1.69,3.04-2.13.86-.34,1.84-.49,2.88-.49h191.02c1.53,0,2.91.36,4.1,1.09,1.12.68,1.92,1.58,2.49,2.29.23.29.44.57.65.86.13.18.52.7.57.75l.34.44.23-.49c.36-.7.78-1.32,1.27-1.9.96-1.06,2.18-1.84,3.66-2.36.81-.29,1.69-.47,2.68-.6,1.04-.13,2.21-.18,3.69-.18.91,0,1.87.03,2.83.05,1.01.03,2.05.05,3.14.05h.52c1.3,0,2.36,1.06,2.36,2.36v.49c0,1.09.03,2.13.05,3.14.03.99.05,1.95.05,2.86,0,1.74-.08,3.01-.26,4.16-.23,1.58-.68,2.86-1.32,3.97-.52.88-1.17,1.64-1.97,2.26-.44.36-.96.68-1.51.94l-.49.23.42.34c.08.05.13.1.21.16.18.16.36.29.55.42.55.42,1.09.83,1.61,1.32,1.01.94,1.69,1.92,2.13,3.04.34.88.49,1.84.49,2.88v91.25h.34l-.26-.08v.05h.05-.05.05-.05c0,1.53-.36,2.91-1.09,4.08-.68,1.12-1.58,1.92-2.29,2.49-.29.23-.55.44-.83.65-.18.13-.36.29-.55.42-.08.05-.16.1-.21.16l-.44.34.49.23c.7.36,1.32.78,1.9,1.27,1.06.96,1.84,2.18,2.36,3.66l.29-.05Z"/>
      <path class="cls-1" d="M8.57,34.39c.65-.55.16-1.22-.36-1.66s-1.19-2.31-1.06-2.91c.03.96,1.53,1.66,2.44,1.27.94-.42,1.45-1.45.86-2.26-.68-.91-1.64-.55-1.97.08s-.03,1.43.52,1.38.34-.57.18-.86c-.16-.29.23-.99.88-.31.65.65-.16,2.16-1.45,1.77s-1.25-2.21-1.09-2.73c.13-.52.03-.86-.1-.62-.13.21-.39.99-.6,2.39-.6,3.53,1.12,5.01,1.77,4.47Z"/>
      <path class="cls-1" d="M28.1,7.48c.52-.13,2.34-.21,2.73,1.09s-1.09,2.1-1.77,1.45c-.65-.65.03-1.04.31-.88s.81.36.86-.18c.05-.55-.75-.88-1.38-.52-.62.34-.96,1.32-.08,1.97.81.6,1.82.08,2.26-.86.42-.88-.29-2.39-1.27-2.44.6-.1,2.47.55,2.91,1.06.44.52,1.12,1.01,1.66.36.55-.65-.94-2.36-4.52-1.82-1.4.21-2.18.47-2.39.6-.16.18.16.29.68.16Z"/>
      <polygon class="cls-1" points="14.31 15.92 14.36 15.82 14.31 15.71 14.21 15.66 14.08 15.71 14.05 15.82 14.08 15.92 14.21 15.97 14.31 15.92"/>
      <path class="cls-1" d="M15.14,16.78c.08-.05.08-.16.03-.23s-.16-.08-.23-.03c-.08.05-.08.16-.03.23.05.08.16.08.23.03Z"/>
      <path class="cls-1" d="M16.34,18.81c.08-.03.1-.13.08-.21s-.13-.1-.21-.08-.1.13-.08.21.13.13.21.08Z"/>
      <path class="cls-1" d="M15.79,17.77c.08-.05.1-.16.05-.23-.05-.08-.16-.1-.23-.05-.08.05-.1.16-.05.23.05.08.16.1.23.05Z"/>
      <path class="cls-1" d="M16.65,19.61c-.08.03-.13.1-.1.21.03.08.1.13.21.1.08-.03.13-.1.1-.21-.05-.08-.13-.13-.21-.1Z"/>
      <path class="cls-1" d="M17.04,20.94c0-.08-.08-.16-.16-.16s-.16.08-.16.16.08.16.16.16c.1,0,.16-.05.16-.16Z"/>
      <polygon class="cls-1" points="16.6 22 16.57 22.1 16.6 22.23 16.73 22.26 16.83 22.23 16.88 22.1 16.83 22 16.73 21.95 16.6 22"/>
      <path class="cls-1" d="M11.97,25.82c.81.49,1.71.49,1.87.52.16.03-.21.21-.6.1-.81-.13-1.09.6-.16.6s2.81-1.14,2.94-1.77c-1.14.7-2.29.36-3.35-.34-.88-.57-1.51.39-.7.88Z"/>
      <path class="cls-1" d="M13.45,17.97c-.49-.42-.88.26-.42.73.47.47.68,1.14.6,1.82,0,0,1.48-1.79,1.4-2.42-.08-.68-.73-.65-.81.03-.05.44-.26.81-.26.81,0,0-.03-.55-.52-.96Z"/>
      <path class="cls-1" d="M12.83,15.87c-.08-1.3.91-1.53,1.38-1.06.47.47,1.22,1.22,1.22,1.22,2.36,2.36,3.14,5.74,1.48,7.74-1.71,2.05-4.23.18-3.3-1.19.68-1.14,1.51-.1,1.48.57-.03.73.86.52.94.1.05-.39-.44-1.58-1.3-1.64-.86-.05-1.61.55-1.61,1.58-.03,1.25,1.43,2.42,3.04,1.66,1.58-.75,3.82-4.96-.03-8.78,3.84,3.84,8.03,1.61,8.78.03.75-1.61-.39-3.06-1.66-3.04-1.04.03-1.64.75-1.58,1.61.05.86,1.25,1.35,1.64,1.3s.62-.96-.1-.94c-.7.03-1.71-.81-.57-1.48,1.38-.91,3.25,1.61,1.19,3.3-2,1.66-5.38.88-7.74-1.48l-1.22-1.22c-.47-.47-.23-1.45,1.06-1.38,1.06.31.83-.83,0-1.22.23-1.84-.49-2.42-1.06-2.44-1.09-.08-1.61,1.38-.1,1.64.68.13.75,1.14-.18,1.25-.47.05-1.3.55-1.3.55l-1.84-1.71s.39-.23.99-.23,0-1.06-.91-.91c.23-.39.39-1.3-.47-1.82-.47.31-.68.83-.68.83,0,0-.23-.75-.6-.55-.39.23-.31.55-.31.55,0,0-.62-.78-1.53-.78,0,.91.78,1.53.78,1.53,0,0-.31-.08-.55.31-.23.39.55.6.55.6,0,0-.55.23-.83.68.55.83,1.45.68,1.82.47-.16.91.91,1.53.91.91s.23-.99.23-.99l1.77,1.77s-.47.81-.55,1.3c-.1.96-1.14.86-1.25.18-.26-1.48-1.71-.99-1.64.1.03.57.62,1.3,2.44,1.06.36.86,1.51,1.09,1.22.03Z"/>
      <polygon class="cls-1" points="15.69 14.1 15.66 14.21 15.69 14.31 15.82 14.36 15.92 14.31 15.97 14.21 15.92 14.1 15.82 14.05 15.69 14.1"/>
      <path class="cls-1" d="M19.61,16.65c-.03.08.03.18.1.21.08.03.18-.03.21-.1.03-.08-.03-.18-.1-.21h0c-.08-.03-.18,0-.21.1Z"/>
      <path class="cls-1" d="M20.94,17.04c.08,0,.16-.08.16-.16s-.08-.16-.16-.16-.16.08-.16.16.05.16.16.16Z"/>
      <path class="cls-1" d="M17.53,15.84h0c.08.05.18.03.23-.05.05-.08.03-.18-.05-.23-.08-.05-.18-.03-.23.05-.05.1-.03.21.05.23Z"/>
      <path class="cls-1" d="M16.55,15.17h0c.08.05.18.05.23-.03.05-.08.05-.18-.03-.23h0c-.08-.05-.18-.05-.23.03-.05.08-.05.18.03.23Z"/>
      <path class="cls-1" d="M18.52,16.21c-.03.08,0,.18.08.21.08.03.18,0,.21-.08.03-.08,0-.18-.08-.21-.08-.05-.18,0-.21.08Z"/>
      <polygon class="cls-1" points="22.23 16.83 22.26 16.73 22.23 16.6 22.1 16.57 22 16.6 21.95 16.73 22 16.83 22.1 16.88 22.23 16.83"/>
      <path class="cls-1" d="M25.27,16.03c.62-.13,1.77-2,1.77-2.94s-.7-.65-.6.16c.13.36-.05.73-.1.6-.03-.16-.03-1.09-.52-1.87-.49-.81-1.48-.18-.88.7.7,1.09,1.04,2.23.34,3.35Z"/>
      <path class="cls-1" d="M18.13,15.06c.6.08,2.42-1.4,2.42-1.4-.68.08-1.38-.16-1.82-.62-.47-.47-1.14-.08-.73.42.42.49.99.55.99.55,0,0-.36.21-.81.26-.7.08-.75.73-.05.81Z"/>
      <path class="cls-1" d="M26.81,15.82c-.6.88-1.45,1.66-3.71,2.52-2.26.86-4.65.1-4.65.1,0,0,.75,2.42-.1,4.62-.86,2.26-1.64,3.12-2.52,3.71-1.14.78-.05,1.53.75.86s1.19-2.05,1.4-2.55c.18-.44.83-.88.26,1.06-.29.94,1.14.91.91-.62-.18-1.3-.49-1.4-.29-2.23.34-1.22.55-2.23.52-2.83.18,1.45.47,2.68,1.84,2.08.86-.39,1.27-.1,1.27-.1,0,0-.29-.42.1-1.27.6-1.35-.65-1.66-2.08-1.84.6.03,1.61-.18,2.83-.52.81-.21.94.1,2.23.29,1.53.23,1.56-1.19.62-.91-1.95.57-1.51-.08-1.06-.26.49-.21,1.87-.6,2.55-1.4.65-.75-.13-1.84-.88-.7ZM21.48,20.26c.08.23-.16.31-.16.31,0,0,.39,0,.49.34l-.26.18s.16.23.08.55c-.29.08-.55-.08-.55-.08l-.18.26c-.34-.1-.34-.49-.34-.49,0,0-.08.23-.31.16-.36-.23-.39-1.12-.34-1.56.44-.05,1.32-.03,1.56.34Z"/>
      <path class="cls-1" d="M8.1,13.04c-.16.16-.16.39,0,.55s.39.16.55,0,.16-.39,0-.55-.39-.16-.55,0Z"/>
      <path class="cls-1" d="M13.56,8.65c.16-.16.16-.39,0-.55s-.39-.16-.55,0-.16.39,0,.55c.16.13.39.13.55,0Z"/>
      <path class="cls-1" d="M6.94,6.94c-.16.16-.16.39,0,.55.16.16.39.16.55,0,.16-.16.16-.39,0-.55-.16-.13-.39-.13-.55,0Z"/>
      <path class="cls-1" d="M217.02,8.18c.44-.52,2.31-1.19,2.91-1.06-.96.03-1.66,1.53-1.27,2.44.42.94,1.45,1.45,2.26.86.91-.68.55-1.64-.08-1.97-.62-.34-1.43-.03-1.38.52s.57.34.86.18.99.23.31.88c-.65.65-2.16-.16-1.77-1.45s2.21-1.25,2.73-1.09c.52.13.86.03.62-.1-.21-.13-.99-.39-2.39-.6-3.56-.55-5.04,1.17-4.52,1.82.57.62,1.25.1,1.71-.42Z"/>
      <path class="cls-1" d="M240.19,31.06c.88.42,2.39-.29,2.44-1.27.1.6-.55,2.47-1.06,2.91-.52.44-1.01,1.12-.39,1.66.65.55,2.36-.94,1.82-4.52-.21-1.4-.47-2.18-.6-2.39-.13-.21-.26.1-.1.62.13.52.21,2.34-1.09,2.73s-2.1-1.09-1.45-1.77c.65-.65,1.04.03.88.31s-.36.81.18.86c.55.05.88-.75.52-1.38-.34-.62-1.32-.96-1.97-.08-.62.88-.13,1.9.83,2.31Z"/>
      <polygon class="cls-1" points="234.03 14.31 234.06 14.21 234.03 14.1 233.9 14.05 233.8 14.1 233.74 14.21 233.8 14.31 233.9 14.36 234.03 14.31"/>
      <path class="cls-1" d="M233.17,15.17h0c.08-.05.08-.16.03-.23-.05-.08-.16-.08-.23-.03h0c-.08.05-.08.16-.03.23.05.08.16.08.23.03Z"/>
      <path class="cls-1" d="M230.99,16.13c-.08.03-.13.13-.08.21.03.08.13.1.21.08s.1-.13.08-.21-.13-.13-.21-.08Z"/>
      <path class="cls-1" d="M232,15.58h0c-.08.05-.1.16-.05.23s.16.1.23.05h0c.08-.05.1-.16.05-.23-.05-.08-.16-.1-.23-.05Z"/>
      <path class="cls-1" d="M229.9,16.52c-.08.03-.13.1-.1.21.03.08.1.13.21.1.08-.03.13-.1.1-.21-.03-.08-.13-.1-.21-.1Z"/>
      <path class="cls-1" d="M228.78,17.04c.08,0,.16-.08.16-.16s-.08-.16-.16-.16-.16.08-.16.16c0,.1.08.16.16.16Z"/>
      <polygon class="cls-1" points="227.61 16.57 227.51 16.6 227.46 16.73 227.51 16.83 227.61 16.88 227.72 16.83 227.77 16.73 227.72 16.6 227.61 16.57"/>
      <path class="cls-1" d="M224.45,16.03c-.7-1.14-.36-2.29.34-3.35.57-.88-.39-1.51-.88-.7s-.49,1.71-.52,1.87c-.03.16-.21-.21-.1-.6.13-.81-.6-1.09-.6-.16,0,.94,1.14,2.83,1.77,2.94Z"/>
      <path class="cls-1" d="M231.59,15.06c.68-.08.65-.73-.03-.81-.44-.05-.81-.26-.81-.26,0,0,.57-.03.99-.55.42-.49-.26-.88-.73-.42-.47.47-1.14.68-1.82.62,0,0,1.79,1.48,2.39,1.4Z"/>
      <path class="cls-1" d="M224.86,16.1c.75,1.58,4.96,3.82,8.78-.03-3.84,3.84-1.61,8.03-.03,8.78,1.61.75,3.06-.39,3.04-1.66-.03-1.04-.75-1.64-1.61-1.58-.86.05-1.35,1.25-1.3,1.64s.96.62.94-.1c-.03-.7.81-1.71,1.48-.57.91,1.38-1.61,3.25-3.3,1.19-1.66-2-.88-5.38,1.48-7.74,0,0,.75-.75,1.22-1.22s1.45-.23,1.38,1.06c-.31,1.06.83.83,1.22,0,1.82.23,2.42-.49,2.44-1.06.08-1.09-1.38-1.61-1.64-.1-.13.68-1.14.75-1.25-.18-.05-.47-.55-1.3-.55-1.3l1.77-1.77s.23.39.23.99,1.06,0,.91-.91c.39.23,1.3.39,1.82-.47-.31-.47-.83-.68-.83-.68,0,0,.75-.23.55-.6-.23-.39-.55-.31-.55-.31,0,0,.78-.62.78-1.53-.91,0-1.53.78-1.53.78,0,0,.08-.31-.31-.55-.39-.23-.62.55-.62.55,0,0-.23-.55-.68-.83-.83.55-.68,1.45-.47,1.82-.91-.16-1.53.91-.91.91s.99.23.99.23l-1.77,1.77s-.81-.47-1.3-.55c-.96-.1-.86-1.14-.18-1.25,1.48-.26.99-1.71-.1-1.64-.57.03-1.3.6-1.06,2.44-.83.39-1.06,1.53,0,1.22,1.3-.08,1.53.91,1.06,1.38-.47.47-1.22,1.22-1.22,1.22-2.36,2.36-5.74,3.14-7.74,1.48-2.05-1.71-.18-4.23,1.19-3.3,1.14.68.1,1.51-.57,1.48-.73-.03-.49.86-.1.94.39.05,1.58-.44,1.64-1.3s-.55-1.61-1.58-1.61c-1.32-.1-2.49,1.35-1.71,2.96Z"/>
      <polygon class="cls-1" points="235.64 15.92 235.67 15.82 235.64 15.71 235.51 15.66 235.41 15.71 235.35 15.82 235.41 15.92 235.51 15.97 235.64 15.92"/>
      <path class="cls-1" d="M233.2,19.82h0c.03-.08-.03-.18-.1-.21s-.18.03-.21.1.03.18.1.21c.08.03.18-.03.21-.1Z"/>
      <path class="cls-1" d="M232.99,20.96c0-.08-.08-.16-.16-.16s-.16.08-.16.16.08.16.16.16.16-.08.16-.16Z"/>
      <path class="cls-1" d="M233.87,17.53h0c-.05.08-.03.18.05.23.08.05.18.03.23-.05.05-.08.03-.18-.05-.23-.08-.05-.18-.03-.23.05Z"/>
      <path class="cls-1" d="M234.78,16.52c-.08-.05-.18-.05-.23.03-.05.08-.05.18.03.23.08.05.18.05.23-.03.05-.08.05-.18-.03-.23Z"/>
      <path class="cls-1" d="M233.3,18.6c-.03.08,0,.18.08.21.08.03.18,0,.21-.08s0-.18-.08-.21c-.08-.03-.18,0-.21.08Z"/>
      <polygon class="cls-1" points="232.99 22.26 233.12 22.23 233.15 22.1 233.12 22 232.99 21.95 232.89 22 232.83 22.1 232.89 22.23 232.99 22.26"/>
      <path class="cls-1" d="M233.69,25.27c.13.62,2,1.77,2.94,1.77s.65-.7-.16-.6c-.36.13-.73-.05-.6-.1.16-.03,1.06-.03,1.87-.52.81-.49.18-1.48-.7-.88-1.09.7-2.21,1.04-3.35.34Z"/>
      <path class="cls-1" d="M236.26,17.97c-.49.42-.55.99-.55.99,0,0-.21-.36-.26-.81-.08-.68-.73-.73-.81-.03-.08.6,1.4,2.42,1.4,2.42-.08-.68.16-1.38.6-1.82.49-.49.1-1.17-.39-.75Z"/>
      <path class="cls-1" d="M222.06,16.55c.68.81,2.05,1.19,2.55,1.4.44.18.88.83-1.06.26-.94-.29-.91,1.14.62.91,1.3-.18,1.4-.49,2.23-.29,1.22.34,2.23.55,2.83.52-1.45.18-2.68.47-2.08,1.84.39.86.1,1.27.1,1.27,0,0,.42-.29,1.27.1,1.35.6,1.66-.65,1.84-2.08-.03.6.18,1.61.52,2.83.21.81-.1.94-.29,2.23-.23,1.53,1.19,1.56.91.62-.57-1.95.08-1.51.26-1.06.21.49.6,1.87,1.4,2.55.81.68,1.9-.08.75-.86-.88-.6-1.66-1.48-2.52-3.71-.86-2.23-.1-4.62-.1-4.62,0,0-2.42.75-4.62-.1-2.26-.86-3.12-1.64-3.71-2.52-.81-1.17-1.58-.08-.91.7ZM229.8,19.92c.05.44.03,1.32-.34,1.56-.23.08-.31-.16-.31-.16,0,0,0,.39-.34.49l-.18-.26s-.23.16-.55.08c-.08-.29.08-.55.08-.55l-.26-.18c.1-.34.49-.34.49-.34,0,0-.23-.08-.16-.31.23-.36,1.12-.39,1.56-.34Z"/>
      <path class="cls-1" d="M236.7,8.65c.16-.16.16-.39,0-.55s-.39-.16-.55,0-.16.39,0,.55c.16.13.39.13.55,0Z"/>
      <path class="cls-1" d="M241.07,13.04c-.16.16-.16.39,0,.55s.39.16.55,0,.16-.39,0-.55-.39-.16-.55,0Z"/>
      <path class="cls-1" d="M242.78,7.48c.16-.16.16-.39,0-.55s-.39-.16-.55,0-.16.39,0,.55c.16.16.39.16.55,0Z"/>
      <path class="cls-1" d="M241.17,115.58c-.65.55-.16,1.22.36,1.66.52.44,1.19,2.31,1.06,2.91-.03-.96-1.53-1.66-2.44-1.27-.94.42-1.45,1.45-.86,2.26.68.88,1.64.55,1.97-.08s.03-1.43-.52-1.38-.34.57-.18.86c.16.29-.23.99-.88.31-.65-.65.16-2.16,1.45-1.77s1.25,2.21,1.09,2.73c-.13.52-.03.86.1.62.13-.21.39-.99.6-2.39.57-3.53-1.14-5.01-1.77-4.47Z"/>
      <path class="cls-1" d="M221.61,142.49c-.52.13-2.34.21-2.73-1.09s1.09-2.1,1.77-1.45c.65.65-.03,1.04-.31.88-.29-.16-.81-.36-.86.18-.05.55.75.88,1.38.52.62-.34.96-1.32.08-1.97-.81-.6-1.82-.08-2.26.86-.42.88.29,2.39,1.27,2.44-.6.1-2.47-.55-2.91-1.06s-1.12-1.01-1.66-.36c-.55.65.94,2.36,4.52,1.82,1.4-.21,2.18-.47,2.39-.6.16-.18-.16-.31-.68-.16Z"/>
      <path class="cls-1" d="M242.63,133.38c-.52-.39-1.19-.65-2-.86h0c-1.19-.26-1.97-.7-2.47-1.17s-.73-.99-.83-1.45c-.05-.21-.08-.42-.08-.6,0-.55.16-1.06.39-1.51.23-.44.57-.83.91-1.06.65-.49,1.09-.78,1.48-1.06.42-.29.78-.52,1.32-.94.21-.16.39-.31.6-.47.83-.62,1.45-1.12,1.87-1.66.21-.29.36-.57.47-.91.1-.34.16-.7.16-1.12V29.35c0-.42-.05-.81-.16-1.12-.16-.49-.42-.91-.81-1.3s-.88-.78-1.51-1.27c-.21-.16-.39-.31-.6-.47-.52-.42-.91-.68-1.32-.94-.39-.26-.86-.57-1.48-1.06-.34-.26-.68-.62-.91-1.06s-.39-.96-.39-1.51c0-.21.03-.39.08-.6.1-.47.34-.99.83-1.45.49-.47,1.27-.91,2.47-1.17h0c.81-.18,1.45-.47,2-.86.39-.29.73-.65.96-1.06.39-.65.62-1.45.75-2.44.13-.99.18-2.21.18-3.64,0-.49,0-1.01-.03-1.56v-2.52l-.16-.16h-2.52c-.55,0-1.06-.03-1.56-.03-2.57,0-4.36.16-5.64.73-.65.29-1.14.68-1.53,1.19-.39.52-.65,1.19-.86,2h0c-.26,1.19-.7,1.97-1.17,2.47s-.99.73-1.45.83c-.21.05-.42.05-.6.05-.55,0-1.06-.16-1.51-.39s-.81-.57-1.06-.91c-.49-.65-.78-1.09-1.06-1.48-.29-.42-.52-.78-.94-1.32-.16-.21-.31-.39-.47-.6-.65-.83-1.12-1.45-1.66-1.87-.29-.21-.57-.36-.91-.47s-.7-.16-1.12-.16H29.35c-.42,0-.81.05-1.12.16-.49.16-.91.42-1.3.81s-.78.88-1.27,1.51c-.16.21-.31.39-.47.6-.42.52-.68.91-.94,1.32-.26.39-.57.86-1.06,1.48-.26.34-.62.68-1.06.91s-.96.39-1.51.39c-.21,0-.39-.03-.6-.05-.47-.1-.99-.34-1.45-.83-.47-.49-.91-1.27-1.17-2.47h0c-.18-.81-.47-1.45-.86-2-.29-.39-.65-.73-1.06-.96-.65-.39-1.45-.62-2.44-.75-.99-.13-2.21-.18-3.64-.18-.49,0-1.01,0-1.56.03h-2.52l-.16.16v2.52c0,.55-.03,1.06-.03,1.56,0,2.57.16,4.36.73,5.64.29.65.68,1.14,1.19,1.53.52.39,1.19.65,2,.86h0c1.19.26,1.97.68,2.47,1.17.49.47.73.99.83,1.45.05.21.08.42.08.6,0,.55-.16,1.06-.39,1.51-.23.44-.57.83-.91,1.06-.65.49-1.09.78-1.48,1.06-.42.29-.78.52-1.32.94-.21.16-.39.31-.6.47-.83.62-1.45,1.12-1.87,1.66-.21.29-.36.57-.47.91s-.16.7-.16,1.12v91.25c0,.42.05.81.16,1.12.16.49.42.91.81,1.3s.88.78,1.51,1.27c.21.16.39.31.6.47.52.42.91.68,1.32.94.39.26.86.57,1.48,1.06.34.26.68.62.91,1.06s.39.96.39,1.51c0,.21-.03.39-.08.6-.1.47-.34.99-.83,1.45-.49.47-1.27.91-2.47,1.17h0c-.81.18-1.45.47-2,.86-.39.29-.73.65-.96,1.06-.39.65-.62,1.45-.75,2.44-.13.99-.18,2.21-.18,3.64,0,.49,0,1.01.03,1.56v2.52l.16.16h2.52c.55,0,1.06.03,1.56.03,2.57,0,4.36-.16,5.64-.73.65-.29,1.14-.68,1.53-1.19s.65-1.19.86-2h0c.26-1.19.7-1.97,1.17-2.47s.99-.73,1.45-.83c.21-.05.42-.08.6-.08.55,0,1.06.16,1.51.39.44.23.83.57,1.06.91.49.65.78,1.09,1.06,1.48.29.42.52.78.94,1.32.16.21.31.39.47.6.65.83,1.12,1.45,1.66,1.87.29.21.57.36.91.47.34.1.7.16,1.12.16h191.02c.42,0,.81-.05,1.12-.16.49-.16.91-.42,1.3-.81s.78-.88,1.27-1.51c.16-.21.31-.39.47-.6.42-.52.68-.91.94-1.32.26-.39.57-.86,1.06-1.48.26-.34.62-.68,1.06-.91.44-.23.96-.39,1.51-.39.21,0,.39.03.6.08.47.1.99.34,1.45.83s.91,1.27,1.17,2.47h0c.18.81.47,1.45.86,2,.29.39.65.73,1.06.96.65.39,1.45.62,2.44.75.99.13,2.21.18,3.64.18.49,0,1.01,0,1.56-.03h2.52l.16-.16v-2.55c0-.55.03-1.06.03-1.56,0-2.57-.16-4.36-.73-5.64-.31-.62-.73-1.14-1.25-1.53ZM244.24,140.55c0,.49,0,1.01-.03,1.56v2.36h-2.36c-.55,0-1.06.03-1.56.03-2.55,0-4.31-.16-5.51-.7-.6-.26-1.04-.62-1.4-1.09s-.62-1.09-.78-1.87c-.26-1.25-.73-2.05-1.25-2.62-.52-.55-1.12-.81-1.61-.91-.23-.05-.44-.08-.68-.08-.6,0-1.17.18-1.66.44s-.88.62-1.17.99c-.49.65-.81,1.12-1.06,1.51-.29.42-.52.78-.94,1.3-.16.21-.31.42-.47.6-.62.83-1.12,1.43-1.61,1.79-.26.18-.49.31-.81.42-.29.08-.62.13-1.04.13H29.3c-.39,0-.73-.05-1.04-.13-.44-.13-.81-.36-1.17-.73-.36-.36-.75-.86-1.22-1.48-.16-.21-.31-.39-.47-.6-.42-.52-.65-.88-.94-1.3-.26-.39-.57-.86-1.06-1.51-.29-.36-.68-.73-1.17-.99s-1.06-.44-1.66-.44c-.21,0-.44.03-.68.08-.49.1-1.09.36-1.61.91s-.99,1.38-1.25,2.62h0c-.18.78-.44,1.4-.78,1.87-.26.36-.6.65-.99.88-.6.36-1.35.57-2.34.73-.96.13-2.16.18-3.58.18-.49,0-1.01,0-1.56-.03h-2.36v-2.36c0-.55-.03-1.06-.03-1.56,0-2.55.16-4.31.7-5.51.26-.6.62-1.04,1.09-1.4.49-.36,1.09-.62,1.87-.78,1.25-.26,2.08-.73,2.62-1.25s.81-1.12.91-1.61c.05-.23.08-.44.08-.68,0-.6-.18-1.17-.44-1.66s-.62-.88-.99-1.17c-.65-.49-1.12-.81-1.51-1.06-.42-.29-.78-.52-1.3-.94-.21-.16-.42-.31-.6-.47-.83-.62-1.43-1.12-1.79-1.61-.18-.26-.31-.49-.42-.81-.08-.29-.13-.62-.13-1.04V29.35c0-.39.05-.73.13-1.04.13-.44.36-.81.73-1.17s.86-.75,1.48-1.22c.21-.16.39-.31.6-.47.52-.42.88-.65,1.3-.94.39-.26.86-.57,1.51-1.06.36-.29.73-.68.99-1.17s.44-1.06.44-1.66c0-.21-.03-.44-.08-.68-.1-.49-.36-1.09-.91-1.61s-1.38-.99-2.62-1.25c-.78-.18-1.38-.44-1.87-.78-.36-.26-.65-.6-.88-.99-.36-.6-.57-1.35-.73-2.34-.13-.96-.18-2.16-.18-3.58,0-.49,0-1.01.03-1.56v-2.36h2.36c.55,0,1.06-.03,1.56-.03,2.55,0,4.31.16,5.51.7.6.26,1.04.62,1.4,1.09.36.49.62,1.09.78,1.87.26,1.25.73,2.05,1.25,2.6s1.12.81,1.61.91c.23.05.44.08.68.08.6,0,1.17-.18,1.66-.44s.88-.62,1.17-.99c.49-.65.81-1.12,1.06-1.51.29-.42.52-.78.94-1.3.16-.21.31-.42.47-.6.62-.83,1.12-1.43,1.61-1.79.26-.18.49-.31.81-.42.29-.08.62-.13,1.04-.13h191.02c.39,0,.73.05,1.04.13.44.13.81.36,1.17.73s.75.86,1.22,1.48c.16.21.31.39.47.6.42.52.65.88.94,1.3.26.39.57.86,1.06,1.51.29.36.68.73,1.17.99s1.06.44,1.66.44c.21,0,.44-.03.68-.08.49-.1,1.09-.36,1.61-.91s.99-1.38,1.25-2.62c.18-.78.44-1.38.78-1.87.26-.36.6-.65.99-.88.6-.36,1.35-.57,2.34-.73.96-.13,2.16-.18,3.58-.18.49,0,1.01,0,1.56.03h2.36v2.36c0,.55.03,1.06.03,1.56,0,2.55-.16,4.31-.7,5.51-.26.6-.62,1.04-1.09,1.4-.49.36-1.09.62-1.87.78-1.25.26-2.08.73-2.62,1.25s-.81,1.12-.91,1.61c-.05.23-.08.44-.08.68,0,.6.18,1.17.44,1.66s.62.88.99,1.17c.65.49,1.12.81,1.51,1.06.42.29.78.52,1.3.94.21.16.42.31.6.47.83.62,1.43,1.12,1.79,1.61.18.26.31.49.42.81.08.29.13.62.13,1.04v91.25c0,.39-.05.73-.13,1.04-.13.44-.36.81-.73,1.17-.36.36-.86.75-1.48,1.22-.21.16-.39.31-.6.47-.52.42-.88.65-1.3.94-.39.26-.86.57-1.51,1.06-.39.29-.73.68-.99,1.17s-.44,1.06-.44,1.66c0,.21.03.44.08.68.1.49.36,1.09.91,1.61s1.38.99,2.62,1.25c.78.18,1.38.44,1.87.78.36.26.65.6.88.99.36.6.57,1.35.73,2.34.13.96.18,2.16.18,3.58Z"/>
      <path class="cls-1" d="M246.5,136.94c-.1-.78-.26-1.53-.49-2.21-.36-1.04-.88-1.95-1.69-2.68s-1.87-1.25-3.19-1.56h0c-.75-.16-1.19-.39-1.43-.6-.1-.1-.18-.21-.21-.29-.05-.08-.05-.18-.05-.26,0-.16.05-.36.16-.52.05-.08.1-.16.16-.23.05-.05.1-.1.16-.13.65-.47,1.06-.75,1.48-1.04.42-.29.81-.55,1.38-.99.47-.36.91-.7,1.38-1.06.68-.55,1.3-1.12,1.77-1.87.47-.75.75-1.69.75-2.86V29.4c0-.78-.13-1.45-.34-2.05-.34-.88-.88-1.56-1.51-2.16-.62-.57-1.32-1.06-2.03-1.61-.57-.44-.96-.7-1.38-.99-.42-.29-.83-.57-1.48-1.04-.03-.03-.08-.08-.16-.13-.08-.1-.16-.23-.23-.36-.05-.13-.1-.26-.1-.39,0-.1.03-.18.05-.26.05-.13.18-.29.44-.44s.65-.31,1.19-.44h0c1.19-.29,2.16-.73,2.94-1.32.57-.44,1.04-.99,1.38-1.61.55-.91.86-1.97,1.01-3.12.18-1.17.23-2.44.23-3.79,0-1.84-.1-3.87-.1-6v-.55h-.49c-2.13,0-4.13-.1-6-.1-1.19,0-2.34.05-3.4.18-.78.1-1.53.26-2.21.49-1.04.36-1.95.88-2.68,1.69s-1.25,1.87-1.56,3.19h0c-.16.75-.39,1.19-.6,1.43-.1.1-.21.18-.29.21-.08.05-.18.05-.26.05-.16,0-.36-.05-.52-.16-.08-.05-.16-.1-.23-.16-.05-.05-.1-.1-.13-.16-.47-.65-.75-1.06-1.04-1.48-.29-.42-.55-.81-.99-1.38-.36-.47-.7-.91-1.06-1.38-.55-.68-1.12-1.3-1.9-1.77-.75-.47-1.69-.75-2.86-.75H29.35c-.78,0-1.45.13-2.05.34-.88.34-1.56.88-2.16,1.51-.57.62-1.06,1.32-1.61,2.03-.44.57-.7.96-.99,1.38-.29.42-.57.83-1.04,1.48-.03.03-.08.08-.13.16-.1.08-.23.16-.36.23-.13.05-.26.1-.39.1-.1,0-.18-.03-.26-.05-.13-.05-.29-.18-.44-.44s-.31-.65-.44-1.19h0c-.29-1.19-.73-2.16-1.32-2.94-.47-.57-.99-1.04-1.61-1.38-.91-.55-1.97-.86-3.12-1.01-1.17-.18-2.44-.23-3.79-.23-1.87.03-3.9.1-6,.1h-.49v.49c0,2.13-.1,4.13-.1,6,0,1.19.05,2.34.18,3.4.1.78.26,1.53.49,2.21.36,1.04.88,1.95,1.69,2.68s1.87,1.25,3.19,1.56h0c.75.16,1.19.39,1.43.6.1.1.18.21.21.29.05.08.05.18.05.26,0,.16-.05.36-.16.52-.05.08-.1.16-.16.23-.05.05-.1.1-.16.13-.65.47-1.06.75-1.48,1.04-.42.29-.81.55-1.38.99-.47.36-.91.7-1.38,1.06-.68.55-1.3,1.12-1.77,1.87-.47.75-.75,1.69-.75,2.86v91.25c0,.78.13,1.45.34,2.05.34.88.88,1.56,1.51,2.16.62.57,1.32,1.06,2.03,1.61.55.44.96.7,1.38.99.42.29.83.57,1.48,1.04.03.03.08.08.16.13.08.1.16.23.23.36.05.13.1.26.1.39,0,.1-.03.18-.05.26-.05.13-.18.29-.44.44s-.65.31-1.19.44h0c-1.19.29-2.16.73-2.94,1.32-.57.44-1.04.99-1.38,1.61-.55.91-.86,1.97-1.01,3.12-.18,1.17-.23,2.44-.23,3.79,0,1.84.1,3.87.1,6v.49h.49c2.13,0,4.13.1,6,.1,1.19,0,2.34-.05,3.4-.18.78-.1,1.53-.26,2.21-.49,1.04-.36,1.95-.88,2.68-1.69s1.25-1.87,1.56-3.19h0c.16-.75.39-1.19.6-1.43.1-.1.21-.18.29-.21.08-.05.18-.05.26-.05.16,0,.36.05.52.16.08.05.16.1.23.16.05.05.1.1.13.16.47.65.75,1.06,1.04,1.48.29.42.55.81.99,1.38.36.47.7.91,1.06,1.38.55.68,1.12,1.3,1.87,1.77.75.47,1.69.75,2.86.75h191.02c.78,0,1.45-.13,2.05-.34.88-.34,1.56-.88,2.16-1.51.57-.62,1.06-1.32,1.61-2.03.44-.57.7-.96.99-1.38s.57-.83,1.04-1.48c.03-.03.08-.08.13-.16.1-.08.23-.16.36-.23.13-.05.26-.1.39-.1.1,0,.18.03.26.05.13.05.29.18.44.44.16.26.31.65.44,1.19h0c.29,1.19.73,2.16,1.32,2.94.44.57.99,1.04,1.61,1.38.91.55,1.97.86,3.12,1.01,1.17.18,2.44.23,3.79.23,1.84,0,3.87-.1,6-.1h.49v-.49c0-2.13.1-4.13.1-6,.03-1.17-.03-2.29-.16-3.35ZM236.81,145.77c-.75-.1-1.43-.23-2.03-.44-.91-.31-1.66-.78-2.26-1.43-.6-.68-1.06-1.56-1.35-2.78-.18-.86-.47-1.45-.83-1.87-.18-.21-.39-.36-.62-.47-.23-.1-.44-.13-.68-.13-.39,0-.73.13-1.01.29-.13.08-.26.18-.36.26-.1.1-.21.18-.29.29-.49.65-.78,1.09-1.06,1.51s-.52.78-.96,1.32c-.36.47-.7.94-1.04,1.35-.52.62-1.01,1.17-1.64,1.53-.62.36-1.35.6-2.36.6H29.3c-.68,0-1.22-.1-1.69-.29-.7-.26-1.25-.7-1.77-1.27s-1.01-1.25-1.56-1.95c-.42-.55-.68-.91-.96-1.32s-.57-.86-1.06-1.51c-.08-.1-.18-.21-.29-.29-.16-.13-.36-.29-.6-.39s-.49-.18-.78-.18c-.21,0-.44.05-.68.13-.34.16-.62.42-.88.81-.23.39-.42.88-.57,1.51-.26,1.09-.65,1.9-1.14,2.55-.39.47-.83.86-1.32,1.14-.78.44-1.71.73-2.78.91-1.09.16-2.31.21-3.64.21-1.69,0-3.53-.08-5.51-.08,0-1.97-.1-3.82-.1-5.51,0-1.19.05-2.29.16-3.27.1-.75.23-1.43.44-2.03.31-.91.78-1.66,1.43-2.26.68-.6,1.56-1.06,2.78-1.35h0c.86-.18,1.45-.47,1.87-.83.21-.18.36-.39.47-.62.1-.23.13-.44.13-.68,0-.39-.13-.73-.29-1.01-.08-.13-.18-.26-.26-.36-.1-.1-.18-.21-.29-.29-.65-.49-1.09-.78-1.51-1.06s-.78-.52-1.32-.96c-.47-.36-.94-.7-1.35-1.04-.62-.52-1.17-1.01-1.53-1.64s-.6-1.35-.6-2.36V29.25c0-.68.1-1.22.29-1.69.26-.7.7-1.25,1.27-1.77.57-.52,1.25-1.01,1.95-1.56.55-.42.91-.68,1.32-.96s.86-.57,1.51-1.06c.1-.08.21-.18.29-.29.13-.16.29-.36.39-.6s.18-.49.18-.78c0-.21-.05-.44-.13-.68-.16-.34-.42-.62-.81-.88-.39-.23-.88-.44-1.51-.57-1.09-.26-1.9-.65-2.55-1.14-.47-.39-.86-.83-1.14-1.32-.44-.78-.73-1.71-.91-2.78-.16-1.09-.21-2.31-.21-3.64,0-1.69.08-3.53.1-5.51,1.97,0,3.82-.1,5.51-.1,1.19,0,2.29.05,3.27.16.75.1,1.43.23,2.03.44.91.31,1.66.78,2.26,1.43.6.68,1.06,1.56,1.35,2.78h0c.18.86.47,1.45.83,1.87.18.21.39.36.62.47.23.1.44.13.68.13.39,0,.73-.13,1.01-.29.13-.08.26-.18.36-.26.1-.1.21-.18.29-.29.49-.65.78-1.09,1.06-1.51s.52-.78.96-1.32c.36-.47.7-.94,1.04-1.35.52-.62,1.01-1.17,1.64-1.53s1.35-.6,2.36-.6h191.02c.68,0,1.22.1,1.69.29.7.26,1.25.7,1.77,1.27.52.57,1.01,1.25,1.56,1.95.42.55.68.91.96,1.32.29.42.57.86,1.06,1.51.08.1.18.21.29.29.16.13.36.29.6.39.23.1.49.18.78.18.21,0,.44-.05.68-.13.34-.16.62-.42.88-.81.23-.39.42-.88.57-1.51.26-1.09.65-1.9,1.14-2.55.39-.47.83-.86,1.32-1.14.78-.44,1.71-.73,2.78-.91,1.09-.16,2.31-.21,3.64-.21,1.69,0,3.53.08,5.51.1,0,1.97.08,3.82.08,5.51,0,1.19-.05,2.29-.16,3.27-.1.75-.23,1.43-.44,2.03-.31.91-.78,1.66-1.43,2.26-.68.6-1.56,1.06-2.78,1.35-.86.18-1.45.47-1.87.83-.21.18-.36.39-.47.62-.1.21-.13.44-.13.68,0,.39.13.73.29,1.01.08.13.18.26.26.36.1.1.18.21.29.29.65.49,1.09.78,1.51,1.06s.78.52,1.32.96c.47.36.94.7,1.35,1.04.62.52,1.17,1.01,1.53,1.64s.6,1.35.6,2.36v91.25c0,.68-.1,1.22-.29,1.69-.26.7-.7,1.25-1.27,1.77s-1.25,1.01-1.95,1.56c-.55.42-.91.68-1.32.96s-.86.57-1.51,1.06c-.1.08-.21.18-.29.29-.13.16-.29.36-.39.6s-.18.49-.18.78c0,.21.05.44.13.68.16.34.42.62.81.88.39.23.88.42,1.51.57,1.09.26,1.9.65,2.55,1.14.47.39.86.83,1.14,1.32.44.78.73,1.71.91,2.78.16,1.09.21,2.31.21,3.64,0,1.69-.08,3.53-.08,5.51-1.97,0-3.82.1-5.51.1-1.17,0-2.26-.05-3.27-.18Z"/>
      <polygon class="cls-1" points="235.41 134.03 235.35 134.16 235.41 134.26 235.51 134.31 235.64 134.26 235.67 134.16 235.64 134.03 235.51 133.97 235.41 134.03"/>
      <path class="cls-1" d="M234.57,133.19c-.08.05-.08.16-.03.23h0c.05.08.16.08.23.03.08-.05.08-.16.03-.23-.05-.08-.16-.1-.23-.03Z"/>
      <path class="cls-1" d="M233.38,131.14c-.08.03-.1.13-.08.21.03.08.13.13.21.08.08-.03.1-.13.08-.21-.03-.08-.13-.1-.21-.08Z"/>
      <path class="cls-1" d="M233.93,132.21c-.08.05-.1.16-.05.23s.16.1.23.05c.08-.05.1-.16.05-.23-.05-.08-.16-.1-.23-.05Z"/>
      <path class="cls-1" d="M233.07,130.34c.08-.03.13-.1.1-.21-.03-.08-.1-.13-.21-.1-.08.03-.13.1-.1.21.05.08.13.13.21.1Z"/>
      <path class="cls-1" d="M232.68,129.01c0,.08.08.16.16.16s.16-.08.16-.16-.08-.16-.16-.16c-.1,0-.16.08-.16.16Z"/>
      <polygon class="cls-1" points="233.12 127.97 233.15 127.84 233.12 127.74 232.99 127.69 232.89 127.74 232.83 127.84 232.89 127.97 232.99 128.03 233.12 127.97"/>
      <path class="cls-1" d="M237.74,124.13c-.81-.49-1.71-.49-1.87-.52-.16-.03.21-.21.6-.1.81.13,1.09-.6.16-.6s-2.81,1.14-2.94,1.77c1.14-.7,2.29-.36,3.35.34.88.6,1.51-.39.7-.88Z"/>
      <path class="cls-1" d="M236.26,132c.49.42.88-.26.42-.73-.47-.47-.68-1.14-.6-1.82,0,0-1.48,1.79-1.4,2.42.08.68.73.65.81-.03.05-.44.26-.81.26-.81,0,0,.03.52.52.96Z"/>
      <path class="cls-1" d="M241.85,138.91c-.55-.83-1.45-.68-1.82-.47.16-.91-.91-1.53-.91-.91s-.23.99-.23.99l-1.77-1.77s.47-.81.55-1.3c.1-.96,1.14-.86,1.25-.18.26,1.48,1.71.99,1.64-.1-.03-.57-.62-1.3-2.44-1.06-.39-.83-1.53-1.06-1.22,0,.08,1.3-.91,1.53-1.38,1.06l-1.22-1.22c-2.36-2.36-3.14-5.74-1.48-7.74,1.71-2.05,4.23-.18,3.3,1.19-.68,1.14-1.51.1-1.48-.57.03-.73-.86-.49-.94-.1-.05.39.44,1.58,1.3,1.64.86.05,1.61-.55,1.61-1.58.03-1.25-1.43-2.42-3.04-1.66-1.58.75-3.82,4.96.03,8.78-3.84-3.84-8.03-1.61-8.78-.03-.75,1.61.39,3.06,1.66,3.04,1.04-.03,1.64-.75,1.58-1.61s-1.25-1.35-1.64-1.3-.62.96.1.94c.7-.03,1.71.81.57,1.48-1.38.91-3.25-1.61-1.19-3.3,2-1.66,5.38-.88,7.74,1.48l1.22,1.22c.47.47.23,1.45-1.06,1.38-1.06-.31-.83.83,0,1.22-.23,1.82.49,2.42,1.06,2.44,1.09.08,1.61-1.38.1-1.64-.68-.13-.75-1.14.18-1.25.47-.05,1.3-.55,1.3-.55l1.77,1.77s-.39.23-.99.23,0,1.06.91.91c-.23.39-.39,1.3.47,1.82.47-.31.68-.83.68-.83,0,0,.23.75.62.55.39-.23.31-.55.31-.55,0,0,.62.78,1.53.78,0-.91-.78-1.53-.78-1.53,0,0,.31.08.55-.31.23-.39-.55-.6-.55-.6,0,0,.6-.31.88-.75Z"/>
      <polygon class="cls-1" points="234.03 135.87 234.06 135.77 234.03 135.64 233.9 135.58 233.8 135.64 233.74 135.77 233.8 135.87 233.9 135.92 234.03 135.87"/>
      <path class="cls-1" d="M230.11,133.32c.03-.08-.03-.18-.1-.21-.08-.03-.18.03-.21.1-.03.08.03.18.1.21.08.03.18-.03.21-.1Z"/>
      <path class="cls-1" d="M228.78,132.91c-.08,0-.16.08-.16.16s.08.16.16.16.16-.08.16-.16-.05-.16-.16-.16Z"/>
      <path class="cls-1" d="M232.19,134.1c-.08-.05-.18-.03-.23.05s-.03.18.05.23.18.03.23-.05c.05-.08.03-.18-.05-.23Z"/>
      <path class="cls-1" d="M233.17,134.81h0c-.08-.05-.18-.05-.23.03s-.05.18.03.23.18.05.23-.03c.05-.08.05-.18-.03-.23Z"/>
      <path class="cls-1" d="M231.2,133.77c.03-.08,0-.18-.08-.21s-.18,0-.21.08,0,.18.08.21.18,0,.21-.08Z"/>
      <polygon class="cls-1" points="227.51 133.12 227.46 133.25 227.51 133.35 227.61 133.4 227.72 133.35 227.77 133.25 227.72 133.12 227.61 133.06 227.51 133.12"/>
      <path class="cls-1" d="M224.45,133.92c-.62.13-1.77,2-1.77,2.94s.7.65.6-.16c-.13-.36.05-.73.1-.6.03.16.03,1.06.52,1.87.49.81,1.48.18.88-.7-.7-1.06-1.04-2.21-.34-3.35Z"/>
      <path class="cls-1" d="M231.59,134.88c-.6-.08-2.39,1.4-2.39,1.4.68-.08,1.38.16,1.82.6.47.47,1.14.08.73-.42-.42-.49-.99-.55-.99-.55,0,0,.36-.21.81-.26.68-.05.73-.7.03-.78Z"/>
      <path class="cls-1" d="M222.91,134.16c.6-.88,1.45-1.66,3.71-2.52,2.23-.86,4.62-.1,4.62-.1,0,0-.75-2.42.1-4.62.86-2.26,1.64-3.12,2.52-3.71,1.14-.78.05-1.53-.75-.86-.81.68-1.19,2.05-1.4,2.55-.18.44-.83.88-.26-1.06.29-.94-1.14-.91-.91.62.18,1.3.49,1.4.29,2.23-.34,1.22-.55,2.23-.52,2.83-.18-1.45-.47-2.68-1.84-2.08-.86.39-1.27.1-1.27.1,0,0,.29.42-.1,1.27-.6,1.35.65,1.66,2.08,1.84-.6-.03-1.61.18-2.83.52-.81.21-.94-.1-2.23-.29-1.53-.23-1.56,1.19-.62.91,1.95-.57,1.51.08,1.06.26-.49.21-1.87.6-2.55,1.4-.62.75.16,1.84.91.7ZM228.24,129.71c-.08-.23.16-.31.16-.31,0,0-.39,0-.49-.34l.26-.18s-.16-.23-.08-.55c.29-.08.55.08.55.08l.18-.26c.34.1.34.49.34.49,0,0,.08-.23.31-.16.36.23.39,1.12.34,1.56-.44.03-1.32,0-1.56-.34Z"/>
      <path class="cls-1" d="M241.61,136.94c.16-.16.16-.39,0-.55s-.39-.16-.55,0-.16.39,0,.55c.16.16.39.16.55,0Z"/>
      <path class="cls-1" d="M236.16,141.32c-.16.16-.16.39,0,.55s.39.16.55,0,.16-.39,0-.55-.39-.16-.55,0Z"/>
      <path class="cls-1" d="M242.24,142.49c-.16.16-.16.39,0,.55s.39.16.55,0,.16-.39,0-.55-.39-.16-.55,0Z"/>
      <path class="cls-1" d="M32.73,141.77c-.44.52-2.31,1.19-2.91,1.06.96-.03,1.66-1.53,1.27-2.44-.42-.94-1.45-1.45-2.26-.86-.91.68-.55,1.64.08,1.97s1.43.03,1.38-.52-.57-.34-.86-.18c-.29.16-.99-.23-.31-.88.65-.65,2.16.16,1.77,1.45s-2.21,1.25-2.73,1.09c-.52-.13-.86-.03-.62.1.21.13.99.39,2.39.6,3.56.55,5.04-1.17,4.52-1.82-.6-.6-1.27-.1-1.71.42Z"/>
      <path class="cls-1" d="M9.53,118.88c-.88-.42-2.39.29-2.44,1.27-.1-.6.55-2.47,1.06-2.91s1.01-1.12.36-1.66-2.36.94-1.82,4.52c.21,1.4.47,2.18.6,2.39.13.21.26-.1.1-.62-.13-.52-.21-2.34,1.09-2.73s2.1,1.09,1.45,1.77c-.65.65-1.04-.03-.88-.31s.36-.81-.18-.86c-.55-.05-.88.75-.52,1.38.34.62,1.32.96,1.97.08.65-.86.16-1.87-.81-2.31Z"/>
      <polygon class="cls-1" points="15.69 135.64 15.66 135.77 15.69 135.87 15.82 135.92 15.92 135.87 15.97 135.77 15.92 135.64 15.82 135.58 15.69 135.64"/>
      <path class="cls-1" d="M16.55,134.81h0c-.08.05-.08.16-.03.23.05.08.16.08.23.03s.08-.16.03-.23c-.05-.08-.16-.1-.23-.03Z"/>
      <path class="cls-1" d="M18.73,133.84c.08-.03.1-.13.08-.21s-.13-.1-.21-.08c-.08.03-.13.13-.08.21.03.08.13.1.21.08Z"/>
      <path class="cls-1" d="M17.71,134.39h0c.08-.05.1-.16.05-.23-.05-.08-.16-.1-.23-.05s-.1.16-.05.23.16.1.23.05Z"/>
      <path class="cls-1" d="M19.82,133.43c.08-.03.13-.1.1-.21-.03-.08-.1-.13-.21-.1-.08.03-.13.1-.1.21.03.08.13.13.21.1Z"/>
      <path class="cls-1" d="M20.94,132.91c-.08,0-.16.08-.16.16s.08.16.16.16.16-.08.16-.16-.08-.16-.16-.16Z"/>
      <polygon class="cls-1" points="22.1 133.4 22.23 133.35 22.26 133.25 22.23 133.12 22.1 133.06 22 133.12 21.95 133.25 22 133.35 22.1 133.4"/>
      <path class="cls-1" d="M25.27,133.92c.7,1.14.36,2.29-.34,3.35-.57.88.39,1.51.88.7s.49-1.71.52-1.87c.03-.16.21.21.1.6-.13.81.6,1.06.6.16,0-.94-1.14-2.81-1.77-2.94Z"/>
      <path class="cls-1" d="M18.13,134.88c-.68.08-.65.73.03.81.44.05.81.26.81.26,0,0-.57.03-.99.55-.42.49.26.88.73.42.47-.47,1.14-.68,1.82-.6,0,0-1.79-1.48-2.39-1.43Z"/>
      <path class="cls-1" d="M24.86,133.87c-.75-1.58-4.96-3.82-8.78.03,3.84-3.84,1.61-8.03.03-8.78-1.61-.75-3.06.39-3.04,1.66.03,1.04.75,1.64,1.61,1.58.86-.05,1.35-1.25,1.3-1.64s-.96-.62-.94.1c.03.7-.81,1.71-1.48.57-.91-1.38,1.61-3.25,3.3-1.19,1.66,2,.88,5.38-1.48,7.74,0,0-.75.75-1.22,1.22s-1.45.23-1.38-1.06c.31-1.06-.83-.83-1.22,0-1.82-.23-2.42.49-2.44,1.06-.08,1.09,1.38,1.61,1.64.1.13-.68,1.14-.75,1.25.18.05.47.55,1.3.55,1.3l-1.77,1.77s-.23-.39-.23-.99-1.06,0-.91.91c-.39-.23-1.3-.39-1.82.47.31.47.83.68.83.68,0,0-.75.23-.55.6.23.39.55.31.55.31,0,0-.78.62-.78,1.53.91,0,1.53-.78,1.53-.78,0,0-.08.31.31.55.39.23.6-.55.6-.55,0,0,.23.55.68.83.83-.55.68-1.45.47-1.82.91.16,1.53-.91.91-.91s-.99-.23-.99-.23l1.77-1.77s.81.47,1.3.55c.96.1.86,1.14.18,1.25-1.48.26-.99,1.71.1,1.64.57-.03,1.3-.62,1.06-2.44.83-.39,1.06-1.53,0-1.22-1.3.08-1.53-.91-1.06-1.38.47-.47,1.22-1.22,1.22-1.22,2.36-2.36,5.74-3.14,7.74-1.48,2.05,1.71.18,4.23-1.19,3.3-1.14-.68-.1-1.51.57-1.48.73.03.52-.86.1-.94-.39-.05-1.58.44-1.64,1.3-.05.86.55,1.61,1.58,1.61,1.35.08,2.52-1.38,1.74-2.96Z"/>
      <polygon class="cls-1" points="14.08 134.03 14.05 134.16 14.08 134.26 14.21 134.31 14.31 134.26 14.36 134.16 14.31 134.03 14.21 133.97 14.08 134.03"/>
      <path class="cls-1" d="M16.52,130.13h0c-.03.08.03.18.1.21.08.03.18-.03.21-.1.03-.08-.03-.18-.1-.21-.08-.03-.18.03-.21.1Z"/>
      <path class="cls-1" d="M16.73,129.01c0,.08.08.16.16.16s.16-.08.16-.16-.08-.16-.16-.16-.16.08-.16.16Z"/>
      <path class="cls-1" d="M15.84,132.42c.05-.08.03-.18-.05-.23-.08-.05-.18-.03-.23.05-.05.08-.03.18.05.23.1.05.18.03.23-.05Z"/>
      <path class="cls-1" d="M14.94,133.43c.08.05.18.05.23-.03s.05-.18-.03-.23-.18-.05-.23.03c-.05.08-.05.18.03.23Z"/>
      <path class="cls-1" d="M16.42,131.35c.03-.08,0-.18-.08-.21-.08-.03-.18,0-.21.08-.03.08,0,.18.08.21.08.05.18.03.21-.08Z"/>
      <polygon class="cls-1" points="16.73 127.69 16.6 127.74 16.57 127.84 16.6 127.97 16.73 128.03 16.83 127.97 16.88 127.84 16.83 127.74 16.73 127.69"/>
      <path class="cls-1" d="M16.03,124.68c-.13-.62-2-1.77-2.94-1.77s-.65.7.16.6c.36-.13.73.05.6.1-.16.03-1.06.03-1.87.52-.81.49-.18,1.48.7.88,1.09-.7,2.21-1.04,3.35-.34Z"/>
      <path class="cls-1" d="M13.45,132c.49-.42.55-.99.55-.99,0,0,.21.36.26.81.08.68.73.73.81.03.08-.6-1.4-2.42-1.4-2.42.08.68-.16,1.38-.6,1.82-.49.47-.1,1.17.39.75Z"/>
      <path class="cls-1" d="M27.66,133.4c-.68-.81-2.05-1.19-2.55-1.4-.44-.18-.88-.83,1.06-.26.94.29.91-1.14-.62-.91-1.3.18-1.4.49-2.23.29-1.22-.34-2.23-.55-2.83-.52,1.45-.18,2.68-.47,2.08-1.84-.39-.86-.1-1.27-.1-1.27,0,0-.42.29-1.27-.1-1.35-.6-1.66.65-1.84,2.08.03-.6-.18-1.61-.52-2.83-.21-.81.1-.94.29-2.23.23-1.53-1.19-1.56-.91-.62.57,1.95-.08,1.51-.26,1.06-.21-.49-.6-1.87-1.4-2.55-.81-.68-1.9.08-.75.86.88.6,1.66,1.48,2.52,3.71.86,2.23.1,4.62.1,4.62,0,0,2.42-.75,4.62.1,2.26.86,3.12,1.64,3.71,2.52.81,1.19,1.58.1.91-.7ZM19.92,130.05c-.05-.44-.03-1.32.34-1.56.23-.08.31.16.31.16,0,0,0-.39.34-.49l.18.26s.23-.16.55-.08c.08.29-.08.55-.08.55l.26.18c-.1.34-.49.34-.49.34,0,0,.23.08.16.31-.23.34-1.12.36-1.56.34Z"/>
      <path class="cls-1" d="M13.01,141.32c-.16.16-.16.39,0,.55s.39.16.55,0,.16-.39,0-.55-.39-.16-.55,0Z"/>
      <path class="cls-1" d="M8.65,136.94c.16-.16.16-.39,0-.55s-.39-.16-.55,0-.16.39,0,.55c.16.16.39.16.55,0Z"/>
      <path class="cls-2" d="M37.19,141.66c0-.73-.26-1.43-.73-2.03-.7-.83-1.64-1.27-2.65-1.27-.23,0-.47.03-.75.08-.81-1.12-2.03-1.82-3.32-1.87,0-.08-.03-.13-.03-.21.26-.26.47-.55.62-.88.57-1.25.34-2.75-.6-3.87-.08-.08-.13-.16-.21-.23,0-.99-.47-1.92-1.27-2.55-.65-.49-1.48-.78-2.36-.78-.21,0-.42.03-.65.05-.03-.08-.05-.13-.08-.21.13-.83-.13-1.71-.75-2.34-.52-.52-1.22-.81-1.92-.81-.16,0-.29,0-.44.03-.08-.03-.13-.05-.21-.08.16-1.22-.13-2.34-.83-3.14-.62-.73-1.51-1.14-2.44-1.14-.08-.08-.16-.13-.23-.21-.7-.6-1.56-.91-2.44-.91s-1.74.34-2.34.94c-.08,0-.13-.03-.18-.03,0-.29-.05-.57-.13-.86-.26-.99-.88-1.87-1.74-2.49.05-.29.08-.55.08-.78,0-1.01-.47-1.95-1.27-2.65-.57-.47-1.27-.73-2.03-.73V37.19c.73,0,1.45-.26,2.03-.73.81-.68,1.27-1.61,1.27-2.65,0-.23-.03-.49-.08-.78.86-.62,1.48-1.51,1.74-2.49.08-.29.1-.57.13-.86.05,0,.13,0,.18-.03.6.57,1.43.94,2.34.94s1.74-.34,2.44-.91c.08-.08.16-.13.23-.21.94,0,1.82-.42,2.44-1.14.7-.83,1.01-1.95.83-3.14.08-.03.13-.05.21-.08.13.03.29.03.44.03.7,0,1.4-.26,1.92-.81.62-.62.88-1.51.75-2.34.03-.08.05-.13.08-.21.21.03.44.05.65.05.91,0,1.71-.26,2.36-.78.81-.62,1.27-1.56,1.27-2.55.08-.08.13-.16.21-.21.94-1.09,1.19-2.62.6-3.87-.16-.34-.36-.65-.62-.88,0-.08.03-.13.03-.21,1.3-.05,2.52-.75,3.32-1.87.29.05.52.08.75.08,1.04,0,1.97-.44,2.65-1.27.49-.57.73-1.27.73-2.03h175.33c0,.73.26,1.43.73,2.03.7.83,1.64,1.27,2.65,1.27.23,0,.47-.03.75-.08.81,1.12,2.03,1.82,3.32,1.87,0,.08.03.13.03.21-.26.26-.47.55-.62.88-.57,1.25-.34,2.75.6,3.87.08.08.13.16.21.23,0,.99.47,1.92,1.27,2.55.65.49,1.48.78,2.36.78.21,0,.42-.03.65-.05.03.08.05.13.08.21-.13.83.13,1.71.75,2.34.52.52,1.22.81,1.92.81.16,0,.29,0,.44-.03.08.03.13.05.21.08-.16,1.22.13,2.34.83,3.14.62.73,1.51,1.14,2.44,1.14.08.08.16.13.23.21.7.6,1.56.91,2.44.91s1.74-.34,2.34-.94c.08,0,.13.03.18.03,0,.29.05.57.13.86.26.99.88,1.87,1.74,2.49-.05.29-.08.55-.08.78,0,1.01.47,1.95,1.27,2.65.57.47,1.27.73,2.03.73v75.53c-.73,0-1.45.26-2.03.73-.83.68-1.27,1.61-1.27,2.65,0,.23.03.49.08.78-.86.62-1.48,1.51-1.74,2.49-.08.29-.1.57-.13.86-.05,0-.13,0-.18.03-.6-.57-1.43-.94-2.34-.94s-1.74.34-2.44.91c-.08.08-.16.13-.23.21-.94,0-1.82.42-2.44,1.14-.7.83-1.01,1.95-.83,3.14-.08.03-.13.05-.21.08-.16-.03-.29-.03-.44-.03-.7,0-1.4.26-1.92.81-.62.62-.88,1.51-.75,2.34-.03.08-.05.13-.08.21-.21-.03-.44-.05-.65-.05-.91,0-1.71.26-2.36.78-.81.62-1.27,1.56-1.27,2.55-.08.08-.13.16-.21.21-.94,1.09-1.19,2.62-.62,3.87.16.34.36.65.62.88,0,.08-.03.13-.03.21-1.3.05-2.52.75-3.32,1.87-.29-.05-.52-.08-.75-.08-1.04,0-1.97.44-2.68,1.27-.49.57-.73,1.27-.73,2.03l-175.28-.03Z"/>
      <path class="cls-1" d="M37.19,141.66h.34c0-.81-.29-1.58-.81-2.23-.75-.88-1.79-1.4-2.91-1.4-.23,0-.52.03-.83.08l.08.34.29-.21c-.86-1.19-2.18-1.95-3.58-2l-.03.34.34-.03c0-.08-.03-.16-.03-.21l-.34.05.23.23c.26-.29.49-.6.68-.99.23-.49.34-1.04.34-1.56,0-.94-.34-1.9-.99-2.65-.08-.08-.13-.16-.21-.23l-.23.23h.34c0-1.09-.52-2.13-1.4-2.83-.73-.55-1.61-.83-2.57-.83-.23,0-.47.03-.68.05l.05.34.31-.1c-.03-.08-.05-.16-.08-.23l-.31.13.34.05c.03-.16.03-.31.03-.49,0-.78-.31-1.56-.88-2.16-.6-.6-1.38-.88-2.16-.88-.16,0-.31,0-.49.03l.05.34.13-.31c-.08-.03-.16-.05-.23-.08l-.1.31.34.05c.03-.23.05-.47.05-.68,0-1.04-.34-2-.96-2.73-.68-.81-1.66-1.25-2.7-1.25v.34l.23-.23c-.08-.08-.16-.16-.23-.21-.75-.65-1.69-1.01-2.65-1.01s-1.9.39-2.57,1.01l.23.23.05-.34c-.08,0-.13-.03-.21-.03l-.03.34.34-.03c0-.31-.05-.62-.13-.91-.29-1.06-.96-2-1.87-2.68l-.21.29.34.08c.08-.31.08-.57.08-.83v-.05h-.29l.29.05v-.05h-.29l.29.05v-.05c0-1.12-.52-2.16-1.4-2.91-.62-.52-1.4-.81-2.23-.81v.34h.34V37.19h-.34v.34c.81,0,1.61-.29,2.23-.81.88-.75,1.4-1.77,1.4-2.91h0v-.03h-.05.05-.05.05c0-.23-.03-.52-.08-.83l-.34.08.21.29c.91-.68,1.58-1.61,1.87-2.68.08-.31.13-.62.13-.91h-.34l.03.34c.08,0,.13-.03.21-.03l-.05-.34-.23.23c.65.65,1.58,1.01,2.57,1.01s1.9-.36,2.65-1.01c.08-.08.16-.13.23-.21l-.23-.23v.34c1.04,0,2-.47,2.7-1.25.65-.73.96-1.69.96-2.73,0-.23-.03-.44-.05-.68l-.39.03.1.31c.08-.03.16-.05.23-.08l-.13-.31-.05.34c.16.03.31.03.49.03.78,0,1.56-.31,2.16-.88.6-.6.88-1.38.88-2.16,0-.16,0-.31-.03-.49l-.34.05.31.13c.03-.08.05-.16.08-.23l-.31-.1-.05.34c.23.03.47.05.68.05.96,0,1.87-.29,2.57-.83.88-.7,1.4-1.71,1.4-2.83h-.34l.23.23c.08-.08.16-.16.21-.23.65-.75.99-1.71.99-2.65,0-.55-.1-1.06-.34-1.56-.18-.39-.42-.7-.68-.99l-.23.23.34.05c0-.08.03-.16.03-.21l-.34-.03.03.34c1.43-.05,2.73-.81,3.58-2l-.29-.21-.08.34c.31.08.57.08.83.08,1.12,0,2.18-.49,2.91-1.4.55-.65.81-1.43.81-2.23h-.34v.34h175.33v-.34h-.34c0,.81.29,1.58.81,2.23.75.88,1.79,1.4,2.91,1.4.23,0,.52-.03.83-.08l-.08-.34-.29.21c.86,1.19,2.18,1.95,3.58,2l.03-.34-.34.03c0,.08.03.16.03.21l.34-.05-.23-.23c-.26.29-.49.6-.68.99-.23.49-.34,1.04-.34,1.56,0,.94.34,1.9.99,2.65.08.08.13.16.21.23l.23-.23h-.34c0,1.09.52,2.13,1.4,2.83.73.55,1.61.83,2.57.83.23,0,.44-.03.68-.05l-.05-.34-.31.1c.03.08.05.16.08.23l.31-.13-.34-.05c-.03.16-.05.31-.05.49,0,.78.31,1.56.88,2.16.6.6,1.38.88,2.16.88.16,0,.31,0,.49-.03l-.05-.34-.13.31c.08.03.16.05.23.08l.1-.31-.34-.05c-.03.23-.05.47-.05.68,0,1.04.34,2,.96,2.73.68.81,1.66,1.25,2.7,1.25v-.34l-.23.23c.08.08.16.16.23.21.75.65,1.69.99,2.65.99s1.9-.39,2.57-1.01l-.23-.23-.05.34c.08,0,.13.03.21.03l.03-.34h-.34c0,.31.05.62.13.91.29,1.06.96,2,1.87,2.68l.21-.29-.34-.08c-.08.31-.1.57-.08.83v.08l.34-.05h-.34c0,1.12.52,2.16,1.4,2.91.62.52,1.4.81,2.23.81v-.34h-.34v75.61h.34v-.34c-.81,0-1.61.29-2.23.81-.88.75-1.4,1.77-1.4,2.91h.34l-.34-.03v.03c0,.23.03.52.08.83l.34-.08-.21-.29c-.91.68-1.58,1.61-1.87,2.68-.08.31-.13.62-.13.91h.34l-.03-.34c-.08,0-.13.03-.21.03l.05.34.23-.23c-.65-.65-1.58-1.01-2.57-1.01s-1.9.36-2.65,1.01h0c-.08.08-.16.16-.23.21l.23.23v-.34c-1.04,0-2,.47-2.7,1.25-.65.73-.96,1.69-.96,2.73,0,.23.03.44.05.68l.34-.05-.1-.31c-.08.03-.16.05-.23.08l.13.31.05-.34c-.16-.03-.31-.05-.49-.03-.78,0-1.56.31-2.16.88-.6.6-.88,1.38-.88,2.16,0,.16,0,.31.05.49l.34-.05-.31-.13c-.03.08-.05.16-.08.23l.31.1.05-.34c-.23-.03-.47-.05-.68-.05-.96,0-1.87.29-2.57.83-.88.7-1.4,1.71-1.4,2.83h.34l-.23-.23c-.08.08-.16.16-.21.23-.65.75-1.01,1.71-1.01,2.65,0,.55.1,1.06.34,1.56.18.39.42.7.68.99l.23-.23-.34-.05c0,.08-.03.16-.03.21l.34.03-.03-.34c-1.43.05-2.73.81-3.58,2l.29.21.08-.34c-.31-.08-.57-.08-.83-.08-1.12,0-2.18.49-2.94,1.4-.55.65-.81,1.43-.81,2.23h.34v-.26H37.09l.1.34h.34-.34v.34h175.67v-.34c0-.65.23-1.3.65-1.79.62-.75,1.48-1.17,2.42-1.17.21,0,.42.03.68.08l.21.05.13-.18c.75-1.04,1.87-1.66,3.06-1.71h.31l.03-.31c0-.05,0-.13.03-.18l.03-.16-.1-.13c-.23-.23-.42-.49-.55-.81-.18-.42-.29-.83-.29-1.27,0-.78.29-1.58.83-2.21.05-.08.13-.13.18-.21l.1-.1v-.13c0-.88.42-1.71,1.14-2.29.6-.47,1.32-.7,2.16-.7.18,0,.39.03.6.05l.29.03.08-.26c.03-.05.05-.13.08-.21l.03-.08-.03-.08c-.03-.13-.03-.26-.03-.36,0-.62.23-1.22.7-1.69s1.06-.7,1.69-.7c.13,0,.26,0,.39.03l.08.03.08-.03c.08-.03.13-.05.21-.08l.26-.08-.03-.29c-.03-.21-.05-.39-.05-.6,0-.91.29-1.69.81-2.29.57-.65,1.35-1.01,2.18-1.01h.13l.1-.1c.08-.05.13-.13.21-.18h0c.62-.55,1.43-.83,2.21-.83.83,0,1.56.31,2.1.83l.13.1.16-.03c.05,0,.13-.03.18-.03l.31-.03v-.31c0-.26.05-.52.1-.78.23-.91.81-1.71,1.61-2.29l.18-.13-.05-.21c-.05-.26-.08-.47-.08-.68h-.08.08-.08.08v-.03c0-.91.42-1.77,1.17-2.39.49-.42,1.14-.65,1.79-.65h.34V36.86h-.34c-.65,0-1.3-.23-1.79-.65-.75-.62-1.14-1.45-1.17-2.39v-.05l-.26.03h.26v-.03l-.26.03h.26-.1.1-.1.1c0-.21.03-.44.08-.68l.05-.21-.18-.13c-.81-.57-1.38-1.4-1.61-2.29-.08-.26-.1-.52-.1-.78v-.31l-.31-.03c-.05,0-.1,0-.18-.03l-.16-.03-.13.1c-.55.52-1.27.83-2.1.83s-1.58-.29-2.21-.83c-.08-.05-.13-.13-.21-.18l-.1-.1h-.13c-.83,0-1.61-.36-2.18-1.01-.52-.6-.81-1.4-.81-2.29,0-.18.03-.39.05-.6l.03-.29-.26-.08c-.08-.03-.13-.05-.21-.08l-.08-.03-.08.03c-.13.03-.26.03-.39.03-.62,0-1.22-.23-1.69-.7-.47-.47-.7-1.06-.7-1.69,0-.13,0-.26.03-.39l.03-.08-.03-.08c-.03-.08-.05-.13-.08-.21l-.08-.26-.29.03c-.21.03-.42.05-.6.05-.83,0-1.58-.23-2.16-.7-.73-.57-1.14-1.4-1.14-2.29v-.13l-.1-.1c-.05-.08-.13-.13-.18-.21-.55-.65-.83-1.43-.83-2.21,0-.44.1-.88.29-1.27.13-.31.34-.57.55-.81l.1-.13-.03-.16c0-.08-.03-.13-.03-.18l-.03-.31h-.31c-1.19-.05-2.34-.68-3.06-1.71l-.13-.18-.21.05c-.26.05-.47.08-.68.08-.94,0-1.77-.42-2.39-1.17-.44-.52-.65-1.14-.65-1.79v-.34H36.86v.34c0,.65-.23,1.3-.65,1.79-.62.75-1.48,1.14-2.39,1.17-.21,0-.42-.03-.68-.08l-.21-.05-.13.18c-.75,1.04-1.87,1.66-3.06,1.71h-.31l-.03.31c0,.05,0,.13-.03.18l-.03.16.1.13c.23.23.42.49.55.81.18.42.29.83.29,1.27,0,.78-.29,1.58-.83,2.21-.05.08-.13.13-.18.21l-.1.1v.13c0,.88-.42,1.71-1.14,2.29-.6.47-1.32.7-2.16.7-.18,0-.39-.03-.6-.05l-.29-.03-.08.26c-.03.05-.05.13-.08.21l-.03.08.03.08c.03.13.03.26.03.39,0,.62-.23,1.22-.7,1.69-.47.47-1.06.7-1.69.7-.13,0-.26,0-.39-.03l-.08-.03-.08.03c-.08.03-.13.05-.21.08l-.26.08.03.29c.03.21.05.39.05.6,0,.91-.29,1.69-.81,2.29-.57.65-1.35,1.01-2.18,1.01h-.13l-.1.1c-.08.05-.13.13-.21.18-.62.55-1.43.83-2.21.83-.83,0-1.56-.31-2.1-.83l-.13-.1-.16.05c-.05,0-.13.03-.18.03l-.31.03v.31c0,.26-.05.52-.1.78-.23.91-.81,1.71-1.61,2.29l-.18.13.05.21c.05.23.08.47.08.68v.03h.03-.03.03-.03c0,.91-.42,1.77-1.17,2.39-.49.42-1.14.65-1.79.65h-.34v76.23h.34c.65,0,1.3.23,1.79.65.75.62,1.14,1.45,1.17,2.39h.34l-.34-.05v.08h.16-.16.16-.16c0,.21-.03.44-.08.68l-.05.21.18.13c.81.57,1.38,1.4,1.61,2.29.08.26.1.52.1.78v.31l.31.03c.05,0,.1,0,.18.03l.16.03.13-.1c.55-.52,1.27-.83,2.1-.83s1.58.29,2.21.83c.08.05.13.13.21.18l.1.1h.13c.83,0,1.61.36,2.18,1.01.52.6.81,1.4.81,2.29,0,.18-.03.39-.05.6l-.03.29.26.08c.08.03.13.05.21.08l.08.03.08-.03c.13-.03.26-.03.39-.03.62,0,1.22.23,1.69.7.47.47.7,1.06.7,1.69,0,.13,0,.26-.03.39l-.03.08.03.08c.03.08.05.13.08.21l.08.26.29-.03c.21-.03.42-.05.6-.05.83,0,1.58.23,2.16.7.73.57,1.14,1.4,1.14,2.29v.13l.1.1c.05.08.13.13.18.21.55.65.83,1.43.83,2.21,0,.44-.1.88-.29,1.27-.13.31-.34.57-.55.81l-.1.13.03.16c0,.08.03.13.03.18l.03.31h.31c1.19.05,2.34.68,3.06,1.71l.13.18.21-.05c.26-.05.47-.08.68-.08.94,0,1.77.42,2.39,1.17.44.52.65,1.14.65,1.79v.34h.34v-.36Z"/>
      <path class="cls-1" d="M6.94,142.49c-.16.16-.16.39,0,.55s.39.16.55,0,.16-.39,0-.55-.39-.16-.55,0Z"/>
    </g>
  </g>
</svg>