<?xml version="1.0" encoding="UTF-8"?>
<svg id="_圖層_2" data-name="圖層 2" xmlns="http://www.w3.org/2000/svg" viewBox="0 0 199.98 91.53">
  <defs>
    <style>
      .cls-1 {
        stroke-width: 3px;
      }

      .cls-1, .cls-2 {
        fill: none;
        stroke: #907c45;
        stroke-miterlimit: 10;
      }

      .cls-3 {
        fill: #927e45;
        stroke-width: 0px;
      }
    </style>
  </defs>
  <g id="_1" data-name=" 1">
    <g>
      <g>
        <g id="_1-2" data-name=" 1">
          <g>
            <path class="cls-3" d="M183.77,16.06c2.04-1.73,4.86-1.32,6.64.72,1.51,1.73.79,3.58-.45,3.47-2.56-.19-2.87-4.6-4.98-2.79-2.23,1.89-1.47,6.79.83,9.96,1.47-2.9,1.51-5.77.08-9.09.15.15.41.49.6.75.38.49.79,1.09,1.36,1.58.45,2.26.26,4.41-.6,6.52.6-.34,1.4-.41,2.04.3-1.58.53-1.92,1.85-1.28,2.72,2.94,4,3.73,7.88.83,10.41-1.17,1.02-.53,2.11.72,2.19-1.73,1.02-3.05.53-3.13-.91-1.92.53-4,0-5.36-1.58-1.4-1.62-1.21-4.11.41-5.51,1.77-1.51,3.73-1.09,4.79.15,1.02,1.21.72,2.75-.64,2.72-1.96-.11-1.66-2.34-3.17-1.02-.64.57-.64,1.96.19,2.9,1.24,1.43,3.51,1.7,5.24.23,2.45-2.11,1.81-5.17-.83-8.86-.87-1.21-3.36-2.41-4.86-1.13,0-1.58.94-2.53,2.45-1.89-2.75-3.73-4.19-8.94-.87-11.77v-.08Z"/>
            <path class="cls-3" d="M185.77,45.78c0,.68-.53,1.21-1.21,1.21s-1.21-.53-1.21-1.21.53-1.21,1.21-1.21,1.21.53,1.21,1.21M186.75,45.78c0-1.21-.98-2.19-2.19-2.19s-2.19.98-2.19,2.19h0c0,1.21.98,2.19,2.19,2.19s2.19-.98,2.19-2.19h0Z"/>
            <path class="cls-3" d="M187.61,45.1c.04.23.08.45.08.68s0,.45-.08.68c2.53.6,5.09,3.66,5.09,6.75,2.9-2.04,2.11-6.3-.79-7.43,2.9-1.13,3.7-5.39.79-7.43,0,3.09-2.56,6.15-5.09,6.75Z"/>
            <path class="cls-3" d="M181.43,45.78c0-.3.04-.6.11-.91l-2-.91-2.26,1.77,2.26,1.77,2-.91c-.08-.3-.11-.57-.11-.91v.08Z"/>
            <path class="cls-3" d="M194.1,45.78c.6.57,1.06,1.32,1.32,2.11,1.62,0,3.28-.72,4.56-2.11-1.28-1.4-2.94-2.11-4.56-2.11-.26.79-.72,1.51-1.32,2.11Z"/>
            <path class="cls-3" d="M178.83,9.19c3.02.11,4.98,1.66,6.6,4.83.34-.19.94-.26,1.36-.15-1.47-3.17-3.39-5.2-6.71-5.69-1.51-.23-2.15-1.32-1.96-2.79-1.4.75-1.58,1.92-.91,2.56-2.75-.3-5.05-1.09-5.69-2.41-.87-1.85.83-4.22,2.15-3.39.79.49.64,1.55,1.58,1.81,1.24.34,1.92-1.96.15-3.21-1.32-1.02-3.32-1.13-4.86.53-1.51,1.58-1.51,4.04.11,5.62.68.68,1.85,1.24,3.39,1.62-.68.49-.91,1.7-.41,2.83.53-1.17,2.87-2.26,5.2-2.19v.04Z"/>
            <path class="cls-3" d="M183.77,75.53c2.04,1.73,4.86,1.32,6.64-.72,1.51-1.73.79-3.58-.45-3.47-2.56.19-2.87,4.6-4.98,2.79-2.23-1.89-1.47-6.79.83-9.96,1.47,2.9,1.51,5.77.08,9.09.15-.19.41-.53.6-.75.38-.49.79-1.09,1.36-1.58.45-2.26.26-4.41-.6-6.49.6.34,1.4.38,2.04-.3-1.58-.53-1.92-1.85-1.28-2.72,2.94-4,3.73-7.88.83-10.41-1.17-1.02-.53-2.11.72-2.19-1.73-1.02-3.05-.53-3.13.91-1.92-.53-4,0-5.36,1.58-1.4,1.62-1.21,4.11.41,5.51,1.77,1.51,3.73,1.09,4.79-.15,1.02-1.21.72-2.75-.64-2.72-1.96.11-1.66,2.34-3.17,1.02-.64-.57-.64-1.96.19-2.9,1.24-1.43,3.51-1.7,5.24-.23,2.45,2.11,1.81,5.17-.83,8.86-.87,1.21-3.36,2.41-4.86,1.13,0,1.58.94,2.53,2.45,1.89-2.75,3.73-4.19,8.94-.87,11.77v.04Z"/>
            <path class="cls-3" d="M178.83,82.39c3.02-.11,4.98-1.66,6.6-4.83.34.19.94.26,1.36.15-1.47,3.17-3.39,5.2-6.71,5.69-1.51.23-2.15,1.32-1.96,2.79-1.4-.75-1.58-1.92-.91-2.56-2.75.3-5.05,1.09-5.69,2.41-.87,1.85.83,4.22,2.15,3.39.79-.49.64-1.55,1.58-1.81,1.24-.34,1.92,1.96.15,3.21-1.32.94-3.32,1.06-4.9-.57-1.51-1.55-1.51-4.04.11-5.62.68-.68,1.85-1.24,3.39-1.62-.68-.49-.91-1.7-.41-2.83.53,1.17,2.87,2.26,5.2,2.19h.04Z"/>
          </g>
        </g>
        <g id="_1-3" data-name=" 1">
          <g>
            <path class="cls-3" d="M16.22,75.5c-2.04,1.73-4.86,1.32-6.64-.72-1.51-1.73-.79-3.58.45-3.47,2.56.19,2.87,4.6,4.98,2.79,2.23-1.89,1.47-6.79-.83-9.96-1.47,2.9-1.51,5.77-.08,9.09-.15-.15-.41-.49-.6-.75-.38-.49-.79-1.09-1.36-1.58-.45-2.26-.26-4.41.6-6.52-.6.34-1.4.41-2.04-.3,1.58-.53,1.92-1.85,1.28-2.72-2.94-4-3.73-7.88-.83-10.41,1.17-1.02.53-2.11-.72-2.19,1.73-1.02,3.05-.53,3.13.91,1.92-.53,4,0,5.36,1.58,1.4,1.62,1.21,4.11-.41,5.51-1.77,1.51-3.73,1.09-4.79-.15-1.02-1.21-.72-2.75.64-2.72,1.96.11,1.66,2.34,3.17,1.02.64-.57.64-1.96-.19-2.9-1.24-1.43-3.51-1.7-5.24-.23-2.45,2.11-1.81,5.17.83,8.86.87,1.21,3.36,2.41,4.86,1.13,0,1.58-.94,2.53-2.45,1.89,2.75,3.73,4.19,8.94.87,11.77v.08Z"/>
            <path class="cls-3" d="M14.22,45.75c0-.68.53-1.21,1.21-1.21s1.21.53,1.21,1.21-.53,1.21-1.21,1.21-1.21-.53-1.21-1.21M13.24,45.75c0,1.21.98,2.19,2.19,2.19s2.19-.98,2.19-2.19h0c0-1.21-.98-2.19-2.19-2.19s-2.19.98-2.19,2.19h0Z"/>
            <path class="cls-3" d="M12.37,46.42c-.04-.23-.08-.45-.08-.68s0-.45.08-.68c-2.53-.6-5.09-3.66-5.09-6.75-2.9,2.04-2.11,6.3.79,7.43-2.9,1.13-3.7,5.39-.79,7.43,0-3.09,2.56-6.15,5.09-6.75Z"/>
            <path class="cls-3" d="M18.55,45.75c0,.3-.04.6-.11.91l2,.91,2.26-1.77-2.26-1.77-2,.91c.08.3.11.57.11.91v-.08Z"/>
            <path class="cls-3" d="M5.88,45.75c-.6-.57-1.06-1.32-1.32-2.11-1.62,0-3.28.72-4.56,2.11,1.28,1.4,2.94,2.11,4.56,2.11.26-.79.72-1.51,1.32-2.11Z"/>
            <path class="cls-3" d="M21.16,82.36c-3.02-.11-4.98-1.66-6.6-4.83-.34.19-.94.26-1.36.15,1.47,3.17,3.39,5.2,6.71,5.69,1.51.23,2.15,1.32,1.96,2.79,1.4-.75,1.58-1.92.91-2.56,2.75.3,5.05,1.09,5.69,2.41.87,1.85-.83,4.22-2.15,3.39-.79-.49-.64-1.55-1.58-1.81-1.24-.34-1.92,1.96-.15,3.21,1.32.94,3.32,1.06,4.9-.57,1.51-1.58,1.51-4.04-.11-5.62-.68-.68-1.85-1.24-3.39-1.62.68-.49.91-1.7.41-2.83-.53,1.17-2.87,2.26-5.2,2.19h-.04Z"/>
            <path class="cls-3" d="M16.22,16.03c-2.04-1.73-4.86-1.32-6.64.72-1.51,1.73-.79,3.58.45,3.47,2.56-.19,2.87-4.6,4.98-2.79,2.23,1.89,1.47,6.79-.83,9.96-1.47-2.9-1.51-5.77-.08-9.09-.15.19-.41.53-.6.75-.38.49-.79,1.09-1.36,1.58-.45,2.26-.26,4.41.6,6.49-.6-.34-1.4-.38-2.04.3,1.58.53,1.92,1.85,1.28,2.72-2.94,4-3.73,7.88-.83,10.41,1.17,1.02.53,2.11-.72,2.19,1.73,1.02,3.05.53,3.13-.91,1.92.53,4,0,5.36-1.58,1.4-1.62,1.21-4.11-.41-5.51-1.77-1.51-3.73-1.09-4.79.15-1.02,1.21-.72,2.75.64,2.72,1.96-.11,1.66-2.34,3.17-1.02.64.57.64,1.96-.19,2.9-1.24,1.43-3.51,1.7-5.24.23-2.45-2.11-1.81-5.17.83-8.86.87-1.21,3.36-2.41,4.86-1.13,0-1.58-.94-2.53-2.45-1.89,2.75-3.73,4.19-8.94.87-11.77v-.04Z"/>
            <path class="cls-3" d="M21.16,9.16c-3.02.11-4.98,1.66-6.6,4.83-.34-.19-.94-.26-1.36-.15,1.47-3.17,3.39-5.2,6.71-5.69,1.51-.23,2.15-1.32,1.96-2.79,1.4.75,1.58,1.92.91,2.56,2.75-.3,5.05-1.09,5.69-2.41.87-1.85-.83-4.22-2.15-3.39-.79.49-.64,1.55-1.58,1.81-1.24.34-1.92-1.96-.15-3.21,1.32-.94,3.32-1.06,4.9.57,1.51,1.55,1.51,4.04-.11,5.62-.68.68-1.85,1.24-3.39,1.62.68.49.91,1.7.41,2.83-.53-1.17-2.87-2.26-5.2-2.19h-.04Z"/>
          </g>
        </g>
      </g>
      <line class="cls-2" x1="31.65" y1="10.43" x2="168.33" y2="10.43"/>
      <line class="cls-1" x1="165.19" y1="3.78" x2="34.79" y2="3.78"/>
      <line class="cls-1" x1="165.19" y1="87.26" x2="34.79" y2="87.26"/>
      <line class="cls-2" x1="31.65" y1="81.29" x2="168.33" y2="81.29"/>
    </g>
  </g>
</svg>